<?xml version="1.0" encoding="UTF-8"?><svg id="Calque_2" xmlns="http://www.w3.org/2000/svg" viewBox="0 0 170.47 231.31"><defs><style>.cls-1{fill:#9d9d9d;}.cls-2{fill:#98afb8;}.cls-3{fill:#76756e;}.cls-4{fill:#b9c8cf;}.cls-5{fill:#d6dddf;}.cls-6{fill:#b8bdc0;}.cls-7{fill:#f4f4f4;}.cls-8{fill:#f4f4f5;}.cls-9{fill:#fff;}.cls-10{fill:#69482c;}.cls-11{fill:#c0ced4;}.cls-12{fill:#2d2015;}.cls-13{fill:#282e30;}.cls-14{fill:silver;}.cls-15{fill:#9da9ae;}.cls-16{fill:#d6dee1;}.cls-17{fill:#c2c7c7;}.cls-18{fill:#f5f5f5;}.cls-19{fill:#947459;}.cls-20{fill:#899fa8;}.cls-21{fill:#3e3e3e;}.cls-22{fill:#c9d2d5;}.cls-23{fill:#ab9989;}.cls-24{fill:#96a3a9;}.cls-25{fill:#7c5b40;}.cls-26{fill:#765c46;}.cls-27{fill:#beccd2;}.cls-28{fill:#778c95;}.cls-29{fill:#6c7474;}.cls-30{fill:#543a24;}.cls-31{fill:#cdd7db;}.cls-32{fill:#787d7b;}.cls-33{fill:#3e2b1a;}.cls-34{fill:#cad6da;}.cls-35{fill:#a4a4a4;}.cls-36{fill:#696969;}.cls-37{fill:#c1c5c7;}.cls-38{fill:#646763;}.cls-39{fill:#313131;}.cls-40{fill:#dbe1e4;}.cls-41{fill:#b09f90;}.cls-42{fill:#c1ced3;}.cls-43{fill:#c49484;}.cls-44{fill:#24190f;}.cls-45{fill:#c7d3d8;}.cls-46{fill:#818181;}.cls-47{fill:#9cb2bb;}.cls-48{fill:#b8987e;}.cls-49{fill:#2a2a2a;}.cls-50{fill:#626262;}.cls-51{fill:#cfd9dc;}.cls-52{fill:#493320;}.cls-53{fill:#d7dfe2;}.cls-54{fill:#b9bec0;}.cls-55{fill:#b7c7cd;}.cls-56{fill:#bcccd3;}.cls-57{fill:#cad5d9;}.cls-58{fill:#b9c8ce;}.cls-59{fill:#d1dade;}.cls-60{fill:#b5cdd6;}.cls-61{fill:#acbec5;}.cls-62{fill:#97adb5;}.cls-63{fill:#cad4d8;}.cls-64{fill:#c1afa0;}.cls-65{fill:#625a50;}.cls-66{fill:#aaa;}.cls-67{fill:#778b94;}.cls-68{fill:#d3d3d3;}.cls-69{fill:#97a5aa;}.cls-70{fill:#202020;}.cls-71{fill:#cdd7dc;}.cls-72{fill:#1b130c;}.cls-73{fill:#cbd5da;}.cls-74{fill:#8c8276;}.cls-75{fill:#b6bcbe;}.cls-76{fill:#6a492d;}.cls-77{fill:#69492d;}.cls-78{fill:#654c38;}.cls-79{fill:#8d6d52;}.cls-80{fill:#99a6ab;}.cls-81{fill:#95a3a8;}.cls-82{fill:#1b2022;}.cls-83{fill:#352517;}.cls-84{fill:#c6d2d7;}.cls-85{fill:#503923;}.cls-86{fill:#b7bdbf;}.cls-87{fill:#242627;}.cls-88{fill:#876b54;}.cls-89{fill:#392819;}.cls-90{fill:#c3d0d5;}.cls-91{fill:#768b94;}.cls-92{fill:#b8bdbf;}.cls-93{fill:#c9bcb2;}.cls-94{fill:#513a25;}.cls-95{fill:#63615b;}.cls-96{fill:#788c94;}.cls-97{fill:#a1acb1;}.cls-98{fill:#a4907f;}.cls-99{fill:#d5dfe2;}.cls-100{fill:#b09f92;}.cls-101{fill:#9cb3bc;}.cls-102{fill:#313334;}.cls-103{fill:#af9e8f;}.cls-104{fill:#bac9cf;}.cls-105{fill:#404040;}.cls-106{fill:#9e9e9e;}.cls-107{fill:#c6c6c6;}.cls-108{fill:#7e9299;}.cls-109{fill:#f2f3f3;}.cls-110{fill:#c3b3a6;}.cls-111{fill:#6a6a64;}.cls-112{fill:#d8dfe2;}.cls-113{fill:#806044;}.cls-114{fill:#684a2f;}.cls-115{fill:#333c40;}.cls-116{fill:#ced8dc;}</style></defs><g id="Calque_1-2"><g><path d="m36.16,12.07c6.11,1.29,11.72,3.36,15.39,8.96,1.21,1.85,2.5,2.77,5.26,1.13,5.79-3.45,12.29-5.52,19.1-5.88,1.83-.1,3.31-1.43,5.16-.93,2.98.94,6.14-.37,9.11.75,4.63.07,8.74,2.12,12.93,3.67,6.16,2.28,6.67,2.71,8.8-3.35,3.13-8.92,9.77-12.98,18.12-15.38,2.37-.6,4.74-.55,7.11-.03,7.02,2.36,13.73,5.32,19.35,10.3,3.72,3.3,5.9,7.66,7.42,12.22.48,1.45,1.31,2.95,1.33,4.59.51,1.68.49,3.36.02,5.04-2.18,6.66-4.23,13.37-8.18,19.3-2.38,3.57-5.19,6.66-9.24,8.22-3.62,1.4-5.89,3.13-3.8,7.41.4.81.12,1.96.15,2.95.62,2.4.62,4.8,0,7.2-1.64,12.4-7.69,22.36-17,30.82,9.56,2.81,15.17,10.95,22.24,17.11,6.41,5.59,12.37,11.68,19.52,16.38,1.81,1.19,2.22,2.52.16,4.06-3.89,2.92-7.44,6.52-12.96,5.64-2.32.95-4.87-.28-7.18.76-1.62.57-3-.57-5.39-1.38,1.74,4.45,3.17,7.93,4.46,11.47,4.7,12.93,7.94,26.38,14.24,38.73,1.92,3.76.7,5.42-4.16,6.41-2.35.56-4.71.55-7.06,0-2.62-.41-5.24-.82-7.86-1.24-2.07-.65-4.14-.67-6.2.01-3.25,2.03-6.42,4.19-9.76,6.03-2.35,1.29-2.31,3.8-2.87,5.66-1.32,4.36-3.5,7.84-7.18,10.44-2.39.69-4.78.69-7.17,0-5.44-2.47-8.78-7.36-12.54-11.58-1.85-2.08-2.85-2.81-5.49-1.96-2.13.69-4.56.47-6.85.66-2.02.48-4.04.54-6.06-.04-2.03-.59-4.19.47-6.26-.79-1.82-1.11-1.32.82-1.78,1.71-2.67,5.1-4.92,10.59-10.82,13.02-2.06.64-4.12.67-6.18-.02-5.76-.59-7.82-5.63-10.47-9.45-1.86-2.67-2.8-5.09-6.77-4.83-1.85.12-3.81-1.45-5.72-2.28-4.43-1.92-8.82-3.68-13.86-3.55-5.84.14-7.56-2.55-5.03-7.42,4.93-9.49,8.37-19.59,11.46-29.75,1.14-3.76,1.96-7.92,1.45-12.04-.11-.89.54-2.07-.73-2.58-1.27-.51-2.19.21-3.03,1.1-1.95,2.08-4.51,3.01-7.14,3.82-2.28,1.09-4.8-.13-7.1.76-2.38.25-3.76-1.41-5.42-2.67-2.7-2.05-1.62-4.37.01-5.88,9.65-8.88,17.74-19.07,25.31-29.69,3.29-4.62,7.18-8.27,12.36-10.61,2.07-.94,4.44-1.46.55-4.15-9.17-6.33-14.51-15.46-16.5-26.46-.07-.37.39-.83.6-1.25-.59-3.72-.6-7.44,0-11.16-.64-1.63-1.32-2.58-3.51-3.08-12.34-2.77-19.29-11.61-18.46-22.76-1.09-3.33.24-6.83-.75-10.16,1.48-12.51,12.24-22.43,25.74-24.01,3.06-.62,6.12-.63,9.17,0Z"/><path class="cls-46" d="m23.97,72.07c0,3.72,0,7.44,0,11.16-1.5-3.72-1.45-7.44,0-11.16Z"/><path class="cls-50" d="m1.25,36.08c1.81,3.27.39,6.78.75,10.16-1.89-3.27-.65-6.76-.75-10.16Z"/><path class="cls-49" d="m90.17,16.1c-3.03-.36-6.19.97-9.11-.75,3.04.18,6.21-1.21,9.11.75Z"/><path class="cls-36" d="m36.16,12.07c-3.06,0-6.12,0-9.17,0,3.06-1.44,6.12-1.52,9.17,0Z"/><path class="cls-35" d="m137.12,1.02c-2.37,0-4.74.02-7.11.03,2.36-1.33,4.73-1.46,7.11-.03Z"/><path class="cls-39" d="m109.98,229.17c2.39,0,4.78,0,7.17,0-2.39,1.67-4.78,1.33-7.17,0Z"/><path class="cls-50" d="m144.16,78.25c0-2.4,0-4.8,0-7.2,1.44,2.4,1.48,4.8,0,7.2Z"/><path class="cls-14" d="m151.03,208.25c2.35,0,4.71,0,7.06,0-2.35,1.41-4.71,1.36-7.06,0Z"/><path class="cls-70" d="m7.07,163.93c2.24-1.48,4.73-.55,7.1-.76-2.21,1.71-4.7.87-7.1.76Z"/><path class="cls-1" d="m148.95,153.02c2.24-1.7,4.77-.66,7.18-.76-2.24,1.67-4.77.62-7.18.76Z"/><path class="cls-106" d="m136.97,207.03c2.07-1.35,4.13-1.53,6.2-.01-2.07,0-4.14,0-6.2.01Z"/><path class="cls-107" d="m79.04,216.24c2.02.01,4.04.03,6.06.04-2.03,1.43-4.05,1.18-6.06-.04Z"/><path class="cls-21" d="m54,230.16c2.06,0,4.12.02,6.18.02-2.07,1.66-4.12,1.33-6.18-.02Z"/><path class="cls-68" d="m165.23,33.18c0-1.68-.01-3.36-.02-5.04,1.23,1.68,1.31,3.36.02,5.04Z"/><path class="cls-76" d="m85.05,19.3c7.76.24,14.83,3.07,21.92,5.83,5.02,1.95,5.46,1.7,7.33-3.41,2.98-8.14,7.46-14.84,16.74-16.69,2.01-.53,4.02-.56,6.03.02,7.1,2.4,14.06,5.21,18.78,11.36,4.22,5.5,6.97,11.58,4.12,18.76-2.06,7.49-6.86,12.84-13.8,15.85-3.95,1.71-6.36,3.72-6.08,8.18v-.02c-.97,1.63-.67,3.3-.18,4.98.09,1.97.17,3.95.26,5.92.55,3.05.62,6.1-.04,9.15-2.4,10.82-6.36,20.71-16.42,26.84-.82.5-1.8.72-2.71,1.07-2.5,3.06-6.17,2.69-9.53,3.33-13.24,2.51-26.52,4.5-40.06,4.15-3.49-.09-6.97-.22-10.41-.75-.54.08-1.08.08-1.61.02-1.54-.28-3.08-.57-4.61-.92-2.95-.74-6.21-.54-8.65-2.85-6.67-4.51-12.5-9.72-15.81-17.38-1.21-2.8-1.23-5.8-2.34-8.55-.71-5.35-.58-10.71-.05-16.07.32-1.16-.44-1.98-.93-2.88-.07-3.89-1.68-5.99-5.85-6.88-7.73-1.66-13.31-6.22-15.57-14.17.2-3.02-.42-6.07.38-9.06.79-6.95,5.17-11.49,10.58-15.1,3.1-2.07,6.57-3.7,10.45-3.96,3.38-.58,6.75-.64,10.12.03,5.93,1.11,10.33,4.27,12.99,9.72,1.43,2.94,3.06,3.74,6.09,1.63,6.81-4.73,14.36-7.52,22.81-7.31,1.9-1.1,4.12.16,6.04-.83Z"/><path class="cls-76" d="m127.09,113.23c2.97.36,5.24,2.13,7.33,3.99,9.71,8.58,18.52,18.16,28.98,25.89,1.85,1.37,1.26,2.31-.25,3.35-1.85,1.27-3.87,1.84-6.09,1.79-2.09.75-4.24.21-6.36.35-12.2-4.15-23.78-19.05-24.64-31.71-.09-1.35-.06-2.65,1.03-3.66Z"/><path class="cls-76" d="m24.07,153.06c-3.72,1.15-5.93,4.67-9.6,6.01-3.25,1.19-6.32,1.76-9.66-.18,10.25-10.64,19.62-21.87,28.3-33.7,2.45-3.34,5.72-5.95,9.87-7.15,2.53-.1,2.03,1.83,1.76,3.08-2.87,13.23-9.44,24.11-20.67,31.95Z"/><path class="cls-101" d="m45.95,116.98c.41-.93.82-1.85,1.23-2.78.78-.71,1.54-.6,2.29.06,2.74,7.19,2.66,14.87,3.97,22.31-.02,1.87-.08,3.75.55,5.56.29,1.31.41,2.65.43,3.99-.05,2.15-.06,4.29.65,6.36.39,1.96.45,3.95.42,5.94-.07,2.38-.02,4.76-.01,7.14-.41,9.96.83,19.95-.7,29.88-2.43,2.8-4.96,1.59-7.5.2-.46-.4-.8-.89-1.04-1.45-.73-2.28-.54-4.59-.15-6.9.83-2.42.65-4.93.56-7.43,0-2.3-.02-4.59.42-6.86,1.06-6.85.92-13.71.06-20.56-1.31-7.65-1.94-15.42-3.85-22.97-.67-2.29.8-4.25.95-6.42,1.11-1.88.42-4.26,1.71-6.09Z"/><path class="cls-85" d="m60.02,113.23c2.46-2.28,5.01,0,7.46.06,15.07.4,29.87-1.62,44.62-4.29,2.99-.54,6.1-.52,8.92-1.88-.33,1.01-.65,2.01-.98,3.02-.85.91-1.99,1.12-3.14,1.31-.65.13-1.3.31-1.95.47-2,.48-4.51.2-4.85,3.21-.24.74-.59,1.4-1.1,1.98-10.75,7.24-22.81,7.07-34.93,5.88-4.39-.43-8.89-1.22-12.68-3.93-1.32-1.15-1.53-2.76-1.8-4.36-.04-.54.1-1.03.42-1.47Z"/><path class="cls-18" d="m120.23,111.05c.27.03.52.11.76.25,3.11,6.2,3.38,13.11,4.96,19.69,4.17,17.33,6.93,34.89,8.53,52.64-.11,1.67,0,3.38-.64,4.99-.93,1.62-2.37,2.23-4.18,2.07-.54-.16-.95-.49-1.22-.99-.67-1.51-.6-3.12-.67-4.71.08-1.86-.17-3.67-.75-5.45-3.32-20.67-6.21-41.41-11.24-61.77-.43-1.74-.79-3.59-.14-5.41,1.28-1.35,2.75-2.02,4.61-1.3Z"/><path class="cls-101" d="m133.17,184.07c-1.79-17.83-4.69-35.46-8.53-52.97-1.43-6.54-3.38-13.04-3.66-19.81.99.31,1.99.62,2.98.93.36.31.54.7.55,1.17-.29,1.82-.18,3.6.58,5.32,1.5,7.63,4.93,14.65,6.95,22.12,1.62,11.33,4.76,22.29,8.06,33.21.72,2.37,1.5,4.72,2.1,7.13.22,1.01.45,2.03.1,3.06-2.47,2-4.5,4.92-8.35,4.12-.84-1.32.09-2.97-.79-4.28Z"/><path class="cls-91" d="m132.22,205.27c-2.35,2.25-5.25,3.6-8.15,4.95-.64.41-1.33.57-2.09.49-1.23-.28-2.42-.64-3.34-1.59-.29-.43-.49-.9-.62-1.41-.33-2.05-.28-4.16-.98-6.16-.39-2.76-.73-5.52.48-8.18,3.29-3.01,7.19-3.91,11.52-3.25l.05-.05c3.18,4.62,2.86,9.96,3.11,15.18Z"/><path class="cls-91" d="m16.22,204.81c3.26-8.27,6.52-16.53,9.78-24.8,2.26,2.55,3.24,5.83,4.97,8.69.28,6.42-.51,12.62-3.84,18.27-2.15.73-3.88-1.27-5.97-.9-1.43-1.27-3.64.54-4.93-1.27Z"/><path class="cls-91" d="m134.21,188.24c3-.62,4.73-3.68,7.84-4.09,3.95,6.07,7.25,12.41,8.09,19.76-1.88.9-3.3-.78-5-.88-2.73-.7-5.47-.58-8.21-.09l-.47.05-.47-.07c-3.19-3.98-3.31-8.57-2.67-13.31.16-.54.46-1,.89-1.37Z"/><path class="cls-85" d="m123.92,113.08c.08-.28.1-.57.05-.86,1.04.34,2.08.67,3.12,1.01,1.01,14.46,8.1,25.21,20.12,32.96.97.62,1.93,1.25,2.89,1.88-.97.82-2,.67-3.04.16-2.63-.58-5.25-2.12-7.9-.09-.2-.09-.4-.18-.6-.27-1.94-1.66-3.19-4.11-5.74-5.09-.83-.33-1.49-.83-1.66-1.78-2.32-6.6-5.53-12.9-6.69-19.89-.16-.97-.34-1.93-.51-2.9-.6-1.7-.54-3.4-.04-5.11Z"/><path class="cls-91" d="m42.98,212.26c-4.87.35-9.01-1.69-13.07-4,1.68-5.51,2.24-11.25,3.59-16.84.32-.47.76-.77,1.32-.91,2.88.03,5.51.78,7.75,2.68.32.5.54,1.04.67,1.61-.13,5.82,1.62,11.66-.27,17.45Z"/><path class="cls-85" d="m45.18,123.2c.2,2.1-1.7,3.88-.9,6.06-.15,3.2-.2,6.42-1.33,9.49-1.39,3.25-2.54,6.64-4.91,9.39-1.33,1.49-2.81,2.83-4.2,4.26-.46.47-.94.91-1.45,1.32-.73.46-1.43,1.08-2.36.44-1.81-1.31-3.94-.93-5.96-1.1,3.25-3.72,6.46-7.48,9.76-11.16,5.71-6.36,8.17-14.18,10.05-22.25.1-.45-.58-1.08-.9-1.62.56-.73,1.33-.86,2.18-.78.64,1.98.6,3.97.02,5.96Z"/><path class="cls-85" d="m6.17,45.09c4.22,7.64,10.75,11.67,19.31,13.16,5.01.87,2.17,4.37,1.54,6.97-13.71-.7-19.79-6.2-21.02-19-.36-.44-.28-.81.17-1.13Z"/><path class="cls-91" d="m79.05,212.25c-1.26-.65-2.97.55-4.01-.98-3.58-4.78-3.42-10.35-3.35-15.9.57-6.71,1.79-7.25,8.43-3.69.41.43.71.93.91,1.49.91,3.63-.21,7.45,1.05,11.05.37,2.63.81,5.26-.58,7.76-.74.75-1.57.7-2.44.28Z"/><path class="cls-91" d="m71.09,211c-.33.1-.66.21-1,.31-3.76,1.42-7.56,2.14-11.47.54-1.64-4.91-1.65-9.81.04-14.71,2.81-2.04,5.8-1.7,8.84-.66,3.12,4.36,3.55,9.39,3.58,14.53Z"/><path class="cls-85" d="m140.1,59.18c-1.96-5.66-1.93-6.18,3.24-8.09,7.93-2.93,12.69-8.97,16.64-15.94-1.14,10.93-9.78,23.76-19.88,24.03Z"/><path class="cls-77" d="m121.11,216.12c-3.67,12.1-7.01,12.97-15.52,4.01-.9-.95-1.68-2-2.52-3.01.27-2.69,2.58-2.72,4.38-3.11,4.78-1.03,9.51-1.19,13.66,2.11Z"/><path class="cls-67" d="m100.01,212.18c-1.04-2.11-2.98-2.15-4.94-2.16.11-1.95,2.32-3.24,1.7-5.42.08-1.76-.26-3.46-.74-5.14-.43-3.32-.7-6.63.23-9.92,1.19-2.1,2.9-3.26,5.41-2.9,2.86,1.87-.06,5.36,2.08,7.44.26.45.46.92.62,1.4,1.44,4.33,1.01,8.87,1.48,13.31-1.01,2.75-3.32,3.25-5.85,3.38Z"/><path class="cls-85" d="m58.98,211.94c3.64-1.3,7.38-.98,11.12-.64-2.08,1.83-2,4.88-3.83,6.86-5.23,1.99-10.91,2.11-16.18,3.94-1.94-1.92-3.39-4.15-4.16-6.78,1.11-1.72,3.12-1.28,4.68-1.95,1.16-.33,2.33-.65,3.47-1.05,1.61-.37,3.18-1.38,4.9-.37Z"/><path class="cls-91" d="m94.08,210.04c-2.69.77-5.38,1.54-8.06,2.32-.18-.19-.36-.39-.54-.58-.63-1.22-.66-2.54-.71-3.86.08-1.88-.24-3.7-.76-5.5-.19-3.37-1.33-6.88,1.42-9.83,2.13-1.04,4.29-1.92,6.68-.79.87.85,1.11,1.95,1.24,3.1.14,2.4-.18,4.84.63,7.19.36,2.65.9,5.29.1,7.96Z"/><path class="cls-85" d="m100.01,212.18c1.09-2.03,3.81-1.33,5.07-3.05.86-.77,1.85-1.19,3-1.28,1.9-.09,3.81-.06,5.72-.04,1.08.02,2.15.15,3.18.5,1.45,1.35,3.38,1.19,5.12,1.66.66.08,1.31.17,1.97.25-.99,1.97-1.98,3.93-2.97,5.9-6.09-1.07-12.22-2.9-18.04,1-1.87-1.12-2.69-2.89-3.06-4.94Z"/><path class="cls-92" d="m150.14,203.9c-2.7-6.59-5.4-13.17-8.09-19.76-.32-.69-.63-1.38-.95-2.07,1.44-1.05,1.81-3.69,4.43-3,4.22,7.57,7.05,15.78,10.79,23.58.29.61.03,1.28-.44,1.8-1.29.18-2.58.32-3.85-.15-.63-.14-1.26-.27-1.89-.41Z"/><path class="cls-101" d="m30.03,154.16c.68-.36,1.35-.71,2.03-1.07,2.88,5.6.75,11.61,1.42,17.39,0,1.76-.03,3.52-.02,5.27-.11,3.34-.91,6.59-1.47,9.87-.36,1.09-.9,2.04-1.97,2.59-2.57-2.13-3.71-4.96-4.02-8.2,1.04-5.27,2.08-10.54,3.12-15.81,1.05-1.58-.02-3.48.78-5.09.04-1.65.09-3.3.13-4.95Z"/><path class="cls-91" d="m155.98,203.95c-4.4-7.96-7.89-16.32-10.97-24.86-1.06-.46-1.43-1.27-1.22-2.39,1.33-2.03.43-4.85,2.35-6.68,3.73,10.96,7.07,22.08,12.17,32.52.81,1.65-.29,1.53-1.19,1.78-.53.34-.91.21-1.14-.37Z"/><path class="cls-10" d="m50.09,222.1c4.69-4.19,10.43-4.06,16.18-3.94-.71,1.29-1.31,2.65-2.16,3.85-4.71,6.67-8.81,6.67-14.02.09Z"/><path class="cls-86" d="m92.14,195.1c-.06-.97-.12-1.94-.18-2.91-.8-3.26,1.5-3.5,3.72-3.81.56.1,1.02.35,1.41.77.02,3.65.04,7.29.05,10.94,1.01,1.57-.18,3.51.86,5.07.74,2.65-.81,3.93-2.92,4.87-.33,0-.66,0-.99.01-1.55-2.46-.81-5.24-1.07-7.88-1.13-2.25.3-4.82-.88-7.06Z"/><path class="cls-86" d="m30.02,188.21c.31-.7.63-1.4.94-2.1,1.44,1.48,2.4,3.25,3.18,5.14.39,5.23-1.54,10.12-2.19,15.2-.15,1.2-1.01,1.61-2.05,1.82-1.16.07-1.97-.61-2.78-1.29.55-6.32,3.3-12.3,2.9-18.77Z"/><path class="cls-92" d="m42.98,212.26c-1.05-6.09-1.27-12.21-.58-18.36,1.57-1.16,3.1-.99,4.61.13.04.38.08.77.11,1.15.04.25.08.49.13.74.46,3.71-.47,7.52.76,11.18.47,2.48,2.17,5.1-.74,7.23-.78.31-1.54.35-2.3-.07-.67-.66-1.33-1.33-2-1.99Z"/><path class="cls-47" d="m146.13,170.02c-.45,2.44.94,5.37-1.89,7.18-4.28-9.43-7.69-19.09-7.74-29.62,1.22-1.4,1.85-.4,2.47.62,0,0,.19-.07.19-.07-.53,3.62,1.55,6.49,2.73,9.64,1.51,4.05,2.84,8.17,4.25,12.26Z"/><path class="cls-6" d="m71.09,211c-2.11-4.35-2.67-9.06-3.19-13.78.09-.2.17-.4.26-.6,1.01-1.17,2.03-2.34,3.81-2.16.43.14.77.39,1.04.75-.59,5.52,1.24,10.73,2.04,16.07-1.32-.09-2.64-.18-3.96-.27Z"/><path class="cls-86" d="m133.94,189.08l2.05,13.85c-1.73.02-2.51,1.57-3.77,2.35-2.44-4.77-2.06-10.12-3.11-15.18,1.3-.34,2.6-.68,3.9-1.02.32-.43.63-.43.94,0Z"/><path class="cls-94" d="m49.14,114.29c-.65-.03-1.31-.06-1.96-.08-.35-1.37-.69-2.73-1.04-4.1,2.95.8,6.14.48,8.92,2.01-.83,1.17-2.03,1.88-3.22,2.6-.97.32-1.88.23-2.71-.42Z"/><path class="cls-12" d="m27.94,68.11c.02,5.36.04,10.71.05,16.07-1.56-5.35-1.39-10.71-.05-16.07Z"/><path class="cls-83" d="m6.17,45.09c-.06.38-.11.75-.17,1.13-1.51-3.7-1.48-7.41-.02-11.12.06,3.33.13,6.66.19,9.99Z"/><path class="cls-72" d="m147.06,148.22c1.01-.05,2.03-.1,3.04-.15,2.32.06,4.64.12,6.96.19-3.34,1.4-6.67,1.39-10-.03Z"/><path class="cls-89" d="m37.13,16.07c-3.37-.01-6.75-.02-10.12-.03,3.38-1.39,6.75-1.43,10.12.03Z"/><path class="cls-33" d="m140.15,79.21c.01-3.05.02-6.1.03-9.15,1.39,3.06,1.45,6.11-.03,9.15Z"/><path class="cls-115" d="m136.93,202.93c2.75-1.31,5.49-1.32,8.21.09-2.74-.03-5.47-.06-8.21-.09Z"/><path class="cls-87" d="m79.05,212.25l2.12-.34c1.63-1.22,3.27-1.1,4.9,0l-.06.44c-2.34,1.23-4.66,1.21-6.97-.1Z"/><path class="cls-29" d="m45.18,123.2c0-1.99-.01-3.97-.02-5.96.25-.12.51-.21.79-.26.03,2.11.78,4.3-.76,6.22Z"/><path class="cls-37" d="m120.23,111.05l-4.06,1.22c-.75-.61-.65-1.25-.07-1.9,1.31-.08,2.62-.15,3.94-.23.1.3.16.6.19.91Z"/><path class="cls-44" d="m137.08,5.04c-2.01,0-4.02-.01-6.03-.02,2.02-1.31,4.03-1.33,6.03.02Z"/><path class="cls-30" d="m85.05,19.3c-1.84,1.56-4.01.63-6.04.83,1.83-1.63,3.99-.8,6.04-.83Z"/><path class="cls-38" d="m44.97,214.25c.66-.08,1.32-.17,1.99-.25,1.42-.63,2.84-1.2,4.18.18-1.48,1.55-3.49.66-5.21,1.13-.32-.35-.64-.71-.95-1.06Z"/><path class="cls-85" d="m139.92,64.14c-1.22-1.7-1.47-3.37.18-4.98-.06,1.66-.12,3.32-.18,4.98Z"/><path class="cls-82" d="m16.22,204.81c1.59.64,3.59-.33,4.93,1.27-1.69-.26-3.75.95-4.93-1.27Z"/><path class="cls-102" d="m155.98,203.95c.38.12.76.25,1.14.37-1.69,1.2-3.39,1.22-5.07-.01,1.31-.12,2.63-.24,3.94-.36Z"/><path class="cls-13" d="m29.9,159.11c.16,1.76.7,3.58-.78,5.09.01-1.73-.51-3.55.78-5.09Z"/><path class="cls-48" d="m103.2,89.22c-2.13,8.38-7.85,12.64-16.09,14.02-3.36.64-6.72.58-10.09.03-7.26-.67-12.15-4.56-15.05-11.13-.58-1.67-.61-3.34.02-5.01.36-1.36.72-2.72,1.08-4.08,3.29-3.99,7.03-7.54,10.88-10.99,2.6,1.24,4.72-.85,7.12-1.02,2.32-.65,4.65-.54,6.98-.06.99.03,1.97.05,2.96.08.88.43,1.34,1.23,1.81,2.03,1.49,3.48,3.9,6.01,7.53,7.28,1.03.49,2.2.78,2.84,1.85-.06.29-.09.58-.07.87.71,2.03.59,4.07.07,6.12Z"/><path class="cls-43" d="m150.03,28.73c-.84,6.55-3.56,11.73-8.8,15.27-2.78,1.87-5.35,2.13-7.24-1.76-2.2-4.53-5.8-8.08-9.88-11.01-1.58-1.13-2.24-2.32-1.86-4.17,1.78-8.81,14.02-14.31,21.76-9.98,4.86,2.72,4.57,7.7,6.04,11.65Z"/><path class="cls-43" d="m16.08,40.4c0-7.25,2.58-12.02,7.1-13.68,5.85-2.16,13.4-.17,17.39,4.38,1.62,1.84,1.79,3.22.02,5.11-3.19,3.39-5.9,7.18-7.53,11.59-2.19,5.91-6.58,7.18-11.64,3.11-3.5-2.81-6.21-6.12-5.34-10.51Z"/><path class="cls-9" d="m73.96,72.07c-2.3,4.98-6.14,8.43-10.88,10.99-.63.07-1.26.14-1.89.21-2.32.94-4.85-.22-7.17.73-11.41-5.1-14.18-18.25-5.57-25.81,2.85-2.5,6.58-1.53,9.55-3.19,1.72-.55,3.44-.43,5.17-.08,5.34,1.58,9.14,4.84,11.09,10.13.45,1.73.43,3.47.01,5.2-.11.61-.21,1.21-.32,1.82Z"/><path class="cls-9" d="m100.07,81.25c-4.48-.93-6.83-4.03-8.24-8.09-.69-2.32.26-4.78-.6-7.08,1.83-6.24,4.6-11.64,11.8-13.01,2.69-.65,5.39-.59,8.09-.04,4.99,2.65,9.44,5.76,10.09,12.04.51,1.72.54,3.44-.02,5.16-2.67,6.23-7.14,10.18-14.04,11.03-2.36.6-4.72.59-7.08,0Z"/><path class="cls-28" d="m60.02,113.23c.04.28.09.55.14.83.37.57.29,1.07-.22,1.52-1.93,1.07-3.93,1.01-5.96.34-.82-.44-1.44-1.02-1.29-2.07,1.9-2.07,4.2-1.13,6.41-.83.31.08.62.15.93.22Z"/><path class="cls-79" d="m77.02,103.28c3.36-.01,6.73-.02,10.09-.03-3.36,1.41-6.72,1.4-10.09.03Z"/><path class="cls-65" d="m59.09,113.01c-1.98.57-4.36-.81-6.03,1.23-.4.22-.73.15-1-.22.18-1.93,1.62-1.89,3.01-1.91,1.37.17,2.91-.41,4.02.9Z"/><path class="cls-98" d="m111.12,53.02c-2.7.01-5.39.03-8.09.04,2.69-1.34,5.39-1.55,8.09-.04Z"/><path class="cls-110" d="m91.23,66.07c1.67,2.24.61,4.7.6,7.08-.27-.69-.54-1.39-.82-2.08.07-1.67.14-3.33.22-5Z"/><path class="cls-25" d="m88.06,71c-2.33.02-4.65.04-6.98.06,2.32-1.39,4.64-1.35,6.98-.06Z"/><path class="cls-64" d="m100.07,81.25c2.36,0,4.72,0,7.08,0-1.05,1.41-2.63.67-3.96.98-1.11-.11-2.32.11-3.13-.98Z"/><path class="cls-93" d="m54.02,84c2.26-1.52,4.77-.62,7.17-.73-2.25,1.61-4.75.77-7.17.73Z"/><path class="cls-19" d="m103.2,89.22c-.02-2.04-.05-4.08-.07-6.12,1.46,2.02,1.39,4.06.07,6.12Z"/><path class="cls-23" d="m63.17,54.92c-1.72.03-3.45.05-5.17.08,1.7-1.28,3.43-1.3,5.17-.08Z"/><path class="cls-103" d="m74.28,70.25c0-1.73,0-3.47-.01-5.2,1.22,1.73,1.27,3.46.01,5.2Z"/><path class="cls-41" d="m121.2,70.22c0-1.72.01-3.44.02-5.16,1.41,1.72,1.16,3.44-.02,5.16Z"/><path class="cls-113" d="m62,87.14c0,1.67-.01,3.34-.02,5.01-1.35-1.68-1.35-3.34.02-5.01Z"/><path class="cls-18" d="m52.06,114.02c.33.07.67.15,1,.22.31.32.62.64.92.97,3.18,4.39,2.42,9.71,3.33,14.61.53,2.86.71,5.83,1.08,8.74.05,1.93-.02,3.87.65,5.74.4,1.92.43,3.87.44,5.82-.12,2.52-.15,5.04.66,7.48.5,2.96.46,5.94.38,8.92-.13,8.74.02,17.47-.07,26.21-.01,1.33-.3,2.56-1.22,3.58-1.53.88-3.03,1.09-4.43-.25-.5-10.01-.08-20.02-.22-30.03-.2-2.62.44-5.29-.39-7.89-.07-1.98-.13-3.96-.2-5.94-1.03-1.93.22-4.16-.82-6.09-.06-1.31-.13-2.63-.19-3.94-.97-1.58.2-3.51-.85-5.08-1-7.6-2-15.19-3-22.79.97-.09,1.94-.18,2.91-.27Z"/><path class="cls-18" d="m47.01,194.02c-1.54-.04-3.07-.08-4.61-.13-.1-.26-.22-.51-.35-.76-.33-.42-.5-.89-.5-1.42.29-2.3.24-4.61.17-6.93,0-1.89.02-3.78.41-5.65.75-2.16.56-4.4.56-6.63-.29-7.37.63-14.77-.6-22.11-.32-3.77-1.53-7.54-.06-11.32.26-3.39.73-6.73,2.25-9.83,2.61,7.4,3.04,15.16,3.9,22.86.64,7.01.62,14.01,0,21.02-.07,2.31-.14,4.63-.21,6.94-1.08,2.27.23,4.82-.81,7.09-.05,2.28-.11,4.56-.16,6.85Z"/><path class="cls-91" d="m51.14,214.18c-1.39-.06-2.78-.12-4.18-.18,2.09-2.27-.14-4.58.06-6.87-.63-4-.83-7.99.11-11.97,0,0,0,.01,0,.01,2.3.33,4.6.67,6.9,1,.19.24.39.48.59.72,1.28,5.45,1.97,10.88-.52,16.21-.67,1.22-1.91.87-2.95,1.08Z"/><path class="cls-27" d="m55.02,165.18c.05,10.3.09,20.59.14,30.89-.34.39-.71.39-1.1.07,0,0-.04.03-.04.03.04-10.36.08-20.73.12-31.09.34-.4.64-.39.88.1Z"/><path class="cls-104" d="m48.19,173.14c0-7.01,0-14.01,0-21.02,1.46,7.01,1.46,14.01,0,21.02Z"/><path class="cls-57" d="m47.17,187.18c.1-2.38-.82-4.88.81-7.09-.09,2.38.81,4.88-.81,7.09Z"/><path class="cls-40" d="m55.02,165.18c-.29-.03-.59-.06-.88-.1.02-2.32.04-4.64.05-6.95,1.66,2.19.61,4.69.83,7.05Z"/><path class="cls-71" d="m53.18,146.1c1.55,1.86.73,4.03.82,6.09-1.54-1.86-.78-4.03-.82-6.09Z"/><path class="cls-27" d="m52.14,137.08c1.42,1.5.83,3.34.85,5.08-1.47-1.49-.8-3.35-.85-5.08Z"/><path class="cls-76" d="m61.19,118.09c16.2,5.92,32.17,6.17,47.8-1.97,1.19.93,1.25,2.25,1.25,3.59-.11,2.07-1.1,3.86-1.8,5.75-1.53,4.05-3.62,7.77-6.54,10.99-1.17,1.15-2.32,2.33-3.55,3.43-1.75,1.34-3.69,2.33-5.74,3.12-.99.3-2,.41-3.03.45-2.62.04-5.23.04-7.84,0-1.02-.02-2.03-.13-3.02-.43-.69-.22-1.33-.57-1.95-.94-2.36-1.32-5.09-2.04-6.99-4.14-.51-.46-.99-.94-1.47-1.43-1.61-1.69-3.36-3.25-4.54-5.31-1.89-3.23-4.34-6.25-3.9-10.37.12-1.07.33-2.08,1.31-2.74Z"/><path class="cls-101" d="m116.11,110.36c.02.63.04,1.27.06,1.9,4.88,22.46,9.4,44.99,12.01,67.85.9,1.59-.22,3.51.81,5.08.02,1.65.04,3.3.05,4.94l-10.82,3.05c-.22-.2-.45-.39-.68-.58-1.6-3.7-.55-7.6-.88-11.39-.14-3.72.48-7.49-.64-11.15-.54-2.87-.4-5.76-.43-8.65.09-2.79.36-5.6-.53-8.33-1.39-12.37-3.55-24.65-5.11-36.99-.14-.51-.23-1.03-.29-1.55.62-2.93,3.48-2.45,5.34-3.5l1.09-.67Z"/><path class="cls-108" d="m115.02,111.03c-1.64,1.05-3.29,2.09-4.93,3.14-.26.43-.52.45-.78,0,.09-4.35,3.58-2.52,5.72-3.14Z"/><path class="cls-3" d="m61.19,118.09c-.08,1.04-.15,2.08-.23,3.12-3.02-1.53-2.28-3.69-.99-5.94.06-.4.13-.81.19-1.21,1.43,1.07.66,2.7,1.03,4.03Z"/><path class="cls-100" d="m109.3,114.18c.26,0,.52,0,.78,0,.05.42.1.83.15,1.25-.06,1.66,1.59,3.7-1.06,4.78-.06-1.36-.13-2.73-.19-4.09.11-.65.21-1.29.32-1.94Z"/><path class="cls-63" d="m133.94,189.08l-.47.02s-.47-.02-.47-.02c.06-1.67.11-3.33.17-5,1.29,1.15.74,2.77,1.04,4.17-.08.28-.17.56-.27.84Z"/><path class="cls-16" d="m129,185.19c-1.4-1.51-.84-3.34-.81-5.08,1.44,1.51.76,3.35.81,5.08Z"/><path class="cls-7" d="m136.96,147.35c1.02,8.63,4.1,16.74,6.23,25.09.4,1.58.7,3.18,1.05,4.76.26.63.51,1.25.77,1.88-1.38.9-1.59,3.32-3.91,2.99-3.62-12.06-7.27-24.12-9.64-36.5-.28-1.47-1.53-2.99-.3-4.59.62.42,1.24.83,1.87,1.25,1.5,1.56,3.6,2.67,3.93,5.13Z"/><path class="cls-32" d="m123.92,113.08c.01,1.7.03,3.4.04,5.11-1.31-1.69-1.36-3.39-.04-5.11Z"/><path class="cls-54" d="m117.05,209.22c-.92-.1-1.83-.19-2.75-.29-.45-.26-.79-.63-1.02-1.1-.46-1.2-.46-2.46-.49-3.72-.02-2.64.17-5.29-.19-7.93-.09-.48-.11-.95-.06-1.43.13-.47.38-.87.76-1.17,1.03-.62,2.16-.96,3.36-1.05.48.04.89.23,1.26.54,0,0,.31.12.31.12-.04,2.97-.07,5.94-.11,8.9,1.1,1.91-.24,4.16.87,6.06-.01.27-.03.55-.06.82-.54.78-1.19.67-1.89.25Z"/><path class="cls-69" d="m118.99,208.16c-1.63-1.83-.71-4.02-.87-6.06,1.64,1.83.73,4.02.87,6.06Z"/><path class="cls-111" d="m117.05,209.22c.63-.08,1.26-.16,1.89-.25,1.1.2,2.33-.02,3.17,1-1.73.07-3.54.65-5.06-.75Z"/><path class="cls-114" d="m136.96,147.35c-1.48-1.58-3.78-2.53-3.93-5.13,3.45.53,5.15,2.8,5.94,5.97-.67-.28-1.34-.56-2.01-.85Z"/><path class="cls-101" d="m42.17,192.17c0,.33-.05.65-.12.97-2.54-.06-4.81-1.07-7.07-2.09-2.32-3.11-.44-6.39-.36-9.59.08-3.15.84-6.21,1.4-9.3,1.64-7.7-.05-15.55.98-23.27.03-.29.06-.58.08-.86,1.65-2.98,3.29-5.96,4.94-8.94.15,3.68,1.54,7.22,1.13,10.96.89,7.53.16,15.09.4,22.63-.17,2.15.39,4.35-.38,6.46-.07,1.98-.14,3.96-.2,5.94-1.08,2.27.23,4.82-.8,7.09Z"/><path class="cls-18" d="m37.16,172.17c-.73,6.29-1.45,12.59-2.18,18.88-.28.06-.56.13-.83.19-2.34-.92-3.48-2.59-3.18-5.14.41-3.31.81-6.63,1.22-9.94.81-1.94.22-3.98.4-5.97.24-6.04-.5-12.1.41-18.12,1.06-1.65,2.39-3.04,4.09-4.04,0,0-.13.37-.13.37,1.13,7.92.72,15.84.2,23.77Z"/><path class="cls-61" d="m33,152.07c0,6.33-.01,12.66-.02,18.99-.24.49-.53.53-.88.11-.02-6.03-.03-12.06-.05-18.09.32-.34.63-.68.95-1.01Z"/><path class="cls-20" d="m73.01,195.2c-.35-.03-.69-.06-1.04-.09-.29-.38-.54-.79-.75-1.22-.43-1.36-.32-2.8-.57-4.19-.41-2.08-2.4-3.39-2.68-5.53-.25-1.9-.89-3.71-1.25-5.59-.22-1-.39-2-.05-3.01,1.75-2.27,3.76-1.36,5.69-.38,1.61.82,3.25,1.53,5,2.01,3.84.92,7.68.89,11.51-.02,3.21-.84,6.31-1.95,9.21-3.61,1.58-.91,3.36-1.93,5.03-.43,1.51,1.36,1.39,3.36.88,5.12-1.32,4.59-3.74,8.44-8.05,10.85-1.85.36-3.62.82-3.99,3.08-1.99.3-3.99.6-5.98.9-2.04-.16-4.28.88-6.06-.96-.65-.05-1.34.02-1.94-.17-4.74-1.54-4.74-1.55-4.96,3.25Z"/><path class="cls-54" d="m79.91,192.13c2.03.23,4.27-.83,6.06.96-1.84,3.21-.5,6.67-.82,10.01.98,1.57-.19,3.51.84,5.07.03,1.25.06,2.5.09,3.75-1.63,0-3.27,0-4.9,0-.06-2.58-.12-5.16-.17-7.74-1.2-3.61.42-7.45-.91-11.06-.06-.33-.12-.66-.18-.99Z"/><path class="cls-15" d="m80.09,193.12c1.99,3.55.57,7.37.91,11.05-1.93-3.55-.5-7.38-.91-11.05Z"/><path class="cls-101" d="m67.08,176.14c.3.71.6,1.42.9,2.13-.46,4.66.36,9.23,1.04,13.81.37,1.73.29,3.4-.74,4.92,0,0-.38.21-.38.21-2.93-.02-5.87-.04-8.8-.07-.28-.23-.39-.48-.32-.74.07-.27.15-.4.23-.4.06-.96.13-1.92.19-2.88.64-9,.66-18,0-27-.07-2.99-.15-5.97-.22-8.96-1.02-2.28.31-4.82-.82-7.09-.05-1.96-.11-3.92-.16-5.88-.96-1.59.18-3.51-.83-5.09-1.06-7.97-2.12-15.93-3.18-23.9,2,.02,3.99.04,5.99.05.39,1.97-.55,4.16.99,5.94-.58,4.08,2.88,6.54,3.99,9.94.18,3.99,1.54,7.83,1.5,11.85-.06,2.14-.12,4.27.6,6.34.34,1.65.44,3.32.43,5-.07,2.01-.02,4.02-.01,6.02-.05,5.26.36,10.54-.38,15.78Z"/><path class="cls-75" d="m59,196.01c.03.38.06.76.09,1.14-.04,4.93-.08,9.86-.12,14.8-1.66.28-3.06,1.62-4.89,1.16,0-5.66-.02-11.31-.02-16.97.37-.02.73-.05,1.1-.07,1.28-.02,2.56-.04,3.84-.06Z"/><path class="cls-60" d="m67.08,176.14c-2.12-5.24-.53-10.71-.95-16.05.42-.28.83-.25,1.23.05.73,3.24,2.23,2.43,3.9.74,2.43,1.39,4.88,2.68,7.78,1.39,2.68-.21,2.64-2.99,4.09-4.35,2.42.92,2.92,5.07,6.58,3.89,2.71.36,3.08-1.92,4.01-3.56,2.46-.06,3.37,4.16,6.47,2.33,2.04.19,3.84,1.01,5.57,2.04,1.13.97,1.28,2.25,1.12,3.62-.7,2.61-.44,5.27-.48,7.92.24,4.52-1.25,8.65-2.91,12.74-.42.48-.91.56-1.47.25-2.02-.26-3.26,1.44-4.96,1.99-.38-.01-.76-.03-1.14-.04,2.79-3.49,5.79-6.88,6.97-11.32.36-1.36.76-3.14-.62-4.18-1.37-1.03-2.39.39-3.5,1.04-3.02,1.76-6.17,3.21-9.71,3.54-4,.69-8.01.7-12.01,0-2.03.06-3.76-.74-5.35-1.9-1.53-1.12-3.03-1.95-4.64-.14Z"/><path class="cls-7" d="m102.92,187.2c-.48-4.55,3.11-8.41,2.21-13.03.44-.32.87-.31,1.3.04.29.41.5.86.64,1.34.29,1.7.41,3.44.96,5.1.38,1.77.38,3.57.4,5.37-.08,2.1-.05,4.2.49,6.26.1,1.16-.06,2.25-.94,3.12-1.68,1.02-3.28,1.05-4.75-.4-.08-.28-.18-.55-.3-.82-1.28-2.33-.19-4.65,0-6.98Z"/><path class="cls-54" d="m103.22,195c1.55.01,3.1.02,4.65.04.2.14.39.27.59.41.41.61.61,1.29.69,2,.12,1.61.18,3.23.72,4.79.33,1.85.81,3.69.53,5.59-.5,1.04-1.73.59-2.44,1.19-.96.04-1.92.07-2.88.11-1.71-4.57-.46-9.52-1.86-14.13Z"/><path class="cls-62" d="m102.92,187.2c0,2.33,0,4.65,0,6.98-4.13-1.86.66-4.84-.89-7.03.29-.01.59,0,.88.05Z"/><path class="cls-80" d="m97.99,205.15c-1.5-1.48-.77-3.34-.86-5.07,1.5,1.48.79,3.34.86,5.07Z"/><path class="cls-80" d="m92.14,195.1c1.73,2.17.66,4.7.88,7.06-1.73-2.17-.68-4.69-.88-7.06Z"/><path class="cls-24" d="m85.99,208.16c-1.49-1.49-.78-3.35-.84-5.07,1.5,1.49.77,3.35.84,5.07Z"/><path class="cls-95" d="m107.97,209.02l1.91-1.05c1.44-1.18,2.8-.87,4.14.19.13.25.22.51.28.78-2.11.03-4.22.06-6.34.09Z"/><path class="cls-116" d="m32.11,171.17c.29-.03.59-.07.88-.11-.03,1.74.63,3.58-.8,5.1-.03-1.66-.05-3.33-.08-4.99Z"/><path class="cls-97" d="m47.12,195.16c-.03,3.99-.07,7.98-.11,11.97-1.45-4-1.62-8,.11-11.97Z"/><path class="cls-109" d="m68.28,197.01l-.31-4.86c.06-2.67-1.94-5.61,1.03-7.91.19,2.14,2.92,2.7,3.06,4.87-1.55,1.68-1.05,3.37-.04,5.07.03.31.02.62-.05.93-1.66-.2-1.94,2.27-3.69,1.89Z"/><path class="cls-52" d="m81.93,85.2c-.66-.03-1.33-.1-1.99-.07-2.9.14-5.33-1.32-5.37-3.94-.05-2.86,2.87-3.08,5.28-3.07,2.16.01,4.32.02,6.47-.05,2.05-.06,4.24-.25,4.66,2.45.39,2.45-1.43,3.53-3.36,4.28-.75.29-1.62.28-2.44.41-1.01,1.95-1.04,3.89.01,5.84,2.14-1.06,4.28-2.11,6.78-3.35-.34,3.85-3.23,4.59-5.84,5.6-1.71.46-3.41.52-5.12-.04-2.1-.17-4.42.13-5.43-2.72,2.29-1.02,4.29,1.44,6.48.59.77-2,.98-3.98-.13-5.94Z"/><path class="cls-26" d="m85.2,91.06c-1.72-1.94-1.76-3.89-.01-5.84,0,1.95,0,3.89.01,5.84Z"/><path class="cls-78" d="m81.93,85.2c1.77,1.94,1.63,3.93.13,5.94-.04-1.98-.09-3.96-.13-5.94Z"/><path class="cls-88" d="m81.02,93.28c1.71.01,3.41.02,5.12.04-1.71,1.28-3.42,1.3-5.12-.04Z"/><path d="m57.03,77.25c-5.26-2.42-8.15-7.03-6.58-10.91,1.36-3.35,3.03-6.6,7.57-6.19,4.29.38,8.55,1.97,9.76,6.02,1.06,3.53-.19,7.64-4.09,9.91-.56.33-1.05.78-1.57,1.18-1.69.58-3.39.58-5.08,0Z"/><path class="cls-66" d="m57.03,77.25c1.69,0,3.39,0,5.08,0-1.69,1.51-3.39,1.27-5.08,0Z"/><path d="m97.99,62.02c.03-3.51,3.31-2.57,5.08-3.7,1.61.84,3.51-.21,5.11.77,5.05,2.25,6.8,9.31,3.23,13.21-.99,1.08-2.19,1.98-3.29,2.97-1.7.54-3.4.57-5.09-.02-2.69-.63-4.38-2.27-5.06-4.96-.61-2.76-.64-5.51.02-8.27Z"/><path class="cls-105" d="m97.99,62.02c0,2.76-.01,5.51-.02,8.27-1.42-2.76-1.45-5.52.02-8.27Z"/><path class="cls-70" d="m108.18,59.1c-1.72-.15-3.58.63-5.11-.77,1.74.02,3.63-.98,5.11.77Z"/><path class="cls-66" d="m103.03,75.25c1.7,0,3.39.01,5.09.02-1.7,1.32-3.4,1.35-5.09-.02Z"/><path class="cls-55" d="m59.19,166.13c1.93,6.34.55,12.83.81,19.25.1,2.56.91,5.33-.81,7.75,0-9,0-18,0-27Z"/><path class="cls-116" d="m58.15,150.08c1.64,2.2.74,4.7.82,7.09-1.62-2.21-.68-4.71-.82-7.09Z"/><path class="cls-42" d="m57.16,139.11c1.46,1.5.81,3.35.83,5.09-1.41-1.51-.81-3.35-.83-5.09Z"/><path class="cls-4" d="m43.13,173.18c0-7.71.02-15.42.02-23.13,1.86,4.77.59,9.75.89,14.62.18,2.79-.01,5.61-.04,8.41-.24.47-.53.52-.88.1Z"/><path class="cls-34" d="m42.17,192.17c.09-2.38-.81-4.88.8-7.09-.1,2.38.82,4.88-.8,7.09Z"/><path class="cls-112" d="m43.13,173.18c.29-.03.59-.07.88-.1-.15,2.04.75,4.22-.84,6.06-.01-1.99-.03-3.97-.04-5.96Z"/><path class="cls-101" d="m107.15,186.06c-.07-1.97-.13-3.95-.2-5.92-.92-1.58.24-3.51-.83-5.07.01-.32,0-.63-.05-.94-.8-2.64-.73-5.29-.04-7.94.02-1.11.23-2.28-.9-3.05-1.06-1.12-1.82-2.45-1.94-3.96-.65-7.74-2.91-15.34-2.17-23.21,2.32-3.48,5.23-6.63,6.22-10.87,4.54,3.59,2.89,9.07,4.18,13.65-.03,1.88-.04,3.75.59,5.56.35,1.61.43,3.24.44,4.88-.08,2.48-.15,4.96.66,7.37.52,2.88.41,5.79.41,8.7.1,5.03-.66,10.09.64,15.07.24,4.59,1.42,9.24-.86,13.66l-.41.22c-1.31,1.42-2.73,2.34-4.64.99,0,0-.38-.17-.38-.17.02-.96.05-1.92.07-2.89-.95-1.94.27-4.17-.8-6.09Z"/><path class="cls-18" d="m110.14,139.1c-.87-4.69-.89-9.55-2.91-14,.65-1.63,1.3-3.26,1.94-4.89,1.28-1.39.81-3.17,1.06-4.78,3.75,12.27,4.61,25,5.92,37.65,1.08,2.62-.3,5.48.81,8.09.07,2.98.14,5.97.2,8.95.8,3.65.19,7.35.38,11.03-.29,3.98.61,8.01-.49,11.96-1.18.6-2.38,1.13-3.75.88-.11-4.61-.22-9.22-.33-13.84-1.11-4.98.37-10.11-.81-15.09-.06-2.97-.12-5.94-.18-8.91-1.06-2.27.3-4.82-.83-7.08-.05-1.63-.1-3.26-.15-4.9-.99-1.57.19-3.51-.85-5.08Z"/><path class="cls-101" d="m79.08,163.13c-3.25,1.71-6.13,1.99-7.87-2.06-2.19-2.14-1.36-4.9-1.58-7.45.13-2.23.22-4.45-.53-6.61-.4-1.96-.45-3.94-.41-5.93.14-1.44.15-2.93,1.4-3.99,2.33,1.32,4.66,2.63,6.99,3.95-.08,1.8.75,3.42,1.07,5.14.33,5.65,2.72,11.19.93,16.96Z"/><path class="cls-7" d="m70.98,153.18c.07,2.63.15,5.26.22,7.89.1,2.19-1.07,3.72-3.12,3.25-2.1-.48-.63-2.74-1.08-4.14-1.07-1.91.24-4.15-.84-6.07-.06-1.64-.11-3.29-.17-4.93-1.04-1.92.23-4.16-.83-6.08.41-3.99-2.62-7.92-.23-11.96,1.38,1.65,2.76,3.31,4.14,4.97,1.1,1.55-.13,3.51.89,5.07l.21,5.9c.97,1.94-.25,4.17.8,6.1Z"/><path class="cls-101" d="m100.14,161.06c-4.14,3.33-5.04.13-5.98-2.98-3.56-3.38-2.23-7.79-2.53-11.86.08-1.52.35-2.99,1.38-4.2,1.63-.98,3.27-1.97,4.9-2.95,2.23,7.18,3.97,14.41,2.22,21.99Z"/><path class="cls-8" d="m100.14,161.06c-.63-7.34-2.44-14.56-2.22-21.99,1.03-1.03,2.06-2.07,3.09-3.1,2.26,6.07,1.83,12.59,3.08,18.84.55,2.74.7,5.55,1.03,8.33-1.87-.19-3.42-1.15-4.98-2.07Z"/><path class="cls-18" d="m79.08,163.13c-.95-5.95-1.9-11.89-2.07-17.93-.23-1.28-1.43-2.93,1.18-3.15l2.75.18c.42.38.77.81,1.05,1.3.98,4.82,3.05,9.55,1.18,14.59-.02,2.77.37,5.88-4.1,5Z"/><path class="cls-74" d="m81.29,142.98c-.13-.24-.25-.49-.35-.75,3.08.02,6.16.04,9.24.06.19.58.03,1.03-.47,1.37-.72.41-1.5.61-2.31.7-2.14,0-4.4.51-6.11-1.38Z"/><path class="cls-17" d="m89.96,143c.07-.24.15-.47.22-.7.95-.09,1.89-.18,2.84-.27,0,1.39-.02,2.78-.02,4.17-2.08-.05-2.35-1.82-3.03-3.2Z"/><path class="cls-22" d="m69.97,141.19c-1.41-1.5-.78-3.35-.89-5.07.33.32.67.65,1,.97-.04,1.37-.08,2.74-.12,4.1Z"/><path class="cls-5" d="m78.19,142.05c-1.32.7-1.01,2.01-1.18,3.15-1.18-1.41-1.46-2.8.07-4.17.37.34.74.68,1.11,1.02Z"/><path class="cls-53" d="m117.06,193.11l.07-12.04c.35-.42.64-.36.88.1-.03,3.96-.05,7.93-.08,11.89,0,0-.43.05-.43.05h-.43Z"/><path class="cls-58" d="m118,181.18c-.29-.03-.59-.07-.88-.1.02-3.65.03-7.31.05-10.96,1.84,3.57.52,7.38.83,11.06Z"/><path class="cls-31" d="m116.97,161.17c-1.7-2.55-.66-5.38-.82-8.09,1.69,2.55.69,5.38.82,8.09Z"/><path class="cls-96" d="m108.26,195.21c1.55-.33,3.09-.66,4.64-.99.13.29.21.59.24.9,1.15,2.93-.35,6.13.89,9.05,0,1.33,0,2.66,0,3.99-1.38-.06-2.76-.12-4.14-.18-.95-1.84-.82-3.84-.88-5.81-1.02-1.56.21-3.51-.89-5.06.05-.63.09-1.27.14-1.9Z"/><path class="cls-97" d="m114.02,204.17c-1.8-2.87-.65-6.03-.89-9.05,1.83,2.87.61,6.03.89,9.05Z"/><path class="cls-45" d="m37.16,172.17c-.07-7.92-.13-15.85-.2-23.77,2.14,1.63,1.13,3.95,1.03,5.88-.3,5.96,1.19,12.02-.84,17.89Z"/><path class="cls-56" d="m68.99,184.24c-1.95,2.43-.36,5.31-1.03,7.91-1.36-4.63-1.52-9.25.01-13.87.34,1.99.67,3.97,1.01,5.96Z"/><path class="cls-2" d="m77.07,178.18c4,0,8.01,0,12.01,0-4,1.5-8.01,1.49-12.01,0Z"/><path class="cls-6" d="m72.02,194.18c-1.94-1.71-3.47-3.41.04-5.07-.01,1.69-.03,3.38-.04,5.07Z"/><path class="cls-53" d="m66.17,154.12c1.59,1.84.68,4.03.84,6.07-.29-.03-.58-.06-.88-.09.01-1.99.03-3.98.04-5.97Z"/><path class="cls-51" d="m65.17,143.1c1.56,1.85.74,4.03.83,6.08-1.54-1.86-.78-4.02-.83-6.08Z"/><path class="cls-101" d="m81.29,142.98c2.26.07,4.52.15,6.78.22,2.25,6.48,3.19,13.09,2.04,19.92-4.23.99-6.2-1.15-6.94-5-.41-5.07-2.08-9.99-1.89-15.14Z"/><path class="cls-7" d="m90.11,163.12c-1.18-6.59-2.22-13.19-2.04-19.92.63-.07,1.26-.14,1.89-.21,2.2-.06,1.92,2.23,3.03,3.2.13,3.99-.06,8.01,1.17,11.89.05,2.81.22,5.71-4.05,5.04Z"/><path class="cls-99" d="m106.02,166.19c.01,2.65.03,5.3.04,7.94-.32,0-.63.02-.94.05.33-2.66-1.02-5.51.9-7.99Z"/><path class="cls-59" d="m107.15,186.06c1.52,1.87.77,4.03.8,6.09-1.54-1.86-.72-4.04-.8-6.09Z"/><path class="cls-99" d="m106.12,175.07c1.48,1.49.84,3.33.83,5.07-1.44-1.5-.78-3.34-.83-5.07Z"/><path class="cls-81" d="m108.12,197.11c1.54,1.47.79,3.34.89,5.06-1.5-1.47-.79-3.34-.89-5.06Z"/><path class="cls-90" d="m112.16,165.07c1.86,4.94.59,10.06.81,15.09-1.87-4.94-.56-10.06-.81-15.09Z"/><path class="cls-11" d="m111.15,149.07c1.62,2.2.73,4.7.83,7.08-1.66-2.2-.7-4.7-.83-7.08Z"/><path class="cls-73" d="m110.14,139.1c1.45,1.5.82,3.34.85,5.08-1.45-1.5-.83-3.34-.85-5.08Z"/><path class="cls-84" d="m70.98,153.18c-1.53-1.87-.75-4.04-.8-6.1,1.54,1.87.74,4.04.8,6.1Z"/></g></g></svg>