<?xml version="1.0" encoding="UTF-8"?><svg id="Calque_2" xmlns="http://www.w3.org/2000/svg" viewBox="0 0 267.81 290.26"><defs><style>.cls-1{fill:#1c3354;}.cls-2{fill:#e7cea6;}.cls-3{fill:#24426e;}.cls-4{fill:#e9e9e9;}.cls-5{fill:#a59478;}.cls-6{fill:#1b3152;}.cls-7{fill:#344256;}.cls-8{fill:#a8967a;}.cls-9{fill:#284470;}.cls-10{fill:#4c2f1f;}.cls-11{fill:#fff;}.cls-12{fill:#55667f;}.cls-13{fill:#435776;}.cls-14{fill:#a29c92;}.cls-15{fill:#26426b;}.cls-16{fill:#6f7884;}.cls-17{fill:#e6cea6;}.cls-18{fill:#a8977b;}.cls-19{fill:#79614b;}.cls-20{fill:#dfc7a1;}.cls-21{fill:#27436f;}.cls-22{fill:#475a76;}.cls-23{fill:#26426d;}.cls-24{fill:#3a485e;}.cls-25{fill:#b19d7f;}.cls-26{fill:#364357;}.cls-27{fill:#354357;}.cls-28{fill:#d6cfcb;}.cls-29{fill:#ba8061;}.cls-30{fill:#8b614b;}.cls-31{fill:#465976;}.cls-32{fill:#696b6e;}.cls-33{fill:#45495a;}.cls-34{fill:#68402b;}.cls-35{fill:#717171;}.cls-36{fill:#4c5f7e;}.cls-37{fill:#707a89;}.cls-38{fill:#5f6163;}.cls-39{fill:#ae9c7d;}.cls-40{fill:#969592;}.cls-41{fill:#a29176;}.cls-42{fill:#777;}.cls-43{fill:#b98061;}.cls-44{fill:#4b5e7a;}.cls-45{fill:#dec7a3;}.cls-46{fill:#b9a585;}.cls-47{fill:#50627f;}.cls-48{fill:#2c3c26;}.cls-49{fill:#3a485d;}.cls-50{fill:#bb8162;}.cls-51{fill:#223e69;}.cls-52{fill:#6a695a;}.cls-53{fill:#485a73;}.cls-54{fill:#4a4a4a;}.cls-55{fill:#b2b2b2;}.cls-56{fill:#4d607c;}.cls-57{fill:#1b3150;}.cls-58{fill:#777d85;}.cls-59{fill:#3c495a;}.cls-60{fill:#535860;}.cls-61{fill:#2c3b26;}.cls-62{fill:#dec8a3;}.cls-63{fill:#868686;}.cls-64{fill:#e3cba4;}.cls-65{fill:#3b495c;}.cls-66{fill:#475a78;}.cls-67{fill:#ddc5a1;}.cls-68{fill:#4b2f1f;}.cls-69{fill:#a28e72;}.cls-70{fill:#526480;}.cls-71{fill:#3b495f;}.cls-72{fill:#9f9b94;}.cls-73{fill:#4e4e4e;}.cls-74{fill:#9c8d74;}.cls-75{fill:#402110;}.cls-76{fill:#56667f;}.cls-77{fill:#73716c;}.cls-78{fill:#536581;}.cls-79{fill:#1d3251;}.cls-80{fill:#554c3d;}.cls-81{fill:#9b9893;}.cls-82{fill:#beb099;}.cls-83{fill:#8d8d8b;}.cls-84{fill:#cbb694;}.cls-85{fill:#a69578;}.cls-86{fill:#a39277;}.cls-87{fill:#4f3425;}.cls-88{fill:#4d5f7b;}.cls-89{fill:#26426c;}.cls-90{fill:#475a77;}.cls-91{fill:#485972;}.cls-92{fill:#2a3924;}.cls-93{fill:#1c3150;}.cls-94{fill:#53647f;}.cls-95{fill:#e6cda6;}.cls-96{fill:#284570;}.cls-97{fill:#233753;}.cls-98{fill:#60614f;}.cls-99{fill:#e5cca5;}.cls-100{fill:#e5cda5;}.cls-101{fill:#27436d;}.cls-102{fill:#c2b49d;}.cls-103{fill:#797773;}.cls-104{fill:#223d66;}.cls-105{fill:#818181;}.cls-106{fill:#26436f;}.cls-107{fill:#1c3152;}.cls-108{fill:#3b2418;}.cls-109{fill:#4a5b76;}.cls-110{fill:#23416e;}.cls-111{fill:#a79679;}.cls-112{fill:#85898e;}.cls-113{fill:#485b79;}.cls-114{fill:#282828;}.cls-115{fill:#516481;}.cls-116{fill:#192f51;}.cls-117{fill:#3c4a5e;}.cls-118{fill:#455876;}.cls-119{fill:#546681;}.cls-120{fill:#b1a898;}.cls-121{fill:#414d61;}.cls-122{fill:#b1a899;}.cls-123{fill:#2e3642;}.cls-124{fill:#334156;}.cls-125{fill:#526580;}.cls-126{fill:#455976;}.cls-127{fill:#6f6f6f;}.cls-128{fill:#39472d;}.cls-129{fill:#38475c;}.cls-130{fill:#324156;}.cls-131{fill:#885e47;}.cls-132{fill:#304059;}.cls-133{fill:#485b77;}.cls-134{fill:#505f78;}.cls-135{fill:#27446f;}.cls-136{fill:#dcc5a0;}.cls-137{fill:#3e4b60;}.cls-138{fill:#374c2f;}.cls-139{fill:#a69579;}.cls-140{fill:#2c466e;}.cls-141{fill:#676767;}.cls-142{fill:#445875;}.cls-143{fill:#717a87;}.cls-144{fill:#1b3050;}.cls-145{fill:#9c9891;}.cls-146{fill:#84888e;}.cls-147{fill:#77736b;}.cls-148{fill:#1a3050;}.cls-149{fill:#595d63;}.cls-150{fill:#e6cda5;}.cls-151{fill:#c5b08e;}.cls-152{fill:#99694f;}.cls-153{fill:#445873;}.cls-154{fill:#606264;}.cls-155{fill:#aaa294;}.cls-156{fill:#a79f7d;}.cls-157{fill:#231813;}.cls-158{fill:#81858a;}.cls-159{fill:#546682;}.cls-160{fill:#767067;}.cls-161{fill:#b4a997;}.cls-162{fill:#b29e7f;}.cls-163{fill:#d2b490;}.cls-164{fill:#1b3255;}.cls-165{fill:#dbc5a3;}.cls-166{fill:#1c3151;}.cls-167{fill:#898a8a;}.cls-168{fill:#a6a095;}.cls-169{fill:#26436e;}.cls-170{fill:#536681;}.cls-171{fill:#1e120c;}.cls-172{fill:#566680;}.cls-173{fill:#405575;}.cls-174{fill:#d5c1a1;}.cls-175{fill:#858585;}.cls-176{fill:#a69478;}.cls-177{fill:#3b495e;}.cls-178{fill:#716e69;}.cls-179{fill:#e4cca5;}.cls-180{fill:#6b523e;}.cls-181{fill:#5a6678;}.cls-182{fill:#455875;}.cls-183{fill:#b5ab99;}.cls-184{fill:#57667b;}.cls-185{fill:#475976;}.cls-186{fill:#161616;}.cls-187{fill:#6c6a67;}.cls-188{fill:#344156;}.cls-189{fill:#855b44;}.cls-190{fill:#4d5f7c;}.cls-191{fill:#2d2d2d;}.cls-192{fill:#1b3051;}.cls-193{fill:#aaa395;}.cls-194{fill:#334157;}.cls-195{fill:#50637f;}.cls-196{fill:#c2b49b;}.cls-197{fill:#a89679;}.cls-198{fill:#3b485d;}.cls-199{fill:#1e3455;}.cls-200{fill:#e1caa4;}.cls-201{fill:#a29278;}.cls-202{fill:#e3cba5;}.cls-203{fill:#737b87;}.cls-204{fill:#4f617e;}.cls-205{fill:#526581;}.cls-206{fill:#8a8b8b;}.cls-207{fill:#4b5d7a;}.cls-208{fill:#5b6a80;}.cls-209{fill:#495c78;}.cls-210{fill:#5c5f63;}.cls-211{fill:#1f1f1f;}.cls-212{fill:#c6b599;}.cls-213{fill:#485a77;}.cls-214{fill:#b7ac9a;}.cls-215{fill:#150d08;}.cls-216{fill:#6a6a69;}.cls-217{fill:#485a76;}.cls-218{fill:#28446f;}.cls-219{fill:#7c776d;}.cls-220{fill:#473f33;}.cls-221{fill:#7a756d;}.cls-222{fill:#a8a8a8;}.cls-223{fill:#88817f;}.cls-224{fill:#887161;}.cls-225{fill:#3f5474;}.cls-226{fill:#38465b;}.cls-227{fill:#827a6c;}.cls-228{fill:#9c8e76;}.cls-229{fill:#1b304f;}.cls-230{fill:#8b6d4f;}.cls-231{fill:#7b7a79;}.cls-232{fill:#777b80;}.cls-233{fill:#25416b;}.cls-234{fill:#c6b396;}.cls-235{fill:#a79579;}.cls-236{fill:#25426f;}.cls-237{fill:#71775d;}.cls-238{fill:#4b2e1f;}.cls-239{fill:#1b3151;}.cls-240{fill:#c0ab8a;}.cls-241{fill:#35455c;}.cls-242{fill:#4a5d79;}.cls-243{fill:#636f7f;}.cls-244{fill:#dfc39e;}.cls-245{fill:#37455a;}.cls-246{fill:#82868c;}.cls-247{fill:#25436f;}.cls-248{fill:#2a3a24;}.cls-249{fill:#e0c6a1;}.cls-250{fill:#a09077;}.cls-251{fill:#fffefe;}.cls-252{fill:#a2947c;}.cls-253{fill:#e5cda6;}.cls-254{fill:#a8795a;}.cls-255{fill:#eae5e2;}.cls-256{fill:#e0c9a4;}.cls-257{fill:#9e6d53;}.cls-258{fill:#475974;}.cls-259{fill:#010101;}.cls-260{fill:#a29277;}.cls-261{fill:#998b73;}.cls-262{fill:#452514;}.cls-263{fill:#3d4a5e;}.cls-264{fill:#283722;}.cls-265{fill:#33231b;}.cls-266{fill:#e1c9a3;}.cls-267{fill:#192f50;}.cls-268{fill:#757164;}.cls-269{fill:#80563f;}.cls-270{fill:#3b4a5f;}.cls-271{fill:#a9967a;}.cls-272{fill:#4a5c77;}.cls-273{fill:#445775;}.cls-274{fill:#a7967a;}.cls-275{fill:#e4cba4;}.cls-276{fill:#344258;}.cls-277{fill:#fefefe;}.cls-278{fill:#445770;}.cls-279{fill:#8c6048;}.cls-280{fill:#3c495d;}.cls-281{fill:#2b1a11;}.cls-282{fill:#495a75;}</style></defs><g id="Calque_1-2"><g><path d="m266.86,193.28c-.91,7.75-4.06,14.43-9.08,20.42-8.38,10.01-20.15,15.11-30.82,21.82-7.41,4.66-15.48,8.02-23.2,12.07-3.43,1.8-7.16,3.65-4.15,8.63,1.48,1.64,1.5,3.27-.02,4.9-6.07,4.25-13.26,5.6-20.24,6.86-5.06.91-7.6,3.31-9.73,7.65-2.64,5.38-5.8,10.7-12.81,11.42-2.05-.65-4.1-.59-6.16-.03-2.9-1.74-6.25-.43-9.4-1.59-5.69-2.1-7.64-7.13-10.54-11.52-4.2-6.34-6.66-7.39-11.5-5.84-2.21.71-2.44,1.49-1.46,3.33.74,1.4,1.5,2.87,1.8,4.4.52,2.67-.01,5.81-2.27,6.93-2.66,1.33-5.86.71-7.66-2.46-.91-1.98.22-4.21-.75-6.18-.06-.94-.11-1.88-.17-2.82-.6-3.1-2.62-3.03-4.97-2.23-1.21.27-.88,1.36-1.14,2.14-.74,2.09-.19,4.26-.36,6.39-.18,1.89.42,3.85-.41,5.69-1.46,5.07-5.84,5.78-10.07,6.73-3-.55-6.01-.53-9.01,0-1.33.78-2.4-.32-3.05-.91-5.04-4.58-10.54-3.43-16.4-2.11-4.28.96-4.45-2.69-4.66-5.72-.72-.78-.83-1.74-.85-2.73,0-1.24-.07-2.49-.05-2.65-.04.48.06,2.03-.02,3.59-.04,1-.41,1.89-.82,2.77-4.35,3.82-10.07,3.83-11.98.02.59-3.38.57-6.77,0-10.15-.58-1.53.48-2.71.81-4.06.57-2.31-.47-3.36-2.89-2.77-2.65,1.04-5.51-.25-8.17.76-3.29-.62-6.59-1.18-9.87-1.87-4.93-1.04-6.02-2.79-4.81-7.56,3.27-12.88,6.54-25.76,9.8-38.64,1.02-4.05,2.05-8.1,2.94-12.19.55-2.52-.19-3.42-3.23-3.74-8.58-.91-17.07-2.7-24.76-6.9-5.84-3.19-6.31-7.67-1.23-11.79.94-.76,1.64-1.03.8-2.04-1.18-1.41-.11-2.12.76-2.83,12.18-9.92,21.11-22.55,29.77-35.42,1.61-2.39,2.58-4.77.97-7.61-2.49-4.4-.89-7.8,2.82-10.59,1.42-1.07,3.02-1.97,4.2-3.26,2.42-2.67,6.51-4.48,6.98-8.1.49-3.81-4.34-4.03-6.57-6.1-6.55-6.1-10.27-13.57-12.33-22.07,1.01-2.65-.26-5.52.75-8.17-1.75-3.49.29-6.7,1.52-9.46,3.77-8.45,8.27-16.59,18.18-19.4.97-.27,1.17-.65,1.45-1.53,2.09-6.56,4.46-12.98,8.56-18.65.91-1.25,1.09-2.99-1.5-2.87-.49.02-1.06.08-1.46-.13-3.63-1.95-9.06-1.93-9.57-7.51-.52-5.64,2.5-9.85,6.67-13.3.6-.5,1.34-.84,1.99-1.28,6.77-4.5,10.91-3.66,15.25,3.1.52.82,1.3,1.54,1.59,2.43,1.23,3.71,3.27,2.59,5.53,1.11,8.14-5.31,17.14-7.94,26.79-8.46,3.73-.69,7.46-.65,11.19-.02,10.85.4,20.58,3.99,28.94,10.82,2.41,1.97,3.11.68,3.6-1.02.71-2.51,1.95-4.73,3.14-6.98,2.07-3.91,5.94-4.83,9.76-2.69,7.18,4.01,9.21,11,10.32,18.26.59,3.87-2.96,5.61-5.89,7.04-3,1.46-4.23,2.31-1.6,5.84,2.76,3.7,4.96,8.23,4.18,13.74,7.89-.9,13.51,4.25,18.64,9.15,5.38,5.12,7.86,12.15,7.84,19.79.66,2.41.67,4.81-.01,7.22-1.59,13.01-8.94,22-20.31,28.59,5.69,1.18,6.39,4.51,4.21,8.77-1.75,3.42-.57,5.56,1.97,8.06,6.16,6.09,11.25,13.15,15.92,20.4,1.92,2.98,3.21,2.58,5.35,1.04,7.11-5.13,15.04-7.86,23.81-8.14,1.67-.48,3.34-.51,5.01.02,1.79,2.22,4.65,1.44,6.84,1.9,15.31,3.25,21.53,14.21,25.25,27.84,1.03,3.76.18,7.79,2.04,11.34.67,1.67.22,3.42.35,5.13-.16,2,.36,4.04-.35,6.01Z"/><path class="cls-11" d="m199.59,261.12c0-1.63.02-3.26.02-4.9,1.66.02,2.98.66,2.97,2.46,0,1.8-1.33,2.43-2.99,2.43Z"/><path class="cls-54" d="m117.85,1.14c-3.73,0-7.46.01-11.19.02,3.73-1.43,7.46-1.66,11.19-.02Z"/><path class="cls-141" d="m44.92,272.09c1.38,3.38,1.21,6.77,0,10.15,0-3.38,0-6.77,0-10.15Z"/><path class="cls-211" d="m82.74,289.99c3-1.29,6.01-1.26,9.01,0-3,0-6.01,0-9.01,0Z"/><path class="cls-127" d="m34.67,266.03c2.58-1.72,5.44-.51,8.17-.76-2.58,1.82-5.43.63-8.17.76Z"/><path class="cls-42" d="m31.65,77.12c-.25,2.72,1.03,5.59-.75,8.17.18-2.73-1.09-5.59.75-8.17Z"/><path class="cls-191" d="m103.73,269.04c2.51-1.17,4.95-2.17,4.97,2.23-.89-2.46-3.04-2.09-4.97-2.23Z"/><path class="cls-114" d="m196.79,82.31c0-2.41,0-4.81.01-7.22,1.56,2.41,1.53,4.81-.01,7.22Z"/><path class="cls-35" d="m150.65,287.02c2.06-1.49,4.11-1.23,6.16.03-2.05-.01-4.11-.02-6.16-.03Z"/><path class="cls-175" d="m266.86,193.28c.02-2.04.05-4.09.07-6.13.23.03.46.06.69.09-.1,2.03.87,4.2-.76,6.04Z"/><path class="cls-55" d="m56.89,282.22c.02-1.01.03-2.01.05-3.02.3-.75.73-1.29,1.66-.97,0,1,.01,2,.02,3-.58.33-1.15.65-1.73.98Z"/><path class="cls-73" d="m101.82,283.26c0-2.01-.01-4.01-.02-6.02.19-.45.45-.49.77-.13.03,2.08.99,4.28-.75,6.15Z"/><path class="cls-105" d="m108.87,274.08c1.71,1.88.61,4.11.75,6.18-1.7-1.88-.59-4.11-.75-6.18Z"/><path class="cls-186" d="m102.56,277.12c-.26.02-.52.06-.77.13.19-2.03-.72-4.21.8-6.06,0,1.98-.02,3.96-.03,5.94Z"/><path class="cls-4" d="m232.73,141.05c-1.67,0-3.34-.01-5.01-.02,1.67-1.26,3.34-1.25,5.01.02Z"/><path class="cls-222" d="m267.61,187.23c-.23-.04-.46-.07-.69-.09-.02-1.67-.04-3.34-.06-5.01,1.43,1.53.77,3.36.75,5.1Z"/><path class="cls-50" d="m193.94,81.2c-1.64,4.1-1.89,8.65-4.18,12.53-3.51,5.95-8.7,10.06-14.63,13.34-1.26.7-2.8.95-3.63,2.32-2.53,1.67-4.9.14-7.32-.36-1.35-.55-2.5-1.47-3.81-2.11-3.55-2.31-7-1.28-10.43.32-2.06.66-4.09,1.46-6.2,1.96-3.38.33-6.48,1.68-9.67,2.69-1.35.41-2.76.56-4.09,1.04-.66.24-1.33.44-2.01.62-1.8.56-3.66.92-5.46,1.5-1.9.41-3.77.99-5.7,1.3-1.48.15-2.95.28-4.38.76-1.73.4-3.49.38-5.24.39-1.67,0-3.35-.12-4.98.39-.68.18-1.38.29-2.08.32-.69.02-1.37-.08-2.03-.28-.63-.21-1.22-.5-1.81-.79-.95-.47-1.92-.91-2.87-1.37-1.3-.7-2.65-1.29-3.93-2.02-1.53-1.14-3.2-2.05-4.89-2.94-1.07-.71-2.12-1.46-3.29-2.03-1.76-.93-3.55-1.82-5.23-2.9-3.34-1.84-6.75-3.25-10.62-1.65-2.76,1.05-4.96,2.99-7.42,4.53-1.04.52-2.06,1.11-3.29.65-10.63-4.63-17.68-12.11-19.15-24.05-.92-3.35.21-6.84-.64-10.19,2.26-7.73,5.34-14.96,11.75-20.33,1.26-1.06,2.44-2.05,4.05-2.45,1.66.56,3.32.49,4.99.04.27-.17.57-.29.88-.36,5.08-1.35,10.12-.12,15.17.17,1.65.64,3.15,1.66,4.95,1.95,5.05,1.72,9.46,5.03,14.83,5.95,2.3.74,4.44,1.83,6.51,3.07.39.28.72.62.99,1.02,2.97,7.45,9.99,9.97,16.84,6.01,1.73-1,3.44-2.02,4.79-3.53.89-1.06.94-2.51,1.72-3.62.33-.33.71-.6,1.13-.81,1.73-.71,3.54-1.22,5.3-1.85,5.37-.85,8.83-5.4,13.75-7.13,2.18-.52,4.2-1.46,6.18-2.49,4.27-1.88,8.81-2.69,13.36-3.5,2.17-.38,4.33-.48,5.59,1.92.72,1.31,1.86,1.05,3,.81,1.69-.42,3.37-.55,5.04.09,9.37,5.53,16.37,12.83,18.12,24.09.59,2.33.48,4.66.07,7Z"/><path class="cls-34" d="m72.55,53.19c-5.34.04-10.7.39-15.93-1.12.97-10.04,3.92-19.08,12.52-25.38.46-.34.31-1.5.44-2.28-.4-1.11-.97-2.2-.59-3.44,1.46-1.54.79-3.01-.19-4.46-4.16-6.55-6.24-6.29-10.89,1.38-3.2.04-5.38-.82-4.17-4.69.94-2.59,2.66-4.57,4.84-6.19,6.15-4.59,8.76-4.01,12.44,2.71.64,1.16,1.46,2.24,2.01,3.44,1.65,3.56,3.62,3.34,6.61,1.25,12.5-8.75,26.36-11.2,41.46-9.44,9.12,1.07,16.87,4.31,24.02,9.78,5.48,4.19,7.19,3.51,9.29-3.12.3-.94.27-2,.65-2.9,2.33-5.55,6.27-6.17,10.15-1.54,1.93,2.3,3.64,4.78,3.62,8-.26,1.2-.52,2.4-2.19,2.15-1.81-1.65-1.39-6.29-4.9-5.14-2.69.88-3.96,4.27-4.29,7.4-.05.47.31.93.5,1.39,1.38,2.57,1,5.52,1.79,8.22,5.4,5.58,7.42,12.49,7.98,20-6.78-1.83-12.82,1.08-19.02,2.96-2.02-.55-3.33-2.1-4.78-3.43-4.26-3.92-8.95-5.6-14.49-2.81-4.94,2.49-5.57,6.98-5.36,11.84-.07,1.83.2,3.73-1.09,5.31-.56,1.36.34,3.12-1.18,4.21-5.15-4.55-11.24-4.07-17.4-3.29-1.93.24-3.82,1.3-5.8.25-.33-.03-.67-.05-1-.08-1.55-2.84-1.33-6.1-2.18-9.12-1.3-4.57-3.4-8.3-8.5-9.3-5.1-1-9.09.69-11.95,5.06-.63.96-1.22,1.99-2.42,2.39Z"/><path class="cls-108" d="m233.74,145.14c13.9,1.28,24.69,10.9,26.97,24.05-2.05,8.16-6.23,15.42-11.28,21.86-12.98,16.55-30.54,26.69-50.09,33.66-1.72.61-3.59.91-5.11-.69-1.09-1.91-.7-4.18-1.5-6.17-.07-5.18-3.44-10.03-1.57-15.41,1.24-1.67,3.27-1.38,4.93-2,3.53-.88,6.98-2.08,10.39-3.33,3.64-1.33,7.99-3.16,7.66-7.34-.28-3.63-4.78-4.38-8.16-5.18-1.15-2.39,1.3-2.76,2.25-3.96,1.01-1.29,3.37-1.46,3.06-3.81-2.59-5.24-5.88-10.09-8.27-15.42-.72-1.62-2.05-3.12-1.29-5.13,5.88-6.57,13.52-9.66,21.98-11.14,3.34-.71,6.67-.7,10.01,0Z"/><path class="cls-264" d="m193.77,218.18c1.74,1.77.64,4.01.98,6.01,2.54,7.52,4.95,15.05,2.03,23.05-1.67,1.7-1.67,3.58-1.17,5.86,1,4.55-.5,7.09-5.61,8.42-6.37,1.67-12.93,2.54-19.17,4.69-10.41,3.96-20.94,3.33-31.53.84-2.82-1.93-3.03-4.92-3.06-7.9-.05-6.57-.17-13.14.08-19.7.05-4.01.02-8.01.02-12.02.04-1.86-.01-3.73.41-5.56,1.24-7.55.37-15.16.56-22.73.22-8.75-.23-17.51.22-26.25.55-2.81,2.86-3.88,5.07-4.97,4-1.98,7.89-4.12,11.36-6.96.4-.27.83-.48,1.27-.67,1.7-.62,3.49-.99,5.07-1.92,2.11-1.23,4.31-2.32,6.15-3.96,1.72-1.23,3.76-1.73,5.7-2.43,1.33-.44,2.68-.79,4.05-1.1,1.6-.2,3.11-1.65,4.83-.37.62.94.67,1.94.37,3-.31.77-.82,1.37-1.46,1.89-10.4,7.5-21.28,14.3-31.94,21.44-3.29,2.2-4.18,4.8-3.72,8.45,1.33,10.62,1.16,21.24.06,31.88-.55,5.31-.35,10.59.91,15.87,1.15,4.79,4.05,7.37,8.48,8.88,8.36,2.85,16.81,2.14,25.19.54,5.11-.98,9.18-8.38,9.4-16.27.11-3.97.53-7.43,5.44-7.99Z"/><path class="cls-138" d="m17.79,172.25c8.55-10.62,17.83-20.71,23.83-33.17,1.95.51,2.49,2.54,3.91,3.62,1.36,1.31,3.07,2.22,4.29,3.69,4.01,2.65,5.98,6.24,5.29,11.16-.29,2.03.77,3.81,1.42,5.65.46,1.5.53,3.04.54,4.59-.03,1.73-.04,3.46.29,5.17.05,1.96.35,3.9.62,5.84.12,1.8.15,3.61.24,5.41.86,3.19.96,6.45.97,9.72-.14,2.24.93,4.31.89,6.53.14,2.79.09,5.59.1,8.38-.12,1.61.02,3.23-.08,4.84-.05,2.02-.11,4.05.21,6.06.03.48-.04.96-.18,1.43-1.96,4.65-1.75,9.21.62,13.67.21.42.3.86.24,1.32-1.23,1.67-3.54,2.13-4.54,4.07-.94,1.23-1.99,2.32-3.52,2.82-7.72.14-16.48-7.29-17.33-15.09-.53-4.92-.42-9.9.07-14.85.45-2.31-.76-4.85.98-6.97,2.47-3.05,2.11-6.93,2.8-10.42,2.27-11.36,6.09-22.47,5.88-34.25-.03-1.74.49-3.66-1.29-5.52-2.05,5.12-2.97,10.3-4.45,15.29-1.02,3.43-2.24,6.81-6.56,7.15-5.52.43-11.03.52-15.33-3.88-.57-.58-.6-1.52.07-2.26Z"/><path class="cls-281" d="m196.78,247.24c.65-7.8-2.01-15.31-2.03-23.05,8.85-1.24,16.52-5.46,24.2-9.63,12.05-6.55,22.9-14.69,30.77-26.05,4.2-6.07,7.36-12.85,10.99-19.32,3.82,12.01,4.61,24.04-.95,35.71-2.95,6.19-7.73,11.27-13.51,14.86-16.02,9.98-32.38,19.4-49.47,27.47Z"/><path class="cls-34" d="m137.67,239.16c.02,6.9.06,13.8.05,20.71,0,2.34.05,4.62,2,6.33,4,5.34,9.22,8.41,15.99,8.76,1.45.07,3.26.38,3.34,2.3.07,1.67-1.41,2.55-2.74,3.25-5.81,3.08-11.24.7-16.7-1.23-3.42-2.38-4.38-6.58-7.04-9.54-1.99-2.21-3.55-4.87-6.73-5.65-1.74-.69-3.49-.63-5.24-.03-1.63.36-3.26.71-4.89,1.07-.3-.24-.59-.49-.87-.75-.63-.75-1.25-1.5-1.78-2.33-.42-.71-.79-1.45-1.07-2.24-.2-.62-.32-1.26-.4-1.9-.32-2.71-1.63-5.01-3.02-7.29-.19-.44-.27-.9-.22-1.37.21-.71.61-1.31,1.09-1.86,2.13-2.03,3.85-4.6,7-5.29,6.72-.2,13.48-.15,19.72-3.27.55-.1,1.05.01,1.5.35Z"/><path class="cls-138" d="m180.72,153.22c0-1.02,0-2.03,0-3.05-.04-.22-.07-.44-.12-.66-1.05-4.31-1.68-8.92-7.25-9.92-.69-.32-1.04-.86-1.04-1.62,1.46-1.9,2.87-3.28.88-6.24-1.63-2.42-.25-5.1,3.61-4.58,8.61,7.2,14.75,16.42,20.79,25.69,1.09,1.68,1.56,3.74,4.16,3.44,3.66,6.97,7.32,13.94,10.98,20.91-9.16,7.25-16.93,5.66-22.2-4.58-3.31-6.44-5.12-13.64-9.81-19.39Z"/><path class="cls-264" d="m35.68,213.1c.9,4.74.98,9.53,1.15,14.34.24,7.05,9.15,14.59,16.91,14.74.14.17.28.35.42.52.45,1.61-.33,3.04-.65,4.54-.85,2.44.85,4.55.9,6.87-.13,1.67-.9,3.05-2,4.27-.52.5-1.14.79-1.86.84-8.19,4.63-16.61,3.04-25.05.92-2.33-.58-1.42-2.08-1.06-3.52,3.22-12.64,6.34-25.3,9.7-37.9.5-1.87-.06-4.06,1.52-5.63Z"/><path class="cls-264" d="m17.79,172.25c1.18,4.37,5.31,4.35,8.38,4.78,9.84,1.39,10.31.88,12.76-9.07.95-3.85,2.76-7.49,2.85-11.55.04-1.68.69-3.08,2.56-3.02,1.88.07,2.31,1.56,2.4,3.2.4,7.51-.28,14.9-2.07,22.22-2.08,8.51-4.01,17.06-5.95,25.61-.27,1.19-.94,1.66-2.06,1.71.13-2.64,2.17-5.26.09-7.93-1.16-2.58-3.4-3.83-5.79-5.11-6.39-3.4-13.54-5.31-19.27-9.97-1.05-5.35,3.62-7.5,6.1-10.87Z"/><path class="cls-10" d="m139.61,279.28c4.72-.63,9.06,3.12,14.03,1.02,1.87-.79,3.37-1.66,5.27-3.56-8.09-1.3-16.47-1.1-19.18-10.55,8.7,1.7,17.44,1.22,26.18.41,1.64-.15,3.28-.27,4.93-.4-1.73,3.38-3.25,6.89-5.25,10.11-2.86,4.62-6.77,7.58-12.69,6.86-4.67-.56-9.6-.06-13.29-3.9Z"/><path class="cls-34" d="m11.69,183.12c8.11,2.89,15.62,7.11,23.42,10.68,2.38,1.09,2.02,2.59,1.64,4.4-10.45.7-20.19-2.01-29.57-6.31-1.42-.65-3.38-1.13-3.29-3.23.08-1.89,2.02-1.88,3.22-2.62,1.54-.95,3.06-1.94,4.58-2.91Z"/><path class="cls-2" d="m62.68,282.38c-1.4-.79-.87-2.04-.76-3.19.42-3.34.86-6.67-.24-9.97h0c.43-2.83,2.76-2.2,4.54-2.36,3.07-.28,6.19.28,9.21-.63,1.99-.46,4.01-.42,6.04-.39,1.63.11,3.34.02,4.42,1.62-1.14,1.01-1.88,1.97-.66,3.55.9,1.16,1.43,2.61,1.69,4.1.14,2.25,1.43,4.42.42,6.74-.26.46-.64.79-1.13.99-.73.24-1.48.25-2.23.11-2.11-.52-4-1.5-5.77-2.73-2.72-1.37-3.43-4.72-6.09-6.1-1.74.81.01,2.94-1.45,3.83-.6,1.06-1.19,2.13-1.79,3.19-1.54,3.04-4.1,1.03-6.21,1.25Z"/><path class="cls-10" d="m71.91,272.28c3.52,1.09,3.74,5.31,6.63,7,1,.76,1.48,2.05,2.71,2.57,1.49.35,2.91,1.31,4.52.47.3-.07.6-.16.9-.25,2.47-2.64.2-4.79-.75-7.07.21-2-1.83-2.82-2.36-4.61-.79-2.69.91-2.02,2.1-2.31,1.87-1.45,4.08-1.41,6.27-1.49.49.16.87.45,1.12.9.29,1.77-.23,3.45-.56,5.15-.71,2.97-.63,5.92.2,8.86.31,1.64.29,3.22-.86,4.59-8.64,1.94-14.39-3.33-20.33-8.14-.44-1.93-1.34-3.88.39-5.66Z"/><path class="cls-118" d="m81.72,267.01c-1.97.11-3.95.22-5.92.33-4.84.76-9.73.05-14.58.41-3.41-.8-7.27,1.51-10.35-1.52-.43-2.38,1.96-3.16,2.75-4.84.42-.7,1.07-.81,1.8-.69.43.16.81.41,1.15.72,1.08,1.36,2.45,1.62,4.04,1.06.41-.13.84-.22,1.26-.29,1.53-.09,2.89-.66,4.14-1.53,1.97-.82,4.07-.14,6.08-.55,1.63-.08,3.28-.26,4.62.98.9,2.49,4.54,1.93,5.22,4.67.16.46.09.88-.2,1.26Z"/><path class="cls-2" d="m91.61,272.17c.24-1.69,0-3.48,1.16-4.95,2.67-1.6,5.26-2.65,7.18,1.02-.07.3-.14.6-.22.9-1.24,2.59.17,5.46-.83,8.07.55,4.72-1.39,7.72-6.09,8.81-.99-3.18-.59-6.56-1.36-9.77-.18-1.37-.39-2.74.18-4.08Z"/><path class="cls-280" d="m174.59,125.21c.12.31.2.63.25.96-.32.35-.72.56-1.2.64-1.91.26-3.3-2.08-5.41-1.13-.35,2.07,2.28,2.72,2.08,4.63-.36,2.14-1.78,3.42-3.58,4.39-1.81.47-3.41-.18-5-.92-.84-.56-1.4-1.32-1.57-2.33-.05-2.52,3.88-4.45,1.1-7.38.67-2.36,2.92-2.53,4.68-3.38.77-.34,1.48-.77,2.03-1.42,1.15-1.29,2.07-2.83,3.86-3.38.47.04.85.24,1.16.59-.42,3.08-.48,6.1,1.58,8.73Z"/><path class="cls-150" d="m50.87,266.22c3.25.45,6.45,1.38,9.78,1.1.31.21.42.43.34.67-.08.24-.17.36-.27.36-6.57-.42-6.66-.42-6.88,5.91-.05,1.55-.97,2.78-1.03,4.18-.08,2.08-1.98,2.53-2.98,2.51-1.97-.05-1.02-2.03-1.04-3.12-.07-3.99-.56-8.09,2.07-11.61Z"/><path class="cls-233" d="m81.75,266.17c-1.83-.87-2.86-3.03-5.13-3.2-.06,0-.15-.29-.13-.42.03-.14.18-.25.28-.37.83-.92,1.93-1.18,3.1-1.29,1.7-.15,3.41-.14,5.11-.1,4.51-.28,9.06.42,13.55-.55,1.4-.35,2.84-.43,4.27-.44,3.33.6,6.75-1.79,10.04.31.36.67.72,1.35,1.08,2.02-2.73,2.17-6.09,1.34-9.15,1.95-.36,0-.71-.01-1.07-.02-6.75,1.31-13.9-.95-20.45,2.25-.53.27-1.03.22-1.5-.14Z"/><path class="cls-68" d="m166.69,17.19c.72-.66,1.43-1.33,2.15-1.99,2.59,4.85.04,7.26-4.16,9.06-2.24.96-5.6,1.01-4.94,4.95-.99-2.58-2.84-4.95-2-7.99.16-.17.31-.33.47-.5,2.24-.93,4.93-.87,6.62-3.01.54-.45,1.11-.82,1.85-.52Z"/><path class="cls-238" d="m53.74,13.21c-.05,3.62,2.4,3.97,5.15,3.92,1.73-.64,3.37,0,5.04.32,2.01.78,4.52.59,5.75,2.91-.03,1.35-.06,2.7-.09,4.04-3.79-2.9-8.63-2.66-12.85-4.28-3.41-1.3-5.39-3.15-2.99-6.92Z"/><path class="cls-78" d="m54.76,109.41c.99-.44,1.99-.88,2.98-1.32,3.23.05,5.48,2.19,8.02,3.72.27.4.35.84.28,1.31-1.26,1.68-3,2.79-4.74,3.91-.85.42-1.73.72-2.7.58-1.86-.62-3.49-1.49-3.98-3.61.05-1.53.1-3.06.14-4.59Z"/><path class="cls-198" d="m44.65,143.19c-1.72-.84-2.11-2.67-3.03-4.11,0,0,.2.12.2.12.66-2.21-1.17-3.4-2.03-4.99l-.16.04c-.46-1.69-.7-3.37.15-5.02.92-.71,1.83-1.43,2.75-2.14,2.28.51,3.56,2.18,4.69,4.03.22,3.39-3.2,6.47-.88,10.06-.14,1.02-.61,1.77-1.68,2.01Z"/><path class="cls-118" d="m82.72,266.16c6.55-5.14,13.82-3,20.98-2.09-.95.71-1.9,1.42-2.84,2.12-2.67.99-5.44.24-8.15.47-3.36.48-6.71.79-9.98-.5Z"/><path class="cls-92" d="m173.75,126.24c.36-.02.72-.05,1.08-.07.81.02,1.52.23,1.96.98-2.57,1.38-5.15,2.23-1.35,5.69,3.81,3.47-1.37,3.71-2.71,5.32-1.5.76-2.38-.55-3.5-1.04-.74-.47-1.43-1-1.85-1.81-.12-.43-.08-.84.12-1.24,1.01-1.33,2.59-2.25,2.94-4.07.74-1.57,1.61-3.03,3.31-3.76Z"/><path class="cls-275" d="m115.69,264.13c0,.33.02.66.03.99-2.96,2.45-2.69,5.18-.87,8.2.55.92.76,2.12.85,3.21.09,1.03.48,2.42-1.33,2.6-1.88.18-1.76-1.18-1.6-2.26.57-3.88-1.96-7.08-2.2-10.77.81-2.97,2.72-3.09,5.11-1.97Z"/><path class="cls-179" d="m54.62,114c1.42,1.07,2.85,2.13,4.27,3.2.1,2.98-2.24,4.13-4.19,5.59-.49.18-1,.26-1.52.25-2.1-.42-3.4-1.41-2.65-3.81,1.36-1.74,2.72-3.49,4.09-5.23Z"/><path class="cls-76" d="m163.79,108.03c2.57.46,5.14.91,7.71,1.37.15.24.16.48.04.72-1.18,1.53-2.31,3.11-3.79,4.38-.44.12-.88.13-1.32.02-2.08-1.38-4.56-1.89-6.73-3.08-.25-.42-.3-.87-.18-1.34,1.14-1.27,2.35-2.41,4.27-2.07Z"/><path class="cls-258" d="m115.69,264.13c-1.99-.09-3.7.56-5.11,1.98-2.19.05-4.56.63-5.81-2.03,2.59-2.82,6.04-1.57,9.15-1.95.59.67,1.18,1.34,1.77,2.01Z"/><path class="cls-198" d="m44.74,125.05c1.64-1.65,3.28-3.3,4.92-4.94.93,1.52,2.32,2.63,3.44,3.99.11.46.11.91-.01,1.37-.8,1.45-1.54,2.95-3.41,3.28-2.24-.43-3.81-1.77-4.94-3.69Z"/><path class="cls-229" d="m174.59,125.21c-4.27-2.26-4-5.48-1.9-9.07.23-.05.45-.1.68-.15,1.89.8,2.63,2.53,3.39,4.24-.72,1.66-1.45,3.32-2.17,4.98Z"/><path class="cls-86" d="m44.74,125.05c2.15.29,3.28,2.2,5.02,3.15.33.37.41.79.27,1.26-.42.87-1.07,1.51-1.91,1.99-.45.18-.9.15-1.32-.09-1.92-.93-3.03-2.67-4.28-4.27.74-.68,1.48-1.36,2.22-2.04Z"/><path class="cls-100" d="m167.83,114.17c.03-2.45,1.48-3.6,3.7-4.04-.21,1.92.9,3.07,2.35,4.02.42,1.16-.38,1.59-1.2,2,0,0,0,0,0,0-.33.01-.64.07-.95.17-1.9.38-3.24-.26-3.9-2.14Z"/><path class="cls-49" d="m172.69,116.15c.4-.67.8-1.33,1.2-2,4.95.14,4.33,2.91,2.87,6.08-2.01-.71-2.59-2.85-4.08-4.08Z"/><path class="cls-14" d="m60.72,268.36c-.02-.34-.05-.69-.07-1.03,5.05,0,10.1,0,15.15,0-2.91,1.65-6.08.49-9.1.86-1.7.21-3.64-.72-5.02,1.03-.32-.29-.64-.58-.96-.87Z"/><path class="cls-63" d="m58.6,278.24c-.55.32-1.11.64-1.66.97.25-2.25-1.29-4.85,1.36-6.79.79,2.02.44,3.93.3,5.83Z"/><path class="cls-266" d="m55.74,261.13c-.71.08-1.42.16-2.12.25-1.53,0-2.36-.97-3.05-2.16.39-.41.79-.81,1.18-1.22,1.65-.8,2.96-.22,4.1,1.02.41.73.44,1.43-.11,2.11Z"/><path class="cls-269" d="m34.97,75.17c1.61,3.31.47,6.79.64,10.19-1.7-3.3-.68-6.78-.64-10.19Z"/><path class="cls-215" d="m233.74,145.14c-3.34,0-6.67,0-10.01,0,3.34-1.48,6.67-1.49,10.01,0Z"/><path class="cls-25" d="m91.83,276.12c1.83,3.15.5,6.62.96,9.9l-.47.13s-.48-.07-.48-.07c-.07-1.63-.15-3.26-.22-4.9-.46-1.71-.77-3.42.21-5.07Z"/><path class="cls-162" d="m61.68,269.22c1.82,3.28,1.38,6.62.24,9.97-.08-3.32-.16-6.65-.24-9.97Z"/><path class="cls-184" d="m52.75,124.21c-1.67-.89-2.89-2.11-3.09-4.11.29-.29.58-.59.87-.88.23,1.94,1.59,2.7,3.27,3.13.54,1.12.59,1.97-1.05,1.86Z"/><path class="cls-232" d="m92.78,266.21c2.69,0,5.38-.01,8.07-.02,0,.82-.08,1.6-.91,2.05-2.15-2.08-4.79-.62-7.18-1.02,0,0-.29.09-.29.09-.24-.46-.13-.83.31-1.1Z"/><path class="cls-39" d="m71.91,272.28c-.13,1.89-.26,3.77-.39,5.66,0,0-.42.07-.42.07l-.42-.08c-.19-2.01-2.22-4.43,1.24-5.65Z"/><path class="cls-80" d="m62.68,282.38c2.01-.74,4.47.78,6.21-1.25.65.68.95,1.67-.17,1.8-2,.21-4.16,1.01-6.04-.54Z"/><path class="cls-220" d="m98.89,277.21c.02-2.72-.94-5.54.83-8.07-.19,2.7.72,5.51-.83,8.07Z"/><path class="cls-227" d="m39.78,134.21c1.5,1.33,4.22,2.15,2.03,4.99-1.02-1.52-2.05-3.04-2.03-4.99Z"/><path class="cls-157" d="m193.94,81.2c-.02-2.33-.05-4.66-.07-7,1.32,2.32,1.29,4.65.07,7Z"/><path class="cls-123" d="m39.77,129.22c-.05,1.67-.1,3.35-.15,5.02-1.22-1.71-1.5-3.39.15-5.02Z"/><path class="cls-171" d="m120.61,264.06c1.75-1.25,3.5-1.4,5.24.03-1.75-.01-3.49-.02-5.24-.03Z"/><path class="cls-265" d="m175.75,50.12c-1.68-.03-3.36-.06-5.04-.09,1.7-1.24,3.38-1.25,5.04.09Z"/><path class="cls-152" d="m55.74,52.43c-1.67,1.2-3.33,1.15-4.99-.04,1.66.01,3.32.03,4.99.04Z"/><path class="cls-11" d="m122.92,57.21c-.62-4.86.29-9.39,4.8-11.86,4.85-2.66,9.87-3.6,14.8.73,2.2,1.93,4.51,3.67,6.19,6.1-1.96.8-3.64,2.46-6.01,2-.77-.32-1.47-.73-2.05-1.33-2.01-2.09-4.46-2.88-7.18-1.92-2.76.97-3.22,3.48-3.41,6.03-.11,1.47-.1,2.98-1.15,4.19-1.4,1.42-3.17,1.8-5.07,1.82-1.31-1.76.08-3.95-.9-5.76Z"/><path class="cls-75" d="m98.6,64.25c5.17-2.33,10.68-2.42,16.12-1.89,2.97.29,6.52.73,7.08,4.93-2.67,3.14-6.35,4.75-9.99,6.26-4.51,1.87-13.61-4.69-13.21-9.3Z"/><path class="cls-277" d="m72.55,53.19c3.34-10.22,12.95-11.13,19.23-6.83,4.65,3.18,5.11,8.73,5.93,13.84.21,1.29-.06,2.65-.11,3.97-1.95-1.01-3.9-2.01-5.86-3.02-1.18-1.13-1.11-2.66-1.35-4.1-.47-2.84-1.21-5.56-4.53-6.31-3.05-.69-5.47.32-7.15,3.01-.45.72-1.17,1.12-1.94,1.45-1.59-.3-3.95,1.03-4.22-2.01Z"/><path class="cls-259" d="m76.77,55.2c1.24-2.53,1.93-5.49,5.47-6.02,5.63-.84,9.36,2.22,9.54,8.01.04,1.32-.02,2.64-.04,3.97-5.67-.26-10.06-3.75-14.97-5.95Z"/><path class="cls-259" d="m128.88,61.15c-.05-1.31-.09-2.63-.15-3.94-.15-3.47.59-6.68,4.23-7.88,4.12-1.36,7.41.49,9.73,4.86-4.79,1.95-7.84,7.35-13.8,6.97Z"/><path class="cls-262" d="m98.86,79.36c-3.68-1.93-7.99-2.74-10.87-6.4,7.3,2.43,14.27,5.84,22.24,5.25,7.83-.58,15.06-2.94,22.17-6.93q-1.05,3.65-12.62,7.78c-2.45,2.45-5.64,2.3-8.73,2.5-.85.02-1.69.02-2.54.02-3.35-.13-6.93.68-9.64-2.22Z"/><path class="cls-207" d="m81.86,108.08c1.29.22,2.29.92,3.08,1.93.04,1.2-1.8,1.96-1.23,2.92.86,1.45,2.3.35,3.45,0,.98-.3,1.89-.36,2.78.2,1.53.21,2.85.88,4.02,1.87-2.87,2.08-.93,4.07.12,6.07-.65,1.86-1.61,3.47-3.48,4.36-2.21.1-3.75-.8-4.41-2.99-.33-1.39,1.59-3.02.04-4.07-1.9-1.29-3.17.91-4.72,1.57-.62.35-1.27.6-1.98.7-1.76-.12-3.19-.79-4.07-2.4.02-2.59,3.17-4.39,1.83-7.33.81-2.1,2.61-2.59,4.57-2.84Z"/><path class="cls-251" d="m110.79,80.34c3-.43,5.99-.86,8.99-1.28.74,5.86-3.2,10.25-8.91,9.92-2.13-2.86-2.04-5.74-.08-8.64Z"/><path class="cls-251" d="m98.86,79.36c3.17,1.39,6.57.56,9.84,1,.56.62.86,1.34.95,2.18.65,5.59-.26,6.47-5.97,5.76-2.98-2.24-3.71-5.69-4.82-8.95Z"/><path class="cls-99" d="m65.76,112.34c-3.12-.58-5.58-2.4-8.02-4.25,1.78-2.36,4.44-3.45,6.92-4.8,1.9,2.22,5.71,2.36,6.39,5.9-1.25,1.91-2.78,3.35-5.28,3.15Z"/><path class="cls-172" d="m70.76,109.21c-1.12-2.91-6.11-1.84-6.1-5.92,4.49-2.13,8.41-.89,12.07,2-.24,2.87-3.04,2.89-4.69,4.19-.46.09-.89,0-1.28-.27Z"/><path class="cls-236" d="m143.85,108.26l5.85-1.94c2.71.22,5.78-.6,7.46,2.58-.2,2.63-2.48,3.01-4.25,3.94-.75.23-1.51.3-2.29.23-2.58-.85-5.59-.81-7.29-3.5-.09-.54.09-.98.52-1.32Z"/><path class="cls-218" d="m71.86,109.18c.77-2.36,3.61-2.14,4.87-3.89,1.84.69,3.69,1.37,5.12,2.8-1.38,1.09-2.75,2.18-4.13,3.27-.56.52-1.23.56-1.94.43-1.51-.57-3.04-1.11-3.92-2.61Z"/><path class="cls-195" d="m156.73,109.21c-1.91-2.03-4.94-1.3-7.03-2.89,3.69-2.45,7.39-3.38,11.12-.06.14,2.05-1.61,2.45-2.87,3.28-.47.11-.87,0-1.22-.33Z"/><path class="cls-169" d="m89.93,113.15c-.76.25-1.65.33-2.26.78-1.94,1.43-4.2,2.11-5.56-.06-1.68-2.68,2-2.43,2.83-3.84,1.95.59,3.72,1.46,5,3.13Z"/><path class="cls-21" d="m93.77,121.07c-4.71-3.53-4.7-3.77.18-6.06.93.42,1.86.84,2.79,1.26,1.29,2.27-.43,3.54-1.66,4.97-.47.22-.9.17-1.3-.17Z"/><path class="cls-28" d="m103.68,88.31c7.04.74,4.76-4.4,5.02-7.94.7,0,1.39-.01,2.09-.02.03,2.88.05,5.76.08,8.64-2.42.07-4.9.75-7.18-.67Z"/><path class="cls-169" d="m97.76,116.97c.67.15,1.34.3,2,.44,1.07.7,3.1-.42,3.37,1.79-.22,1.8-.73,3.43-2.57,4.25-1.63.22-3.1-.06-4.21-1.4-.71-2.02.65-3.47,1.41-5.08Z"/><path class="cls-249" d="m143.85,108.26c-.02.3-.07.6-.15.9-1,2.48-3.43,2.77-5.5,3.6-.65.21-1.32.32-2.01.31-.45-.03-.89-.15-1.31-.31-.62-.35-1.03-.86-1.13-1.58,3.17-1.65,6.4-3.11,10.11-2.91Z"/><path class="cls-41" d="m106.75,116.24c2-.01,4-.03,6.01-.04,1.73-.29,1.44.88,1.36,1.89-.94,1.38-2.31,1.88-3.91,1.9-.74-.08-1.39-.38-1.97-.86-.72-.84-1.96-1.43-1.49-2.88Z"/><path class="cls-67" d="m157.87,109.16c.3-1.66,2.07-1.82,2.94-2.9,1.31.05,2.32.61,2.97,1.77-1.22,1-2.18,2.45-4.06,2.28-1.08.35-1.59-.21-1.86-1.16Z"/><path class="cls-244" d="m122.52,114.33c1.35-1.65,3.64-.89,5.19-2.04.58.51.78,1.16.7,1.91-.17.74-.58,1.3-1.17,1.76-1.04.69-2.15,1.1-3.42.7-.9-.51-1.47-1.22-1.3-2.33Z"/><path class="cls-173" d="m127.96,114.19c-.08-.63-.17-1.27-.25-1.9.68-.06,1.37-.12,2.05-.17,1.68-.62,3.37-.6,5.06-.02.33,0,.63.1.91.27-1.23,3.15-3.87,2.89-6.49,2.7-.5-.18-.93-.47-1.27-.88Z"/><path class="cls-134" d="m122.52,114.33c.45.6.9,1.2,1.34,1.8-1.2,1.51-3.08,1.17-4.64,1.7-.49.1-.98.11-1.47.07-.49-.11-.92-.34-1.28-.69-.32-.74-.3-1.42.37-1.98,1.88-.37,3.66-1.38,5.68-.91Z"/><path class="cls-36" d="m97.76,116.97l-.89,5.17c-.32.31-.7.42-1.14.36-.6-.31-.99-.77-1.03-1.47.68-1.59,1.35-3.17,2.03-4.76.34.23.68.47,1.03.7Z"/><path class="cls-224" d="m106.75,116.24c.66.67,1.32,1.33,1.98,2-1.07,1.06-2.36,1.06-3.7.77-1.19-.51-2.35-1.06-3.33-1.93,1.49-1.43,3.36-.66,5.06-.84Z"/><path class="cls-163" d="m116.84,115.24c-.04.65-.09,1.3-.13,1.95-.67,1.31-1.49,2.08-2.88.81-.07-.77-.31-1.44-1.07-1.81,1.1-1.42,2.66-.91,4.08-.96Z"/><path class="cls-33" d="m101.69,117.08c1.11.16,2.34,0,3.04,1.19.3.42.29.82-.06,1.21-.7.32-1.35.27-1.92-.29-1-.59-1.99-1.18-2.99-1.77.64-.11,1.28-.23,1.92-.34Z"/><path class="cls-255" d="m122.92,57.21c1.48,1.74.58,3.84.9,5.76-.28.06-.55.09-.84.1-.02-1.95-.04-3.91-.06-5.86Z"/><path class="cls-223" d="m134.82,112.1c-1.69,0-3.37.01-5.06.02,1.08-1.36,2.62-.8,3.98-.95.36.31.72.62,1.07.94Z"/><path class="cls-43" d="m166.69,17.19c-.32.34-.63.69-.95,1.03-2.35,1.88-5.18,2.44-8.04,2.9l.04.1c-2.6-.37-2.13-2.11-1.52-3.7.4-1.06,1.15-1.99,1.81-2.94,1.25-1.81,2.05-5.14,4.52-4.44,2.85.81,4.72,3.54,4.14,7.05Z"/><path class="cls-29" d="m63.7,18.28c-1.66-.13-3.43.19-4.81-1.15-1.97-2.42-1.04-4.35,1.32-5.53,2.51-1.25,5.29-1.75,7.44.79.93,1.09,1.47,2.52,2.18,3.79-.95,3.92-3.77,2.33-6.14,2.09Z"/><path class="cls-279" d="m63.7,18.28c2.25-.1,4.55-.05,6.14-2.09.68,1.42,2.81,2.89-.15,4.17-1.99-.69-3.99-1.39-5.98-2.08Z"/><path class="cls-138" d="m193.77,218.18c-3.96,2.58-3.97,6.42-4.23,10.69-.37,5.93-3.32,11.13-8.31,14.6-2.77,1.93-6.43.81-9.68,1.38-6.74,1.18-13.47.07-20.01-2.24-7.99-2.82-8.3-9.88-8.64-16.29-.57-10.74,1.56-21.48.83-32.28-.28-4.12-.68-8.23-.97-12.34-.12-1.68,0-3.24,1.71-4.35,11.78-7.68,23.52-15.43,35.27-23.15,6.65,12.29,8.82,25.63,9.42,39.38.11,2.51-1.14,5.41,1.57,7.41.44.33.78.75,1.01,1.25-.68,5.49,2.66,10.47,2.03,15.95Z"/><path class="cls-264" d="m190.72,202.18c-2.34-.17-3.03-1.65-2.97-3.73.36-14.33-2.03-28.14-7.82-41.31-.37-.85-.14-1.96-.18-2.94.33-.32.66-.65.98-.97,3.07.23,3.88,2.69,4.89,4.95,2.27,5.12,4.31,10.36,6.87,15.34,3.53,6.86,9.11,8.51,16.11,5.26,1.33-.62,2.75-1.06,4.13-1.58-.59,4.07-5.18,4.15-6.99,7-1.33,3.68-5.09,4.86-7.61,7.33-1.5,1.47-3.29,2.65-4.74,4.21-2.49,1.49-.89,4.67-2.67,6.45Z"/><path class="cls-34" d="m192.74,195.19c3.53-4.62,8.64-7.37,13-11,4.19-1.55,6.57,2.08,9.7,3.49,1.6.72.97,2.19.31,3.44-1.44,2.72-3.43,4.96-6.27,6.12-4.12,1.69-8.27,3.37-12.74,3.98-5.2.62-5.92-.46-4.01-6.03Z"/><path class="cls-68" d="m192.74,195.19c.22,2.75-1.24,6.62,4.01,6.03-1.41,1.61-3.32.72-5,1.01-.34-.01-.68-.03-1.02-.04.41-2.41-1.78-5.56,2.01-6.99Z"/><path class="cls-177" d="m160.72,159.4c-1.65.59-3.31,1.18-4.96,1.77.94-2.88,1.33-5.85,1.44-8.87,1.32-3.99,5.79-3.39,8.4-5.69-5.21-.23-7.05,1-8.57,5.63-1.89,1.54-3.16,3.22-1.84,5.84.45.9.21,1.93-.63,2.68-6.18,3.8-12.56,6.91-20.12,6.27-2.74-1.34-3.2-3.53-2.33-6.22,3.8-3.26,8.91-3.33,13.23-5.35,2.29-1.07,4.73-1.83,5.01-4.89,1.72-1.85,2.61-3.99,2.28-6.56,2.22-2.84,5.84-2.77,8.73-4.23.45-.09.91-.1,1.36-.01,2.34,1.9,5,2.31,7.89,1.66,1.76.37,2.95,1.37,3.45,3.12,0,.47-.16.89-.47,1.25-3.98,2.03.21,4.99-.83,7.36-1.97.69-3.94,1.37-5.91,2.06-1.89,1.63-4.89,1.63-6.12,4.2Z"/><path class="cls-176" d="m134.77,166.2c7.23.11,13.24-3.94,19.87-5.86.34.11.5.27.46.49-.04.25-.11.37-.2.37-4.23,5.2-10.71,6.84-16.12,10.17-.56.47-.82,1.19-1.43,1.62-1.37.74-2.74,1.38-4.1-.02-.9-1.73-.84-3.5-.24-5.3.35-.77,1.03-1.15,1.76-1.47Z"/><path class="cls-128" d="m137.66,172.1c.37-.24.75-.49,1.12-.73-.01,15.2,0,30.41-.07,45.61,0,1.76.56,3.67-.82,5.23-2.79-3.37-.95-7.43-1.66-11.11-.05-8.28-.15-16.56.05-24.84.25-4.74-1.2-9.66,1.38-14.17Z"/><path class="cls-239" d="m154.9,161.2c-.12-.27-.21-.56-.25-.86-.17-.77-.16-1.66-.55-2.3-2.06-3.42-1.24-5.4,2.77-5.93.36-.42.65-.38.87.13.82,3.3,1.57,6.59-1.98,8.92-.29.02-.58.03-.87.03Z"/><path class="cls-57" d="m172.75,153.14c-.45-.85-.78-1.8-1.38-2.53-2.67-3.23-1.63-4.81,2.22-5.24,2.8,1.44,4.74,3.27,3.12,6.75-1.32.34-2.64.68-3.97,1.01Z"/><path class="cls-59" d="m176.72,152.12c.3-2.87-2.04-4.52-3.12-6.75,0,0,.14-.18.14-.18.91-1.17,1.87-2.25,3.51-2.29,2.33,1.87,4.34,3.9,3.46,7.29,0,0,.01-.02.01-.02-1.33.65-2.67,1.3-4,1.95Z"/><path class="cls-254" d="m137.61,211.21c.09,3.67.19,7.33.28,11-.09,1.64-.19,3.29-.28,4.93-.67.28-1.17.09-1.52-.54-1.43-4.14-.82-8.38-.58-12.59.07-1.23.31-2.69,2.1-2.81Z"/><path class="cls-230" d="m136.77,227.21c.28-.01.56-.04.84-.07.02,4.01.04,8.01.06,12.02-.27.05-.54.1-.82.13-2.49-4.01-2.39-8.04-.09-12.08Z"/><path class="cls-261" d="m160.72,159.4c.37-3.84,3.83-3.16,6.12-4.2-1.32,2.45-4.1,2.77-6.12,4.2Z"/><path class="cls-140" d="m60.7,236.13c0-.33,0-.65-.03-.98.24-.14.48-.28.71-.43.89-.18,1.64.09,2.28.72,3.37,3.65,8.14,2.67,12.17,3,6.9.57,13.8,1.89,20.79,1.34,1.93.23,4.13-.31,5.33,1.92-.69,1.98-2.45,2.27-4.16,2.67-1.14.13-2.28.18-3.43.18-3.65-.08-7.31.19-10.96-.04-.8-.05-1.6-.16-2.38-.34-4.07-1.15-8.43-.44-12.46-1.87-.97,0-1.94-.02-2.9-.15-1.83-.45-3.74-.6-5.5-1.33-2.22-1.83.08-3.16.54-4.69Z"/><path class="cls-150" d="m57.91,194.09c-.25-3.28.11-6.62-1.02-9.81,3.05-1.89,5.23-.26,7.31,1.8.3.49.51,1.02.64,1.57.07,3.05,1.17,6.27-1.38,8.92-2.62.9-4.43-.02-5.55-2.49Z"/><path class="cls-99" d="m56.86,178.12c-.1-1.61-1.82-3.17-.18-4.85-.69-1.29-.43-2.64-.22-3.98,2.79-1.65,4.68.19,6.66,1.71.32.47.55.99.7,1.54.28,2.53.67,5.07-.61,7.48-2.81,1.68-4.81.66-6.35-1.9Z"/><path class="cls-99" d="m58.9,209.08c-.03-2.96-.07-5.91-.1-8.87,2.79-1.39,4.27.36,5.67,2.35.51,3.11,1.94,6.45-2.07,8.45-1.65.22-2.9-.27-3.5-1.94Z"/><path class="cls-91" d="m62.66,171.36c-1.97-.82-3.94-1.63-5.92-2.45-.42-.04-.72-.25-.91-.62-.06-1.73-.13-3.46-.19-5.2.19-.13.38-.25.57-.38,2.12-.37,3.9,1.07,5.95,1.1,1,.42,1.26,1.28,1.36,2.25-.06,1.8.87,3.77-.87,5.29Z"/><path class="cls-88" d="m56.86,178.12c1.96.69,3.93,1.39,5.89,2.08.75.2,1.25.7,1.61,1.37.54,1.43.61,2.85-.13,4.24-.18.16-.37.32-.55.48-2.15-1.05-4.26-2.22-6.79-2.01,0-2.05-.02-4.11-.03-6.16Z"/><path class="cls-179" d="m59.58,221.2c.08-.33.08-.65,0-.98-.19-1.88-1.14-3.88.79-5.46,1.86-.39,3.42.19,4.73,1.51,1.13,2.8,1.88,5.54-1.34,7.56-1.48.28-2.76-.17-3.88-1.13-.41-.44-.5-.94-.3-1.51Z"/><path class="cls-248" d="m59.58,221.2c.2.22.31.48.32.78,1,1.39,1.22,2.98,1.2,4.63-.03,1.34.22,2.63.58,3.92.32,1.65.31,3.25-.82,4.64,0,0-.19-.02-.19-.02-1.74-.11-2.72-1.01-2.88-2.76-.27-2.95,1.2-5.94-.77-8.94-.67-1.02,1.1-2.12,2.56-2.26Z"/><path class="cls-48" d="m55.64,163.09c-1.99-1.7-2.02-4.01-1.87-6.31.24-3.57.25-6.9-4.01-8.34-.51-.17-.67-1.37-.99-2.1,2.59-2.05,4.12-.03,5.78,1.5,2.44,3.13.88,7.09,2.16,10.47.31,1.71.38,3.39-.74,4.89l-.33-.1Z"/><path class="cls-153" d="m64.63,216.36c-1.45-.09-2.81-.41-3.96-1.37-.64-.2-1.34-.25-1.82-.8.02-1.71.03-3.41.05-5.11.84.59,1.62,1.33,2.77,1.2.95.81,2.35-.06,3.26.89.97,1.26.97,2.65.6,4.11-.19.45-.49.82-.9,1.09Z"/><path class="cls-53" d="m63.76,202.38c-1.56-.94-3.05-2.02-4.96-2.17-.3-2.04-.6-4.08-.89-6.12,1.61.73,2.91,2.12,4.82,2.17.59.29,1.24.49,1.58,1.13.55,1.28.55,2.6.23,3.93-.16.42-.42.78-.78,1.06Z"/><path class="cls-74" d="m53.74,148.22c-1.51-1.01-2.86-2.45-4.97-1.88-1.52-.86-3.25-1.44-4.12-3.15.39-.58.79-1.16,1.18-1.73.21-.47.57-.73,1.09-.79,3.29,1.49,6.51,3.07,8.28,6.49-.17.78-.49,1.37-1.46,1.06Z"/><path class="cls-62" d="m53.75,242.18c.7-1,1.39-2.01,2.09-3.01,1.24-.79,2.41-1.04,3.3.5.43,1.32.3,2.54-.67,3.61-2.13,2.08-3.52.99-4.67-1.1h-.05Z"/><path class="cls-278" d="m58.88,240.16c-.77-1.1-1.95-.92-3.05-.99,1.03-1.97,2.83-2.69,4.87-3.03,2.14,1.89-1.65,2.43-.91,4-.29.33-.6.36-.91.03Z"/><path class="cls-237" d="m58.85,214.19c.61.27,1.22.53,1.82.8-1.8,1.44-.45,3.55-1.1,5.23-1.4-1.87-.74-3.99-.72-6.03Z"/><path class="cls-156" d="m55.83,168.29c.3.21.61.42.91.62-.02,1.45-.04,2.9-.06,4.36-1.44-1.46-.9-3.26-.85-4.98Z"/><path class="cls-50" d="m136.77,227.21c.03,4.03.06,8.05.09,12.08-6.44,4.8-13.87,3.96-21.19,3.74-.2-.94-1.12-1.57-1.09-2.61.64-1.08,1.75-1.09,2.79-1.3,1.57-.36,2.21-1.49,1.92-2.92-.92-4.58-.49-9.48-3.1-13.68-.68-1.25-1.25-2.54-1.53-3.94-.11-.46-.18-.92-.25-1.38-.53-2.48-.94-4.99-1.53-7.46-.11-.44-.18-.9-.24-1.35-.12-1.36-.42-2.68-.9-3.96-.18-.43-.32-.88-.44-1.33-.66-2.3-1.31-4.59-1.72-6.95-.14-1.74-.55-3.43-.87-5.13-.15-1.34-.1-2.64.74-3.79,1.58-.95,3.13-.19,4.68.09,4.19.81,8.37.85,12.54-.1,3.67-.18,7.1-3.12,10.98-.98-.02,8.32-.03,16.64-.05,24.96-1.84,5.25-.42,10.67-.84,16Z"/><path class="cls-100" d="m114.75,240.98c1.64.09,1.53.95.92,2.05-1.96,1.76-3.92,3.52-5.87,5.28-2.34,1.01-4.68,1.87-7.01-.05-.38-3.6,2.74-4.69,4.73-6.59.69-.35,1.43-.55,2.19-.67,1.68-.06,3.36-1.06,5.05-.02Z"/><path class="cls-194" d="m112.85,260.11c-3.42-.03-6.67,1.65-10.16,1.03-.75-.99-.85-2.03-.2-3.11.42-.39.9-.66,1.44-.84,2.48-.44,4.97-.54,7.44.1.5.25.94.59,1.33.99.05.61.1,1.22.15,1.83Z"/><path class="cls-225" d="m108.78,249.18c-.04.31-.06.62-.07.93-.28.43-.66.75-1.12.97-2.11.75-4.23,1.44-6.52,1.02-1.95-.83-3.89-1.7-5.88-2.47-.39-.34-.6-.77-.65-1.29.27-.46.66-.78,1.15-.98,2.43-.69,4.71-.3,6.85,1.01,2,.87,4.28-.33,6.24.81Z"/><path class="cls-87" d="m107.83,250.22c.3-.02.59-.05.88-.1,3.28,1.77,3.51,5.03,3.99,8.17-.37-.06-.73-.12-1.1-.18-.5-.62-1.15-1.1-1.61-1.76-.73-.99-1.35-2.05-1.91-3.14-.36-.97-1.02-1.92-.24-2.99Z"/><path class="cls-58" d="m108.78,249.18c-2.35,0-4.69,0-7.04,0-.65-1.17-.7-2.05,1.03-1.99,2.07,2.09,4.74.4,7.03,1.12-.34.29-.68.58-1.01.87Z"/><path class="cls-61" d="m180.71,150.19c-.23-2.87-2.26-4.78-3.73-6.99-1.47-.07-2.17-1.12-2.84-2.22-.29-.57-.44-1.17-.4-1.82.41-.61.98-.86,1.68-.61,3.84,1.42,6.65,7.63,5.28,11.63Z"/><path class="cls-65" d="m173.74,139.17c.31.34.63.67.94,1.01-.95,1.36-2.25,1.84-3.86,1.5-1.89-.26-3.19-1.19-3.6-3.14-.02-1.62,1.18-1.92,2.4-2.21,1.04.61,2.08,1.23,3.12,1.84.33.34.67.67,1,1.01Z"/><path class="cls-260" d="m53.94,253.94c-.82-2.23-3.39-4.15-1.25-6.92,1.83-.57,3.29.05,4.52,1.41.97,1.95,1.02,3.86-.26,5.71-1.06.75-2.08.97-3.01-.21Z"/><path class="cls-24" d="m56.53,248.36c-1.28-.44-2.56-.89-3.84-1.33.37-1.62.73-3.23,1.1-4.85,1.34.18,2.08,2.88,3.92.92.17.17.35.33.52.5.76,1.76.52,3.31-1,4.56-.23.07-.47.13-.7.2Z"/><path class="cls-24" d="m53.94,253.94c.91.04,1.82.09,2.73.13.12.17.25.34.38.51.1,1.5-.17,2.94-.84,4.29-.16.14-.33.27-.49.41-1.32-.43-2.65-.85-3.97-1.28l2.19-4.06Z"/><path class="cls-181" d="m92.78,266.21c-.1.37-.2.73-.31,1.1-2.24.53-4.45,1.24-6.8.77-.96-1.66-2.69-.49-3.94-1.07.01-.28.02-.56.02-.83.33,0,.65-.01.98-.02,3.35.02,6.7.03,10.06.05Z"/><path class="cls-69" d="m85.93,275c3.65,3.41,3.83,5.06.75,7.07.81-2.47-1.47-4.61-.75-7.07Z"/><path class="cls-46" d="m80.71,282.26c-1.14-.69-2.05-1.54-2.17-2.97,1.75.93,3.51,1.85,5.26,2.78-.98.89-2.03.69-3.1.19Z"/><path class="cls-19" d="m80.71,282.26c1.03-.06,2.06-.13,3.1-.19.66.09,1.31.17,1.97.26-1.7,1.21-3.39,1.38-5.06-.06Z"/><path class="cls-180" d="m91.83,276.12c-.07,1.69-.14,3.38-.21,5.07-1.43-3-1.4-6.01-.02-9.01.08,1.32.15,2.63.23,3.95Z"/><path class="cls-124" d="m79.74,262.15c-.99,0-1.98.02-2.97.03-1.41-1.64-3.36-.74-5.05-1.04-.91-1.06-.84-2.14-.08-3.24,2.5-1.49,5.09-1.3,7.71-.37.53.31.9.76,1.12,1.33.37,1.23.09,2.33-.73,3.3Z"/><path class="cls-107" d="m71.81,258.06c-.03,1.03-.05,2.05-.08,3.08-2,1.15-4.03-.46-6.03.08-.18-.23-.36-.46-.54-.69.22-4.55.8-4.92,6.14-3.94.57.35.74.84.51,1.47Z"/><path class="cls-70" d="m55.74,261.13c0-.62-.01-1.23-.02-1.85,0,0,.12-.43.12-.43,2.13-1.15,3.96-.18,5.8.8.4.35.67.79.8,1.3.12.81-.1,1.53-.6,2.17-.37.02-.73.03-1.1.05-1.72-.04-3.49.16-4.99-1,0-.35,0-.7-.01-1.05Z"/><path class="cls-96" d="m55.75,262.18c1.69.21,3.59-.67,4.99,1-2.1,1.86-3.69,1.15-4.99-1Z"/><path class="cls-155" d="m61.84,263.13c-.03-.68-.06-1.36-.09-2.05,1.35-1.02,2.68-.94,3.99.09,0,0-.04.05-.04.05-.12,2.99-2.4,1.62-3.86,1.91Z"/><path class="cls-242" d="m127.96,114.19c.29,0,.58.02.87.03,5.84,1.5,11.68,3.03,17.43-.3.96-.32,1.9-.16,2.84.05,1.09-.8,4.36,3.54,3.62-1.55,1.34-1.07,2.68-2.14,4.02-3.21.38-.02.76-.03,1.14-.05.62.39,1.24.77,1.86,1.16,0,.31.01.61.01.92-.12,2.71,2.48,3.72,3.55,5.69.04,2.35,2.77,2.67,3.46,4.53-1.53,1.21-3.92.89-5.04,2.84-.36.31-.79.46-1.26.46-.99-.17-1.69-.73-2.16-1.6-.14-.44-.21-.9-.19-1.36.41-3.34-1.76-3.39-4.07-3.1-1.67.21-2.88,1.52-4.42,2.11-.69.19-1.39.21-2.09.1-3.36-.44-6.63-1.99-10.12-.77-2.04.37-3.68,1.68-5.58,2.4-1.93-.04-2.57-1.77-3.75-2.82-.89-1.28-2.57-2.32-1.39-4.27.42-.42.85-.83,1.27-1.25Z"/><path class="cls-139" d="m160.68,124.26c.34.01.69.02,1.03.03,5.66,3.22-.55,4.6-1.07,6.87-.53.6-1.21.9-2.01.98-2.99-.28-5.68-1.86-8.7-1.97-1-.27-1.84-.78-2.37-1.7.19-3.11,3.16-3.26,4.95-4.66.46-.13.93-.18,1.4-.16,2.25.18,4.47.81,6.76.62Z"/><path class="cls-239" d="m173.75,126.24c-.83,1.47-1.26,3.24-3.02,4.01-.33.43-.66.43-1,.02-.41-1.17-1.39-1.71-2.38-2.3-1.3-.78-1.87-1.82-.66-3.16.91-1.01,1.83-1.84,3.32-.81,1.19.83,2.49,1.5,3.74,2.24Z"/><path class="cls-217" d="m167.83,114.17c1.3.71,2.6,1.43,3.9,2.14-1.04,1.35-2.08,2.7-3.12,4.06-2.1-.09-3.68-.95-4.4-3.04.08-1.67.91-2.73,2.55-3.13l1.07-.02Z"/><path class="cls-174" d="m164.72,117.25c1.3,1.04,2.6,2.08,3.9,3.12-.27.97-1.22.78-1.87,1.09-1.49-1.18-5.36-.06-3.95-4.07.59-.8,1.23-.77,1.92-.14Z"/><path class="cls-212" d="m167.78,134.19c.05.36.11.71.16,1.07-2.46,3.62-4.4,1.52-6.34-.58-.23-.54-.18-1.07.13-1.57l4.97.97c.4-.34.76-.32,1.08.11Z"/><path class="cls-268" d="m167.78,134.19c-.36-.04-.72-.07-1.08-.11,1.01-1.27,2.03-2.54,3.04-3.81.33-.03.66-.03,1-.02-.12,1.96-1.35,3.09-2.95,3.94Z"/><path class="cls-231" d="m161.73,133.12c.06.32.11.65.16.97-1.71.9-2.45-.44-3.33-1.45-.19-.44-.18-.88.03-1.31.68-.06,1.37-.11,2.05-.17.36.65.72,1.31,1.08,1.96Z"/><path class="cls-245" d="m98.74,261.21c-4.53,2.03-9.31.49-13.94.96-.75-1.25-.05-2.21.63-3.17.35-.29.74-.51,1.17-.67,2.21-.78,4.71.31,6.82-1.06.99-1.39,0-3.54,1.77-4.63,1.41-.71,2.88-.73,4.38-.43.5.13.96.36,1.37.67,1.1,1.46,1.74,3.04,1.29,4.9-.55,1.76-3.53,1.06-3.49,3.43Z"/><path class="cls-144" d="m98.74,261.21c-.85-.51-2.1-1.18-1.46-2.18,1.06-1.64,3.05-.56,4.59-.93.36-.25.64-.18.85.2-.01.95-.02,1.89-.03,2.84-1.32.02-2.64.04-3.95.07Z"/><path class="cls-116" d="m85.67,259.26c-.29.97-.58,1.94-.88,2.91-1.68,0-3.37-.01-5.05-.02,0-.99,0-1.98,0-2.97,1.99-1.45,3.97-1.74,5.92.08Z"/><path class="cls-189" d="m157.7,21.13c2.68-.97,5.36-1.94,8.04-2.9-1.88,3.19-4.95,3.07-8.04,2.9Z"/><path class="cls-126" d="m54.73,122.13c1.38-1.64,2.77-3.29,4.15-4.93.62-.33,1.23-.67,1.85-1,1.21.94,2.75,1.52,3.4,3.09.07.48,0,.94-.17,1.39-1.84,2.33-3.51,4.87-6.84,5.3-2.09-.48-3.43-1.43-2.4-3.85Z"/><path class="cls-133" d="m71.86,109.18c1.53.25,2.94.75,3.89,2.08-.48,3.27-4.04,3.11-5.67,5.11-.42.18-.85.23-1.3.14-1.25-.89-2.55-1.75-3.05-3.34,0-.28.02-.56.03-.84,1.67-1.04,3.33-2.09,5-3.13.37,0,.73-.02,1.1-.03Z"/><path class="cls-236" d="m65.74,113.18c1.29.73,3,1.05,3.03,3.04-.98,2.16-1.99,4.28-5.02,2.99-1.29-.72-2.98-1.03-3.01-3,1.82-.75,2.72-3.03,5-3.02Z"/><path class="cls-192" d="m46.75,141.16c-.31.08-.62.18-.92.29-3.9-3.77-.3-6.82.97-10.09.31-.09.63-.13.96-.14,4.01,4.11,3.8,6.14-1.01,9.94Z"/><path class="cls-190" d="m158.78,132.18c1.04.64,2.07,1.27,3.11,1.91,1.92.88,3.41,4.01,6.05,1.17.56.35,1.12.71,1.68,1.06-.63.61-1.26,1.23-1.89,1.84-.31.36-.71.52-1.18.54-1.76-.05-3.53-.12-4.77,1.5-2.46,2.57-6.16,2.33-9.03,3.99-.22.03-.44.05-.65.09-1.53.1-3.07.17-4.56.59-.7.09-1.37-.02-1.99-.37-1.26-1.34-2.55-2.65-3.12-4.47,3.41-2.3.19-5.57,1.2-8.23,1.63-1.5,3.31-2.86,5.76-2.05,2.74,2.32,5.7,3.82,9.4,2.44Z"/><path class="cls-101" d="m54.73,122.13c.08,1.97,1.13,2.98,3.09,3.08.55.6.55,1.27.22,1.97-.36.33-.78.53-1.27.59-1.77-.21-3.1-1.09-4.02-2.6,0-.32,0-.64,0-.96.35-.62.7-1.24,1.05-1.86.31-.09.62-.17.93-.22Z"/><path class="cls-106" d="m164.72,117.25c-.64.05-1.28.09-1.92.14-.59-2.27-7.01-1.63-3.06-6.15,2.82-.14,5.39.3,7.03,2.96-.68,1.02-1.36,2.04-2.04,3.06Z"/><path class="cls-239" d="m52.75,125.18c1.72-.1,2.61,1.44,3.97,2.03.52,2.45-1.52,3.56-2.69,5.12-.41.2-.84.25-1.29.15-1.2-.93-2.29-1.98-3.09-3.29.05-.33.08-.66.1-.99,1-1.01,2-2.01,2.99-3.02Z"/><path class="cls-198" d="m49.66,129.19c1.92.09,3,1.04,3.09,3.01-1.05,4.9,3.63,5.69,5.91,8.21.28.39.44.83.48,1.31-.54,2.1-1.69,3.85-3.04,5.5-.43.27-.86.25-1.29-.03-2.69-2.01-5.38-4.02-8.06-6.03,2.15-3.13,3.83-6.3,1.01-9.94.63-.68,1.27-1.35,1.9-2.03Z"/><path class="cls-78" d="m79.59,120.32c.35-.38.71-.76,1.06-1.14,1.66,1.28,3.98,1.39,5.42,3.06,1.04,2.71-.22,4.84-1.75,6.89-.38.34-.82.56-1.31.67-2.8-.14-5.02-1.65-7.26-3.12-.32-.37-.51-.81-.59-1.29.36-2.67,2.13-4.11,4.43-5.08Z"/><path class="cls-200" d="m69.91,116.15c.41-3.47,4.43-2.62,5.85-4.89.66.03,1.32.06,1.97.09,1.39,1.14,2.93,2.18.5,3.92-1.02.73-1.73,1.89-2.59,2.86-.31.35-.7.55-1.17.61-1.86-.26-3.51-.9-4.57-2.59Z"/><path class="cls-106" d="m74.77,118.36c.28-.13.57-.2.87-.24,1.32.73,2.64,1.46,3.95,2.19-1.28,1.63-2.56,3.27-3.84,4.9-1.75,1.26-3.28.29-4.83-.48-.38-.34-.62-.76-.74-1.25.29-2.81,2.1-4.27,4.58-5.12Z"/><path class="cls-179" d="m85.81,122.39c-2.15-.38-4.64-.2-5.15-3.21.53-.38,1.13-.68,1.57-1.14,1.65-1.75,3.39-2.59,5.5-.77,2.54,2.2-.55,3.27-1,4.86-.18.52-.49.6-.92.26Z"/><path class="cls-106" d="m85.81,122.39c.3-.1.61-.19.92-.26.7,1.87,2.55,2.24,4.05,3.06.09.21.18.42.27.62-.35,2.34-1.18,4.38-3.38,5.61-1.79.14-3.2-.39-3.85-2.22.03-2.46,2.28-4.26,2-6.81Z"/><path class="cls-200" d="m94.71,121.03c.45.39.9.79,1.35,1.18.97,1.8.36,3.17-1.14,4.32-1.78.77-3.23.56-4.12-1.36l-.02.02c.73-1.57,1.3-3.25,3-4.11.32.1.63.08.94-.05Z"/><path class="cls-195" d="m148.86,115.15c-.72-.31-1.44-.62-2.17-.93-3.46,1.27-6.58,1.04-9.03-2.08,2.01-1,4.03-1.99,6.04-2.99,1.99,1.91,4.9,1.67,7.1,3.09.48,1.72-1.33,1.92-1.94,2.91Z"/><path class="cls-45" d="m148.86,115.15c-.52-1.75,1.52-1.79,1.94-2.91.64.06,1.28.12,1.91.18.51,1.36,3.56.17,2.82,2.56-.6,1.92-2.52,1.15-3.9,1.08-.94-.05-1.85-.59-2.77-.91Z"/><path class="cls-113" d="m94.64,126.12c.95-1.13,1.4-2.44,1.41-3.91.27,0,.55-.02.82-.06,1.25.3,2.5.61,3.75.92.17.16.34.33.51.49.52,1.96-.11,3.7-1.05,5.38-2.53,1.21-3.94-.38-5.29-2.12-.05-.23-.1-.46-.15-.69Z"/><path class="cls-113" d="m102.76,119.18c.65.01,1.31.03,1.96.04,1.48,1.41,2.1,3.01,1.14,4.98-1.92,1.46-3.47.64-4.92-.8,0,0-.31-.34-.31-.34.71-1.29,1.42-2.58,2.13-3.88Z"/><path class="cls-247" d="m137.66,112.14c3.01.69,6.02,1.39,9.03,2.08-4.14,4-13.11,4-17.87,0,2.49.1,4.8-.48,6.9-1.85.65-.07,1.29-.15,1.94-.22Z"/><path class="cls-71" d="m113.83,118c1.17.47,1.94-.48,2.88-.81.38.03.75.06,1.13.09,3.84,1.28,8.51,1.52,8.88,7.13-1.96.97-3.74.02-5.57-.49-1.78-.91-3.17-3.31-5.67-1.44-2.18.11-4.3,0-5.85-1.86-.22-.47-.18-.92.09-1.35,1.37-.42,2.74-.84,4.1-1.26Z"/><path class="cls-104" d="m109.72,119.26c.02.33.04.66.06,1,.87,1.57,2.16,3.31.78,4.95-1.27,1.51-2.98.72-4.38-.32-.15-.21-.3-.43-.45-.65-.33-1.67-.67-3.34-1-5.01.02-.32.02-.64.02-.96,1.33,0,2.66-.02,3.99-.03.33.34.66.68.99,1.03Z"/><path class="cls-169" d="m126.69,115.44c-.05,1.66,1.53,2.42,2.1,3.74-4.06,2.87-6.78-1.02-10.07-2,1.46-1.61,3.43-.73,5.15-1.04.94-.23,1.89-.46,2.83-.69Z"/><path class="cls-199" d="m118.71,117.17c3.49.02,6.4,2.92,10.07,2,1.56.44,1.78,2.13,2.83,3.03,1.09.24,1.55.98,1.63,2.03-.61,2.13-2.63,2.42-4.24,3.24-.75.12-1.33-.18-1.76-.78-.5-.81-.54-1.7-.4-2.62-1.94-3.67-6.18-4.3-8.99-6.81.29-.06.58-.1.87-.1Z"/><path class="cls-139" d="m150.73,150.2c1.39,2.46,1.41,4.19-1.88,5.21-5.37,1.66-10.33,4.65-16.15,4.84-.21-.15-.42-.31-.63-.46-1.18-1.61-1.66-3.24-.23-4.97,5.91-2.33,12.12-3.54,18.26-5.07.21.15.42.3.63.45Z"/><path class="cls-5" d="m157.74,152.25c-.29-.04-.58-.09-.87-.13-1.6-2.76-1.09-4.92,2.21-5.41,2.99-.45,6.15-5.16,9.3,0-3.34,2.53-7.71,2.66-10.64,5.54Z"/><path class="cls-267" d="m134.77,166.2c-.33.34-.66.67-.99,1.01-1.55,1.2-3.17,1.36-4.88.35-1.7-1.88-2.24-4.03-1.48-6.47,1.47-2,3.21-2.39,5.26-.87,0,0,.02.02.02.02.24,2.14-.76,4.71,2.06,5.95Z"/><path class="cls-239" d="m152.76,144.19c1.88,2.86,2.31,5.24-2.02,6.02,0,0,0,0,0,0-1.89-1.3-4.12-2.41-2.94-5.38,1.49-1.44,3.17-1.44,4.95-.64h.01Z"/><path class="cls-239" d="m166.77,138.15c.32,0,.64.02.97.02.72,1.43,1.77,2.52,3.29,3.1.22.31.23.61-.02.91-3.1.82-6.32,2.18-8.24-1.96.79-1.75,2.15-2.38,4-2.07Z"/><path class="cls-86" d="m171.01,142.17c-.07-.31-.07-.61.01-.91,1.22-.36,2.44-.72,3.66-1.08.76,1.01,1.53,2.01,2.3,3.02-.73,1.23-1.68,2.11-3.24,1.99-.91-1.01-1.82-2.01-2.73-3.02Z"/><path class="cls-218" d="m166.77,138.14c-1.33.69-2.67,1.38-4,2.07-.33,0-.65-.01-.98-.02.46-3.58,2.53-3.27,4.98-2.06Z"/><path class="cls-131" d="m137.66,186.25c-3.63.66-7.26,1.31-10.9,1.97-4.35.74-8.7.72-13.04.02-1.36-.32-2.71-.64-4.07-.96-1.75-.04-1.75-1.48-2.12-2.62-.26-1.68-.8-3.31-1.05-4.99-.09-.48-.16-.95-.23-1.43-.78-2.78-.17-4.8,2.97-5.43,2.07.42,4.15.71,6.25.05,4.67,2.17,9.43,1.72,14.22.46,1.41-.29,2.81-1.02,4.26-.17,1.24-.35,2.48-.7,3.72-1.05,0,4.72,0,9.43,0,14.15Z"/><path class="cls-130" d="m133.94,173.15c-1.32.68-2.68,1.2-4.21,1.06-.34-.27-.6-.6-.76-1-.4-1.42-.27-2.92-.63-4.36-.03-.21-.04-.42-.06-.63.03-.21.08-.42.11-.62.14-.15.29-.31.44-.46,1.65.02,3.3.05,4.94.07.05,1.98.1,3.96.16,5.93Z"/><path class="cls-97" d="m96.75,241.18c-9.78.21-19.43-1.38-29.14-2.13-2-.15-5-.12-4.86-3.64.61-1.04,1.6-1.06,2.63-1.01,2.11.48,4.27.71,6.36,1.28.47.06.93.12,1.4.17.93.06,1.87.09,2.81.09,1.41.01,2.83.04,4.22.35.67.15,1.33.35,1.99.53.87.18,1.74.37,2.6.61,2.11.7,4.23.78,6.38.14.44-.15.89-.25,1.34-.34,1.44-.22,2.87-.29,4.29.07.48.16.89.43,1.25.79.7,1.49-.1,2.36-1.27,3.08Z"/><path class="cls-195" d="m68.72,241.05c3.84,1.77,8.19.38,12.06,1.98-1.48,3.45-5.18,3.24-7.82,4.77-2.06.65-4.78.28-5.27,3.39-.18.45-.43.85-.76,1.21-1.23.7-2.36.33-3.48-.29-.64-.42-1.12-.97-1.4-1.69-.43-1.52-.17-2.91.86-4.13.33-.34.72-.61,1.14-.82,2.37-.61,3.47-2.57,4.68-4.42Z"/><path class="cls-70" d="m102.77,247.19c-.88.39-1.01,1.16-1.03,1.99-2.17-1.38-4.58-.97-6.94-.97-1.56-3.13,1.24-3.73,2.9-5,1.35-.35,2.71-.7,4.06-1.04,2.04-1.61,4.07-1.69,6.09.06-1.42,1.93-2.93,3.77-5.08,4.96Z"/><path class="cls-170" d="m82.72,243.2c4.08.05,8.17.1,12.25.15-.38,3.77-4.86,2.65-6.23,5.25-.29.37-.64.67-1.03.93-.47.14-.94.2-1.42.16-1.68-.32-3.5-.25-4.82-1.64-1.08-2.01-.17-3.5,1.26-4.85Z"/><path class="cls-5" d="m65.76,235.27c-1,.04-2.01.09-3.01.13-.63-.08-1.26-.15-1.89-.23-.08-1.64-.17-3.27-.25-4.91-.77-1.93.31-2.68,1.95-3.09,1.22-.14,2.35.06,3.32.87.99,2.42,3.61,4.88-.12,7.23Z"/><path class="cls-95" d="m82.72,243.2c-.34,1.65-.68,3.29-1.02,4.94-.18.19-.36.38-.54.57-2.82.92-5.58,1.33-8.09-.82-.09-.24-.18-.49-.27-.73,2.09-2.48,5.63-2.15,7.99-4.11.65.05,1.29.11,1.94.16Z"/><path class="cls-132" d="m107.84,242.23c-2.03-.02-4.06-.04-6.09-.06-1.41-1.64-3.32-.74-5.01-.99.32-.95.65-1.89.97-2.84.82-1.36,2.38-1.3,3.61-1.87.88-.32,1.75-.65,2.71-.64.73.2,1.16.7,1.37,1.41-1.01,3.98,2.83,2.3,4.16,3.55.25.24.36.49.32.77-.04.29-.09.43-.16.43-.63.08-1.27.16-1.9.24Z"/><path class="cls-195" d="m58.88,240.16c.3,0,.61,0,.91-.02,2.13.03,4.28-.09,6.16,1.19.14,1.87-.96,3.22-1.96,4.6-.14.13-.29.25-.44.36-2.66.59-4.38-.74-5.76-2.79,0,0-.08-.4-.08-.4.39-.98.78-1.96,1.17-2.94Z"/><path class="cls-256" d="m87.77,248.15c.95-3.77,5.66-1.91,7.19-4.8.91-.05,1.82-.09,2.73-.14-.81,1.76-3.06,2.68-2.9,5,0,0-.11-.09-.11-.09-2.3,1.89-4.61,1.73-6.92.02Z"/><path class="cls-165" d="m63.99,245.93c-.92-2.2.67-3.34,1.96-4.6.92-.09,1.85-.18,2.77-.28-.32,2.84-.45,5.87-4.73,4.88Z"/><path class="cls-205" d="m63.9,187.16c-.05-.3-.12-.59-.23-.88,0,0,.25-.33.25-.33,2.37-1.24,4.33-.27,6.22,1.16.33.48.57,1.01.72,1.58.31,3.21.86,6.43-.75,9.49-2.12,1.49-3.91.82-5.55-.84-.88-3.35.33-6.83-.66-10.18Z"/><path class="cls-146" d="m63.9,187.16c1.66,3.19.62,6.58.74,9.88-.22.43-.52.47-.88.17-.35-.32-.69-.64-1.04-.96,2.32-2.78.32-6.12,1.17-9.09Z"/><path class="cls-23" d="m62.66,171.36c.02-1.72.04-3.44.07-5.17,2.2-.84,3.71.67,5.42,1.56.61.5,1.07,1.11,1.37,1.84.24,5.55-.65,6.13-5.62,3.69-.35-.39-.69-.79-1.05-1.18-.08-.25-.14-.5-.19-.75Z"/><path class="cls-112" d="m62.84,172.11c.27.05.53.1.8.16,1.91,2.62,1.82,5.38.63,8.24-.22.19-.44.38-.66.57-.29-.29-.57-.59-.86-.88.03-2.7.06-5.39.09-8.09Z"/><path class="cls-168" d="m64.77,211.23c-1.14.01-2.28.06-3.1-.95,4.23-1.7,1.12-5.34,2.09-7.9-.04-.17-.05-.35-.04-.52.6-.11,1.1.08,1.49.55,1.22,2.72,1.15,5.45.14,8.21-.19.21-.39.41-.58.61Z"/><path class="cls-235" d="m68.63,169.44l-1-1.22c-.83-1.06-1.14-2.28-1.16-3.6-.09-1.64.18-3.32-.61-4.87-.77-1.25-1.6-2.43-3.29-2.79-1.62,2.3,1.27,5.04-.66,7.26-2.39,2.03-3.83-1.41-5.94-1.04-.12-1.65-.25-3.3-.37-4.94.5-3.42-3.37-8.7,3.92-9.23,4.48,1.81,8.59,4.4,12.97,6.44.37.34.6.76.73,1.25,0,1.65.04,3.31.02,4.97-.59,3.1.29,6.26-.39,9.36-2.26,1.74-2.98-.62-4.21-1.59Z"/><path class="cls-263" d="m61.9,164.23c-.46-3.01-1.8-5.94-.78-9.38,2.51.63,4.7,1.6,5.7,4.31.99,1.58-.18,3.51.84,5.08-.01,1.33-.02,2.65-.04,3.98-1.64-.68-3.27-1.35-4.91-2.03-.27-.66-.54-1.31-.82-1.97Z"/><path class="cls-9" d="m69.74,187.17c-1.94-.4-3.88-.8-5.81-1.21-.11-1.63-.21-3.25-.32-4.88,0,0,.04-.02.04-.02,1.88-1.24,3.65-.57,5.41.3.74.46,1.26,1.09,1.53,1.91.33,1.43.32,2.79-.85,3.89Z"/><path class="cls-125" d="m62.74,223.28c4.05-1.37,1.32-4.6,1.9-6.92,0,0,.22-.39.22-.39,1.95-.96,3.56-.1,5.14.96,1.31,1.76.89,3.93,1.41,5.88.09.76,0,1.48-.42,2.13-1.97,1.19-4.19.2-6.24.71-1.29-.26-2.29-.78-2-2.37Z"/><path class="cls-226" d="m62.74,223.28c.67.64,1.34,1.27,2.01,1.91,1.23.37,1.65,1.25,1.56,2.45-.13.44-.42.7-.86.8-.89-.12-1.77-.24-2.66-.36-.82-.82-2.15.08-2.93-.87.02-1.74.04-3.48.05-5.23.95.43,1.89.86,2.84,1.3Z"/><path class="cls-52" d="m59.84,227.21c1.08-.04,2.17-.14,2.93.87-1.38.07-2.02.89-2.17,2.18-.96-.84-.9-1.94-.77-3.06Z"/><path class="cls-98" d="m60.73,150.14c-4.14-.66-5.64,1.18-5.01,5.18.15.94-.07,1.94-.12,2.92-2.04-3.08.32-6.97-1.85-10.02.36-.34.71-.69,1.07-1.03.29.03.58.06.87.07,1.43.41,2.87.8,4.29,1.28.6.37,1.06.81.76,1.6Z"/><path class="cls-236" d="m69.8,217.26c-1.65-.43-3.3-.86-4.95-1.29-.03-1.58-.05-3.17-.08-4.75,0,0-.02-.04-.02-.04,1.82-.79,3.44-.21,5,.74,1.24,1.44,1.56,3.13,1.29,4.96-.3.51-.72.63-1.25.37Z"/><path class="cls-135" d="m64.67,202.24c-.31-.13-.63-.26-.94-.39.01-1.55.03-3.09.04-4.64.29-.05.59-.1.88-.17,1.66.39,3.33.78,4.99,1.17.48.37.81.84.99,1.41-.57,4.98-1.52,5.39-5.96,2.61Z"/><path class="cls-150" d="m113.73,209.19c.65,2.64,1.3,5.27,1.94,7.91-2.87,2.13-5.86,1.74-8.91.47-2.56-2.61-3.07-5.5-1.14-8.7,2.76-1.43,5.47-1.55,8.11.33Z"/><path class="cls-150" d="m110.7,196.15c.65,2.32,1.3,4.64,1.95,6.95-2.48,1.97-5.09,1.73-7.76.44-1-.88-1.3-2.06-1.41-3.33-.03-2.72.62-4.93,3.87-5.21,1.27-.07,2.39.29,3.35,1.14Z"/><path class="cls-27" d="m109.74,241.99c0-.28,0-.56-.01-.84-1.18-1.68-.47-3.41-.13-5.13.36-.33.77-.57,1.22-.75,2.68-.45,5.28-1.7,8.09-.82,2.69,2.52.76,4.07-1.18,5.62-1.02.22-2.27-.27-2.99.92-1.71.13-3.12,1.74-5.01,1Z"/><path class="cls-100" d="m108.63,184.37c.34.97.68,1.93,1.02,2.9.02,1.32.04,2.65.06,3.97-1.87,1.63-3.92,1.3-6.01.53-.84-.5-1.45-1.19-1.81-2.1-.57-2.27-.85-4.62,1.46-6.03,1.76-1.07,3.71-.88,5.27.74Z"/><path class="cls-217" d="m115.68,218.22c.34,1.3.68,2.6,1.01,3.9-.18.19-.36.38-.54.58-.71.41-1.47.6-2.28.68-2.16.04-4.38.38-6.3-1.07-.91-1.44-2.08-2.86-.42-4.54,2.84.11,5.73-.6,8.52.45Z"/><path class="cls-185" d="m112.67,204.25c.71,1.21,1.23,2.46,1.02,3.91-2.26,1.07-4.66.27-6.98.49-.57,0-1.05-.22-1.44-.63-.59-1.44-1.96-2.9.09-4.29,2.44.2,4.95-.64,7.32.51Z"/><path class="cls-109" d="m103.78,191.11c1.98.04,3.95.08,5.93.13.83,1.54,1.17,3.17.99,4.91-.97-.04-1.95-.09-2.92-.13-1.25-.77-2.68.03-3.97-.47-.38-.3-.65-.68-.83-1.13-.28-1.24-.28-2.41.8-3.32Z"/><path class="cls-30" d="m117.74,240.06c.43-1.68,2.96-2.97.92-5.09-.52-.55-.86-1.19-1.03-1.93-.32-1.7-.82-3.35-1.22-5.03-.44-2-1.3-4.02.31-5.9,0,0-.02,0-.02,0,4.15,4.76,3.11,10.75,3.71,16.32.08.72-.8,2.67-2.67,1.62Z"/><path class="cls-257" d="m113.72,188.23c4.35,0,8.7-.01,13.04-.02-4.35,1.6-8.69,1.58-13.04.02Z"/><path class="cls-83" d="m115.68,218.22c-2.96-.05-5.92-.09-8.88-.14-.09-.17-.18-.34-.27-.51.13-.14.27-.28.41-.42,2.91-.02,5.83-.04,8.74-.05,0,.37,0,.75,0,1.12Z"/><path class="cls-196" d="m105.81,208.29c2.63-.04,5.25-.09,7.88-.13.01.34.02.69.04,1.03-2.61.01-5.22.03-7.83.04-.24-.19-.34-.39-.28-.61.06-.22.12-.33.19-.33Z"/><path class="cls-167" d="m112.67,204.25c-2.6-.08-5.19-.17-7.79-.25-.11-.18-.22-.37-.33-.55.18-.11.37-.22.55-.33,2.51,0,5.03,0,7.54-.01,0,.38.02.76.03,1.14Z"/><path class="cls-5" d="m102.72,258.3c-.28-.09-.56-.16-.85-.2-.1-1.67-1.48-3.08-.98-4.87,2.6-1.52,5.23-1.89,7.91-.2l2,3.15c-1.61,3.44-4.99.23-7.08,1.88-.33.08-.66.16-.99.24Z"/><path class="cls-160" d="m103.71,258.06c2-1.98,5.13.31,7.08-1.88.7.46.89,1.13.81,1.92-2.63-.01-5.26-.03-7.89-.04Z"/><path class="cls-51" d="m99.73,253.17c-1.68.02-3.35.03-5.03.05-.15-.16-.3-.31-.45-.46-.5-1.05-.5-2.09,0-3.14.15-.15.31-.3.47-.46,2.25-.02,4.58-.31,6,2.06.63,1.14-.45,1.41-.99,1.95Z"/><path class="cls-276" d="m99.73,253.17c.33-.65.66-1.3.99-1.95,2.37-.33,4.73-.67,7.1-1,.32.94.64,1.88.96,2.82-2.64.07-5.27.13-7.91.2-.38-.02-.77-.04-1.15-.07Z"/><path class="cls-206" d="m87.77,248.15c2.31,0,4.61-.02,6.92-.02.01.34.02.69.03,1.03,0,0-.01-.02-.01-.02-2.3,1.74-4.61,1.87-6.92.01,0-.33-.01-.67-.02-1Z"/><path class="cls-24" d="m56.67,254.07c-.04-1.9-.09-3.81-.13-5.71,0,0,.29-.22.29-.22,2.36-.42,4.15.4,5.39,2.44.61,1.61.95,3.21-.2,4.75-2,1.2-3.79,1.22-5.16-.96l-.19-.29Z"/><path class="cls-236" d="m61.67,250.19c-1.62-.68-3.24-1.37-4.85-2.05.8-1.45,1.03-3.02.97-4.64,1.92.93,3.84,1.86,5.76,2.79-.28,1.3-.55,2.59-.82,3.88-.35.5-.7.48-1.06.02Z"/><path class="cls-6" d="m56.85,254.37c1.59.29,3.18.59,4.78.88.45.3.76.71.94,1.22.31,1.34.29,2.62-.82,3.64-1.97-.41-3.94-.83-5.91-1.25-.21-1.62-.11-3.17,1.01-4.49Z"/><path class="cls-245" d="m85.67,259.26c-1.97-.03-3.95-.05-5.92-.08-.01-.37-.03-.75-.04-1.12-1.18-1.43-.68-2.84.05-4.25.15-.21.31-.42.46-.63.38-.38.82-.66,1.32-.83,1.62-.39,3.19-.41,4.55.75.95,1.48.98,3.06.55,4.71-.23.49-.53.94-.88,1.36l-.09.09Z"/><path class="cls-197" d="m80.56,254.14c-.29,1.31-.57,2.61-.86,3.92-2.63,0-5.27,0-7.9,0-.05-.28-.13-.56-.23-.84-.75-1.18-.73-2.32.19-3.41,2.98-1.34,5.93-1.64,8.79.33Z"/><path class="cls-129" d="m71.91,254.14c-.11,1.03-.22,2.06-.33,3.09-2.78.08-6.49-1.21-5.85,3.94-1.33-.03-2.66-.06-3.99-.09.01-.33.01-.65,0-.98.03-1.34.06-2.69.09-4.03.34-.28.7-.52,1.08-.73,1.85-.26,2.85-1.87,4.31-2.76,1.47-.73,2.91-.65,4.32.16.44.38.56.84.36,1.39Z"/><path class="cls-18" d="m132.91,124.11c-.43-.63-.86-1.27-1.3-1.9,1.1-2.02,2.96-2.74,5.1-2.98,1.96,1.11,4.56.79,6.15,2.75.06,3.1-3.09,2.79-4.54,4.29-1.23.62-2.54.35-3.83.33-1.41-.27-1.24-1.54-1.58-2.49Z"/><path class="cls-247" d="m149.78,120.18c1.91-2.89,4.56-3.5,7.74-2.55,2.86.85,3.25,2.34,1.2,4.5-3.59,2.16-6.37.58-8.94-1.95Z"/><path class="cls-119" d="m149.78,120.18c3.01.52,5.72,2.4,8.95,1.95.02.3.03.6.04.89-1.26,1.73-3.2,1.02-4.85,1.38-.35-.04-.69-.09-1.04-.13-3.05,1.37-5.7.59-8.1-1.52-.7-2.57,1.13-2.47,2.75-2.6.75,0,1.51.02,2.26.03Z"/><path class="cls-64" d="m147.51,120.15c-.93.68-1.86,1.36-2.79,2.04-.56.53-1.17.61-1.83.2-1.87-1.43-5.23.07-6.18-3.15,3.8-2.04,7.3-.54,10.8.92Z"/><path class="cls-136" d="m153.91,124.4c1.32-1.5,3.1-1.38,4.85-1.38.64.41,1.28.82,1.92,1.24-2.23,1.36-4.49,1.49-6.77.14Z"/><path class="cls-137" d="m142.89,122.39c.61-.07,1.22-.13,1.83-.2,2.72.69,5.43,1.39,8.15,2.08-1.04,2.23-3.76,2.16-5.22,3.81-4.6,2.22-6.35,1.86-9.77-2.01.43-2.91,3.81-1.82,5.01-3.68Z"/><path class="cls-99" d="m137.88,126.07c3.01,1.86,6.25,2.62,9.77,2.01.74.38,1.49.76,2.23,1.14.25.37.17.67-.18.92-2.47-.47-3.8,2.06-6.01,2.27-.63.45-1.33.62-2.1.54-3.15-1.41-6.44-2.67-6.8-6.86,1.01-1.51,2.06,0,3.08-.03Z"/><path class="cls-89" d="m149.7,130.14c.06-.3.12-.61.18-.92,3.22-.58,5.91.98,8.71,2.11.07.28.13.57.19.85-4.57,3.06-6.15,2.7-9.08-2.05Z"/><path class="cls-274" d="m85.77,258.14c0-1.64,0-3.28,0-4.92.38-.47.85-.8,1.41-1,2.61-.49,5.22-.93,7.48,1.05,0,0,.04-.05.04-.05-.85,1.71,2.1,3.37.06,5.09-3.01.45-6.01.77-8.99-.16Z"/><path class="cls-38" d="m85.77,258.14c3,.05,6,.11,8.99.16-2.87,1.68-6.01.54-9.01.86,0-.34,0-.68.01-1.02Z"/><path class="cls-202" d="m70.63,123.34c0,.28-.04.56-.09.83-3.38,7.16-5.12,7.97-10.64,4.96-.8-.52-1.59-1.06-1.97-1.99-.04-.64-.07-1.28-.11-1.92,1.97-1.72,3.94-3.44,5.91-5.16,3.15-.69,5.47.36,6.89,3.29Z"/><path class="cls-78" d="m70.63,123.34c-2.29-1.11-4.27-2.88-6.89-3.29,0-.28,0-.57.02-.85,2.3.05,3.18-2.28,5.02-2.99.38-.02.76-.04,1.14-.06,1.62.74,3.24,1.48,4.86,2.21-1.38,1.66-2.76,3.32-4.15,4.98Z"/><path class="cls-117" d="m147.76,145.21c.99,1.66,1.98,3.33,2.97,4.99-6.16,2.16-12.31,4.38-18.86,5.1-.22-.13-.44-.25-.66-.38-1.53-2.17-2.49-4.43-1.17-7.08,1.31-.95,2.88-.87,4.37-1.06,3.95-.29,7.5-2.42,11.49-2.57.61,0,1.23-.02,1.84-.02.31.21.42.43.32.66-.1.23-.19.34-.29.34Z"/><path class="cls-95" d="m145.89,144.23c-3.25,2.64-7.31,2.87-11.15,3.77-1.77-.67-3.61-.15-5.41-.33-2.1-1.45-2.76-3.29-1.58-5.65,4.24-2.27,8.8-3.04,13.56-2.87.55.15,1.03.42,1.44.82,1.62,1,2.84,2.3,3.15,4.27Z"/><path class="cls-253" d="m159.92,139.09c-2.4,1.01-4.26,1.62-5.96,2.53-3.06,1.64-4.63-.85-5.54-2.57-1.36-2.58,1.77-2.43,3.05-3.15,3.58-2.01,5.81.41,8.46,3.18Z"/><path class="cls-236" d="m142.74,139.97l-.47.15-.48-.07c-1.82-1.54-3.86-2.89-4.6-5.36.27-3.21,2.8-2.02,4.55-2.34.65.02,1.3.04,1.95.06.21.6.23,1.42.65,1.77,3.81,3.18,1.64,4.61-1.6,5.79Z"/><path class="cls-177" d="m147.76,145.21c-.01-.33-.02-.67-.03-1,1.66-1.53,3.33-1.48,5.01-.03-1.75-.09-3.46.04-4.98,1.03Z"/><path class="cls-198" d="m57.93,127.14c.8-.02,1.52.12,1.84,1,1.48,1.38,3.41,2.31,4.32,4.27.47,1.25-1.16,2.88.86,4.05,1.43-1.81-1.04-2.99-.65-4.49,1.73-2.54,3.11-.8,4.54.35.93,1.16,1.71,2.47,3.27,2.93.39.15.77.33,1.14.52,1.28.73,2.63,1.22,4.11,1.31.9.08,1.78.22,2.61.57,1.02.58,2.11,1.12,1.98,2.58-.65,1.16-2.61,1.51-2.06,3.64,2.07.47,2.62-1.98,4.21-2.33,3-.48,5.55.57,7.88,2.34.33.42.56.89.7,1.41.28,1.31.22,2.57-.43,3.77-1.45,1.56-3.3,1.35-4.94.7-3.24-1.28-5.6-.44-7.42,2.4-2.37.58-3.66-.72-4.59-2.65-.68-3.35-5.06-7.58-8.23-8.01-.72-.1-1.36-.01-1.71.63-.63,1.15.13,1.84.95,2.46,2.76,2.06,6.54,2.33,8.91,5.09.85,2.9.33,5.25-2.61,6.67-4.14-1.72-8.76-2.53-11.9-6.19-.35-.35-.69-.7-1.04-1.05-.27-2.58,1.31-5.36-.85-7.74l-.18-.3c1.71-4.85-2.44-6.49-4.96-9.01.07-2.2,2.34-3.02,3.02-4.84.4-.02.8-.05,1.2-.07Z"/><path class="cls-5" d="m53.71,132.05c.9.32,1.83.59,2.7.98,3.97,1.76,5.48,4.25,2.25,8.04-1.66-.95-3.28-2-5-2.84-3.27-1.61-2.99-3.65-.91-6.02.32-.02.64-.07.96-.16Z"/><path class="cls-93" d="m58.84,141.36c5.4,2.02,1.99,5,.85,7.74-1.62,0-3.54.66-4.01-1.83.27-2.39,1.7-4.15,3.16-5.9Z"/><path class="cls-17" d="m79.73,138.16c-.96,0-1.91-.02-2.87-.03-1.24-.93-2.74-1.3-4.12-1.93h0c-1.88-.77-3.77-1.54-3.67-4.09,1.5-2.8,2.38-6.3,6.65-6.05,2.62.39,4.63,2.15,6.98,3.15,1.62,3.85-.17,6.58-2.99,8.95Z"/><path class="cls-209" d="m79.73,138.16c.75-3.06,3.17-5.57,2.99-8.95.37,0,.73-.01,1.1-.02,1.25.63,2.51,1.25,3.76,1.88.15.18.3.36.45.54.12.66.18,1.38-.11,1.96-2.61,5.18-.37,7.53,4.75,8.24.35.36.53.8.57,1.3-.18.8-.53,1.35-1.48,1.11-2.65-.68-5.3-1.37-7.95-2.05-1.17-.19-1.84-.87-2.04-2.03-.68-.66-1.36-1.32-2.03-1.97Z"/><path class="cls-272" d="m75.74,126.07c-3.01,1.09-3.97,4.25-6.19,6.14-.13.48-.42.83-.86,1.05-1.35-.23-1.96-3.1-3.93-1.09-.3.43-.62.46-.98.07-1.69-1.03-3.13-2.3-4.01-4.11,6,5.22,7.41-2.02,10.77-3.96,1.74.35,3.48.7,5.22,1.04,0,.28,0,.57-.02.85Z"/><path class="cls-205" d="m90.8,125.16c1.18.73,2.37,1.42,3.85.95l.33.29c1.34,2.54.37,4.92-.52,7.31-.26.45-.64.75-1.15.89-2.27-.28-4.27-1.04-5.41-3.22,0,0-.33-.3-.33-.3,1.07-1.97,2.15-3.94,3.22-5.91Z"/><path class="cls-100" d="m100.94,123.4c1.59.28,3.19.56,4.78.83,0,0,0-.01,0-.01,1.03,1.08,1.3,2.39,1.15,3.83-.22,1.46-.87,2.58-2.39,3.02-1.65.32-3.19.21-4.41-1.15-.1-.24-.2-.49-.31-.73-.27-2.06.42-3.94,1.18-5.79Z"/><path class="cls-106" d="m93.77,134.2c.4-2.6.8-5.2,1.2-7.79,1.6.93,3.19,1.86,4.79,2.79l.02-.02c.61,2.21.5,4.33-.87,6.27-2.08,1.09-3.78.59-5.15-1.25Z"/><path class="cls-66" d="m105.81,128.12l-.1-3.9c1.42-.21,2.58,1.3,4.06.65,0-1.55,0-3.08,0-4.61,1.97.65,3.94,1.31,5.92,1.96.21.13.42.27.63.4.96,1.24,1.57,2.52.37,3.96-3.83.46-4.85,2.92-4.5,6.35-1.9,1.88-3.43.36-5.03-.55-.34-.31-.63-.67-.86-1.07-.46-1.02.37-2.23-.49-3.2Z"/><path class="cls-209" d="m126.83,124.09c.83.52.98,1.31.88,2.2-2.36,1.14-4.03,2.54-2.69,5.56.52,1.16.7,2.5-.23,3.67-1.15.76-2.38.78-3.65.43-.75-.26-1.38-.71-1.94-1.27-1.6-2.04-2.48-4.33-2.35-6.96.29-2.08,2.6-2.45,3.46-4.05.15-.16.31-.31.47-.47,2.02.29,4.03.59,6.05.88Z"/><path class="cls-1" d="m115.69,122.22c2.55-4.05,3.8-1.45,5.09,1,0,0-.03,0-.03,0-2.06,1.62-3.55.33-5.03-.99h-.03Z"/><path class="cls-179" d="m124.97,135.06c-.42-1.21-.86-2.42-1.25-3.64q-1.69-5.24,3.99-5.13c.33.25.66.51,1,.76,3.94.68,6.08,3.24,7.24,6.86-2.83,2.6-6.2,2.76-9.74,2.17-.52-.2-.93-.54-1.23-1.01Z"/><path class="cls-185" d="m135.52,133.26c-2.27-2.07-4.54-4.14-6.82-6.21.67-2.03,3.22-1.36,4.2-2.94.63.66,1.26,1.32,1.89,1.98,1.49,3.01,4.46,4.35,6.94,6.25-.97,1.48-3.99.06-4.02,2.85-1.76.51-1.31-1.47-2.19-1.94Z"/><path class="cls-177" d="m132.69,160.23c-1.7-.1-3.39-.11-4.78,1.11-.2-.13-.4-.27-.6-.4-.8-1.27-1.29-2.59-.75-4.11,1.36-1.52,2.79-2.84,5.05-1.75,0,0,.26.23.26.23-.54,1.77.82,3.23.82,4.92Z"/><path class="cls-177" d="m127.91,161.34c.31,1.93.62,3.87.93,5.8,0,0-.16.09-.16.09-1.83,1.68-4.23,1.01-6.34,1.55-.48.07-.97.08-1.46.04-1.66-.34-3.35-.44-5.05-.54-.79-.09-1.53-.33-2.2-.79-.39-.41-.66-.89-.83-1.43-.33-2.06-.58-4.1,1.42-5.57,4.52-.99,9.03-1.71,13.41.59,0,0,.27.25.27.25Z"/><path class="cls-235" d="m109.99,173.2c-2.36.97-4.06,2.25-2.4,5.1-1.37,1.18-3.07,1.17-4.72,1.34-.47-.04-.91-.21-1.29-.49-.94-1.06-1.04-2.47-1.55-3.71-.5-1.95-2.45-2.15-3.78-3.1-.72-.78-1.05-1.67-.72-2.73,2.49-6.29,2.77-6.38,13.11-4.09.79.41,1.39,1.01,1.79,1.81.69,2.02.95,4-.44,5.86Z"/><path class="cls-197" d="m120.79,168.03c.3.03.61.05.91.05,2.34-.47,4.68-.78,6.99.16l.06-.05c1.08,1.59-.08,3.55.85,5.16,0,.29.04.58.13.86-5.07,1.62-10.13,3.2-14.79-1.03-1.84-1.7-2.89-3.52-.97-5.84.57-.02,1.13-.03,1.7-.05,1.61.94,3.49-.06,5.12.73Z"/><path class="cls-88" d="m101.84,179.12c.33.06.66.04.99-.05,1.63-.45,3.26-.77,4.83.2.32,1.7.64,3.41.96,5.11-5.21-1.35-6.69,1.05-5.84,5.79-1.32,1.38-2.9,1.24-4.53.76-.5-.21-.91-.54-1.25-.97-1.21-1.81-1.6-3.78-1.09-5.92.17-.46.44-.87.79-1.21,1.65-.93,4.23-.54,4.63-3.25.17-.15.33-.31.5-.46Z"/><path class="cls-188" d="m113.98,167.35c-.72,2.12,1.03,3.83.97,5.84-1.65,2.49-3.3,2.66-4.96.01-.13-1.98-.26-3.95-.4-5.93,1.31-1.28,2.67-1.19,4.06-.13l.33.21Z"/><path class="cls-20" d="m107.67,179.26c-1.61-.07-3.22-.13-4.83-.2,1.37-1.59,3.15-.67,4.76-.76.07.32.09.64.08.96Z"/><path class="cls-216" d="m128.69,168.24c-2.33-.05-4.66-.1-6.99-.16,2.16-1.63,4.64-.63,6.98-.85,0,.34,0,.67.01,1.01Z"/><path class="cls-60" d="m129.61,173.35c-1.39-1.54-.7-3.42-.85-5.16,1.64,1.5.83,3.4.85,5.16Z"/><path class="cls-8" d="m84.71,238.33c-.97-.07-1.94-.15-2.91-.22-1.27-1.94-2.01-4.24-.15-5.87,2.74-2.4,5.85-1.3,8.75.17,1.7,1.62,2.15,3.52,1.26,5.72l-.03-.1c-2.26,1.19-4.59.63-6.92.3Z"/><path class="cls-217" d="m90.62,233.34c-.8-.16-1.61-.28-2.4-.48-6.36-1.58-6.56-1.42-6.42,5.25-.37-.28-.75-.56-1.12-.84-1.34-1.69-1.3-3.61-.92-5.58.41-1.55.72-3.15,1.73-4.48,2.65-1.81,5.53.03,8.26-.5.85.16,1.4.68,1.76,1.44.47,1.31.48,2.62.09,3.95-.19.52-.52.93-.99,1.23Z"/><path class="cls-226" d="m65.76,235.27c1.98-2.37-.44-4.54-.32-6.82,0,0,.33-.29.33-.29,2.14-1.3,4.03-.26,5.95.6.41.37.7.81.9,1.33.26.78.38,1.59.41,2.41.02,1.66-.03,3.3-1.21,4.64-1.78-1.41-4.35-.24-6.06-1.86Z"/><path class="cls-241" d="m90.62,233.34c.04-.39.08-.77.11-1.16,1.94-1.31,4.29-.25,6.32-1.09,2.25-.05,4.48-1.15,6.76-.15.49.63.58,1.33.33,2.08-1.39,1.9-3.85.84-5.5,2-.56.61-.79,1.39-1.09,2.14-.21.36-.46.69-.74.99-1.72,0-3.43-.01-5.15-.02-1-1.46-.86-3.15-1.03-4.79Z"/><path class="cls-121" d="m80.74,231.22c-.02,2.02-.04,4.03-.06,6.05-1.67-.04-3.33-.08-4.99-.13-1.49-2-1.48-4.02-.07-6.06,1.74-1.23,3.46-1.38,5.13.13Z"/><path class="cls-201" d="m75.88,231.13c-.06,2-.13,4.01-.19,6.01-.96-.02-1.93-.04-2.89-.06-1.24-1.46.11-3.42-.95-4.92-.01-.63-.03-1.27-.04-1.9,1.34-1.31,2.57-.92,3.76.22.1.22.21.43.31.65Z"/><path class="cls-149" d="m84.71,238.33c2.31-.1,4.61-.2,6.92-.3-2.22,2.02-4.56,1.45-6.92.3Z"/><path class="cls-178" d="m96.8,238.15c.03-.36.06-.72.09-1.08,1.73-1.29,3.39-1.35,4.97.26-1.17,1.2-2.76.71-4.15,1.01-.3-.09-.6-.15-.91-.19Z"/><path class="cls-219" d="m71.85,232.16c1.48,1.42.67,3.27.95,4.92,0,0-.48.09-.48.09,0,0-.49-.03-.49-.03,0-1.66.02-3.32.03-4.97Z"/><path class="cls-135" d="m66.75,251.17c-.69-5.4,3.35-3.69,6.04-4.02,0,0-.03.01-.03.01.96,1.48,1.38,3.01.54,4.69-.31.49-.76.76-1.33.82-1.9.08-3.76-.01-5.22-1.5Z"/><path class="cls-252" d="m66.88,253.22c-.07,2.73-1.55,3.42-3.97,2.76-1.09-1.84-1.1-3.48.88-4.76.98.34,1.96.67,2.94,1.01.26.19.37.4.33.63-.04.24-.1.37-.18.37Z"/><path class="cls-56" d="m66.88,253.22c-.05-.33-.1-.66-.15-1,0-.35.01-.7.02-1.05,1.72.38,3.45.76,5.17,1.14.17.4.07.7-.3.92-1.58,0-3.16,0-4.74,0Z"/><path class="cls-32" d="m63.79,251.21c-.95,1.47-1.29,3.05-.88,4.76-.36.03-.72.07-1.07.11-.06-.28-.13-.56-.2-.83.01-1.68.03-3.37.04-5.05.35,0,.71-.01,1.06-.02.35.35.7.69,1.06,1.04Z"/><path class="cls-31" d="m94.66,253.26c-2.66-.09-5.32-.18-7.97-.27-1.04-1.29-1.07-2.57.07-3.82.35,0,.69-.02,1.04-.02,2.31,0,4.61,0,6.92-.01-.02,1.37-.03,2.75-.05,4.13Z"/><path class="cls-135" d="m86.76,249.17c-.02,1.27-.05,2.55-.07,3.82-.3.1-.61.17-.92.23-1.6-.02-3.2-.05-4.8-.08-1.95-2-1.21-3.59.76-5,0,0-.04-.01-.04-.01,1.69.34,3.64-.6,5.06,1.04Z"/><path class="cls-213" d="m81.73,248.15c-.79,1.58-1.28,3.21-.76,5,0,0-.28.1-.28.1-2.75.26-5.66,1.67-7.96-1.16.01-1.64.03-3.28.04-4.92,2.84,1.66,5.95.93,8.97.99Z"/><path class="cls-148" d="m109.62,236.36c1.69,1.56.2,3.19.11,4.79-1.93,0-3.86,0-5.83,0-.94-1.66,1.28-2.53.85-3.95,1.45-1.29,3.04-1.78,4.87-.84Z"/><path class="cls-197" d="m101.87,237.33c-1.66-.09-3.32-.17-4.97-.26-.04-.95-.08-1.89-.12-2.83,1.85-1.11,3.88-.28,5.81-.53.52-.03.99.11,1.4.42.4.71.45,1.42-.06,2.1-.43.84-1.22,1.02-2.06,1.1Z"/><path class="cls-27" d="m103.92,236.23c-.05-.69-.11-1.37-.16-2.06,1.51-1.36,3.34-1.63,5.27-1.58.47.14.86.41,1.16.8.45.98.31,1.87-.36,2.7,0,0-.21.27-.21.27-1.54.75-3.19.92-4.87.84-.28-.32-.55-.65-.83-.97Z"/><path class="cls-44" d="m69.74,187.17c0-1.34.02-2.68.03-4.03.73-.97,2.23-1.11,2.6-2.46.31-1.37.25-2.88,1.51-3.88,2.05-.62,3.73.05,5.21,1.47,1.2,2.03,1.16,4.14.42,6.3-1.72,1.83-4.93,1.53-6.08,4.21-1.33.57-2.55.35-3.66-.54,0-.36-.01-.72-.02-1.07Z"/><path class="cls-100" d="m69.77,188.24c1.29.05,2.58.1,3.86.15.49.36.85.83,1.06,1.4.21,3.44,1.64,7.09-1.59,9.98-1.24.37-2.36.32-3.18-.87-.02-.26-.12-.48-.28-.68.04-3.33.08-6.65.12-9.98Z"/><path class="cls-88" d="m68.8,182.17c-1.72-.37-3.43-.73-5.15-1.1,0-2.93,0-5.86,0-8.79,3.06,1.51,6.07,2.94,4.99-2.84,1.34.57,2.69,1.14,4.03,1.71.19.18.38.35.58.53.77,1.48.73,2.95-.02,4.41-3.16.8-3.08,3.96-4.42,6.09Z"/><path class="cls-204" d="m69.92,198.9c.92.13,1.84.26,2.75.38.88.38,2.02.23,2.58,1.27.69,1.4.7,2.81,0,4.21-.86,1.3-2.36.87-3.52,1.34-1.52,1.54-.39,3.68-1.24,5.36-.2.41-.5.73-.91.95-1.65-.26-3.37-.23-4.83-1.23-.03-2.98-.06-5.97-.09-8.95,3.13,1.06,5.75,1.31,5.25-3.34Z"/><path class="cls-263" d="m72.67,171.14c-1.07-3.32-1.85-6.63.12-9.91.25,0,.5-.02.76-.03,3.83.8,5.56,3.2,5.44,7.05,0,1.26-.07,2.5-.71,3.64-1.32,1.35-2.74.53-4.14.21-.43-.23-.82-.52-1.18-.86l-.28-.1Z"/><path class="cls-148" d="m72.63,156.33c1.18-2.18,2.45-4.33,2.17-6.96.21-.43.51-.52.93-.29,1.31,1.05,2.63,2.11,3.94,3.16.11.2.22.39.33.59-.25,2.27-1.05,4.33-2.4,6.18-.35.3-.75.48-1.2.57-1.61-.27-2.93-1-3.85-2.39.08-.28.11-.56.09-.85Z"/><path class="cls-198" d="m72.54,157.18c1.81-.19,2.78,1.38,4.2,2-.15,3.11-1.97,2.8-4.04,1.98,0,0,.08.06.08.06-.49-1.32-1.97-2.59-.25-4.04Z"/><path class="cls-77" d="m67.66,164.24c-1.42-1.51-.81-3.35-.84-5.08,1.45,1.5.84,3.34.84,5.08Z"/><path class="cls-179" d="m68.8,182.17c0-1,.1-2.01-.05-2.99-.54-3.55.76-4.49,3.95-2.9.39.3.56.69.53,1.18.16,1.58-.38,3.21.38,4.74-.89,1.91-2.59.51-3.85.94-.32-.32-.65-.65-.97-.97Z"/><path class="cls-95" d="m70.88,225.08c-.1-.64-.2-1.27-.3-1.91-.14-2.15-1.6-4.69,1.73-5.81,1.59-.14,2.73.48,3.33,1.99.47,1.78.99,3.57.69,5.46-1.29,2.45-3.04,2.47-5.07.93-.13-.22-.26-.44-.38-.67Z"/><path class="cls-169" d="m71.73,229.17c-2.11.36-3.98-.64-5.97-1.01-.34-.99-.68-1.98-1.02-2.97,2.01-2.04,4.08-.69,6.13-.11,0,0-.05,0-.05,0,.88,1.23,2.22,2.37.91,4.09Z"/><path class="cls-143" d="m72.77,218.02c-3.44.57-1.38,3.47-2.19,5.16-1.48-1.81-.6-3.93-.78-5.91.27-.09.54-.16.82-.23,1.12-.55,1.97-.51,2.15.98Z"/><path class="cls-126" d="m72.77,218.02c-.72-.33-1.43-.65-2.15-.98-.34-1.54-.69-3.08-1.03-4.62,0,0,.22-.31.22-.31.32-.29.69-.39,1.11-.31.8.23,1.55.58,2.3.94.78.39,1.53.83,2.11,1.52.93,1.57,2.13,3.07,1.62,5.1-.48.58-1.07.9-1.85.71-.13-1.42-1.11-1.87-2.33-2.05Z"/><path class="cls-115" d="m105.81,208.29c-.07.32-.04.64.09.94-.2,2.71-.38,5.42,1.03,7.92-.17,0-.34.02-.51.07-1.39,1.34-2.94,1.16-4.54.48-.95-.63-1.49-1.57-1.95-2.58-.71-2.08-1.67-4.14-.46-6.36,1.85-1.88,3.89-2.25,6.16-.78l.18.31Z"/><path class="cls-115" d="m104.57,200.21c.18.97.35,1.94.53,2.91-.2.01-.4.04-.59.08-1.43,1.32-3.03,1.2-4.7.59-.78-.41-1.37-1.01-1.78-1.79-.7-2.42-2.14-4.83-.12-7.3,2.02-1.05,3.96-1.01,5.8.42l.12.2c.98,1.51-.13,3.35.74,4.88Z"/><path class="cls-158" d="m104.57,200.21c-1.35-1.46-.81-3.2-.74-4.88,1.38-.14,2.79-.44,3.94.7-3.16-.21-3.19,1.98-3.2,4.18Z"/><path class="cls-250" d="m109.84,236.09c.03-.9.06-1.81.09-2.71,2.82-2.4,5.76-2.05,8.76-.37,0,.66-.02,1.31-.03,1.97-2.99.02-5.75,1.77-8.82,1.12Z"/><path class="cls-106" d="m103.71,195.13c-1.95,0-3.89.01-5.84.02-.46-.31-.78-.72-.96-1.24-.32-1.37-.3-2.66.83-3.71,1.68-.01,3.36-.02,5.04-.03.33.32.66.63.99.95-.02,1.34-.04,2.68-.07,4.01Z"/><path class="cls-96" d="m101.83,217.28c1.53-.02,3.06-.04,4.58-.05.15.28.28.56.38.86.34,1.39.68,2.78,1.02,4.17-.21.18-.41.36-.61.54-1.88.77-3.71.77-5.46-.38-1.03-1.11-1.16-2.43-.85-3.84.17-.54.49-.97.95-1.3Z"/><path class="cls-271" d="m116.72,222.12c.33,2.01.66,4.02.99,6.03-1,1.01-2.25,1.26-3.6,1.27-1.02,0-2.01-.14-2.92-.63-1.67-2.36,1.25-3.01,1.7-4.59.48-.77,1.21-1.3,1.85-1.93.66-.05,1.32-.1,1.98-.16Z"/><path class="cls-82" d="m114.73,222.27c-.29.65-.57,1.31-.86,1.97-2.02-.05-3.85.93-5.84,1.12-1.17-.96-1.25-1.99-.19-3.08,0,0-.03-.02-.03-.02,2.31,0,4.61,0,6.92.01Z"/><path class="cls-106" d="m99.76,203.24c1.58-.01,3.17-.02,4.75-.03.16.25.28.51.37.79.25,1.33.5,2.65.75,3.98-1.9.42-3.99-.14-5.71,1.16-.43-.26-.74-.62-.95-1.08-.16-.47-.26-.95-.3-1.44,0-1.25.02-2.49,1.1-3.38Z"/><path class="cls-26" d="m113.71,228.38c1.33-.08,2.66-.16,4-.24.33,1.62.65,3.24.98,4.86-2.92.12-5.84.25-8.76.37,0,0-.27-.27-.27-.27-.99-1.22-1.75-2.49-.98-4.13,1.57-1.1,3.44.35,5.02-.6Z"/><path class="cls-240" d="m72.73,252.08c2.43,1.94,5.33.59,7.96,1.16.09.32.05.61-.12.9-2.88,0-5.77,0-8.65,0-.1-.3-.2-.6-.29-.91.14-.29.24-.6.3-.92.27-.05.54-.12.8-.22Z"/><path class="cls-79" d="m131.62,155.08c-1.58.69-3.15,1.38-4.73,2.07-.46-.28-.81-.66-1.05-1.14-.82-2.24-1.58-4.5-.85-6.94.92-1.82,2.36-2,4.09-1.31.21.17.42.34.63.5.64,2.27,1.27,4.55,1.91,6.82Z"/><path class="cls-151" d="m129.6,147.28c1.73.13,3.59-.69,5.14.73-1.68.09-3.36.17-5.04.26,0,0,.02-.06.02-.06-.31-.17-.43-.36-.36-.58.07-.23.15-.34.24-.34Z"/><path class="cls-205" d="m135.52,133.26c.73.65,1.46,1.3,2.19,1.94,1.81,1.23,3.67,2.43,4.08,4.84-4.65.74-9.3,1.48-13.95,2.22-.21-.12-.41-.24-.63-.35-1.3-2-2.72-3.97-1.53-6.54,3.34-.4,6.9.2,9.83-2.11Z"/><path class="cls-282" d="m129.6,147.28c.09.3.13.61.12.92-1.37.15-2.93-.43-4,.97-.32.37-.7.43-1.14.21-.32-.32-.55-.7-.74-1.11-.35-.84-.69-1.68-1.07-2.52-.52-1.4-1.1-2.8.35-4.03,1.52-.75,2.98-.82,4.36.31l.36.22c.12,1.84.8,3.47,1.76,5.01Z"/><path class="cls-85" d="m79.66,152.24c.32-4.12,1.93-6.05,6.34-4.15,1.74.75,3.76.86,5.65,1.26.46.33.79.77.99,1.3.48,1.95.54,3.85-.7,5.59-5.12,1.88-8.87-.5-12.26-3.97v-.03Z"/><path class="cls-5" d="m75.72,149.08c-.31.08-.62.18-.93.29-3.97-.26-6.93-2.9-10.36-4.44-1.54-.69-1.77-1.87-.67-3.17.86-1.01,1.21-3.07,3.3-1.83,2.69,1.59,5.32,3.29,8.05,4.81,2.23,1.25-.08,2.97.6,4.34Z"/><path class="cls-192" d="m81.76,140.13c.68.68,1.36,1.35,2.04,2.03-.15.29-.29.59-.45.88-.89,1.53-1.43,3.6-3.89,2.88-1-.29-1.71-1.18-1.56-2.27.29-2.2,1.35-3.7,3.87-3.52Z"/><path class="cls-239" d="m63.78,132.24c.33-.02.65-.05.98-.07.74.63,1.55,1.19,2.19,1.9,1.23,1.34.21,2.51-.61,3.45-.84.97-2.1.84-3.17.26-1.23-.67-1.39-1.7-.73-2.91.47-.86.89-1.75,1.34-2.62Z"/><path class="cls-239" d="m91.87,150.16c-.09-.26-.17-.53-.22-.81.04-1.38.08-2.76.12-4.14,1.68-1.11,3.38-1.48,5.12-.09,1.26,1.72,1.25,3.47.13,5.25-1.77,1.26-3.48,1.2-5.15-.21Z"/><path class="cls-15" d="m96.68,145.24c-1.63-.01-3.27-.03-4.9-.04-.01-.33-.02-.66-.02-.99.33-.35.66-.7.98-1.05,1.1-.94,2.32-1.11,3.64-.55.48.28.77.69.86,1.23-.03.26-.06.52-.09.78-.16.21-.32.41-.48.62Z"/><path class="cls-208" d="m68.68,133.26c.29-.35.58-.7.86-1.05-.12,2.28,2.19,2.62,3.2,4-2.16.12-3.8-.46-4.07-2.95Z"/><path class="cls-208" d="m72.74,136.2c1.71-.08,3.3.11,4.12,1.93-1.63-.08-3.06-.61-4.12-1.93Z"/><path class="cls-253" d="m87.9,131.38c1.77.76,3.62,1.39,5.01,2.84,1.57,2.64,1.86,5.24-.26,7.76-.64.08-1.29.26-1.93.24-5.77-.14-6.6-1.24-4.75-6.44.54-1.5,1.29-2.93,1.94-4.4Z"/><path class="cls-31" d="m92.65,141.97c.09-2.59.18-5.17.26-7.76.29-.01.57-.02.86-.02,1.64.32,3.29.63,4.93.95.35.39.52.84.51,1.36-.46,2.41-.42,5.01-2.65,6.73-1.27-.02-2.55-.04-3.82-.07-.03-.4-.06-.8-.09-1.19Z"/><path class="cls-205" d="m98.73,136.08c0-.31,0-.63-.03-.94.07-2.05-.18-4.15,1.09-5.97,1.18.81,2.47,1.21,3.9,1.09.84.88,2.23-.06,3.04.93l.26.22c1.13,2.21,1.5,4.44.18,6.72-3.44,1.9-6.09.56-8.43-2.05Z"/><path class="cls-183" d="m106.72,131.19c-1.16.17-2.23.04-3.04-.93,1.34-.08,2.06-.79,2.13-2.13,1.09.79.96,1.94.91,3.07Z"/><path class="cls-95" d="m117.72,127.26c.08,2.53.97,4.8,2.22,6.96-2.4,3.95-5.22,1.25-7.92.5-.48-.39-.64-.89-.46-1.49q-1.61-7.23,5.14-6.92c.67-.04.77.54,1.03.95Z"/><path class="cls-21" d="m111.55,133.24c.13.26.22.54.27.83,1.27,1.69,1.38,3.51.6,5.43-1.11,1.74-2.68,1.33-4.25.88-.49-.17-.93-.43-1.33-.76-.39-.42-.44-.88-.14-1.37.09-2.29.18-4.57.27-6.86,1.52.61,3.05,1.22,4.57,1.83Z"/><path class="cls-247" d="m117.72,127.26c-.34-.32-.69-.63-1.03-.95-.32-1.36-.64-2.73-.97-4.09,1.68.33,3.35.66,5.03.99,2.44,3.93-2.54,2.32-3.03,4.05Z"/><path class="cls-115" d="m111.59,140.11c.08-2.01.15-4.03.23-6.04,2.72-.58,5.37,2.49,8.12.15.27.34.55.67.82,1.01,1.56,1.75,2.43,3.66,1.34,6-1.24,1.21-2.82,1.18-4.39,1.19-.72-.01-1.42-.12-2.12-.29-1.06-.3-2.08-.71-3.1-1.14-.39-.2-.69-.5-.91-.88Z"/><path class="cls-106" d="m121.79,141.12c-.34-1.96-.68-3.93-1.03-5.89,1.4-.06,2.81-.11,4.21-.17.27.03.51.13.72.31.6,2.23,1.2,4.45,1.79,6.68-1.55.03-3.1.07-4.65.1-.18-.04-.35-.08-.53-.11-.29-.23-.46-.54-.51-.91Z"/><path class="cls-139" d="m126.68,156.3c.04.29.11.57.2.85.29,1.3,1.18,2.5.75,3.94-4.62.02-9.24.03-13.86.05-.41-.31-.7-.71-.88-1.19-.39-1.73-.65-3.47-.46-5.25.25-.49.63-.83,1.15-1.02,4.36.89,9.01.37,13.1,2.63Z"/><path class="cls-166" d="m113.6,160.34c.04.27.1.54.18.8-.04,2-.09,4-.13,6-1.35.04-2.7.09-4.06.13-.3-.33-.6-.65-.9-.98-1.36-1.84-1.47-3.76-.43-5.78,1.05-1.28,2.42-1.48,3.94-1.16.54.21,1.01.54,1.39.99Z"/><path class="cls-216" d="m120.79,168.03c-1.75.09-3.57.65-5.12-.74,1.74,0,3.57-.64,5.12.74Z"/><path class="cls-235" d="m72.7,161.16c1.72.11,3.41.15,4.04-1.98,0,0,0,0,0,0,2.44-1.73,4.68-.53,6.87.53,2.51,1.21,5.24,1.77,7.84,2.71.7.34,1.26.83,1.71,1.46.77,2.21,1.45,4.46,2.59,6.53.33.52.67,1.05,1,1.58-.73,1.86.45,4.15-1.32,5.78-1.46.69-2.91.66-4.37.02-.44-.26-.78-.63-1-1.08-.58-1.32-.53-2.79-1.02-4.12-.58-1.54-1.14-3.08-3.31-2.54-1.26.91-.78,2.88-2.22,3.67-1.86.69-3.43.16-4.82-1.13-.89-1.36.06-3.06-.82-4.42.79-4.18-2.87-5.08-5.16-7Z"/><path class="cls-280" d="m95.75,170.42c-3.75-.6-2.69-3.76-3.23-6.07,2.3-1.49,2.96-4.05,4.12-6.29,2.77-1.8,5.49-.18,8.23.1,1.23.33,2.44.73,3.49,1.48.16.2.31.4.47.6-.05,2.02-.09,4.03-.14,6.05q-7.85-.28-12.94,4.13Z"/><path class="cls-142" d="m90.84,177.05c1.6.04,3.21.07,4.81.1,1.51-1.26,3.37-1.62,5.19-2.09,1.23,1.13.6,2.72,1,4.05,0,0-.25.16-.25.16-2.16.45-4.32.89-4.68,3.65l-.23.34c-1.54,1.06-2.88.15-4.26-.43-.93-.52-1.76-1.15-2.26-2.12-.46-1.35-.53-2.63.68-3.67Z"/><path class="cls-117" d="m100.84,175.07c-.69,3.29-3.32,1.75-5.19,2.09.45-1.7-2.87-4.21,1.1-5.16,1.94.25,4.35-.11,4.1,3.07Z"/><path class="cls-100" d="m92.8,181.96c1.29.44,2.59.87,3.88,1.31.32,1.93-.38,4.04,1.02,5.79-1.79,3.05-3.93,1.56-6.05.48-.38-.4-.64-.87-.82-1.39-.24-.8-.33-1.61-.33-2.44.28-1.55-.13-3.52,2.3-3.75Z"/><path class="cls-3" d="m96.91,182.93q-1.1-5.42,4.68-3.65c2.21,6.05-2.36,3.41-4.68,3.65Z"/><path class="cls-126" d="m91.88,188.95c1.95-.3,3.84,2.29,5.82.1.02.38.03.76.05,1.14-.04,1.4-.08,2.8-.12,4.2-.92.73-1.96.7-3.03.47-1.31-.41-2.59-.88-3.38-2.13-.53-1.4-.62-2.72.67-3.8Z"/><path class="cls-95" d="m89.9,227.22c-2.73,2.36-5.42-.21-8.14-.06-.19-.2-.39-.4-.59-.6-.94-2.21-.98-4.38.27-6.49.67-.61,1.48-.85,2.36-.9,2.32.18,4.6.48,6.37,2.24,1.01,1.99,1.23,3.95-.27,5.82Z"/><path class="cls-115" d="m89.9,227.22c-.09-1.94-.19-3.88-.28-5.82.15-.16.3-.32.44-.49,1.59-.18,3.09.17,4.55.77.39.28.7.63.93,1.05.67,1.6,1.32,3.21.79,5.01-.22.5-.58.86-1.06,1.11-1.63.63-3.15.51-4.52-.66-.28-.33-.57-.65-.85-.97Z"/><path class="cls-21" d="m80.74,231.22c-1.62-.03-3.25-.06-4.87-.09,0,0-.07-.05-.07-.05-1.12-1.49-1.52-3.05-.45-4.75,1.36-1.34,2.96-1.47,4.69-.94.81.31,1.17,1.12,1.82,1.62l-.11.16c-.16,1.4.45,2.99-1.02,4.05Z"/><path class="cls-96" d="m90.75,228.2l4.84.04c.43.17.78.45,1.07.82.58,1.02,1.09,2.05.09,3.12-2.01,1.64-4.01.34-6.02,0,0-1.33.01-2.65.02-3.98Z"/><path class="cls-273" d="m75.75,226.2c.02,1.63.04,3.25.06,4.88-1.34-.27-2.67-.55-4.01-.82-.02-.36-.05-.72-.07-1.08-.3-1.36-.61-2.73-.91-4.09,1.63.26,3.26,1.83,4.89-.01.27.24.36.49.28.74-.08.26-.16.39-.24.39Z"/><path class="cls-164" d="m108.7,229.24c.73,1.19,1.23,2.43.96,3.87-1.94.5-3.82,1.37-5.9,1.06,0,0-.1.08-.1.08-.29-.22-.38-.43-.29-.65.09-.22.19-.33.28-.33,0-.71.02-1.42.03-2.14-.59-.84-.49-1.61.19-2.35,1.71-.91,3.34-1.03,4.83.45Z"/><path class="cls-182" d="m103.76,229.21c-.03.64-.05,1.28-.08,1.92-2.26.67-4.52,1.35-6.93,1.04-.28-1.08-.56-2.16-.85-3.25.99-.82,2.19-.91,3.39-.96,1.17-.03,2.33-.21,3.5-.19.73.2,1.31.51.96,1.43Z"/><path class="cls-154" d="m103.66,233.27c.04.33.05.65,0,.98-2.3,0-4.59-.01-6.89-.02,2.05-2.06,4.59-.64,6.89-.96Z"/><path class="cls-106" d="m72.86,177.02c-.01-.25-.07-.5-.16-.74.08-1.68.16-3.36.25-5.04.26-.02.52-.04.78-.04,1.33.64,2.69,1.19,4.14,1.49.45.03.86.18,1.23.45.26.38.45.8.56,1.25.2,1.18.18,2.33-.33,3.43-.15.18-.31.35-.47.53l-5.2-1.1c-.4.41-.67.34-.81-.22Z"/><path class="cls-135" d="m73.8,189.12c-.06-.24-.11-.48-.17-.72-.57-4.79,2.31-4.1,5.25-3.3.55-.22,1-.09,1.35.39.27.46.45.95.53,1.48-.01,4.53-2.43,4.71-5.79,3.2-.42-.31-.81-.66-1.18-1.04Z"/><path class="cls-72" d="m79.7,185.25c-.28-.03-.55-.08-.82-.16,0-2.25,0-4.51-.01-6.76,0,0,0,0,0,0,1.12-.25,1.46.56,1.82,1.34.43,1.99.67,3.95-.98,5.58Z"/><path class="cls-214" d="m72.86,177.02c.27.06.54.14.81.22-.02,1.65-.03,3.31-.05,4.96-1.4-1.56-.78-3.42-.76-5.19Z"/><path class="cls-120" d="m73.8,189.12c.28,0,.56.06.83.15,2.37,3.26,1.77,6.72.68,10.21-.22.21-.43.41-.65.61-.66-.27-1.32-.54-1.98-.81,2.38-3.17.44-6.82,1.12-10.17Z"/><path class="cls-100" d="m72.77,213.34c-.69-.36-1.38-.71-2.07-1.07-.69-2.69-.76-5.39.05-8.07,1.32.34,2.64.68,3.96,1.03.18.18.37.36.55.53.39.69.57,1.43.64,2.21.06,1.82.26,3.68-.9,5.29-.73.46-1.48.46-2.24.08Z"/><path class="cls-96" d="m74.72,205.23c-.02-1.71-.04-3.42-.06-5.13,0,0,0,0,0,0,1.73-1.28,3.45-.58,5.17.05.49.22.92.53,1.29.92.3.46.51.96.62,1.49.17,1.41.06,2.74-1.01,3.83-2.34,1.31-4.22.27-6.03-1.16h.02Z"/><path class="cls-102" d="m70.76,204.2c-.02,2.69-.04,5.38-.05,8.07-.31.01-.6-.04-.89-.16.48-2.62-1.25-5.5.94-7.91Z"/><path class="cls-88" d="m77.78,173.18c-1.59-.16-3.02-.67-4.05-1.98,1.43-.16,2.72.28,3.95.94.31.21.43.43.35.67-.08.25-.16.38-.26.38Z"/><path class="cls-103" d="m77.78,173.18c-.03-.35-.06-.7-.1-1.05.06-1.32.12-2.65.18-3.97,1.28,1.13.79,2.68.95,4.07.26.42.21.77-.22,1.05-.27,0-.54-.03-.81-.1Z"/><path class="cls-198" d="m91.67,163.33c-3.18-.08-6.03-1.22-8.81-2.65-1.91-.99-3.89-1.76-6.12-1.5.98-2.3,1.95-4.61,2.93-6.91,3.97,1.3,7.46,4.11,11.94,3.79.22.2.44.4.66.6,1,2.33,1.28,4.6-.61,6.67Z"/><path class="cls-205" d="m75.75,226.2c-.01-.38-.03-.75-.04-1.13.06-1.7-1.69-3.18-.61-5.01.55-.3,1.11-.6,1.66-.9,1.06-1.12,2.43-1.22,3.85-1.21,1.31.26,2.9.1,3.11,2.04-.67.05-1.35.1-2.02.15-1.22,1.87.33,4.21-1.01,6.06l-4.94-.02Z"/><path class="cls-159" d="m74.7,205.23l5.9.7c.23.21.45.41.68.61,1.17,2.69,1.25,5.34-.34,7.91-2.05,1.3-4.08,1.31-6.07-.15-.7-.32-1.4-.65-2.1-.97.67-.05,1.33-.1,2-.15.84-1.98.63-3.98.15-5.99-.08-.66-.15-1.31-.23-1.97Z"/><path class="cls-247" d="m74.87,214.31c1.89-.02,3.79-.04,5.68-.06.48.28.81.68,1.01,1.2.39,1.39.19,2.64-.84,3.71-1.32,0-2.63.01-3.95.01-.7-1.6-1.94-2.98-1.9-4.86Z"/><path class="cls-2" d="m99.65,208.31c.07.28.16.56.26.83-.7,2.19,1.05,3.97,1,6.05.69,3.66-2.08,2.86-4.02,3.13-.53-.04-1.04-.16-1.53-.35-.49-.22-.87-.55-1.16-1-.47-.93-.59-1.94-.65-2.97.04-1.75-.32-3.49-.17-5.25.2-.51.54-.9,1-1.19,1.9-.76,3.7-.85,5.26.75Z"/><path class="cls-16" d="m95.74,217.32c1.7-.79,4.58,1.3,5.18-2.13.3.7.61,1.39.91,2.09-.07.27-.13.54-.18.81-2.2,1.48-4.31,2.31-5.92-.77Z"/><path class="cls-253" d="m94.77,194.04c.95.12,1.91.24,2.86.36,0,.27.09.52.25.75l1.05,7.08c-.88,2.88-3.08,2.07-5.08,1.83-.88-.33-1.51-.93-1.9-1.78-.63-1.72-.61-3.5-.48-5.29.43-1.74.6-3.77,3.31-2.95Z"/><path class="cls-22" d="m93.72,203.33c1.68-.63,3.79.78,5.21-1.1.28.33.56.67.84,1-.03,1.34-.06,2.67-.09,4.01-1.99.75-4,.51-6.02.15-1-1.37-1.1-2.73.07-4.06Z"/><path class="cls-94" d="m103.76,229.21c-.28-.34-.56-.67-.84-1.01-1.76-1.29-2.04-3.13-1.89-5.12.15-.47.44-.84.84-1.12,1.99.11,3.98.21,5.97.32-.07,1.11-.21,2.24.72,3.12,1.31.46,1.34,1.9,2.12,2.77,1.01.07,2.02.14,3.03.22-1.49,1.33-3.34.59-5.01.86-1.65,0-3.3-.02-4.94-.03Z"/><path class="cls-118" d="m95.74,217.32c1.81,1.5,3.92.7,5.92.77.07,1.29.14,2.58.21,3.87,0,0-.23.36-.23.36-2.28,1.59-4.55,1.56-6.82-.04l-.23-.37c-1.22-1.62-1.22-3.21.16-4.74.33.02.66.07.98.15Z"/><path class="cls-95" d="m110.69,228.16c-2.33.32-1.93-1.45-2.12-2.77,1.14-3.28,3.12-2.69,5.31-1.16.05,2.21-2.1,2.64-3.19,3.93Z"/><path class="cls-243" d="m93.77,207.2c1.97.01,3.94.03,5.9.04,0,.36-.01.71-.02,1.07-1.89,0-3.79.01-5.68.02-.16-.07-.31-.14-.47-.21-.09-.36,0-.66.26-.92Z"/><path class="cls-177" d="m126.68,156.3c-4.74.34-9.3-.6-13.79-2.01-.19-.15-.38-.29-.58-.44-.98-1.82-.79-3.73-.42-5.66.16-.46.43-.86.77-1.21.95-.35,1.91-.14,2.86-.01.96.13,1.92.29,2.86.51,2.08.72,4.56-.06,6.36,1.68.32,0,.65,0,.97,0,.32,2.38.64,4.76.96,7.13Z"/><path class="cls-2" d="m114.75,148l-2.02-1.02c-1.48-2.73-2.53-5.31,2.07-5.91.63.07,1.26.14,1.89.21,1.85,1.15,4.14-.37,5.96.99,0,0,.18-.12.18-.12.37,1.29.73,2.58,1.1,3.87-.13,2.9-2.4,1.98-3.95,2.1-1.73.13-3.46-.91-5.22-.12Z"/><path class="cls-84" d="m114.75,148c2.72-2.22,6.57.79,9.18-1.99.69.55.81,1.3.74,2.12-2.31.93-4.65.71-6.99.12-.98-.09-1.95-.17-2.93-.25Z"/><path class="cls-228" d="m117.68,148.26c2.33-.04,4.66-.08,6.99-.12.03.35.05.69.08,1.04-2.39-.04-4.89.71-7.07-.92Z"/><path class="cls-198" d="m91.87,150.16c1.62,0,3.23,0,4.85-.01.14.21.27.43.41.64.03.25.06.5.09.76-.31,1.99.04,4.13-1.3,5.9-1.69.94-3.04.58-4.04-1.06,0,0-.27-.32-.27-.32.08-1.97.17-3.93.25-5.9Z"/><path class="cls-270" d="m96.74,151.18c0-.35-.01-.69-.02-1.04-.01-1.63-.03-3.27-.04-4.9,0,0,.14-.06.14-.06,2.27-.86,4.61-.05,6.91-.3,1.29,0,2.58-.01,3.87.18,1.02.22,1.97.55,2.4,1.64-.66,2.07-1.01,4.23-1.72,6.3-.3.43-.7.73-1.2.9-3.71.09-7.21-.57-10.33-2.72Z"/><path class="cls-95" d="m106.71,138.26c.09.24.15.49.19.74,1.4,3.08,2.44,6.02-2.53,6.67-2.63.01-5.3.25-7.53-1.62-.07-.28-.16-.56-.27-.83.46-2.46.81-4.96,2.17-7.15,2.66.73,5.32,1.46,7.98,2.18Z"/><path class="cls-12" d="m96.83,144.06c2.28.4,4.56.81,6.84,1.21.3.1.43.25.41.45-.03.23-.08.34-.16.34-2.42.14-4.87.51-7.1-.88,0-.38.01-.75.02-1.13Z"/><path class="cls-118" d="m109.78,147.1c-.5-.75-1.27-.9-2.1-.93-.68-2.32-.65-4.64.02-6.95,1.3.3,2.6.59,3.9.89,0,0,.27.15.27.15.72,2.24.35,4.51.2,6.78-.74.72-1.5.71-2.28.06Z"/><path class="cls-193" d="m107.7,139.22c0,2.32-.01,4.63-.02,6.95-1.26-.03-2.51-.07-3.76-.1-.07-.27-.15-.53-.25-.8,5.05-.04,2.24-4.13,3.23-6.27.28.04.54.11.8.22Z"/><path class="cls-145" d="m111.89,147.06c-.01-2.27-.02-4.53-.03-6.8,1.09-.13,2.16-.17,2.95.8-3.72.91-1.36,3.95-2.07,5.91.05.19.07.38.04.57-.44.09-.73-.08-.88-.49Z"/><path class="cls-81" d="m122.66,142.27c-2-.27-4.17.52-5.96-.99,1.7-.05,3.39-.11,5.09-.16.29.38.58.76.87,1.14Z"/><path class="cls-7" d="m112.8,160.16c-1.32.03-2.65.06-3.97.08,0,0-.2-.13-.2-.13-1.35-1.61-1.04-3.65-1.39-5.51,0-.5.15-.94.44-1.35l.26-.18c1.92-1.33,3.33-.34,4.65,1.03,0,0,.3.2.3.2-.06.28-.08.56-.06.85.61,1.67.65,3.34-.03,5.01Z"/><path class="cls-187" d="m112.8,160.16c0-1.67.02-3.34.03-5.01,1.41,1.56.85,3.41.77,5.19-.26-.07-.53-.13-.8-.18Z"/><path class="cls-144" d="m91.88,156.38c1.28.28,2.56.56,3.84.84.35.04.64.18.9.42.08.15.15.3.23.46-.31,2.88.98,6.86-4.34,6.26-.28-.34-.56-.68-.85-1.02.07-2.32.14-4.64.22-6.95Z"/><path class="cls-117" d="m84.79,168.22c2.61.11,5.14.31,5.04,3.91.99,2.54.13,3.92-2.6,4.13-.9-.02-1.72-.26-2.43-.83-.62-.68-.84-1.47-.57-2.37.28-1.6-.48-3.33.56-4.85Z"/><path class="cls-106" d="m84.77,175.2c.65,0,1.31,0,1.96,0,1.05,1.17,2.82-.22,3.84,1.08.11.25.19.51.26.78,0,1.4-.02,2.8-.03,4.2-.19.17-.38.33-.58.5-1.89.76-3.5.23-4.94-1.08-1.32-1.43-1.88-3.03-1.06-4.93.18-.18.36-.36.54-.55Z"/><path class="cls-234" d="m84.71,173.23c.02.65.04,1.31.06,1.96,0,0-.05-.04-.05-.04-2.3,1.34-4.15.52-5.83-1.18-.05-.25-.15-.48-.3-.7.07-.35.15-.7.22-1.05,1.72.07,3.25,1.35,5.07.8.37-.3.64-.24.83.2Z"/><path class="cls-44" d="m90.57,176.27c-1.31-.24-2.86.35-3.84-1.08,2.31.27,3.19-.9,3.09-3.06,1.21,1.21.85,2.7.75,4.14Z"/><path class="cls-221" d="m84.71,173.23c-.27-.08-.55-.15-.83-.2.07-1.65-.83-3.49.91-4.82-.03,1.67-.06,3.35-.08,5.02Z"/><path class="cls-111" d="m107.68,153.25c.1.28.15.58.15.88-.14,1.96,2.39,5.03-2.15,5.16-2.94-.4-5.89-.8-8.83-1.2,0,0,.05-.08.05-.08-1.07-2.25-.9-4.51-.09-6.78,0,0-.07-.05-.07-.05,3.82-.24,7.2,1.87,10.94,2.06Z"/><path class="cls-147" d="m105.68,159.29c3.3-.65,1.54-3.4,2.15-5.16,1.47,1.83.82,3.95.79,5.98-1.08.1-2.16.16-2.94-.82Z"/><path class="cls-246" d="m92.8,181.96c-1.64,1.07-.76,2.84-1.2,4.25-2.93-1.22-2.01-3.05-.77-4.92,0,0-.02-.04-.02-.04.66.24,1.33.47,1.99.71Z"/><path class="cls-47" d="m90.82,181.29c.02,1.68-.59,3.46.77,4.92,0,.68,0,1.35,0,2.03-1.82,1.38-4.64,1.41-5.52,4.08-1.23,1.15-2.95.62-4.3,1.3-1.69,2.24.16,5.37-1.9,7.49-1.74-.33-3.48-.67-5.21-1,0-3.61-.02-7.22-.03-10.83,2.97.84,5.83,1.51,5.26-3.29,3.95.29,4.8-2.47,5.41-5.48.18-.14.35-.28.53-.42,1.48,1.19,3.26,1.11,5,1.22Z"/><path class="cls-135" d="m85.67,192.32c-.62-5.11,3.02-4.07,5.92-4.08.17.21.27.45.29.72-.02,1.43-.04,2.87-.07,4.3-.18.17-.37.34-.55.51-1.43.67-2.9.65-4.4.23-.72-.32-1.27-.77-1.2-1.67Z"/><path class="cls-203" d="m94.77,194.04c-2.14.07-2.03,1.69-2.17,3.14-2.4-.87-1.82-2.32-.78-3.88,0,0,0-.05,0-.05,1.07-.04,2.16-.2,2.95.79Z"/><path class="cls-13" d="m80.71,219.15c.03-1.35.06-2.71.08-4.06,2.44-1.77,4.9-.31,7.35-.03.48.13.92.33,1.34.59,1.11,1.71,1.21,3.49.35,5.34,0,0-.22.42-.22.42-1.97-.47-3.93-.93-5.9-1.4-.79-1.03-1.94-.8-3.01-.85Z"/><path class="cls-40" d="m80.69,226.22c.52-1.99-.93-4.31,1.01-6.06.06,2.28.12,4.57.17,6.85-.39-.26-.79-.53-1.18-.79Z"/><path class="cls-99" d="m94.83,222.28c2.27.01,4.55.03,6.82.04.43,1.96.85,3.92,1.28,5.88-.78,1.32-2.02.87-3.15.8-1.26-.69-3.26.16-3.88-1.86-.17-1.66-1.64-3.04-1.06-4.86Z"/><path class="cls-110" d="m89.84,220.99c-.39-1.58-1.49-3.15-.02-4.74,1.87-.88,3.47-.27,4.98.89l-.03.02c-.05,1.58-.1,3.16-.16,4.74-1.74.48-3.36.32-4.76-.92Z"/><path class="cls-161" d="m95.89,227.15c1.29.62,2.59,1.24,3.88,1.86-1.29-.03-2.58-.05-3.86-.08-.07-.25-.17-.48-.31-.69.1-.37.19-.73.29-1.1Z"/><path class="cls-44" d="m78.89,173.97c1.94.39,3.89.79,5.83,1.18.01,1.72-.06,3.46,1.11,4.91,0,0-.3.36-.3.36-2.37,1.49-4.16.48-5.78-1.32-.3-.26-.6-.52-.89-.78,0-1.45.02-2.9.03-4.36Z"/><path class="cls-99" d="m79.75,179.11c1.93.44,3.85.88,5.78,1.32.05.49.11.98.14,1.47.33,6.04.09,6.2-5.78,4.08-.06-.24-.12-.48-.19-.72.02-2.05.04-4.1.05-6.14Z"/><path class="cls-37" d="m74.92,207.2c1.18,2.03,1.42,4.03-.15,5.99.05-2,.1-3.99.15-5.99Z"/><path class="cls-95" d="m85.67,192.32c.31.32.62.64.93.95,2.17,2.5,1.76,5.28.91,8.12-1.99,2.58-4.27,2.51-6.73.72-.06-.25-.11-.51-.15-.77-.53-3.37-.78-6.74.16-10.09,1.47,1.08,3.21.9,4.88,1.07Z"/><path class="cls-90" d="m80.78,202.11c2.07-.29,4.35.92,6.23-.84,1.02,0,1.38.72,1.68,1.53.33,1.72.35,3.39-.95,4.79-2.61,1.18-5.04,1.39-6.92-1.3,0,0-.21-.36-.21-.36.06-1.27.12-2.54.18-3.81Z"/><path class="cls-122" d="m80.79,191.25c-.05,3.36-.1,6.73-.16,10.09-.26-.08-.51-.16-.77-.24.32-3.28-1.28-6.74.92-9.85Z"/><path class="cls-95" d="m80.81,206.29c2.13,1.47,4.61.49,6.88,1.01.48.29.85.68,1.13,1.16,1.03,2.58,2.01,5.17-.19,7.67-2.61-.35-5.22-.69-7.84-1.04-.07-.29-.15-.57-.24-.85.09-2.65.18-5.3.26-7.95Z"/><path class="cls-205" d="m88.63,216.13c.64-2.75-.37-5.36-.72-8.02,1.84-2.77,3.72-1.35,5.6-.06.15.1.3.2.46.28-.04.25-.06.5-.05.76.74,1.66-.15,3.52.66,5.17.07.97.14,1.93.21,2.9-1.74.15-3.43.02-4.98-.89-.39-.04-.79-.08-1.18-.13Z"/><path class="cls-40" d="m94.58,214.25c-1.26-1.59-.82-3.4-.66-5.17,1.24,1.59.85,3.39.66,5.17Z"/><path class="cls-115" d="m87.82,202.38c-.27-.37-.54-.74-.81-1.1-.14-2.67-.27-5.34-.41-8,1.74,0,3.48.02,5.22.03-.02,1.35-.46,2.78.78,3.88,0,1.68,0,3.36.01,5.05-1.55,1.39-3.15,1.27-4.79.16Z"/><path class="cls-9" d="m87.82,202.38c1.6-.05,3.19-.1,4.79-.16.37.37.74.74,1.11,1.11.02,1.29.03,2.58.05,3.87-.05.29-.13.57-.25.85-1.86.52-3.75-1.46-5.6.06-.11-.26-.18-.53-.22-.8.04-1.64.09-3.28.13-4.92Z"/><path class="cls-166" d="m112.59,154.09c-1.55-.34-3.11-.68-4.66-1.02.28-2.09-1.73-4.89,1.84-5.97.7-.01,1.41-.03,2.11-.04.3.16.59.33.88.49-.06,2.18-.12,4.36-.18,6.54Z"/><path class="cls-210" d="m96.81,151.23c.03,2.26.06,4.52.09,6.78-.39-.27-.78-.53-1.18-.8.39-1.99-.86-4.27,1.09-5.98Z"/></g></g></svg>