<?xml version="1.0" encoding="UTF-8"?><svg id="Calque_2" xmlns="http://www.w3.org/2000/svg" viewBox="0 0 353.84 387.18"><defs><style>.cls-1{fill:#d98e45;}.cls-2{fill:#563a8f;}.cls-3{fill:#2c4b67;}.cls-4{fill:#686878;}.cls-5{fill:#4f3922;}.cls-6{fill:#f055ea;}.cls-7{fill:#f253eb;}.cls-8{fill:#643824;}.cls-9{fill:#f9cc9f;}.cls-10{fill:#8a1e1d;}.cls-11{fill:#8b8b8b;}.cls-12{fill:#585858;}.cls-13{fill:#e08f52;}.cls-14{fill:#f054e8;}.cls-15{fill:#e4b5a0;}.cls-16{fill:#42328d;}.cls-17{fill:#7c4f39;}.cls-18{fill:#8f6c61;}.cls-19{fill:#24c9fe;}.cls-20{fill:#456c90;}.cls-21{fill:#10188d;}.cls-22{fill:#d8d8d8;}.cls-23{fill:#426998;}.cls-24{fill:#476f94;}.cls-25{fill:#3830dd;}.cls-26{fill:#c62924;}.cls-27{fill:#4a7297;}.cls-28{fill:#9a5162;}.cls-29{fill:#b96b47;}.cls-30{fill:#33351a;}.cls-31{fill:#9a652f;}.cls-32{fill:#6a7d96;}.cls-33{fill:#507ba2;}.cls-34{fill:#777;}.cls-35{fill:#a6a5ad;}.cls-36{fill:#385679;}.cls-37{fill:#496685;}.cls-38{fill:#fe9ad7;}.cls-39{fill:#7d552d;}.cls-40{fill:#4a4a4a;}.cls-41{fill:#8c8c8c;}.cls-42{fill:#3f6999;}.cls-43{fill:#131313;}.cls-44{fill:#3344a5;}.cls-45{fill:#1f8127;}.cls-46{fill:#1d8023;}.cls-47{fill:#47331e;}.cls-48{fill:#b4b4b4;}.cls-49{fill:#f8d0bc;}.cls-50{fill:#2a2cb4;}.cls-51{fill:#867d90;}.cls-52{fill:#4e78a0;}.cls-53{fill:#3a31dc;}.cls-54{fill:#915a41;}.cls-55{fill:#406b97;}.cls-56{fill:#416c99;}.cls-57{fill:#ef54eb;}.cls-58{fill:#6f56aa;}.cls-59{fill:#3931dc;}.cls-60{fill:#416b96;}.cls-61{fill:#3f6a97;}.cls-62{fill:#936333;}.cls-63{fill:#cfcfcf;}.cls-64{fill:#bdbdbd;}.cls-65{fill:#b92d2c;}.cls-66{fill:#324f6d;}.cls-67{fill:#476b9a;}.cls-68{fill:#e5d830;}.cls-69{fill:#2e4d6b;}.cls-70{fill:#282828;}.cls-71{fill:#ed96af;}.cls-72{fill:#2ca532;}.cls-73{fill:#626262;}.cls-74{fill:#1e7f28;}.cls-75{fill:#e2d633;}.cls-76{fill:#f254eb;}.cls-77{fill:#3f6a96;}.cls-78{fill:#fddcba;}.cls-79{fill:#5c8cb8;}.cls-80{fill:#f9bb97;}.cls-81{fill:#3e6485;}.cls-82{fill:#e5ac9a;}.cls-83{fill:#8f8f8f;}.cls-84{fill:#2ea736;}.cls-85{fill:#ff8045;}.cls-86{fill:#355776;}.cls-87{fill:#7b9d99;}.cls-88{fill:#eb56e9;}.cls-89{fill:#c12c2b;}.cls-90{fill:#6f6f6f;}.cls-91{fill:#616a3c;}.cls-92{fill:#9ea427;}.cls-93{fill:#c68656;}.cls-94{fill:#ffdebc;}.cls-95{fill:#625f47;}.cls-96{fill:#69723f;}.cls-97{fill:#414141;}.cls-98{fill:#fdd1a5;}.cls-99{fill:#8b553c;}.cls-100{fill:#43698d;}.cls-101{fill:#31475c;}.cls-102{fill:#872022;}.cls-103{fill:#575270;}.cls-104{fill:#891e1d;}.cls-105{fill:#dfd536;}.cls-106{fill:#30506e;}.cls-107{fill:#a73fc1;}.cls-108{fill:#feca98;}.cls-109{fill:#fffefd;}.cls-110{fill:#35281a;}.cls-111{fill:#e0d535;}.cls-112{fill:#fc9;}.cls-113{fill:#7d55b1;}.cls-114{fill:#321d0f;}.cls-115{fill:#535941;}.cls-116{fill:#728fa1;}.cls-117{fill:#2aa92b;}.cls-118{fill:#616161;}.cls-119{fill:#3f6384;}.cls-120{fill:#2c2c2c;}.cls-121{fill:#ff8145;}.cls-122{fill:#48473b;}.cls-123{fill:#576069;}.cls-124{fill:#c6b529;}.cls-125{fill:#fd7f45;}.cls-126{fill:#8a1f1e;}.cls-127{fill:#4f9395;}.cls-128{fill:#ffa64e;}.cls-129{fill:#f054eb;}.cls-130{fill:#3e6081;}.cls-131{fill:#c52926;}.cls-132{fill:#3933dc;}.cls-133{fill:#9e5182;}.cls-134{fill:#593e24;}.cls-135{fill:#341f11;}.cls-136{fill:#fdd5ad;}.cls-137{fill:#ffbf7e;}.cls-138{fill:#c7a98d;}.cls-139{fill:#fec7b4;}.cls-140{fill:#8e5c4c;}.cls-141{fill:#e5b7a2;}.cls-142{fill:#203a52;}.cls-143{fill:#c76f4b;}.cls-144{fill:#5d8cb7;}.cls-145{fill:#ff7f45;}.cls-146{fill:#2c3e5d;}.cls-147{fill:#425778;}.cls-148{fill:#7b7b7b;}.cls-149{fill:#bd8c7d;}.cls-150{fill:#ffc488;}.cls-151{fill:#9225fc;}.cls-152{fill:#ffa34e;}.cls-153{fill:#febba6;}.cls-154{fill:#f1dd32;}.cls-155{fill:#949494;}.cls-156{fill:#ffa54d;}.cls-157{fill:#376f7b;}.cls-158{fill:#f3f3f3;}.cls-159{fill:#976147;}.cls-160{fill:#121eac;}.cls-161{fill:#5f5d47;}.cls-162{fill:#3d36a0;}.cls-163{fill:#f6cdbc;}.cls-164{fill:#446a8e;}.cls-165{fill:#6e6e6e;}.cls-166{fill:#1a2f43;}.cls-167{fill:#f8d1ab;}.cls-168{fill:#bc7848;}.cls-169{fill:#3d3ed8;}.cls-170{fill:#986045;}.cls-171{fill:#b7633c;}.cls-172{fill:#2624b5;}.cls-173{fill:#d558cc;}.cls-174{fill:#2625b5;}.cls-175{fill:#971e19;}.cls-176{fill:#ce2019;}.cls-177{fill:#8b8d56;}.cls-178{fill:#626049;}.cls-179{fill:#3a35db;}.cls-180{fill:#e3e3e3;}.cls-181{fill:#525149;}.cls-182{fill:#49413c;}.cls-183{fill:#fcfcfc;}</style></defs><g id="Calque_1-2"><g><path class="cls-43" d="m219.21,291.14c-1.46,3.14-4.21,3.13-7.06,2.91-1.01,1.68-.53,3.41-.17,5.14.42,7.11.39,7.02,7.2,4.97,4.18-1.26,8.45-2.27,12.88-2.19,3.72-.61,7.45-.62,11.17,0,12.85,3.03,24.56,8.51,35.4,16.02,9.89,6.85,20.34,12.56,32.52,14.25,2.33.5,4.66.59,6.99-.04,10.27-2.39,21-3.44,29.74-10.31,1.69-1.33,3.85-1.47,5.39-.06,1.64,1.5-.73,2.68-1.29,3.59-7.21,11.82-17.12,21.24-28.22,29.21-12.6,9.05-26.24,16.3-41.24,20.79-1.48.44-2.9.37-4.31.71-3.66,1.09-7.49-.26-11.16.75-19.67-1.8-36.46-9.56-49.62-24.46-1.54-1.75-2.78-1.55-4.14-.95-4.72,2.07-9.46,4.13-13.95,6.63-3.46,1.93-3.67,6.14-5.09,9.37-1.89,4.3-3.75,8.61-6.53,12.36-3.04,4.11-7.21,6.53-12.56,6.36-2.34.52-4.69.48-7.03.03-6.58,0-11.04-3.14-13.58-9.15-.38-.9-.82-1.78-1.24-2.67-2.86-6.05-1.61-6.23-9.72-4.49-1.09.23-2.29-.04-3.45-.08-4.66-.54-9.33-.52-13.99,0-3.02,1.13-5.72-.93-8.68-.9-2.08.02-3.11.72-4.17,2.39-2.6,4.08-5.38,8.06-8.26,11.95-.83,1.12-2.28,1.73-3.79,1.85-2.65,1.03-5.5-.17-8.17.72-10.1-1.19-15.99-8.09-20.74-16.01-2.91-4.85-7.01-7.67-11.95-9.67-3.68-1.49-7.48-2.68-11.16-4.17-1.63-.66-3.28-1.6-2.92-3.89.55-5.03.58-10.06-.02-15.1-.75-3.08,1.52-5.84.96-8.9.95-1.6-.15-3.53.81-5.13-.38-7.29,1.11-14.33,2.94-21.4-1.46-1.06-3.15-.41-4.73-.5-4.48-.26-7.1-3.77-5.61-8.04.94-2.69,1.17-5.74,3.71-7.76,1.53-1.22.95-2.59-.32-3.8-10.92-10.34-17.21-24.14-26.53-35.68-1.75-2.16-2.25-4.46,1-6.8,9.89-7.13,19.57-14.56,29.09-22.18,9.33-7.47,18.37-15.32,28.07-23.45-14.14-6.24-24.3-15.18-25.34-31.26.52-4.68.52-9.36,0-14.04.27-2.55-.02-5.34.93-7.61,2.07-4.92.26-7.87-3.34-11.27-10.27-9.67-18-21.28-24.14-33.97-7.57-15.64-16.44-30.67-21.8-47.36-.63-1.95-.48-3.86-1.05-5.71-.4-2.03-.52-4.06.08-6.08.55-3.62,2.14-6.33,6.06-7.05,2.04-.64,4.09-.59,6.14-.03,7.59,1.51,15.19,2.94,22.76,4.55,16.84,3.58,31.55,11.77,45.47,21.48,5.45,3.8,11.17,7.28,16.01,11.91.83.79,1.46.9,2.87.64,7.97-1.46,15.92-3.42,24.08-3.4,3.22,0,6.45.77,9.67,1.19,2.45-.34,1.49-1.96,1.24-3.31-.11-.98-.23-1.96-.34-2.94-.55-12-.54-24,0-36.01.11-1.99.21-3.98.32-5.97.59-4.02.56-8.03.01-12.05-.51-2.11-.01-4.11,2-4.84,1.89-.69,3.62.12,5.25,1.74,11.78,11.74,25.19,21.74,36.96,33.4,13,12.87,23.65,27.68,25.65,46.91.23,2.24,1.38,4.38,1.03,6.73.69,3.73.58,7.47.06,11.21-1.82,8.22-4.88,15.91-9.66,22.89-.71,1.04-.18,2.01.04,3.15,1.06,5.54,1.77,11.15,2.6,16.74.57,3.06.58,6.11,0,9.17-2.01,16.2-9.37,28.99-24.53,37.6,12.46,5.34,20.15,15.92,30.11,23.72,1.89,1.48,3.12,3.79,4.81,5.57,7.37,7.74,15.5,14.67,24.53,20.32,4.64,2.9,2.77,5.14.51,7.6-6.28,6.83-12.66,13.57-19.2,20.15-1.99,2-2.79,3.51-1.37,6.31,2.03,4.01,3.44,8.32,5.12,12.5.57,1.74.63,3.47-.04,5.19Z"/><path class="cls-180" d="m135,23.11c0,12,0,24,0,36.01-1.71-2.78-.86-5.87-.77-8.76.29-9.08-1.15-18.21.76-27.24Z"/><path class="cls-123" d="m46.32,337.01c1.36,5.03,1.42,10.06.02,15.1,0-5.03-.01-10.06-.02-15.1Z"/><path class="cls-182" d="m50.37,148.07c1.27,4.68,1.26,9.36,0,14.04,0-4.68,0-9.36,0-14.04Z"/><path class="cls-120" d="m126.16,369.85c4.67-1.3,9.33-1.25,13.99,0-4.66,0-9.33,0-13.99,0Z"/><path class="cls-40" d="m135.33,5.09c1.44,4.02,1.15,8.04-.01,12.05,0-4.02,0-8.04.01-12.05Z"/><path class="cls-148" d="m243.23,301.97c-3.72,0-7.45,0-11.17,0,3.72-1.57,7.45-1.45,11.17,0Z"/><path class="cls-165" d="m206.29,100.24c-.02-3.74-.04-7.48-.06-11.21,1.44,3.73,1.58,7.47.06,11.21Z"/><path class="cls-34" d="m267.06,376.89c3.62-1.77,7.45-.39,11.16-.75-3.6,2.01-7.44.54-11.16.75Z"/><path class="cls-11" d="m199.27,152.18c0-3.06,0-6.11,0-9.17,1.44,3.06,1.43,6.11,0,9.17Z"/><path class="cls-118" d="m93.09,385.85c2.58-1.86,5.47-.21,8.17-.72-2.56,2.05-5.44.46-8.17.72Z"/><path class="cls-70" d="m318.14,332.2c-2.32,1.32-4.65,1.29-6.99.04,2.33-.01,4.66-.03,6.99-.04Z"/><path class="cls-22" d="m168.14,386.24c2.34,0,4.69-.02,7.03-.03-2.34,1.28-4.68,1.28-7.03.03Z"/><path class="cls-41" d="m211.98,299.18c-1.26-1.72-1.05-3.57-.47-5.44.02-.06.27-.12.34-.07.13.08.2.25.3.37-.06,1.71-.11,3.42-.17,5.14Z"/><path class="cls-64" d="m1.05,36.08c-.03,2.03-.05,4.05-.08,6.08-1.35-2.05-1.26-4.07.08-6.08Z"/><path class="cls-83" d="m13.25,29c-2.05,0-4.09.02-6.14.03,2.04-1.29,4.08-1.6,6.14-.03Z"/><path class="cls-90" d="m48.09,322.98c.05,1.76.53,3.59-.81,5.13-.06-1.76-.69-3.61.81-5.13Z"/><path class="cls-12" d="m135.35,62.06c.42,1.41,2.73,3.53-1.24,3.31,1.62-.65.68-2.26,1.24-3.31Z"/><path class="cls-73" d="m219.21,291.14c.01-1.73.03-3.46.04-5.19,1.48,1.74,1.35,3.47-.04,5.19Z"/><path class="cls-128" d="m56.06,131.23c-.64-.67-1.29-1.34-1.93-2.01-.87-2.3.33-4.21,1.23-6.13,2.83-6.01,6.36-11.62,9.67-17.36,5.48-9.12,13-16.62,19.77-24.71,3-.91,4.53-3.77,7.03-5.31,1.73-1.07,2.92-3.3,5.47-2.77,7.49-2.21,15.22-3.23,22.87-4.65,2.97.95,6.13-.36,9.09.76,2.3-.12,4.53.32,6.19,1.93,1.66,1.62,3.08,1.19,4.63.04,3.19-.68,5.29,1.53,7.56,3.03,12.87,8.51,23.58,19.32,33.08,31.4,2.82,3.19,3.74,7.91,8,9.94,1.9,1.87,3.72,3.79,3.52,6.76-.07,6.81,2.34,13.23,3.07,19.91.55,3.35.5,6.69.03,10.04-1.25,9.26-4.89,17.46-10.59,24.87-4.04,5.26-9.72,7.74-15.52,10.16-3.23,2.72-7.28,3.07-11.17,3.73-23.15,3.95-46.34,6.59-69.72,1.79-1.79-.37-3.62-.53-5.23-1.47-6.83-2.53-13.6-5.02-19.21-10.04-6.06-5.42-9.13-11.9-8.82-20-.63-3.72-.61-7.43-.02-11.15-1.17-2.96.1-5.85.62-8.64.32-1.74.23-3.49.6-5.19.47-1.67.95-3.35-.21-4.95Z"/><path class="cls-139" d="m85.15,81.27c-2.2,4.87-6.34,8.2-9.64,12.2-3.33,4.05-6.31,8.39-9.45,12.6-3.82,1.49-6.73-.58-9.48-2.66-13.93-10.54-27.04-21.8-36.42-36.93-4.7-7.59-10.29-14.63-14.81-22.38-.43-3.08-2.76-6.32.81-9.04,4.43-.09,8.52,1.47,12.41,3.17,20,8.72,39.34,18.67,56.61,32.18,3.86,3.02,7.94,6.04,9.96,10.85Z"/><path class="cls-128" d="m224.17,307.24c2.65-.44,5.3-.89,7.94-1.33,3.69-.53,7.37-.51,11.06-.01,8.3,2.84,16.75,5.33,24.18,10.22,3.55,2.97,4.54,7.65,7.41,11.09,1.8,2.16,3.34,4.53,5.58,6.31,1,.8,2.26,1.8,1.65,3.28-.59,1.42-2.17,1.39-3.47,1.4-5.38.06-10.51-1.11-15.42-3.29-1.32-.58-2.91-1.75-4.1-.34-1.28,1.51.43,2.73,1.24,3.85,5.04,6.96,11.85,11.44,20.02,13.95,1.09.67,2.3,1.26,2.07,2.87-4.71,4.36-10.82,5.39-16.68,7.01-1.53.21-3.2-.31-4.52.91-.95,1.04-1.02,2.65-2.31,3.46-4.9,1.24-8.77-1.42-12.48-3.74-5.34-3.34-10.27-7.29-14.66-11.89-10.03-10.51-12.25-23.15-10.35-36.95.34-2.48,1.1-4.86,2.82-6.81Z"/><path class="cls-128" d="m54.26,293.89c-1.03.41-2.06.82-3.1,1.24-2.06.24-1.6-1.24-1.38-2.25.39-1.81,1.61-3.24,2.6-4.77,4.03-6.17,4.04-8.43-1.56-13.02-6.91-5.66-13.6-11.5-19.69-18.03-2.82-3.95-5.41-8.11-8.56-11.78-1.98-2.31-1.02-3.5.72-4.75,16.46-11.86,32.06-24.81,47.83-37.55,2.99,2.25,3.31,5.71,3.68,8.95,1.51,13.05,3.36,26.08,2.7,39.27-2.21,6.74-4.34,13.52-9.08,19.07-1.2.34-2.03-.22-2.73-1.11-.63-1.12-.73-2.36-.77-3.6-.31-1.02.65-2.44-1-3-4.1,5.19-4.75,11.23-4.48,17.51.08,1.83.06,3.67-.05,5.5-.05.74-.19,1.45-.41,2.15-1.17,2.37-2.12,4.91-4.73,6.17Z"/><path class="cls-128" d="m174.03,194.3c6.93,1.94,11.68,7.27,16.49,11.9,5.43,5.21,11.6,9.63,16.28,15.78,4.97,6.52,12.09,11.03,18.46,16.19,1.62,1.32,3.29,2.58,4.94,3.87-8.33,7.84-17.28,14.87-27.17,20.67-5.44-1.28-5.25,3.33-6.6,6.32-2.76.79-3.75-1.48-5.08-3.03-4.45-5.18-8.28-10.83-12.14-16.46-1.84-2.47-3.88-4.84-4.42-8.03-5.23-12.16-5.75-24.85-4.32-37.76-.29-1.27-.27-2.5.38-3.67,1.14-1.39,1.99-2.93,2.42-4.7.2-.39.45-.75.75-1.08Z"/><path class="cls-46" d="m200.21,352.09c-1.9,2.56-5.64,2.99-7.06,6.1-9.98,3.98-20.6,5.78-30.8,9.03-2.25.72-4.51,2.36-7.06.8-.47-2.38-2.07-3.05-4.29-2.98-3.25.09-6.49.07-9.74.09-5.96-7.27-4.11-15.28,4.41-19.16,1.47-.29,2.97-.14,4.44-.34,2.41-1.2.91-2.75.24-4.05-1.17-2.26-1.74-4.53-.88-7.01.23-.43.56-.76.98-1.01,8.9-.89,17.46-2.56,23.66-9.9.47-.21.96-.32,1.48-.34,3.85.53,7.69.49,11.53-.01,2.59.21,4.6,1.81,6.68,3.06,4.51,2.71,9.75,2.77,14.54,4.44,1.96,4.56.44,8.67-2.02,12.43-1.96,3-4.24,5.79-6.11,8.86Z"/><path class="cls-158" d="m280.09,353.12c-10.6-1.8-17.3-8.93-23.33-17.01-.8-1.07-.33-1.78.33-2.61,1.27-1.59,2.74-1.59,4.41-.69,5.63,3.02,11.7,4.2,18.03,4.26.6,0,1.19-.12,2.68-.28-7.47-5.73-11.47-12.99-14.86-20.67,9.18,4.9,17.3,11.59,26.99,15.61,5.09,2.11,10.26,3.84,15.75,4.51,2.69.54,5.38.52,8.08.02,8.06-.51,15.58-3.54,23.6-5.05-5.89,8.82-13.95,15.15-22.54,20.89-16.7,9.52-34.6,15.15-53.81,16.57-2.34-.24-4.93.08-6.21-2.66-.23-1.44-.56-2.9.93-3.93,1.51-1.19,3.49.12,5.03-.94,5.9-1.24,11.37-3.64,16.79-6.19.81-2.09-1.47-1.02-1.89-1.84Z"/><path class="cls-139" d="m188.25,116.09c-5.28-1.22-5.31-6.73-8.11-9.97-3.61-6.25-3.26-13.49-4.97-20.21-2.97-11.69-7.43-22.4-16.4-30.82-6-5.64-9.54-12.68-11.71-20.54-1.86-6.74-2.84-13.68-4.86-20.39-.52-1.72-.58-3.65.98-5.12,3.63,3.36,7.26,6.71,10.9,10.07,15.72,13.1,29.33,27.82,36.58,47.45,1.38,3.74,2.88,7.43,2.82,11.53.06,3.34-.04,6.68.11,10.02.58,8.45-1.97,16.48-3.33,24.67-.22,1.35-.83,2.53-2.03,3.31Z"/><path class="cls-153" d="m143.19,9.05c3.23,17.27,4.7,35.06,19.22,48.06,7.86,7.04,11.32,17.04,13.66,27.15,1.67,7.22,2.74,14.57,4.07,21.86-9.46-10.63-18.78-21.38-30.74-29.41-3.03-2.04-5.99-4.14-9.31-5.68.11-3.01-1.81-5.86-.72-8.94.45-3.66.55-7.32-.05-10.97,0-9.66,0-19.32,0-28.97.74-2.77.16-5.59.35-8.38.8-2.18-1.79-5.13,1.54-6.73.66.67,1.32,1.34,1.98,2.01Z"/><path class="cls-145" d="m83.11,191.2c7.93-.94,15.58,1.61,23.39,2.24,8.51.69,16.83.41,25.17-.47,12.6-1.32,25.22-2.75,37.56-5.83-1.34,1.41-1.28,2.72.29,3.92-.73,3.16-3.66,3.68-5.98,4.52-4.8,1.73-7.18,4.82-8.63,9.79-2,6.87-4.32,13.82-9.28,19.38-2.43.84-4.85,1-7.23-.17-1.91-2.38.12-4.05,1.21-5.71,2.28-3.47,2.05-6.78.14-10.3-1.9-3.5-5.11-3.41-8.24-3.08-5.44.58-10.87,1.01-16.36.95-6.9-.08-11.51,6.34-9.63,13.14.54,1.97,2.31,3.86.41,6.01-2.44,1.16-4.9,1.06-7.37.14-3.07-3.7-2.89-8.5-4.23-12.78-.68-2.17-.93-4.48-2.62-6.2-.87-1-1.59-2.13-1.87-3.4-.78-3.48-2.34-6.01-6.31-6.37-1.14-.1-2.15-.8-2.16-2.24.69-1.13,2.07-1.92,1.77-3.54Z"/><path class="cls-153" d="m5.35,44.11c4.95,3.19,6.44,8.96,9.86,13.32,6.11,7.79,11.19,16.43,17.69,23.86,7.92,9.05,17.69,16.25,27.49,23.23,1.5,1.07,3.76,1.07,5.67,1.56-3.99,7.71-9.06,14.86-11.94,23.15-8.95-7.45-15.98-16.66-21.57-26.63-10.23-18.25-19.65-36.97-26.97-56.64-.21-.57-.16-1.23-.23-1.85Z"/><path class="cls-31" d="m85.15,81.27c-19.63-19.86-44.13-31.83-69.27-42.76-3.14-1.37-6.76-1.47-9.72-3.44.67-.69,1.33-1.38,2-2.08,1.67-.55,3.34-.56,5,0,7,2.53,14.46,2.78,21.65,4.41,22.1,5,40.35,17.14,57.81,30.75,1.69,1.32,4.44,1.92,4.67,4.78-2.93,2.41-5.9,4.75-8.75,7.25-1.05.92-1.92,1.79-3.4,1.08Z"/><path class="cls-61" d="m146.17,346.92c-6.66,3.18-8.69,8.47-5.79,14.9.46,1.03.6,2.2.89,3.3,0,0-.16-.04-.16-.04-1.53,1.04-3.41-.09-4.96.81l-.49.04-.49-.04c-3.34-.61-6.68-.54-10.02-.05-2.14-.27-4.29-.52-6.12-1.81-.02-2.45,2.21-3.11,3.61-4.38,3.67-3.32,3.75-5.07,1.41-9.51-2.38-4.52-6.09-8.29-7.46-13.37-.53-1.96-2.7-2.36-3.81-3.8-.1-6.59-4.01-12.27-4.49-18.77-.37-1.26-.78-2.5-1.1-3.77-.39-2.74-.82-5.49.53-8.12,1.64-1.34,3.1-.45,4.57.37,1.74,2.74,1.31,6.11,2.56,9,.17.75.2,1.5.11,2.26-.08,6.19,2.84,11.38,6.07,16.23,1.68,2.52,5.01,3.02,8.14,2.06,1.56-.48,3.03-1.42,4.76-.75,1.02.32,2.04,2.09,2.85,1.1,1.12-1.36-1.12-1.43-1.63-2.28-.91-2.65,1.08-4.45,1.93-6.58.25-.41.55-.77.88-1.11,4.33-1.71,5.75-6.46,9.32-8.98.7-.23,1.37-.19,2,.21.24,2.62-.7,5.75,2.94,6.93.8,1.78-.13,3.3-1.05,4.56-2.02,2.77-2.49,5.59-1.1,8.72-.11,2.86.24,5.51,2,8,1.11,1.58,2.81,3.9-.92,4.85-1.66-.62-3.32-.61-4.98,0Z"/><path class="cls-172" d="m72.06,361.21c-2.66-1.45-5.31-2.9-7.97-4.35-1.14-1.53-.41-2.77.65-3.93,2.35-2.55,3.98-5.61,5.93-8.43,3.72-4,7.79-6.84,13.62-4.42,2.05.85,3.47-.16,4.69-1.77,1.86-2.46,4.04-4.46,7.39-4.51,2.4-.06,4.75.11,6.78,1.62,2.88,2.74,1.67,7.29,4.46,10.07.19.44.31.9.38,1.37-.87,4.76-2.6,9.79,3.82,12.29,1.48.87,3.25.57,4.79,1.18,1.49.82,2.57,1.83,1.69,3.72-1.92,2.25-5.87-.42-7.31,3-1.42,1.15-2.75.23-4.11-.15-2.43-.87-4.97-1.38-7.47-1.98-2.05-.72-4.1-.79-6.17-.06-.5.15-1,.25-1.51.31-6.61-1.08-13.51-.7-19.68-3.95Z"/><path class="cls-145" d="m259.23,366.02c1.97.6,3.94,1.2,5.91,1.8,6.44,0,12.95-.56,19.01,2.4-2.11,1.4-4.67,1.26-6.96,2.04-3.03.44-6.06.47-9.09-.02-18.91-.33-34.23-8.26-46.58-22.24-1.98-2.25-4.59-3.66-6.53-5.86-2.5-2.92-2.2-6.48-2.28-9.95.11-1.97.1-3.94.02-5.91-.15-4.96-1.93-9.76-1.45-14.78.23-.52.55-.97.95-1.37,3.36-3.14,7.8-3.65,11.94-4.89-1.93,7.77-2.62,15.51-1.38,23.57,1.6,10.46,7.66,17.92,15.2,24.32,4.75,4.03,9.65,8.15,15.88,10.01,1.76.52,3.48,1.11,5.35.87Z"/><path class="cls-31" d="m188.25,116.09c1.21-9.31,4.62-18.32,3.95-27.9.78-3.78.68-7.56.07-11.35-2.38-11.68-7.68-22.04-14.52-31.66-6.85-9.62-15.79-17.37-23.66-26.07,2.81.16,4.17,2.54,5.95,4.1,12.68,11.14,25.66,22.03,33.98,37.18,5.08,9.25,6.6,19.48,8.27,29.67.52,3.36.59,6.71-.04,10.06-1.92,6.22-3.65,12.53-7.2,18.1-.87,1.36-1.21,3.09-2.82,3.93-1.33-2.02-2.66-4.05-3.99-6.07Z"/><path class="cls-142" d="m212.23,312.13c-.06.32-.14.63-.25.94-.6.6-1.27,1.11-2.1,1.29-12.63,2.72-33.82-8.27-38.96-20.21-.95-2.2-1.54-4.45.33-6.55,2.06-1.18,4.26-.88,6.45-.57,3.99,1,8,1.07,12.01.19.42-.26.86-.48,1.31-.67.69-.23,1.39-.29,2.11-.2,2.71.18,5.4,1.52,8.15.19,1.64-.48,2.98-2.01,4.92-1.42.08,8.12,2.29,16.05,2.09,24.21-.06,2.42,2.01,2.73,3.94,2.81Z"/><path class="cls-142" d="m53.13,316.02c-.31-5.24,1.74-10.08,2.63-15.12.41-2.34.82-4.59-.67-6.69,1.21-1.48,2.91-1.42,4.57-1.48,1.86-.03,3.71-.07,5.53-.57,1.05-.24,2.12-.37,3.2-.42,1.89,0,3.78,0,5.67-.03,2.7.09,5.3-.72,7.97-.93,2.41-.08,4.83.1,7.2-.55,1.79-.1,3.32.21,3.6,2.38-.54,3.02-.17,6.36-2.93,8.63-.54.21-1.01-.65-1.74.39-7.77,11.13-19.89,14.73-32.08,18.05-2.77.75-4.08-.71-2.95-3.65Z"/><path class="cls-166" d="m53.13,316.02c-.09,2.91,1.12,3.11,3.72,2.34,11.82-3.52,23.3-7.47,31.15-17.89,1.18-1.57.95.18,1.21.68.96,1.12.42,2.31.15,3.48-2.94,7.43-7.08,14.11-12.51,19.99-3.28,3.87-8.13,5.69-11.82,9.03-4.68,1.25-8.48,5.03-13.68,4.76-.39-7.54.48-14.99,1.79-22.4Z"/><path class="cls-145" d="m155.29,368.02c11.17-3.12,22.36-6.18,33.49-9.41,1.51-.44,2.89-.53,4.37-.42-2.54,7.53-4.73,15.32-10.72,21-7.05,6.69-21.11,3.56-24.76-5.3-.8-1.95-1.59-3.91-2.39-5.87Z"/><path class="cls-104" d="m118.31,364.05c-.27-1.29-.59-2.55-1.95-3.18-1.66-.77-3.54.11-5.2-.67-.13-.1-.25-.21-.38-.31-5.7-4.4-6.11-5.88-3.62-12.81.25-3.57-.99-7.15,0-10.73,1.24-2.45,2.79-4.37,5.97-3.49,3.03.24,4.71,1.61,5.15,4.88.58,4.32,4.17,7.2,6.18,10.86,3.66,6.66,3.84,8.1-2.44,12.91-1.04.79-2,1.68-3,2.53-.24,0-.47.01-.71,0Z"/><path class="cls-92" d="m51.35,338.42c4.65-1.67,8.59-5.11,13.74-5.53,3.75-1.52,5.27.83,4.94,3.75-.35,3.08.24,5.73,1.31,8.44-1.56,3.29-3.12,6.65-6.13,8.85-1.22.89-.91,1.89-1.12,2.91-4.34-2.28-10.05-1.93-13.03-6.8-.57-3.67-.66-7.34.04-11,.15-.19.23-.4.24-.64Z"/><path class="cls-79" d="m145.92,224.1c2.75-7.67,7.37-14.57,8.76-22.84.53-3.17,3.56-4.97,6.6-6.11,2.89-1.08,5.74-2.21,8.23-4.08.51.73,1.02,1.46,1.53,2.19.9,3.88-1.84,6.76-2.8,10.13-.82,1.45-1.76,2.81-2.66,4.21-4.49,4.04-4.9,10.17-7.66,15.1-.81,1.47-2.08,2.26-3.71,2.51-2.35.17-4.7.32-7.03-.21-.51-.18-.94-.48-1.28-.9Z"/><path class="cls-145" d="m107.26,365.96c1.25.36,2.5.72,3.75,1.09-1.69,4.32-4.83,7.72-7.68,11.2-4.12,5.03-12.86,5.14-18.01.42-5.45-4.99-10.01-10.75-13.25-17.46,7.05.98,14.09,1.96,21.14,2.94,4.82-.41,9.34,1.47,14.05,1.81Z"/><path class="cls-145" d="m203.18,261.88c9.34-6.16,17.44-14.02,27.02-19.85,2.08.85,1.71,1.81.38,3.21-3.59,3.79-6.99,7.76-10.59,11.54-3.2,3.36-6.53,6.59-9.87,9.81-2.31,2.23-2.49,3.8-.62,7.04,2.79,4.83,6.17,9.96,5.44,16.96-3.03-2.05-5.03-4.1-6.85-6.36-1.03-4.18-4.69-7.33-4.71-11.91-.21-.93-.23-1.87-.07-2.81.49-1.89.95-3.79.18-5.73-.24-.61-.35-1.25-.31-1.9Z"/><path class="cls-145" d="m31.13,257.06c.28-.14.74-.46.81-.39,6.85,7.01,14.66,12.96,21.8,19.63,3.28,3.06,4.24,6.7.91,10.93-1.71,2.16-4.94,4.16-3.49,7.91-.84,1.51-2.63,1.41-3.87,1.73-1.91.5-3.55-.25-2.56-3.03.83-2.33,1.39-4.78,3.5-6.31,3.99-2.9,2.86-5.09-.19-8.2-6.56-6.67-12.88-13.63-16.91-22.26Z"/><path class="cls-79" d="m81.34,194.75c.13.1.26.3.39.3,7.15.12,8.98,5.35,10.51,10.89-3.6,6.22-.42,11.73,1.85,17.33.32.79.54,1.57-.19,2.28-3.13,1.47-5.64.37-7.3-2.28-3.88-6.19-7.57-12.51-9.95-19.48-.68-2-.75-3.9.5-5.7,1.4-1.11,2.8-2.21,4.2-3.32Z"/><path class="cls-145" d="m76.28,252.23c.36-13.49-1.4-26.84-2.81-40.21-.32-3.06-1.54-6.03-2.34-9.05.69-1.48,2.15-.75,3.22-1.14,1.84.39,2.06,2.01,2.43,3.39,1.99,7.34,4.3,14.6,5.62,22.11.1,1.52.36,3.03.36,4.56-.24,1.69-.35,3.4-.46,5.11-.16,1.46-.6,2.85-.92,4.28-.27,1.2-.67,2.35-1.01,3.52-1.37,2.47-.66,6.1-4.1,7.42Z"/><path class="cls-63" d="m284.15,370.22c-6.48.32-12.62-2.05-19.01-2.4,12.74-1.27,25.02-4.52,37-8.91,5.76-2.11,11.4-4.52,17.09-6.79-1.91,3.4-5.66,4.22-8.7,5.89-8.5,4.68-16.88,9.69-26.39,12.21Z"/><path class="cls-77" d="m214.03,334.07c.32,3.36.64,6.71.96,10.07-3.3,2.58-6.48,5.34-10.56,6.74-1.39.48-2.63,1.43-4.22,1.2-.39-2.54.64-4.45,2.46-6.19,4.19-4,5.51-9.15,5.5-14.76,1.32-1.55,2.94-2.08,4.91-1.42,1.14,1.27.03,3.03.95,4.36Z"/><path class="cls-77" d="m81.32,227.99c-2.33-8.71-4.65-17.43-6.98-26.14-.05-1.98,1.67-2.66,2.8-3.77-.18,6.1,3.14,10.99,5.64,16.14,1.22,2.52,2.94,4.8,4.09,7.34,1.53,3.39,4.18,3.87,7.37,3.48,1.04-.87,2.08-.8,3.1.03.19.61.03,1.11-.46,1.5-5.12,1.18-10.33,1.48-15.56,1.43Z"/><path class="cls-152" d="m204.36,272.06c.2,4.38,4.4,7.53,3.74,12.18-.63.03-1.26.06-1.89.09-1.9.22-2.9-.97-3.75-2.4-.22-.5-.37-1.02-.46-1.56-.1-3.02-.4-6.09,2.35-8.3Z"/><path class="cls-60" d="m167.27,203.27c1.26-3.33,2.52-6.67,3.77-10,.99.34,1.99.69,2.98,1.04.05.19.06.38.04.58-.79,1.69-.9,3.67-2.16,5.16-1.02.82-.73,1.92-.65,2.98-.17.18-.34.37-.5.55-1.22.58-2.39.64-3.48-.29Z"/><path class="cls-37" d="m60.14,293.92c-1.68.1-3.36.19-5.05.29-.29-.08-.57-.18-.83-.33,1.27-1.96,2.53-3.93,3.79-5.89,3.45,1,2.45,3.58,2.09,5.92Z"/><path class="cls-102" d="m203.12,281.88c1.03.81,2.06,1.62,3.09,2.44.02.27.02.53-.02.8-1.29,1.55-2.87,2.34-4.93,1.89-1.17-2.36-.8-4.16,1.85-5.13Z"/><path class="cls-82" d="m139.32,51.12c1.33,3.65,1.31,7.31.05,10.97-.02-3.66-.03-7.31-.05-10.97Z"/><path class="cls-134" d="m243.18,305.9c-3.69,0-7.37,0-11.06.01,3.69-1.42,7.37-1.38,11.06-.01Z"/><path class="cls-30" d="m51.1,339.06c-.01,3.67-.03,7.33-.04,11-1.43-3.67-1.5-7.34.04-11Z"/><path class="cls-62" d="m55.06,150.01c0,3.72.01,7.43.02,11.15-1.48-3.72-1.53-7.43-.02-11.15Z"/><path class="cls-5" d="m195.34,152.12c0-3.35-.02-6.69-.03-10.04,1.35,3.34,1.36,6.69.03,10.04Z"/><path class="cls-47" d="m202.26,100.13c.01-3.35.02-6.71.04-10.06,1.3,3.36,1.38,6.71-.04,10.06Z"/><path class="cls-66" d="m125.14,365.85c3.35-1.35,6.69-1.27,10.02.05-3.34-.02-6.68-.03-10.02-.05Z"/><path class="cls-18" d="m141.21,7.03c-2.04,2.06-.57,4.71-1.18,7.01-.16.46-.39.5-.7.13-.03-2.24-.21-4.49-.04-6.72.11-1.38,1.02-1.4,1.92-.42Z"/><path class="cls-1" d="m129.26,69.05c-3.03-.3-6.18.91-9.09-.76,3.05.07,6.2-1.12,9.09.76Z"/><path class="cls-8" d="m268.1,372.24l9.09.02c-3.03,1.33-6.06,1.24-9.09-.02Z"/><path class="cls-48" d="m318.18,336.26c-2.7,1.22-5.39,1.24-8.08-.02,2.69,0,5.39.01,8.08.02Z"/><path class="cls-149" d="m139.33,14.18c.24-.04.47-.08.7-.13-.01,2.72.81,5.51-.71,8.1,0-2.66,0-5.31,0-7.97Z"/><path class="cls-110" d="m13.17,33c-1.67,0-3.33,0-5,0,1.67-1.32,3.34-1.3,5,0Z"/><path class="cls-39" d="m56.06,131.23c1.94,1.57,1.4,3.25.21,4.95-.07-1.65-.14-3.3-.21-4.95Z"/><path class="cls-66" d="m136.14,365.9c1.47-1.37,3.28-.72,4.96-.81-1.44,1.6-3.26.83-4.96.81Z"/><path class="cls-94" d="m124.29,136.96c1.79,0,3.21.79,4.33,2.09,5.56,6.43,10.64,13.42,12.07,21.82,1.86,10.93.25,18.68-13.5,20.33-3.36.57-6.71.66-10.06-.05-5.65-1.37-10.44-3.8-12.1-10-.55-3.37-.65-6.74.06-10.11,2.08-9.22,4.03-18.52,13.07-23.95,2.03-.81,4.08-.63,6.13-.14Z"/><path class="cls-183" d="m77.03,133.98c.5-9.45,5.61-14.54,10.64-14.61,4.78-.07,10.07-.13,14.38,2.35,3.75,2.16,6.04,6,7.28,10.28.47,2.72.62,5.44-.11,8.14-3.64,9.87-8.42,13.2-18.59,12.98-7.12-.16-10.9-2.94-13.52-9.96-.73-3.05-.58-6.11-.08-9.18Z"/><path class="cls-183" d="m145.1,151.26c-6.45-.95-9.24-5.54-11.03-11.11-.62-3.03-.62-6.07,0-9.1.61-6.75,7.12-11.42,12.81-12.73,5.5-1.27,13.68,3.34,17.16,9.5,5.94,10.53,2.58,19.13-10.85,23.37-2.69.68-5.39.56-8.09.08Z"/><path class="cls-150" d="m105.09,161.05c-.02,3.37-.04,6.74-.06,10.11-1.39-3.38-1.43-6.75.06-10.11Z"/><path class="cls-137" d="m117.13,181.16c3.35.01,6.71.03,10.06.05-3.36,1.39-6.71,1.41-10.06-.05Z"/><path class="cls-98" d="m134.06,131.04c0,3.03,0,6.07,0,9.1-1.49-3.03-1.45-6.07,0-9.1Z"/><path class="cls-78" d="m77.03,133.98c.03,3.06.05,6.12.08,9.18-1.55-3.05-1.47-6.11-.08-9.18Z"/><path class="cls-136" d="m109.21,140.14c.04-2.71.07-5.43.11-8.14,1.34,2.73,1.41,5.45-.11,8.14Z"/><path class="cls-108" d="m145.1,151.26c2.7-.03,5.39-.06,8.09-.08-2.68,1.45-5.38,1.39-8.09.08Z"/><path class="cls-112" d="m124.29,136.96c-2.04.05-4.09.09-6.13.14,2.01-1.54,4.06-1.46,6.13-.14Z"/><path class="cls-167" d="m280.09,353.12c1.11.16,2.5-.74,3.21.78.06.12-.86.7-1.32,1.06-.63-.61-1.26-1.23-1.89-1.84Z"/><path class="cls-9" d="m265.19,361.15c-1.48,1.39-3.32.79-5.03.94,1.44-1.59,3.3-.94,5.03-.94Z"/><path class="cls-107" d="m76.28,252.23c1.7-2.47,2.06-5.44,3.05-8.18,2.15-1.67,4.71-1.21,7.15-1.4,1.79-.14,3.57-.84,5.37-.08,2.01,2.49-.33,3.73-1.62,5.13-1.42,1.54-3.6,2.1-5.09,3.56-.51.78.09,1.39.34,2.07-1.04,3.82-4.76,5.81-6.29,9.29-1.07,1.48-1.85,3.11-2.45,4.83-2.74,4.79-4.95,9.93-8.93,13.93-.57-.02-.99-.28-1.27-.77-1.03-2.34-.66-4.79-.6-7.21.17-1.45.71-2.68,2.08-3.39,2.75-5.93,5.5-11.86,8.25-17.79Z"/><path class="cls-170" d="m58.33,286.06c-.35-7.72-1.07-15.5,3.15-22.58.89-1.5,1.25-3.57,3.68-3.4,1.13,1.52-.11,3.46.9,5.01l.23,3.96c.8,1.34.27,2.79.36,4.18.17,2.79-.36,5.61.32,8.38.53,1.62.41,3.14-.65,4.52-2.67,1.99-5.32.15-7.98-.07Z"/><path class="cls-85" d="m51.2,248.16c2.49-3.93,6.42-6.5,9.35-10.01,2.81-3.38,5.65-6.78,6.92-11.21.57,6.72-2.36,12.4-5.2,18.12-3.94.17-6.62,4.79-11.07,3.11Z"/><path class="cls-109" d="m51.2,248.16c2.4-.59,4.65-1.42,6.75-2.83,1.2-.8,2.77-2.34,4.33-.28-2.36,4.54-1.84,9.78-3.75,15.19-2.46-4.39-5.99-7.51-7.33-12.08Z"/><path class="cls-17" d="m58.33,286.06c2.28-2.94,4.58,1.42,6.86-.02,1.8,2.32,1.68,4.64.03,6.98-1.43,1.8-3.34.89-5.09.9-1.59-1.66-.16-4.38-2.09-5.92.09-.64.19-1.29.28-1.93Z"/><path class="cls-13" d="m66.27,272.98c0-1.31.01-2.62.02-3.94.58.32,1.16.65,1.74.97-.32.96-.64,1.93-.96,2.89-.21.59-.48.59-.8.08Z"/><path class="cls-168" d="m66.06,265.09c-1.51-1.45-.66-3.33-.9-5.01,1.77,1.4.74,3.31.9,5.01Z"/><path class="cls-10" d="m179.87,248.93c4.48,4.81,7.4,10.79,11.9,15.63,1.42,1.52,2.73,3.21,4.26,4.67,1.65,1.6.6,3.48.54,5.26-.3,2.02.29,4.29-1.66,5.83-1.64.54-2.51-.54-3.22-1.68-5.53-8.9-10.69-18.04-17.61-25.99-.45-.51-.45-1.23-.37-1.91,1.55-2.31,3.58-3.01,6.16-1.81Z"/><path class="cls-160" d="m195.36,274.14c-.62-1.75,1.45-3.14.67-4.91.04-.32.09-.64.11-.97.28-7.37.53-7.59,7.05-6.38.35.36.7.72,1.05,1.08.62,2.06.65,4.13-.03,6.19.05.97.1,1.94.15,2.91-.86,2.93-1.39,5.92-1.41,8.98-5.08,1.44-6.68-.01-7.59-6.9Z"/><path class="cls-125" d="m171.26,203.01c1.18,1.03,1.09,2.46.84,3.71-2.35,11.58-.67,22.66,3.88,33.42.24.57.09,1.31.12,1.97-1.5.31-1.99-.95-2.77-1.77-1.8-3.51-4.85-6.29-6.09-10.14-.13-2.18-1.43-3.78-2.71-5.39-.43-.94-.53-1.92-.45-2.93,2.35-6.21,4.06-12.65,6.85-18.7l.34-.18Z"/><path class="cls-121" d="m190.26,238.14c-3.03-3.6-4.5-7.89-5.56-12.5,6.18,5.96,12.37,11.74,19.18,16.86,2.31,1.74.72,3.11-1.56,3.55-3.24-3.82-7.8-5.64-12.06-7.91Z"/><path class="cls-109" d="m190.26,238.14c5.31.16,11.09,3.95,12.06,7.91-.04.16-.05.34-.12.48-1.09,2.16-1.32,5.88-3.56,6.04-2.31.17-2.4-3.6-3.4-5.61-1.51-3.04-4.33-5.32-4.98-8.82Z"/><path class="cls-55" d="m174.42,240.08c.56.68,1.12,1.36,1.67,2.03.49,2.7,2.79,4.39,3.78,6.82-2.04.31-3.99.85-5.7,2.07-.42.35-.85.38-1.31.09-1.82-3.35-4.83-5.36-7.94-7.35-1.42-.91-4.06-1.57-2.21-4.32,4-1.39,7.81.56,11.72.65Z"/><path class="cls-29" d="m171.91,200.03c.34-1.88.86-3.68,2.16-5.16.12,2.07-.14,3.98-2.16,5.16Z"/><path class="cls-79" d="m162.13,240.12c1.73,2.59,4.89,3.15,7.16,4.99,1.93,1.56,4.04,2.89,3.91,5.8-1.28,2.92-3.98,4.81-5.46,7.59-1.45,1.44-3.75,2.41-2.88,5.15.36.98.9,1.86,1.57,2.65.42.46.84.93,1.24,1.4.56.64,1.03,1.35,1.49,2.06.59.9,1.23,1.77,1.76,2.71.43.74.81,1.51,1.19,2.27.47.92.93,1.85,1.54,2.7.38.49.73,1,1.06,1.52.6,1.08,1.38,2.06,2,3.13.29.59.5,1.21.68,1.84.26.88.49,1.76.28,2.69-.18.46-.5.76-.96.91-2.01.42-4.19-.7-6.08.71-.64,1.08-.43,2.35-.79,3.49-1.52,5.09,1.69,9.87.96,14.9-3.08,2.82-4.23,6.85-6.36,10.26-.64,1.14-2.42.5-3.01,1.89,1.47.26,1.87-1.01,2.67-1.64,3.22-.63,6.98.99,9.57-2.31,3.19,2.61,4.96,5.45,1.44,9.12-.32.08-.64.17-.95.29-1.75,1.04-3.39.09-5.06-.26-2.54-.84-5.09-.83-7.65-.1-6.3.61-8.17,6.02-11.11,10.27,0,0-.28-.06-.28-.06-3.04-2.1-3.18-4.5-1.03-7.42,1.24-1.69,2.08-3.66,3.1-5.51-.12-1.93.86-3.7.76-5.63.5-4.62,1.66-9.14,1.76-13.81.22-1.13.98-2.06,1.14-3.21.22-1.75.15-3.49-.38-5.19-.35-1.6-.97-2.93-2.92-2.93-1.4-.05-2.79,0-4.19,0-1.72-.04-3.44.05-5.13.42-.79.06-1.53-.08-2.18-.56-.93-1.56-.18-2.98.37-4.42,2.03-4.25,2.74-8.88,3.76-13.42.23-.96.65-1.83,1.08-2.71.63-1.3.9-2.71,1.18-4.12.74-2.59.11-5.36,1.03-7.92.87-2.27,6.28-2.42,3.05-6.58-1.62-1.09-3.25-.87-4.88-.04-1.94.6-2.31,3.58-4.88,3.22-.46-.21-.88-.47-1.29-.75q-6.6-4.55-3.83-12.48c.43-.71,1-1.25,1.74-1.63,2.04-.81,4.29-.58,6.35-1.34,3.57-.54,7.15-.55,10.73-.04,1.79.55,3.66.71,5.48,1.15.52.19.94.51,1.26.95Z"/><path class="cls-166" d="m169.01,291.05c.27-1.08-.16-2.42,1.16-3.11.47-.35.78-.22.95.32-.23,2.94.71,5.4,2.4,7.89,6.58,9.67,15.36,15.36,27.21,15.92,3.76.18,7.37,2.12,11.25,1.01.68,5.03,1.37,10.06,2.05,15.1-.6.39-.08,1.49-1.04,1.65-1.54.66-3.05,1.46-4.81,1.32-8.11.66-14.62-3.43-21.25-7.15-4.13-.76-6.47-3.98-8.72-6.93-5.81-7.63-9.42-16.18-9.19-26.01Z"/><path class="cls-117" d="m169.15,322.95c1.67.42,3.34.85,5.01,1.27-3.52,6.94-10.45,8.09-16.96,9.7-2.14.53-4.56.97-6.87.21,1.21-6.04,4.15-10.42,10.82-11.18,2.66-.6,5.33-.6,7.99,0Z"/><path class="cls-61" d="m169.01,291.05c1.57,6.52,2.9,13.07,6.14,19.12,2.95,5.52,7.15,9.81,11.78,13.82-3.95,1.78-7.88,1.7-11.81-.05,1.77-3.44.32-6.21-1.85-8.83-3.18-1.76-4.27-4.36-3.11-7.84-.1-5.42-3.66-10.6-1.14-16.21Z"/><path class="cls-157" d="m146.17,346.92c1.66-1.29,3.32-1.28,4.98.01-1.66,0-3.32,0-4.98-.01Z"/><path class="cls-80" d="m192.27,76.85c1.4,3.79,1.53,7.57-.07,11.35.02-3.78.05-7.56.07-11.35Z"/><path class="cls-128" d="m106.21,224.9c-3.94-5.86-2.36-11.48.59-17.13.96-1.83,2.15-2.8,4.27-2.69,7.62.4,15.18-.56,22.77-.93,6.58-.32,10.93,7.01,8.31,13.12-1.06,2.47-3.59,3.96-4.05,6.72-.18.98-.79,1.59-1.69,1.96-3.56.93-7.18.51-10.79.56-4.64-.08-9.28.03-13.92-.06-1.94-.04-4.05.3-5.5-1.55Z"/><path class="cls-53" d="m97.17,225.12c-.98-.03-1.95-.06-2.93-.09-3.96-3.25-3.19-8.67-5.81-12.7-1.61-2.47,2.88-3.96,3.81-6.4,1.82-.16,2.18,1.42,2.44,2.5,1.3,5.46,2.39,10.96,3.55,16.45-.27.45-.63.53-1.06.24Z"/><path class="cls-101" d="m97.17,225.12c.35-.08.71-.16,1.06-.23,2.66,0,5.31.01,7.97.02,6.64.12,13.28.23,19.92.35-.18,1.75-1.63,2.06-2.88,2.13-7.88.46-15.77.51-23.65-.02-.99-.07-1.9-.53-2.55-1.35.03-.3.08-.59.12-.89Z"/><path class="cls-143" d="m137.08,224.93c.34-.31.68-.62,1.02-.93,2.61.04,5.21.07,7.82.11.16-.06.33-.09.51-.07.13.67-.08,1.2-.64,1.59-3.01,1.11-5.97,1.62-8.71-.7Z"/><path class="cls-79" d="m92.12,293.03c.06-2.24-1.55-1.83-2.91-1.83-2.28.67-4.58.34-6.88.21-.78-.5-1.1-1.28-1.29-2.13-.22-3.55.68-6.96,1.27-10.41.5-1.37,1.87-1.74,2.9-2.52,4.39-3.32,4.51-6.12.46-9.91-.89-.92-1.39-2-1.28-3.31,1.32-3.41,4.75-6.19,3.07-10.49.33-2.58,1.48-4.27,4.39-4.03.13.08.25.19.4.25,1.41.64,1.06,4.48,3.36,2.69,2.28-1.77-.73-3.12-1.67-4.57,1.13-3.19,4.34-3.97,6.69-5.74,1.88-.53,3.73-.61,5.5.37,2.23,2.34,1.81,4.99,1.16,7.82-1.22,5.3-4.2,9.98-5.17,15.34-.66,1.91-.92,3.97-2.1,5.68-3.03,6.28-1.53,9.67,5.02,11.17,2.07.47,4.15.93,6.26,1.23,2.27.5,4.36,1.37,6.19,2.82.99,1.44,2.67,2.68,1.45,4.79-2.3,1.37-4.87.67-7.31.95-1.13.09-2.02.58-2.66,1.54-1.06,2.33-.51,4.69-.14,7.04.06.72-.03,1.39-.55,1.94-.02,2.98-.05,5.96-.07,8.93-.81,1.05-1.85,1.03-2.97.66-2.56-2.64-5.62-4.23-9.31-4.76-1.71-.25-3.58-.56-4.57-2.38-.95-3.87.48-7.59.76-11.38Z"/><path class="cls-79" d="m113.13,332.87c-2.13.33-3.61,1.71-5.08,3.12-.37.39-.8.69-1.29.91-1.38.42-2.62.12-3.74-.77-2.23-.74-4.5-1.26-6.88-1.19-3.13-1.01-6.61-1.41-8.37-4.81-.09-.48-.06-.96.08-1.42,1.34-2.09,2.36-4.26,1.97-6.86-.49-3.31,1.1-5.25,4.17-6.18,4.04,2.03,7.79,1.92,11.13-1.46,1.39-.41,2.79-.38,4.2-.15.93,4.85,2.37,9.55,4.38,14.05.82,1.83-.42,3.19-.57,4.78Z"/><path class="cls-166" d="m108.28,301.95c-.08-.62-.15-1.24-.23-1.87-.44-.91-.49-1.76.35-2.49,3.59-1.58,7.52-1.59,11.27-1.77,10.64-.5,21.26-1.18,31.88-1.9,1.52-.1,3,.06,4.22,1.14,1.22,1.09.48,2.83,1.35,4.05.08,1.29-.7,1.87-1.81,2.17-.39.4-.86.67-1.4.82-2.15.36-4.36.31-6.46,1.05-5.14,1.01-10.3,1.64-15.55,1.36-5.13-.13-10.26-.03-15.39-.04-1.6.05-3.08-.26-4.32-1.34-1.31-.39-2.61-.78-3.92-1.18Z"/><path class="cls-25" d="m138.32,323.06l-.29,1c-9.69,4.09-21.83-1-23.91-10.01.03-.62.07-1.23.1-1.85,2.93-5.48,8.26-7.66,13.59-5.13,2.11,1,4.71.48,6.44,2.35.39.53.87,1.2.63,1.76-1.87,4.49.71,7.24,3.73,9.85.23.72.13,1.4-.3,2.03Z"/><path class="cls-79" d="m138.32,323.06c-.09-.63-.18-1.25-.27-1.88.12-.67.52-1.16.93-1.68,1.34-1.65,4.17-2.86,2.38-5.62-1.66-2.56-3.41-5.47-7.38-3.96-2.85-.93-5.78-1.56-8.64-2.56-4.43-1.55-7.87,2.06-11.12,4.84-2.22-2.68-2.12-5.88-2.03-9.08,1.31.03,2.61.05,3.92.08,5.36.61,10.73.65,16.09-.01,5.31-.43,10.62-.85,15.94-1.28.99-.46,1.99-.39,3-.1,1.29,1.23,1.18,2.74.88,4.28-.15.46-.38.88-.69,1.26-2.63,1.2-4.29,3.05-4.1,6.15-.03.22-.06.44-.09.67-2.42,3.48-3.82,7.98-8.83,8.9Z"/><path class="cls-174" d="m114.12,314.06c5.18,10.01,14.32,10.53,23.91,10.01-.88,2.08-1.75,4.15-2.63,6.23.01.96-.4,1.58-1.4,1.71-2.76-.3-4.59,2.84-7.51,2.02-1.43-.4-2.97-.54-4.32-1.12-4.03-1.75-9.32-14.31-8.05-18.85Z"/><path class="cls-50" d="m154.02,316.15c.19,1.98-.44,3.64-1.9,4.99-5.27-1.25-5.7-2.27-2.93-6.92.3-.36.68-.53,1.15-.53,1.61.24,3.02.79,3.68,2.46Z"/><path class="cls-74" d="m134,332.01c.47-.57.93-1.14,1.4-1.71,1.59-.19,3.4-.81,3.77,1.67.2,1.29-.41,2.35-1.58,2.74-2.35.78-3.24-.67-3.6-2.7Z"/><path class="cls-45" d="m150.12,314.24l-.46-.06s-.46.04-.46.04c-.68-.02-1.37-.04-2.05-.06,0,0,.13-.28.13-.28-.03-2.98,1.42-5.11,3.86-6.66v-.27c3.36,3.05,3.07,5.14-1.01,7.29Z"/><path class="cls-57" d="m109.33,314.04c-1.12,1.64-2.65.9-4.09.71-1.17-1.27-1.19-2.5.11-3.69.95-.06,1.91-.11,2.86-.17,1.36.7.77,2.1,1.13,3.16Z"/><path class="cls-61" d="m88.08,330.05c2.69,1.63,5.38,3.26,8.07,4.88-3.41.08-5.54,2.26-6.68,5.01-.98,2.36-2.71,2.81-4.2,1.9-5.86-3.57-9.86-.22-13.94,3.24-3.16-1.85-4.39-3.83-2.37-7.73,1.38-2.64-.7-4.58-3.88-4.47,2.66-4.25,7.98-5.23,11.06-8.98,1.68,2.2,3.86,3.65,6.56,4.33,1.74.75,3.91.26,5.38,1.8Z"/><path class="cls-42" d="m103.03,336.12c1.4,0,2.79,0,4.19-.01.59,3.36.92,6.71-.19,10.03-3.52-2.47-2.54-6.73-4-10.02Z"/><path class="cls-171" d="m107.26,365.96c-4.81.39-9.5-.16-14.05-1.81,0,0-.07-.35-.07-.35,2.01-.32,4.02-.47,6.01.09,2.78.38,5.59.64,8.11,2.06Z"/><path class="cls-103" d="m107.03,346.14c.06-3.34.13-6.69.19-10.03.28-.04.56-.09.84-.12-.38,3.69,1.26,7.54-.89,11.09-.08-.31-.12-.62-.14-.94Z"/><path class="cls-162" d="m99.15,363.9c-2-.03-4.01-.06-6.01-.09,2.02-1.16,4.03-1.2,6.01.09Z"/><path class="cls-44" d="m99.45,358.34c-.23.79-.89.71-1.46.67-.59-.04-1.37-.1-.99-1,.14-.33.72-.61,1.13-.67.67-.1,1.18.25,1.33.99Z"/><path class="cls-16" d="m111.17,360.21c1.77-.06,3.61-.71,5.2.67-1.76.03-3.62.79-5.2-.67Z"/><path class="cls-4" d="m212.99,329.82c.35-.55.7-1.1,1.04-1.65,0,1.97,0,3.94,0,5.91-1.31-1.18-.74-2.82-1.04-4.25Z"/><path class="cls-26" d="m167.2,257.85c1.27-2.95,3.06-5.44,6.01-6.94.32.05.64.08.96.09,8.09,8.71,13.51,19.25,19.94,29.09,1.9,2.65,1.44,4.96-1.01,6.98-.59.01-1.17.03-1.76.04-4.56-1.65-4.35-6.63-6.84-9.73-.97-1.88-1.99-3.75-2.41-5.85-.13-1.6-.72-2.97-2.03-3.97-2.95-4.29-8.82-8.72-12.87-9.71Z"/><path class="cls-124" d="m185.32,276.88c2.01,3.41,4.02,6.82,6.02,10.23-.1.29-.17.58-.23.88-4.82,1.31-9.42.81-13.77-1.67-.35-.73-.71-1.46-1.06-2.18.51-.58,1.01-1.18,1.85-1.29-.63-.41-1.5-.03-2.07-.64-1.13-.65-2.03-1.45-1.93-2.91.56-1.33,1.7-1.68,2.99-1.78,2.8.6,5.51.02,8.21-.64Z"/><path class="cls-21" d="m193.1,287.07c.61-2.29,1.44-4.55,1.01-6.98,1.83-1.69.67-4,1.25-5.95,1.33,3.62,2.39,7.55,7.59,6.9.15.26.21.54.17.85-1.17,1.51-1.67,3.26-1.86,5.13-2.7,2.44-5.44,1.2-8.17.06Z"/><path class="cls-115" d="m177.34,286.32c1.69-.62,3.38-1.25,5.1-1.89,1.78,1.9-1.64,2.01-1.2,3.56,3.28,0,6.58,0,9.87,0-4.39,1.71-8.76,1.97-13.1-.21-.41-.08-.69-.32-.84-.71.04-.25.09-.5.16-.75Z"/><path class="cls-33" d="m177.18,287.07c.28.24.56.48.84.71-2.3.16-4.6.31-6.89.47-.32-.11-.64-.21-.95-.32,2.17-1.66,4.68-.54,7.01-.86Z"/><path class="cls-79" d="m65.23,293.02c-.01-2.32-.02-4.65-.03-6.97,1.33-1.05.81-2.58,1.01-3.92.19-.42.5-.69.94-.82.34-.08.67-.17,1.01-.25,1.22-1.66,2.39-3.39,4.65-3.77,1.14-.11,2.18.06,2.92,1.06,1.15,2.4.8,4.94.72,7.46-.39,2.18-.63,4.42-1.99,6.3-2.01,1.08-4.34-.18-6.36.84-.96.02-1.92.05-2.88.07Z"/><path class="cls-175" d="m74.07,291.99l1.26-5.88c2.66,0,4.58,1.71,6.72,2.91.1.68.2,1.35.3,2.03.31.43.22.75-.25.98-2.67-.02-5.13,1.71-7.89.91-.38-.16-.53-.35-.44-.58.09-.25.19-.37.3-.37Z"/><path class="cls-67" d="m92.12,293.03c.01,4.01.02,8.01.03,12.02-.28.9-.9,1.32-1.83,1.31-1.05-.42-1.23-1.54-1.85-2.32.25-.96.49-1.93.74-2.89,2.25-2.25,1.07-5.73,2.91-8.12Z"/><path class="cls-130" d="m82.11,292.03c.08-.33.17-.65.25-.98,2.29.05,4.57.1,6.85.15-2.22,1.57-4.73.64-7.11.83Z"/><path class="cls-81" d="m74.07,291.99c.09.31.14.63.15.95-2.04,0-4.07.01-6.11.02,1.79-1.57,3.98-.64,5.96-.96Z"/><path class="cls-107" d="m88.48,304.04c1.27.04,1.72.86,1.89,1.96.82.81.94,1.85,1,2.91.02,2.03-.42,4.03-1.35,5.78-2.48,4.62-4.88,9.22-4.07,14.73-1.3.12-2.61.37-3.86-.25-2.56-1.1-6.37-.77-5.94-5.25,4.95-6.11,9.32-12.57,12.33-19.89Z"/><path class="cls-128" d="m169.32,377.82c-2.49-.8-5.28-1.54-5.86-4.56-.55-2.87,2.21-2.74,3.94-3.39,4.16-1.57,8.33-3.15,12.54-4.57.92-.31,2.35-1.4,3.01.08.4.91.27,2.47-.27,3.31-3.15,4.81-8.23,6.93-13.35,9.12Z"/><path class="cls-126" d="m170.92,203.19c-.05,6.09-2.99,11.3-5.08,16.77-.29.76-.54,1.53-.8,2.3-.51,1.47-1.11,2.84-2.99,2.9-.78.1-1.55.07-2.31-.08-1.43-.37-2.27-1.18-2.05-2.77,2.07-5.36,4.82-10.4,7.41-15.51-.18-1.74,1.68-2.21,2.19-3.52,1.21-.03,2.43-.05,3.64-.08Z"/><path class="cls-65" d="m165.08,206.79c-.17,6.12-5.02,10.13-6.99,15.43-.38.37-.64.29-.82-.19,2.52-5.12,2.41-11.59,7.81-15.24Z"/><path class="cls-36" d="m157.27,222.03c.27.06.55.12.82.19-.02,1.32.75,1.88,1.95,2.02-1.24,3.1-3.49,1.92-5.6,1.31-.52-.4-.61-.89-.28-1.46,1.5,0,2.52-.7,3.1-2.07Z"/><path class="cls-52" d="m154.17,224.09c-.05.28-.09.56-.12.84-2.69,2.16-5.39,2.17-8.08,0,.15-.3.3-.6.46-.9,2.58.02,5.16.04,7.74.06Z"/><path class="cls-156" d="m101.08,370.77c.15,3.03-4.64,7.76-7.43,7.02-3.76-.99-7.94-1.8-10.39-5.29-1.51-2.16-2.66-4.46,1.99-4.82,4.87-.38,9.36,1.65,14.14,1.49,1.17-.04,1.72.84,1.7,1.6Z"/><path class="cls-2" d="m204.21,269.15c0-2.06.02-4.12.03-6.19,1.62,2.07,1.31,4.13-.03,6.19Z"/><path class="cls-111" d="m85.62,209.07c-1.22-.22-2.35-.9-2.46-2.73-.1-1.69.63-2.3,2.29-2.29,1.79.01,2.77.61,2.72,2.54-.04,1.48-.39,2.61-2.55,2.48Z"/><path class="cls-142" d="m145.97,224.93c2.69,0,5.39,0,8.08,0,2.02-.05,4.15.81,6-.7.75.03,1.49.06,2.24.08.91.59,2.14-.21,2.99.67,3.34.41,3.04,2.76,2.72,5.11-2.62,4.06-6.69,5.32-11.16,5.41-15.27.3-30.53,0-45.8.92-7.11.43-14.21,1.51-21.37,1.14-2.81-.14-5.75.04-7.5-2.88-.5-.88-.61-1.77-.08-2.68-.66-1.27-1.24-2.56-.76-4.04,4.96-2.89,10.45-1.6,15.73-1.98,8.44.02,16.89.06,25.33.06,1.3,0,2.68.27,3.75-.82,3.65-.11,7.3-.21,10.95-.32,2.96,0,5.92,0,8.89,0Z"/><path class="cls-166" d="m82.35,234.09c5.14,3.71,10.87,1.58,16.37,1.61,1.3,0,2.61-.59,3.91-.58,15.29.1,30.55-1.77,45.85-1.03,6.86.33,13.59.21,19.51-3.98,2.14,3.32,4.28,6.64,6.42,9.97-4.08,2.72-8.19-1.21-12.28.04-.29-.09-.59-.13-.89-.14-1.6-.95-3.5.08-5.12-.76-3.99,0-7.98,0-11.96,0-1.92.69-3.93.13-5.88.39-2.88,1.27-6.09.39-9,1.4-3.49.38-6.96.89-10.48.97-2.23-.52-4.47-.85-6.71-.03-2.02.43-4.05.58-6.09.11-1.93.05-3.87.1-5.8.15-2.59,1.17-5.08,3.19-8.07.97-1.67.22-3.33.44-5,.65-2.16-1.17-5.9,1.53-6.8-2.76-.67-1.55,1.23-2.48.94-3.93.85-.85-.19-2.36,1.08-3.06Z"/><path class="cls-146" d="m80.33,241.09c1.39,3.07,4.82,1.12,6.8,2.76-2.6.07-5.2.13-7.8.2.33-.99.67-1.98,1-2.96Z"/><path class="cls-140" d="m82.35,234.09c-.36,1.02-.72,2.04-1.08,3.06-.08-1.76-.57-3.59.81-5.13.09.69.18,1.37.27,2.06Z"/><path class="cls-114" d="m123.63,149.1c1.93.3,4.69-1.05,5.38,1.95.55,2.39-1.33,3.57-3.38,4-2.64.56-.81,1.7-.59,2.78.33,1.68.28,3.59-1.69,4.14-2.37.66-1.97-1.4-2.2-2.79-.4-2.4-2.41-3.11-4.31-3.84-1.44-.55-2.85-1.1-2.63-3,.22-1.89,1.66-2,3.21-2.3,2.06-.4,4.03-1.29,6.21-.93Z"/><path class="cls-135" d="m120.12,170.26c-.49-.06-.98-.19-1.47-.18-2.02.03-4.66-.46-4.32-2.54.51-3.05,2.94-.72,4.61-.62,3.09.19,6.2.7,9.27-.36,1.31-.45,3.16-1.3,3.81.43,1.02,2.7-1.97,1.79-3.03,2.67-.45.37-1.21.39-1.82.56-2.35.6-4.7.51-7.06.05Z"/><path class="cls-138" d="m120.12,170.26c2.35-.02,4.71-.03,7.06-.05-2.34,1.39-4.7,1.38-7.06.05Z"/><path d="m103.25,139.15c-2.49,3.03-4.81,6.19-9.45,5.98-3.75-.16-7.27-2.71-8.46-6.54-.81-2.6,1.58-8.73,4.26-10.25,3.37-1.91,6.74-1.94,9.94.65,1.71,1.38,2.67,3.24,3.76,5.03.51,1.71.58,3.42-.04,5.12Z"/><path class="cls-155" d="m103.25,139.15c.01-1.71.03-3.42.04-5.12,1.27,1.72,1.48,3.43-.04,5.12Z"/><path d="m144.06,144.16c-3.36-1.77-5.55-9.82-3.73-13.74,1.64-3.52,7.14-5.2,10.98-3.3,3.75,1.85,4.95,4.85,4.97,9.03.02,4.55-2.15,6.74-6.03,8.01-2.07.65-4.13.65-6.2,0Z"/><path class="cls-97" d="m144.06,144.16c2.07,0,4.13,0,6.2,0-2.07,1.6-4.13,1.4-6.2,0Z"/><path class="cls-38" d="m84.75,262.93l1.52,2.86c.65,2.02,1.14,4-1.36,5.19-2.12.56-4.25.48-6.39.14-1.11-.27-2.04-.82-2.67-1.81-.2-.82-.24-1.62.22-2.39-.16-2,.99-3.41,2.17-4.81,2.45-1.96,4.74-2.72,6.5.81Z"/><path class="cls-6" d="m84.75,262.93c-2.02-1.5-4.18-1.79-6.5-.81,1.66-3.52,4.69-5.97,7.01-8.97.27-.36.61-.61,1.04-.73.68-.09,1.28.11,1.82.53,3.27,4.81-.6,7.21-3.36,9.99Z"/><path class="cls-23" d="m88.11,252.94c-.64-.02-1.29-.03-1.93-.05-.63-1.09-3.13.94-2.84-1.7,2.69-2.93,7.44-3.6,8.78-8,2.69-.33,5.38-.65,8.08-.98-1.22,2.57-4.16,2.94-6,4.71-.19,1.24-.91,1.93-2.15,2.07-2.22.4-3.57,1.68-3.94,3.93Z"/><path class="cls-14" d="m76.07,266.93c.1.81.2,1.61.29,2.42.82,1.38,1.13,2.86.98,4.45-.06.77-.24,1.51-.58,2.21-.95,1.97-3.17,1.07-4.58,2.01-1.34,1.01-2.68,2.02-4.03,3.03,1.71-5.23,5.14-9.49,7.92-14.13Z"/><path class="cls-133" d="m67.15,281.31c-.31.27-.63.55-.94.82.02-3.05.04-6.1.06-9.15.27.02.54,0,.8-.08.03,2.8.05,5.6.08,8.4Z"/><path class="cls-58" d="m83.34,251.2c.95.57,1.89,1.13,2.84,1.7-.3.11-.61.19-.93.25-.65-.63-3.72,1.1-1.91-1.95Z"/><path class="cls-147" d="m165.27,225c-1.05.03-2.15.27-2.99-.67.92-.69,1.83-1.38,2.75-2.07.08.92.16,1.83.24,2.75Z"/><path class="cls-68" d="m118.21,240.87c3.63-.32,7.26-.64,10.89-.95,2.78.03,5.79-1.69,8.23,1.06q-.55,7.25,5.02,12.84c.64.71,1.25,1.44,1.53,2.37.36,1.14.43,2.31.24,3.49-.45,1.74-1.34,3.35-1.5,5.18-.21.67-.58,1.25-1.03,1.79-.76.87-1.58,1.69-2.47,2.44-4.58,1.89-8.71,4.31-10.7,9.22-.97-.35-1.43-1.16-1.86-2.01-.52-1.49-1.04-2.98-1.98-4.27-1-3.74-3.32-4.11-6.44-2.57-1.48.73-2.91,1.73-4.51,2.06-4.57.92-5.02,3.54-3.28,7.23-.01,1.74,2.34,3.21.62,5.15-3.07-.3-6.11-.69-9.01-1.81-5.51-2.13-6.71-7.25-2.82-12.15,2.51-.9.95-3.35,1.86-4.86-.14-5.41,3.49-9.63,4.69-14.67.69-2.91.91-5.52.3-8.33,1.75-1.95,4.12-.52,6.12-1.14,2.03-.54,4.06-.46,6.09-.06Z"/><path class="cls-142" d="m156.06,296.09c-1.32-.82-2.73-1.15-4.28-.96-14.46,1.76-29.03,1.88-43.53,2.96-.99-1.98-.65-4.02-.25-6.05.38-1,1.03-1.67,2.15-1.79,3.06.66,6.14.33,9.22.18,2.46-1.16,5.08-.69,7.65-.74,2.54.02,5.07.03,7.61.02,2.17.14,4.38-.56,6.53.25.66,0,1.32,0,1.98-.01,1.52-.66,3.11-.22,4.67-.35,1.78-.17,3.62.38,5.36-.38,3.47-.72,2.9,1.9,3.16,3.82.37,1.06.63,2.11-.25,3.06Z"/><path class="cls-154" d="m185.32,276.88c-2.37,3.25-5.23,2.87-8.26,1.09-1.36-1.59-2.56,1.17-3.89.14-.59-.97-1.19-1.94-1.78-2.91,1.29-1.55.35-1.85-1.06-1.89-.64-1.04-1.28-2.08-1.92-3.12,1.95-2.19-.63-1.4-1.26-1.91-.43-.44-.86-.87-1.28-1.31-.15-1,.32-1.73,1-2.32.28-.2.53-.33.72-.36-.07-.08-.21-.17-.38-.12-.63.18-1.22.52-1.91.52-.45-.07-.85-.26-1.2-.54-2.93-4.06.87-4.8,3.11-6.32q8.33-1.87,12.07,6.43c.46,1.03,1.1,1.98,1.66,2.97,1.44.85,1.51,2.44,2.03,3.79.79,1.95,1.58,3.9,2.36,5.84Z"/><path class="cls-159" d="m146.04,272.32c-.46,4.85-1.21,9.62-3.73,13.92-4.44.56-6.2-1.99-6.83-5.87-.2-4.02,1.56-7.25,4.06-10.19.37-.3.81-.45,1.28-.47,1.64,1.06,3.48,1.73,5.22,2.61Z"/><path class="cls-132" d="m170.15,307.26c.61,2.78,1.75,5.35,3.11,7.84-1.65,7.16-5.89,2.18-9.12,1.94l.03.04c1.15-3.78.63-8.59,5.97-9.82Z"/><path class="cls-131" d="m143.19,256.38c-1.01-.62-1.07-1.55-.84-2.57.8-1.72,1.73-3.3,3.79-3.75,2.01-.75,4.03-.71,6.05-.03,2.26.77,2.4,2.62,1.75,4.35-.73,1.99-2.47,2.89-4.66,2.69-1.34-.38-2.57.16-3.82.5-1.06.16-1.67-.52-2.28-1.2Z"/><path class="cls-151" d="m145.12,257.25c1.35-.9,2.57-5,4.16-.17-.72,2.98.88,6.23-1.07,9.07-2.38,1.41-4.52,1.65-6.05-1.2-2.32-2.24.62-3.28,1.12-4.88.6-.95.31-2.47,1.84-2.81Z"/><path class="cls-56" d="m150.12,314.24c2.8-2.09,2.76-4.57,1-7.29,0-1.62.02-3.24.03-4.87.83-.95,2.2-.1,3.06-.93.37.04.73.08,1.1.13,1.93,5.16-1.35,9.87-1.28,14.87-1.3-.64-2.61-1.28-3.91-1.92Z"/><path class="cls-99" d="m136.17,280.07c.73,3.36,3.16,5.04,6.14,6.17-.38,1.24-.77,2.47-1.15,3.71-1.78,1.34-3.84,1.16-5.88,1.05-.39-.32-.69-.7-.92-1.14-.17-.47-.28-.96-.33-1.46-.1-1.51-.12-3.02-.06-4.53.19-1.59.43-3.15,2.21-3.8Z"/><path class="cls-163" d="m142.16,264.94c1.79,1.56,3.99.99,6.05,1.2-.16,1.36.38,2.9-1.04,3.92-2.4,1.58-4.39.48-6.33-.97-.62-1.15-.26-2.23.21-3.31.37-.28.74-.56,1.11-.84Z"/><path class="cls-84" d="m164.11,310.91c-.32,1.47-1.32,2.77-2.86,2.87-1.66.1-2.02-1.53-2-2.87.03-1.8,1.14-2.77,2.92-2.59,1.32.13,1.99,1.08,1.94,2.6Z"/><path class="cls-169" d="m164.14,317.04c-.04,2.14-.32,4.21-3.2,3.79-1.26-.18-2.01-1.31-1.64-2.62.9-3.2,3.14-1.18,4.88-1.14,0,0-.03-.04-.03-.04Z"/><path class="cls-15" d="m141.21,269.04c1.98.34,3.97.68,5.95,1.03-.38.75-.75,1.51-1.13,2.26-2.54,1.39-4.03.26-5.01-2.09-.29-.45-.23-.85.18-1.19Z"/><path class="cls-89" d="m155.13,261.76c.03,1.07-.18,2.07-1.43,2.21-1.32.15-2.21-.55-2.46-1.88-.22-1.16.23-1.92,1.5-1.99,1.21-.07,2.39-.05,2.38,1.66Z"/><path class="cls-88" d="m164.12,278.97c.07,1.37-.49,2.18-1.94,2.15-1.06-.03-1.95-.35-1.89-1.65.06-1.29.69-2.15,2.04-2.27,1.23-.1,1.72.64,1.79,1.77Z"/><path class="cls-178" d="m170.32,273.32c1.99-.14,3.34-2.57,5.87-1.62-.82,2.45-3.57,1.98-4.81,3.51-.35-.63-.71-1.26-1.06-1.89Z"/><path class="cls-161" d="m173.17,278.11c1.1-.67,2.18-1.36,3.3-2,.73-.42,1.65-1.64,2.26-.16.48,1.15-1.41,1.07-1.67,2.03-.98.44-1.96.88-2.94,1.32-.32-.39-.64-.79-.96-1.18Z"/><path class="cls-96" d="m137.33,240.97c-2.52-2.05-5.56-.16-8.23-1.06,2.9-1.49,6-.72,9.02-.75.36.17.49.36.4.57-.1.22-.2.33-.32.33-.29.3-.58.6-.88.9Z"/><path class="cls-95" d="m167.15,268.29c1.86-.21,3.47-2.02,5.58-.85-.64,2.21-3.29,1.23-4.33,2.76-.42-.64-.84-1.27-1.25-1.91Z"/><path class="cls-122" d="m176.05,282.21c1.62.14,2.93-1.77,4.78-.67-1.08,1.69-2.78,2.21-4.55,2.6-.08-.64-.15-1.29-.23-1.93Z"/><path class="cls-127" d="m169.15,322.95c-2.67,0-5.33,0-8,0,2.66-1.39,5.33-1.37,8,0Z"/><path class="cls-28" d="m152.19,250.03c-2.02,0-4.03.02-6.05.03,2.01-1.57,4.03-1.5,6.05-.03Z"/><path class="cls-164" d="m156.06,296.09c.08-1.02.17-2.04.25-3.06,1.48,1.87.64,4.04.8,6.08-1.13-.74-.86-1.96-1.05-3.02Z"/><path class="cls-27" d="m138.21,240.07c-.06-.3-.09-.6-.08-.9,2.01.02,4.02.04,6.04.06-1.81,1.52-3.96.6-5.95.85Z"/><path class="cls-177" d="m167.17,265.12c-.43.62-.86,1.24-1.3,1.86-1.16-.58-1.56-1.64-1.78-2.82.36-.01.73-.03,1.09-.04.56.54,1.58.15,1.99,1Z"/><path class="cls-100" d="m156.12,239.22c1.76-.12,3.58-.62,5.12.76-1.74,0-3.58.6-5.12-.76Z"/><path class="cls-106" d="m153.16,289.2c-1.5,1.43-3.34.71-5.06.81-.29-.24-.37-.45-.23-.62.12-.15.25-.23.37-.23,1.64.01,3.28.03,4.92.04Z"/><path class="cls-24" d="m148.23,289.16c-.05.28-.09.57-.13.85-1.66-.03-3.31-.05-4.97-.08,1.53-1.4,3.36-.75,5.1-.77Z"/><path class="cls-59" d="m90.24,309.08c.04-1.03.09-2.05.13-3.08.6-.32,1.19-.63,1.79-.95,4.77,1.19,10.8-.4,13.19,6.01-.03,1.23-.07,2.46-.11,3.69-5.22,5.36-5.53,5.4-10.67,1.29-3.07-1.31-2.42-4.93-4.33-6.97Z"/><path class="cls-176" d="m75.92,276.12c.11-.7.22-1.39.33-2.09,2.69-1.26,5.2-.35,7.71.63,1.2,1.45.03,2.48-.64,3.6-.42,3.58-.85,7.17-1.27,10.75-2.97.71-4.73-1.37-6.72-2.91-.06-2.64-.11-5.28-.17-7.92.11-.74.53-1.37.76-2.07Z"/><path class="cls-141" d="m110.98,283.89c.28-1.82-1.96-2.84-1.52-4.72.4-.29.84-.36,1.32-.22,6.3,3.64,11.67,2,16.44-2.94.87.46.94,1.31,1.04,2.15,1.55,3.57-.29,5.82-3,7.74-2.68.45-5.33,1.43-8.08.4-2.07-.8-4.13-1.61-6.2-2.41Z"/><path class="cls-76" d="m83.33,278.27c-.55-1.24.53-2.13.68-3.22-.91-1.39-.3-2.67.28-3.96.28-.37.6-.7.95-1.01,1.53-1.15-.28-3.09,1.02-4.29,2.73.73,4.42,2.39,3.88,5.33-.69,3.78-2.46,6.76-6.82,7.15Z"/><path class="cls-54" d="m117.17,286.3c2.59-.91,5.21-1.64,7.99-1.02,1.67,1.11,2.06,2.89,2.44,4.67,0,.49-.22.83-.68,1-2.57.02-5.14.03-7.71.05-.35-.16-.52-.38-.51-.66.01-.3.06-.46.15-.46-.31-1.32-1.89-2.04-1.68-3.6Z"/><path class="cls-75" d="m92.05,249.01c.72-.69,1.43-1.38,2.15-2.07,2.05.12,4.39.34,3.77,3.11-.32,1.4-.11,3.99-2.75,3.98-3.54-.02-2.84-2.88-3.17-5.01Z"/><path class="cls-105" d="m101.23,300.83c-2-.56-1.9-2.12-2.01-3.62-.15-2.17,1.1-3.12,2.97-3.15,2.26-.04,2.05,1.78,1.94,3.25-.13,1.84-1.25,2.96-2.9,3.52Z"/><path class="cls-179" d="m98.14,297.49c-.08,1.71-1.2,2.79-2.6,3.23-1.37.43-2.16-.79-2.16-2,0-1.69.51-3.36,2.61-3.46,1.34-.07,1.97.96,2.15,2.23Z"/><path class="cls-86" d="m118.85,289.9c.12.37.24.74.36,1.11-3.02-.26-6.16.88-9.07-.77,2.9-.11,5.81-.23,8.71-.34Z"/><path class="cls-20" d="m108,292.03c.08,2.02.16,4.04.24,6.05-.06.67-.13,1.33-.19,2-1.43-2.68-1.3-5.36-.05-8.05Z"/><path class="cls-87" d="m101.01,265.07c-.42,1.7,1.77,4.39-1.86,4.86.62-1.62,1.24-3.24,1.86-4.86Z"/><path class="cls-7" d="m90.24,309.08c3.69.93,2.76,4.72,4.33,6.97-2.63,1.46-4.68,2.94-3.49,6.71.79,2.51-.02,5.18-2.94,6.45-.68.39-1.32.49-1.81-.29-2.75-3.29-2.48-6.37.05-9.81,2.14-2.91,3.53-6.31,3.85-10.02Z"/><path class="cls-129" d="m108.18,326.57c-.08,2.47-1.14,4.43-3.77,4.21-2.27-.18-4.15-1.97-4.07-4.28.08-2.21,1.8-4.12,4.17-4.21,2.59-.1,3.78,1.68,3.67,4.28Z"/><path class="cls-113" d="m86.34,328.91c.6.1,1.21.2,1.81.29,0,.28-.03.56-.06.84-2.01-.25-4.19.72-6-.88,1.42-.09,2.83-.17,4.25-.26Z"/><path class="cls-119" d="m132.2,303.19c-5.36,1.45-10.72,1.43-16.09.01,5.36,0,10.73,0,16.09-.01Z"/><path class="cls-69" d="m154.21,301.15c-.79,1.07-1.97.84-3.06.93-1-.06-2.01-.12-3.01-.17,1.87-1.49,4.02-.67,6.07-.75Z"/><path class="cls-117" d="m133.99,309.93c.55-2.35,2.78-2.44,3.9-1.63,2.36,1.71,4.98,3.79,6.03,6.32.76,1.83-1.9,3.91-3.69,5.37-.63.52-1.44.81-2.17,1.2-1.09-.67-2.34-1.17-3.24-2.04-1.85-1.81-3.72-3.74-1.11-6.44.71-.73.59-1.8.28-2.77Z"/><path class="cls-72" d="m151.13,307.22c-1.29,2.22-2.57,4.44-3.86,6.66-1.84-4.61-.99-6.09,3.86-6.66Z"/><path class="cls-116" d="m182.96,271.04c-1.15-1.01-1.65-2.37-2.03-3.79,2.4.34,2.47,1.93,2.03,3.79Z"/><path class="cls-173" d="m75.92,276.12c.23.87.05,1.58-.76,2.07-.99-.05-1.99-.11-2.98-.16,1.25-.64,2.49-1.27,3.74-1.91Z"/><path class="cls-91" d="m118.21,240.87c-2.03.02-4.06.04-6.09.06,2.02-1.09,4.05-1.47,6.09-.06Z"/><path class="cls-93" d="m85.03,271.08c-.34,1.33-.68,2.65-1.02,3.98-2.65.18-5.25-.08-7.76-1.02.04-1.56.07-3.12.11-4.68.59.25,1.18.5,1.77.75,2.16,1.29,4.74-.31,6.9.98Z"/><path class="cls-71" d="m85.03,271.08c-2.31-.27-4.81.82-6.9-.98,2.37,0,4.74-.01,7.12-.02-.07.33-.14.66-.22.99Z"/><path class="cls-144" d="m126.96,290.22c-.6-1.65-1.2-3.29-1.8-4.94,1.77-2.05,3.01-4.34,3.09-7.12-.32-7.62,6.69-7.44,10.9-10.24,1.72.11,1.62,1.1,1.11,2.29-1.26,3.33-3.77,6.15-4.1,9.87-.95,1.17-.98,2.61-1.16,4-.57,1.67-.6,3.34.02,5,.06.31.06.62,0,.93-2.66.98-5.36.66-8.07.22Z"/><path class="cls-19" d="m110.31,279.37c-.25-.2-.54-.27-.85-.2.27-2.46-4.53-4.89-.54-7.14,3.74-2.11,7.92-3.58,12.06-4.8,3.96-1.17,4.21,1.91,4.35,4.72-4.15,4.21-9.01,6.98-15.01,7.42Z"/><path class="cls-49" d="m110.31,279.37c5-2.47,10.01-4.95,15.01-7.42,2.45.51,1.61,2.55,1.89,4.06-3.87,7.11-10.75,8.47-16.91,3.36Z"/><path class="cls-35" d="m140.27,270.21c-.14-.87-.22-1.77-1.11-2.29.63-.71,1.26-1.42,1.89-2.14.05,1.08.11,2.17.16,3.26-.06.4-.12.8-.18,1.19,0,0-.38-.05-.38-.05l-.38.02Z"/><path class="cls-51" d="m145.12,257.25c-.61.94-1.23,1.88-1.84,2.81-.03-1.23-.06-2.46-.09-3.68.65.29,1.29.58,1.93.87Z"/><path class="cls-3" d="m126.96,290.22c2.69-.07,5.38-.15,8.07-.22.08.33.16.67.24,1-2.78-.01-5.56-.03-8.35-.04.07-.24.08-.49.04-.74Z"/><path class="cls-181" d="m167.17,265.12c-.77-.12-1.62-.07-1.99-1,1.51-1.3,3.28-1.18,5.1-.91-.43,1.67-1.82,1.71-3.11,1.91Z"/><path class="cls-32" d="m135.03,289.07c-1.29-1.66-1.29-3.33-.02-5,0,1.67.01,3.33.02,5Z"/></g></g></svg>