<?xml version="1.0" encoding="UTF-8"?><svg id="Calque_2" xmlns="http://www.w3.org/2000/svg" viewBox="0 0 253.03 352.63"><defs><style>.cls-1{fill:#956d56;}.cls-2{fill:#555;}.cls-3{fill:#fff;}.cls-4{fill:#34271d;}.cls-5{fill:#353534;}.cls-6{fill:#c5c5c5;}.cls-7{fill:#d1d1d1;}.cls-8{fill:#765b44;}.cls-9{fill:#e2e2e2;}.cls-10{fill:#5c5c5c;}.cls-11{fill:#a9a9a9;}.cls-12{fill:#9f9f9f;}.cls-13{fill:#78685b;}.cls-14{fill:#131313;}.cls-15{fill:#ff669b;}.cls-16{fill:#303030;}.cls-17{fill:#8d8d8d;}.cls-18{fill:#c7c7c7;}.cls-19{fill:#c3c3c3;}.cls-20{fill:#c6c1be;}.cls-21{fill:#282019;}.cls-22{fill:#c49484;}.cls-23{fill:#818181;}.cls-24{fill:#b8987e;}.cls-25{fill:#815d44;}.cls-26{fill:#b0b0b0;}.cls-27{fill:#523a26;}.cls-28{fill:#b8b8b8;}.cls-29{fill:#7e5d42;}.cls-30{fill:#aea49a;}.cls-31{fill:#563b25;}.cls-32{fill:#745942;}.cls-33{fill:#553b25;}.cls-34{fill:#96908a;}.cls-35{fill:#b6b6b6;}.cls-36{fill:#aaa;}.cls-37{fill:#29211a;}.cls-38{fill:#858585;}.cls-39{fill:#bebebe;}.cls-40{fill:#d5d5d5;}.cls-41{fill:#906952;}.cls-42{fill:#887d74;}.cls-43{fill:#6a492d;}.cls-44{fill:#bcbcbc;}.cls-45{fill:#89684d;}.cls-46{fill:#84786e;}.cls-47{fill:#8d6d52;}.cls-48{fill:#462e1a;}.cls-49{fill:#ababab;}.cls-50{fill:#968f89;}.cls-51{fill:#bbb;}.cls-52{fill:#434343;}.cls-53{fill:#eeb0c6;}.cls-54{fill:#a8a8a8;}.cls-55{fill:#4b3624;}.cls-56{fill:#cecece;}.cls-57{fill:#472f1b;}.cls-58{fill:#876f5c;}.cls-59{fill:#6e6e6e;}.cls-60{fill:#33271d;}.cls-61{fill:#d0d0d0;}.cls-62{fill:#666;}.cls-63{fill:#7d624b;}.cls-64{fill:#b9b9b9;}.cls-65{fill:#e3e3e3;}</style></defs><g id="Calque_1-2"><g><path class="cls-14" d="m41.25,94.07c.07-4.85,1.27-9.67,3.44-13.73,2.25-4.2.49-4.76-2.73-5.84-11.01-3.7-18.81-10.65-22.3-22.12-.55-1.81-.12-3.58-.77-5.25-.46-1.65-.47-3.31,0-4.96.2-7.01,1.92-13.63,4.67-20.1,4.99-11.75,19.57-14.89,29.61-13.54,8.84,1.19,17.15,4.42,21.88,10.98,4.8,6.65,8.27,4.82,13.89,2.89,7.47-2.57,15.25-4.34,23.32-4.28,2.96.02,5.69,1.91,8.72.87,2.38-.48,4.77-.56,7.14.05,2.81.04,5.39.94,7.92,2.09,3.04,1.38,4.5.53,6.5-2.52,5.99-9.16,13.67-16.47,25.44-17.53,2.72-.64,5.44-.6,8.17-.03,16.29,1.48,30.63,14.04,32.03,28.06.54,1.7.53,3.41.01,5.12-2.35,11.64-7.42,21.61-17.35,28.72-2.14,1.53-3.61,2.97-2.27,6.71,2.96,8.32,5.71,16.92,6.31,25.79.68,9.99-2.4,19.24-8.16,27.46-1.68,2.4-3.77,4.54-5.76,6.72-1.17,1.28-1.33,1.74.56,2.73,14.88,7.79,23.6,21.35,31.17,35.4,5.92,10.98,13.25,20.74,20.86,30.45,5.01,6.39,10.65,12.02,17.41,16.56,3.08,2.07,2.67,5.29-.84,9.46-2.64,1.06-5.51-.29-8.14.8-2.29.75-4.58,1.5-6.88,2.24-1.7.51-3.39.59-5.08-.06-6.72-2-11.87-6.69-17.71-10.23-1.46-.88-2.97-3.38-5.14-.89.58,2.69.56,5.38.02,8.08-.1,3.91,3.28,5.83,5.14,8.54,2.22,3.24,4.39,6.57,5.61,10.16,6.06,17.79,15.1,33.91,26.22,48.96,2.1,2.85-1.88,11.63-6.1,12.07-5.38.56-9.78,2.41-14.03,5.64-6.96,5.28-13.51,1.63-19.94-1.64-1.7-.44-3.39-.52-5.08.05-4.58.59-6.95,3.17-8.04,7.71-2.06,8.61-4.43,17.15-6.99,25.63-1.18,3.9-2.44,8.04-6.81,9.88-2.98,1.08-6.13-.15-9.13.71-5.05-.52-8.21-3.14-10.55-7.76-2.85-5.61-4.5-11.64-6.86-17.41-1.2-2.94-2.73-2.85-4.7-2.49-2.19.39-4.31,1.25-6.4,2.06-6.76,2.62-12.92,2.23-18.14-3.36-1.1-1.18-1.74-2.11-4.03-1.01-5.07,2.45-9.12,6.78-15.09,7.75-1.9.31-2.53,3.62-3.17,5.77-1.5,5.06-3.94,9.55-6.97,13.85-.97,1.37-2.22,2.09-3.4,2.54-6.08,2.31-13.9-.29-17.16-5.73-3.38-5.65-6.84-11.34-8.35-17.83-.74-3.19-2.34-4.96-5.27-6.25-6.21-2.73-10.56-7.31-11.78-14.2-.31-1.73-1.12-1.68-2.3-1.69-3.13-.05-6.06.72-8.83,2.15-.76.41-1.54.35-2.33.09-2.88-.48-5.83-.52-8.69-1.12-4.94.07-8.69-2.7-11.93-5.8-4.05-3.86-3.8-8.23.18-12.85,5.04-5.84,7.9-12.79,10.94-19.76,5.19-11.89,10.8-23.6,17.71-34.63-.04-.25-1.89-5.12-1.96-5.16-3.15,1.96-5.85,4.74-9.81,5.17-1.95,1.02-4.18-.15-6.14.78-1.61.03-3.21.06-4.82.08-2.97-1.15-6.16.21-9.15-.78-1.49-.05-2.99-.05-4.48-.16-2.19-.17-3.44-1.72-4.25-3.47-.75-1.62-.1-3.05,1.16-4.44,12.36-13.68,21.28-29.69,30.66-45.4,7.77-13.03,15.86-25.87,23.58-38.93,1.91-3.24,5.06-5.18,7.09-8.2-7.65-4.52-15.46-8.78-18.83-17.89-1.4-3.78-1.85-7.71-2.72-11.57.55-3.38.55-6.75,0-10.13Z"/><path class="cls-62" d="m41.25,94.07c1.35,3.38,1.21,6.75,0,10.13,0-3.38,0-6.75,0-10.13Z"/><path class="cls-40" d="m9.06,234.25c3.05.19,6.23-1.07,9.15.78-3.05-.24-6.22.93-9.15-.78Z"/><path class="cls-35" d="m24.03,307.21c3.06.11,6.23-.96,9.14.81-1.63.98-3.33.6-5.03.26-1.37-.36-2.94.04-4.11-1.07Z"/><path class="cls-5" d="m168.05,351.86c2.93-1.66,6.1-.36,9.13-.71-2.91,1.95-6.08.6-9.13.71Z"/><path class="cls-23" d="m176.15,1.03c-2.72,0-5.45.02-8.17.03,2.72-1.19,5.44-1.61,8.17-.03Z"/><path class="cls-38" d="m241.98,225c2.57-1.68,5.41-.68,8.14-.8-2.57,1.74-5.42.66-8.14.8Z"/><path class="cls-64" d="m207.19,224.15c0-2.69-.01-5.39-.02-8.08,1.33,2.69,1.42,5.38.02,8.08Z"/><path class="cls-49" d="m38.97,229.01c.78-.96,1.74-1.31,1.98.21.26,1.61,0,3.29-.02,4.94-1.82-1.27.22-4.02-1.96-5.16Z"/><path class="cls-3" d="m28.15,308.28c1.68-.09,3.35-.17,5.03-.26.63.07,1.25.15,1.88.22-2.3,1.31-4.6,1.28-6.91.04Z"/><path class="cls-12" d="m128.12,19.03c-2.38-.02-4.76-.03-7.14-.05,2.39-1.53,4.77-1.17,7.14.05Z"/><path class="cls-10" d="m23.02,234.95c1.88-1.57,4.09-.54,6.14-.78-1.85,1.81-4.07.71-6.14.78Z"/><path class="cls-26" d="m230.02,227.19c1.69.02,3.39.04,5.08.06-1.71,1.42-3.4,1.28-5.08-.06Z"/><path class="cls-2" d="m199.01,307.93c1.68-1.21,3.38-1.26,5.08-.05-1.69.02-3.39.03-5.08.05Z"/><path class="cls-3" d="m18.9,42.16c0,1.65,0,3.31,0,4.96-1.22-1.66-1.22-3.31,0-4.96Z"/><path class="cls-54" d="m208.2,34.21c0-1.71,0-3.41-.01-5.12,1.28,1.7,1.32,3.41.01,5.12Z"/><path class="cls-43" d="m55.12,13.1c9.77,1.27,16.76,6.58,21.45,15.03,2.85,5.14,2.8,5.13,7.42,1.52,6.15-4.8,13.7-5.37,21.03-6.54,4.56-.98,9.18-.2,13.77-.45,2.42.19,4.88-.41,7.27.38,4.28-.3,8.31.93,12,2.76,3.83,1.9,5.82.42,7.6-2.73,2.78-4.95,6.25-9.33,10.74-12.89,3.75-2.98,7.86-4.89,12.68-5.14,2.66-.6,5.32-.62,7.98,0,8.87,1.62,16.71,5.08,22.26,12.58,7.6,10.25,5.83,20.39-.41,30.46-3.48,3.87-7.57,6.7-12.8,7.64-4.91.88-2.5,4.76-3.01,7.45,1.94,8,3.74,16.04,5.86,23.99,2.79,10.47,2.81,20.53-2.94,30.19-2.35,3.96-5.32,7.2-9.02,9.79-1.73,1.22-3.2,2.4-2.88,4.76-6.09,3.59-13.13,4-19.71,5.94-9.55,1.06-19.02,3.19-28.69,2.72-14.41-.7-28.79-1.92-43.11-3.71-2.71-.34-5.27-.92-6.59-3.71-5.71-2.91-11.96-4.34-17.46-8.06-7.94-5.37-11.34-12.82-12.37-21.63-1-8.56.97-16.79,4.53-24.59,1-2.19,1.68-4.3,1.34-6.69.93-4.73-1.1-6.26-5.8-7.25-8.06-1.71-16.22-4.05-21.12-11.78-4.92-11.95.22-31.26,10.03-37.44,2.08-1.31,4.22-2.64,6.84-2.63,4.38-.63,8.75-.69,13.12.04Z"/><path class="cls-9" d="m39.99,245c.71-4.08,5.3-6.39,4.99-10.93.07-.24.14-.48.21-.72,1.47-2.05,2.74-4.29,5.01-5.65.55-.12,1.1-.14,1.66-.08,21.98,7.68,44.8,7.71,67.6,6.9,23.81-.84,47.34-4.17,70.5-9.88,3.37-.83,6.75-1.84,10.3-1.6,1.82.22,2.17,1.72,2.67,3.09,1.49,4.03,4.61,6.96,6.99,10.38,1.38,1.98,2.8,3.95,3.26,6.39,1.06,3.58,1.61,7.11-1.06,10.3-.69.92-1.43,1.95-2.4,2.45-7.57,3.89-9.03,10.93-9.67,18.42-1.75,5.46-5.86,8.34-11.03,10.05-3.44,1.09-7.23.52-10.51,2.3-1.9,3.06-3.67,6.18-5.9,9.01-3.07,3.88-6.81,6.55-11.9,6.94-2.03.05-4.06.05-6.09.01-3.96.52-6.86-4.55-9.79-3.32-2.95,1.24-4.96,5.05-8.34,6.65-2.39,1.13-4.69,2.51-7.44,2.6-1.96.04-3.93.09-5.88-.19-.48-.08-.95-.2-1.41-.35-3.13-1.06-6.09-2.51-9.01-4.06-2.78-2.57-6.04-3.13-9.63-2.33-2.58.05-5.16.06-7.74.03-6.1-.84-11.12-3.57-14.26-8.98-1.84-3.16-4.34-4.08-7.83-4.13-6.68-.08-11.43-3.53-13.7-9.75-1.05-2.88-2.71-4.14-5.47-5.04-4.83-1.57-9.42-3.71-10.31-9.64-.21-2.36.02-4.74-.25-7.1-.42-1.65-1.58-2.83-2.66-4.04-2.11-2.37-2.02-5-.92-7.76Z"/><path class="cls-7" d="m201.13,224.04c-9.25,1.82-18.54,3.43-27.73,5.5-10.35,2.33-20.81,3.61-31.36,4.71-16.9,1.76-33.8,2.2-50.73,1.77-14.13-.35-28.03-2.49-41.24-7.92-1.28-1.86-.15-3.51.52-5.15,7.69-18.82,8.85-38.28,5.67-58.15-.17-.53-.28-1.08-.35-1.64-.26-2.44.03-4.94-.79-7.32-.28-1.99.24-3.86.85-5.72,3.58-8.47,8.98-14.49,19.09-14.16,4.45-.68,4.7,2.75,5.18,5.58,1.16,6.76,3.16,13.27,5.68,19.61.89,2.24,2.01,4.62,4.37,5.92,6.13,2.83,12.58,3.91,19.3,3.65,2.14-.08,4.3-.05,6.42.38,4.82,1.06,9.66.85,14.5.17,3.81-.72,7.5-1.85,11.04-3.43,6.18-2.61,7.69-8.3,9.04-13.99.88-3.7,1.11-7.52,1.47-11.32.2-2.12.68-4.31,2.91-5.45,6.09-2.84,12.59-4.18,19.18-5.2,1.3,1.11,2.6,2.23,3.9,3.34,2.69,4.93.96,10.26,1.4,15.4.17,1.95.04,3.92.03,5.88-.04,2.07.04,4.15-.33,6.2-1.07,4.02-.99,8.07-.2,12.12.45,9.15,1.97,18.13,4.15,27.03,2.15,8.77,6.66,15.46,15.05,19.28,1.27.58,2.97.93,3,2.89Z"/><path class="cls-7" d="m197.97,303.99c-5.38.07-8.54,2.93-10.01,7.93-1.38,2.37-3.48,3.96-5.77,5.36-1.61.82-3.33,1.07-5.11,1.04-8.39-1.62-12.47-1.22-21.17,2.03-.97.36-1.94.51-2.81-.26-3.91-2.69-7.4.15-11,.93-3.63.79-7.03,2.36-10.96,2.11-2.88-.18-4.98-1.24-6.83-3.26-2.91-3.19-6.12-3.75-9.72-1.57-2.49,1.5-4.84,3.23-7.26,4.84-2.2,1.47-4.52,2.53-7.27,1.93-2.68-.22-5.36-.51-7.99-1.11-2.41-.77-4.82-.71-7.22.06-1.03.25-2.06.35-3.12.33-6.07-1.08-11.58-4.14-17.69-5.08-6.12.54-13.07-7.21-13.88-12.98-.67-4.77-2.61-5.69-7.58-4.68-7.89,1.61-16.19,3.67-24-.7-5.33-2.98-6.08-5.98-2.13-10.55,5.59-6.46,8.33-14.3,11.75-21.86,2.99-6.62,5.78-13.36,9.83-19.45,1.76,5.13,4.98,9.69,5.83,15.17.94,6.03,6.23,7.92,10.53,10.4,3.03,1.74,5.1,3.66,6.77,6.8,3.15,5.92,7.67,10.51,15.16,10.42,2.9-.04,5.04,1.2,6.74,3.55,5.21,7.21,12.68,9.37,21.07,8.76,3.4-.25,6.11.62,8.84,2.49,9.96,6.81,20.42,6.11,29.04-2.15,2.41-2.31,4.74-2.63,7.69-1.82,10.26,2.81,18.28-.41,24.07-9.24,1.94-2.96,4.52-4.1,8.03-4.96,11.97-2.93,19.13-7.12,19.21-19.76.01-1.79.62-3.24,2-4.37,4.69-3.83,8.89-8.03,10.97-13.92.28-.79.89-1.4,1.89-1.25,5.09,14.85,13.27,28.06,21.84,41.06,1.35,2.06,3.4,4.05,1.9,6.59-1.36,2.3-3.51,3.84-6.61,3.33-2.35-.39-4.64.14-6.34,1.87-5.24,5.31-10.81,8.14-17.89,3.14-1.01-.71-2.42-.86-3.65-1.26-2.4-.47-4.8-.62-7.2.08Z"/><path class="cls-43" d="m240.99,221.05c-2.32.67-4.63,1.34-6.95,2-8.37-3.11-15.39-8.45-22.05-14.1-8.1-6.88-15.26-14.78-21.89-23.11-7.08-8.9-9.58-19.55-11.54-30.4.44-6.48-.88-13.02.74-19.45,6.78,3.32,12.63,7.9,17.15,13.91,5.68,7.55,10.64,15.57,15.18,23.9,8.54,15.68,19.98,29.19,32.7,41.64,1.42,1.39,3.76,1.53,4.64,3.59-2,3.27-5.55.43-7.97,2.03Z"/><path class="cls-31" d="m154.94,137.11c-2.71,5.12-1.47,10.93-2.87,16.29-1.65,6.32-2.8,12.9-10.01,15.64-1.28-2.14.79-3.35,1.45-4.89,2.13-4.96,1.1-7.41-4.02-9.06-1.77-.57-3.6-.7-5.43-.51-12.11,1.28-24.2,1.42-36.31-.11-6.49-.82-9.25,2.63-7.43,8.88.54,1.84,1.08,3.6-1.25,4.64-2.75-1.97-3.99-5.01-4.99-7.97-2.12-6.25-4.75-12.38-5.13-19.14-.12-2.22-.93-4.61-3.91-4.89.32-.94.65-1.89.97-2.83,2.76,2.66,6.55,2.5,9.79,2.76,13.96,1.12,27.86,3.13,41.89,3.16,7.57.01,15.16-.5,22.52-2.55,1.76-.49,3.24-.3,4.74.59Z"/><path class="cls-43" d="m55.96,150.14c.06,1.96.12,3.93.18,5.89,1.07,2.28-.22,4.82.8,7.11l.34.95c.44,1.24.28,2.5.18,3.76-.32.41-.73.58-1.21.52.68-.16-.83.17-.36-.3-.15-.13-.45-.84-.43-.31.45,11.34-3.85,21.41-8.28,31.43-4.5,10.16-11.46,18.57-19.32,26.28-2.44,2.4-5.73,3.23-8.77,4.52-4.11-.04-10.04,1.85-11.81-.72-1.66-2.4,3.74-6.03,5.87-9.21,15.2-22.75,28.9-46.41,42.83-69.93Z"/><path class="cls-36" d="m215.92,249.17c-2.38,6.75-6.34,12.29-12.4,16.23-1.29.84-1.57,2.1-1.46,3.48,1.04,13.88-9.61,18.83-21.14,21.07-2.76.54-4.4,1.4-5.91,3.61-7.16,10.45-14.3,13.25-26.42,10.15-2.49-.64-3.77-.25-5.51,1.63-7.88,8.57-21.34,9.62-30.73,2.44-2.7-2.06-5.21-2.46-8.67-2.26-8.37.49-16.25-1.53-21.34-9.08-1.58-2.33-3.25-3.46-6.09-3.37-8.08.26-12.93-4.5-16.02-11.24-1.18-2.58-2.52-4.14-5.16-5.43-6.47-3.17-12.14-7-13.25-15.4-.52-3.98-4.54-7.28-3.78-11.97.16-1.58.85-2.9,1.94-4.04-.11,3.51.21,6.81,3.92,8.62.96.47,1.22,1.45,1.16,2.48-.87,2.67-.74,5.35-.09,8.04,1.49,6.01,6.59,7.62,11.56,8.73,2.64.59,3.29,1.33,3.75,3.91,1.06,5.99,6.66,10.5,12.88,10.21,4.52-.21,7.31,1.12,9.39,5.19,2.52,4.95,7.21,7.06,12.49,7.98,3.02.76,6.04.69,9.06.03,3.72-1.32,6.7-.32,8.99,2.86,2.65,2.09,5.72,3.27,8.96,4.07h0c2.33.86,4.67.7,7.01.08,5.59-1.29,10.75-3.44,13.74-8.66,1.36-2.38,2.65-2.09,4.25-.72,2.04,1.75,4.07,3.4,6.96,3.34,2.37.78,4.74.7,7.11.03,9.13-1.55,12.73-8.61,15.99-16.01,3.91-1.09,8.18-.09,11.94-2.05,4.42-1.8,8.13-4.39,10.02-9,.63-.66.63-1.55.54-2.31-1.1-9.25,6.79-12.99,11.41-18.72,2.23-3.06,2.11-6.63,2.16-10.16,1.79,1.7,2,4.09,2.73,6.25Z"/><path class="cls-36" d="m201.13,224.04c-16.43-5.49-19.56-19.57-22.04-34.08-.84-4.91-1.26-9.84-1.06-14.82-.97-3.36-.22-6.8-.44-10.18.04-.59.35-.99.9-1.19,1.62.51,1.56,1.98,1.82,3.24,3.1,14.73,7.57,28.71,20.7,37.98.68.48,1.05,1.28,1.2,2.13-.82,6.38,1.96,12.62.73,19.02-.6-.7-1.21-1.4-1.81-2.1Z"/><path class="cls-31" d="m19.07,230c10.54-5.93,17.91-15,23.72-25.22,5.87-10.32,10.62-21.22,11.32-33.4.12-2.11.73-4.18,1.14-6.4,1.36.93.57,2.18.85,3.18,1.37,1.74,1.3,3.8,1.34,5.84,0,2.53-.02,5.06,0,7.58.14,14.97-6.51,27.67-13.56,40.23-.33.58-.96.88-1.57,1.15-2.44-.1-4.46.58-6.14,2.56-2.09,2.47-4.95,3.85-8.05,4.7-1.7.53-3.39.65-5.06-.08-1.33-.05-2.66-.1-3.99-.14Z"/><path class="cls-43" d="m182.08,332.13c-.25,2.45-.73,4.83-1.95,7.01-2.65,2.19-5.83,2.89-9.13,3.22-5.79.57-9.74-1.94-11.98-7.26-.96-1.9-2.12-3.74-1.99-6,1.47-6.66,5.81-9.88,12.37-9.16,1.97.22,3.87.78,5.8,1.24,6.83,1.64,8.02,3.55,6.87,10.95Z"/><path class="cls-31" d="m202.21,207.12c-15.82-9.95-20.88-25.73-23.31-42.95-.66-2.1-.23-4.25-.25-6.38.17-.21.34-.42.51-.63,2.47,1.88,1.98,4.87,2.46,7.34,2.5,12.84,10.39,22.34,18.87,31.55,9.84,10.69,21.06,19.63,33.57,26.99-5.43-.22-9.36-3.76-13.72-6.28-4.72-2.73-9.29-5.73-13.84-8.75-1.39-.93-2.82-.76-4.28-.91Z"/><path class="cls-36" d="m42.31,222.96c4.95-10.62,11.1-20.73,13.22-32.54.5-2.8.19-5.57.7-8.3.77-2.71.16-5.48.36-8.22.14-1.95-.32-3.93.32-5.85.12-1.32.25-2.63.37-3.95,2.24,6.56,1.48,13.38,1.85,20.12.68,12.5-1.84,24.39-5.99,36.04-.94,2.65-2.04,5.24-3.06,7.85,0,0-.09-.06-.09-.06-2.17,1.48-3.37-.42-4.84-1.38-.68-.62-.25-1.79-1.14-2.32l-1.7-1.39Z"/><path class="cls-43" d="m72.97,338.15c-2.33-2.58-3.74-5.55-3.92-9.05,4.92-4.75,11.07-4.58,17.21-4.18,2.47.16,4.94.79,7.23,1.81,1.88.84,3.67,1.87,2.67,4.49-.74,2.28-1.47,4.56-2.21,6.84-6.03,4.65-14.55,4.69-20.98.1Z"/><path class="cls-31" d="m182.08,332.13c0-3.66-.23-7.63-4.23-8.92-11.28-3.62-15.26-2.77-18.88,3.08-.6.96-1.29,1.87-1.93,2.8-1.92-2.74-2.67-5.99-3.93-9.01,3.63-.13,5.67-3.12,8.2-4.96,3.73-2.7,6.89-2.27,10.27.06,1.66,1.14,3.35,2.04,5.41,2.05,1.9.6,3.75.91,5.12-1.05,1.95-1.42,3.9-2.84,5.85-4.27-1.89,6.76-3.14,13.7-5.89,20.22Z"/><path class="cls-31" d="m25.12,53.14c7.16,6.17,15.3,10.04,24.79,11.21,4.83.59,5.05,1.92,2.13,7.82-5.55-1.28-11.23-2.06-16.07-5.55-4.9-3.52-9.38-7.26-10.84-13.49Z"/><path class="cls-31" d="m96.16,331.22c-2.12-5.31-7.29-4.18-11.29-5-5.49-1.13-10.66,1.21-15.82,2.88-2.22-3-2.5-6.98-4.98-9.84,4.2-.35,8.26-.57,12.01,2.27,1.53,1.16,3.93,1.16,5.94,1.69,2.69.98,5.25-.35,7.88-.42.73-.2,1.44-.24,2.15.1,2.81.22,5.68.24,8.03,2.16-2.61,1.22-1.86,4.58-3.92,6.15Z"/><path class="cls-33" d="m72.97,338.15c7,2.12,14,3.05,20.98-.1-2.05,4-2.94,9.01-8.53,9.95-6.03,1.02-9.3-1.59-12.46-9.85Z"/><path class="cls-31" d="m159.03,335.1c4.98,6.87,11.39,7.35,18.67,4.27.72-.3,1.62-.17,2.44-.23-.71,3.8-1.45,7.78-5.93,8.81-4.89,1.12-10.8-1.92-12.85-6.33-.97-2.08-1.56-4.34-2.33-6.52Z"/><path class="cls-31" d="m183.09,63.18c-3.14-6.32-2.74-7.57,4.18-8.97,4.59-.93,7.59-4.43,11.63-6.12-3.32,7.07-9.18,11.48-15.81,15.09Z"/><path class="cls-30" d="m179.3,135.98c-.05,7.06-.1,14.12-.15,21.18,0,0-.25-.11-.25-.11-.2.49-.46.55-.78.1-.03-7.3-.07-14.6-.1-21.9.68-.2,1.03.19,1.29.73Z"/><path class="cls-27" d="m119.1,23.11c-4.7,0-9.39,0-14.09,0,4.55-2.01,9.32-.53,13.98-.91.35.16.49.35.4.57-.09.23-.19.34-.29.34Z"/><path class="cls-55" d="m55.12,13.1c-4.37-.01-8.75-.02-13.12-.04,4.38-1.52,8.75-1.54,13.12.04Z"/><path class="cls-16" d="m44.01,224.35c1.05.15.93,1.11,1.22,1.78,1.94,2.67,1.17,5.36.07,8.05l-.31-.11c-1.85-3.09-.44-6.5-.97-9.72Z"/><path class="cls-60" d="m240.99,221.05c2.3-2.09,5.69.12,7.97-2.02-1.75,4.23-5.36,1.17-7.97,2.02Z"/><path class="cls-21" d="m177.05,5.05c-2.66,0-5.32,0-7.98,0,2.66-1.38,5.32-1.4,7.98,0Z"/><path class="cls-59" d="m197.97,303.99c2.38-1.4,4.78-1.36,7.2-.08-2.4.03-4.8.05-7.2.08Z"/><path class="cls-37" d="m119.1,23.11c-.03-.3-.07-.61-.11-.91,2.36.24,4.88-.86,7.06.85-2.32.02-4.63.04-6.95.06Z"/><path class="cls-4" d="m23.05,230.15c1.69.03,3.37.05,5.06.08-1.71,1.33-3.4,1.34-5.06-.08Z"/><path class="cls-24" d="m142.89,85.94c3.02,3.58,5.39,7.5,6.31,12.16.54,2.35.57,4.71-.01,7.06-4.24,12.75-15.1,20.57-28.63,21.02-9.07.3-17.93.04-25.58-5.69-5.48-4.1-9.57-9.14-10.01-16.36-.62-2.66-.61-5.33,0-8,.18-.94.05-2.2.61-2.78,2.72-2.79,1.41-4.16-1.54-5.13,3.7-1.69,6.87-4.13,10-6.72,1.85-1.53,3.83-3.79,6.86-2.39,3.11-.42,5.89-2.29,9.14-2.1,4.36-.57,8.72-.62,13.08.03.68.03,1.35.06,2.03.09,7.44-.13,13.1,3.34,17.76,8.81Z"/><path class="cls-22" d="m58.07,27.03c1.43.42,2.9.72,4.27,1.28,6.55,2.68,7.48,5.75,3.13,11.22-4.24,5.33-8.14,10.91-10.91,17.06-1.46,3.23-3.24,2.89-5.36,1.91-4.79-2.2-8.03-5.71-8.23-11.33-.58-2.36-.61-4.71.01-7.07,1.23-6.45,4.09-11.51,11.09-13.05,2-.63,4-.59,6-.02Z"/><path class="cls-22" d="m190.1,36.17c-.47,2.75-2.17,4.8-3.94,6.77-4.91,5.45-6.2,5.38-10.58-.49-3.35-4.5-8.21-7.18-12.68-10.26-3.54-2.43-3.57-4.59-.9-7.64,9.02-10.28,23.8-7.94,28.17,4.53.51,2.37.66,4.73-.08,7.08Z"/><path class="cls-48" d="m126.17,69.21c-1.55-4.08.43-8.02,5.78-11.36,4.96-3.09,10.13-3.01,14.97-.09,4.91,2.96,8.17,7.16,7.12,13.46-3.26,1.58-5.48-1.24-8.21-1.92-4.28-1.97-8.49-1.42-12.67.36-2.32-.34-4.78,1.47-7-.44Z"/><path class="cls-48" d="m72.18,74.2c-1.2-5.72,1.75-9.52,5.94-12.7,5.03-3.83,10.5-3.76,15.7-.8,3.74,2.13,7.92,4.58,6.24,10.27-2.34,1.17-4.92.15-7.32.8-4.57-.73-8.98-.12-13.28,1.52-2.47-.09-4.65,2.29-7.28.91Z"/><path class="cls-3" d="m92.83,71.12c2.37-1.96,4.8-.96,7.23-.15,2.2,2.52.59,5.43.83,8.15-3.8.88-6.69,3.25-9.14,6.05-2.14,2.45-4.57,3.5-7.72,3.06-7.39-.74-12.84-7.19-11.84-14.03,2.46-.09,4.18-2.67,6.85-2.04.95.83,1.15,1.98,1.33,3.13.56,3.57,2.24,5.98,6.26,5.42,3.77-.52,5.97-2.66,6-6.66,0-.98-.24-1.99.22-2.94Z"/><path class="cls-3" d="m126.17,69.21c2.29,1.16,4.44-2.7,6.78-.19.44,3.25.68,6.61,4.26,8.23,1.39.67,2.79.86,4.21.08,1.54-1.01,2.79-2.29,3.83-3.78.86-1.36.49-2.83.34-4.28,0-.46.2-.82.59-1.07,2.81.52,4.89,2.93,7.87,3.02.34,7.98-5.76,11.09-11.15,14.73-5.58-3.62-11.25-7.07-17.76-8.81-.15-1.28.13-2.88-.53-3.79-1.76-2.44.62-2.94,1.57-4.13Z"/><path class="cls-47" d="m123.1,77.04c-4.36,0-8.72-.02-13.08-.02,4.36-1.47,8.72-1.47,13.08.02Z"/><path class="cls-29" d="m84.96,96.14c0,2.67,0,5.33,0,8-1.38-2.66-1.41-5.33,0-8Z"/><path class="cls-41" d="m40.98,40.11c0,2.36,0,4.71-.01,7.07-1.42-2.36-1.41-4.71.01-7.07Z"/><path class="cls-45" d="m149.18,105.16c0-2.35,0-4.71.01-7.06,1.4,2.36,1.34,4.71-.01,7.06Z"/><path class="cls-1" d="m190.1,36.17c.03-2.36.05-4.72.08-7.08,1.37,2.37,1.45,4.74-.08,7.08Z"/><path class="cls-25" d="m58.07,27.03c-2,0-4,.02-6,.02,2-1.39,4-1.38,6-.02Z"/><path class="cls-61" d="m114.93,273.16c-8.38-1.64-12.43-7.68-14.97-15.04-3.31-9.59-2.93-9.61,7.08-10.11,10.78-.54,21.54-1.04,32.32-.9,6.61.08,6.95.67,5.87,7.24-1.12,6.82-3.67,12.7-9.43,16.82-.76.54-1.86.61-2.8.9-.39-1.84,1.1-2.62,2.1-3.64,2.03-2.05,3.39-4.5,4.17-7.24.75-2.65-.02-4.35-3.16-3.81-8.66,1.51-17.36,2.46-26.17,1.9-2.6-.16-3.31,1.08-2.41,3.37,1.1,2.81,2.73,5.26,5.1,7.22,1.03.85,2.91,1.24,2.3,3.29Z"/><path class="cls-11" d="m114.93,273.16c-4.29-2.93-7.82-6.37-9.27-11.66-.87-3.14.15-3.95,3.05-3.64,9.29.99,18.44-.3,27.57-1.8,4.38-.72,5.8.96,4.45,5.41-1.33,4.41-4.14,7.8-7.73,10.58-2.19,1.09-4.43,2.01-6.91,2.14-2.03.59-4.05.64-6.07-.03-1.7-.35-3.64.55-5.1-1.01Z"/><path class="cls-51" d="m211.03,253.07c-1.03,3.82-4.03,6.1-7.08,7.91-2.44,1.46-3.11,3.09-2.93,5.63.19,2.68-.2,5.28-1.95,7.49.02-3.62,1.45-7.1,1-10.78-.19-1.61,1.21-2.2,2.2-3.02,2.92-2.41,5.83-4.82,8.74-7.23Z"/><path class="cls-64" d="m45.3,234.18c-.02-2.68-.04-5.36-.07-8.05,1.58.64,3.17,1.28,4.75,1.92-.9,2.55-2.5,4.56-4.68,6.13Z"/><path class="cls-19" d="m189.06,283.11c-3.61,2.86-7.9,1.73-11.94,2.05,3.82-1.6,7.95-1.44,11.94-2.05Z"/><path class="cls-44" d="m122.05,307.11c-3.61.01-6.75-1-8.96-4.07,2.99,1.36,5.97,2.71,8.96,4.07Z"/><path class="cls-6" d="m104.1,300.18c-3.02,1.47-6.04,1.49-9.06-.03,3.02.01,6.04.02,9.06.03Z"/><path class="cls-18" d="m44.98,264.15c-1.4-2.7-1.49-5.38.09-8.04-.03,2.68-.06,5.36-.09,8.04Z"/><path class="cls-39" d="m129.07,307.19c-2.35,1.4-4.69,1.49-7.01-.08,2.34.03,4.68.05,7.01.08Z"/><path class="cls-56" d="m161.13,301.18c-2.38,1.48-4.75,1.44-7.11-.03,2.37.01,4.74.02,7.11.03Z"/><path class="cls-18" d="m120.03,274.17c2.02,0,4.04.02,6.07.03-2.03,1.37-4.05,1.39-6.07-.03Z"/><path class="cls-65" d="m122.67,223.96c-15.39-1.28-25-9.97-25.21-24.89-.2-14.45,10.04-24.69,25.21-24.53,15.28.16,24.69,9.52,24.95,24.32.25,14.03-8.78,23.62-24.95,25.09Z"/><path class="cls-43" d="m89.07,167.99c.76-1.33,1.52-2.74.18-4.09-2.67-2.69-1.92-5.43-.01-7.99,1.92-2.59,4.67-3.56,7.86-2.91,10,2.03,20.12.81,30.19,1.09,1.3.04,2.6-.39,3.91-.5,2.3-.19,4.65-.65,6.89-.36,3.36.44,7.02,1.89,8.1,5,1.02,2.91-.73,6.25-2.93,8.76-.56.64-1.1,1.19-1.2,2.05-3.5,1.67-7.14,2.87-11.03,3.25-4.99.52-9.97.52-14.96,0-7.2-.57-14.52.53-21.6-2-1.87-.67-3.66-1.4-5.41-2.3Z"/><path class="cls-20" d="m116.08,172.29c4.99,0,9.97,0,14.96,0-4.99,1.37-9.97,1.36-14.96,0Z"/><path class="cls-28" d="m178.11,164.06c-.03,3.7-.06,7.39-.09,11.09-1.55-4.02-1.53-8.03-.01-12.05.33.18.45.38.37.61-.08.24-.17.35-.27.35Z"/><path class="cls-58" d="m56.94,163.14c-1.66-2.21-.57-4.73-.8-7.11,1.78,2.2.69,4.72.8,7.11Z"/><path class="cls-50" d="m178.11,164.06c0-.32-.04-.64-.1-.96.04-1.98.07-3.96.11-5.94.26-.03.52-.06.78-.1,0,2.37,0,4.75,0,7.12-.26-.03-.52-.07-.78-.11Z"/><path class="cls-46" d="m90.17,323.24c-2.72,1.39-5.44,1.31-8.15-.02,1.01-.08,2.03-.16,3.04-.23,1.73-.45,3.46-.85,5.11.25Z"/><path class="cls-28" d="m90.17,323.24c-1.7-.08-3.41-.17-5.11-.25,2.32-1.34,4.65-1.33,6.99-.08-.63.11-1.25.23-1.88.34Z"/><path class="cls-42" d="m182.12,316.18c-1.18,2.92-3.09,2.32-5.12,1.05,1.71-.35,3.42-.7,5.12-1.05Z"/><path class="cls-13" d="m56.9,168.04c.03,2,.05,3.99.08,5.99-.17.47-.43.51-.79.18-.03-2.02-.06-4.03-.09-6.05.27-.03.53-.07.8-.12Z"/><path class="cls-34" d="m56.2,174.21c.26-.06.52-.12.79-.18-.18,2.7.87,5.52-.76,8.08,0-2.64-.02-5.27-.03-7.91Z"/><path class="cls-57" d="m111.95,106.28c-3.62-.38-6.02-2.39-8.51-6.22,4.04.76,5.57,4,8.57,4.2,1.24.62,2.47.49,2.46-1.03,0-2.32.88-4.76-.53-6.98-.96-.19-1.95-.26-2.86-.59-2.55-.91-6.37-1.47-5.69-4.87.69-3.48,4.35-1.2,6.67-1.55,3.08-.46,6.18-.83,9.28-1.06,1.21-.09,2.82-.58,3.52.99.7,1.57-.78,2.33-1.6,3.28-1.34,1.56-3.08,2.44-5.1,2.77-3.1,2.58-1.43,5.85-1.12,8.85.08.74,1.31.65,2.07.16,2.68-.77,4.06-3.33,6.77-5.39-.61,4.78-3.69,6.06-6.71,7.4-2.4.62-4.8.54-7.2.04Z"/><path class="cls-32" d="m119.09,104.23c-.59.63-1.38,1.16-2.11.54-1.89-1.61-1.09-7.76,1.17-9.55-1.09,3.15-2.83,6.37.94,9.01Z"/><path class="cls-63" d="m113.93,96.24c2.12,2.21,1.15,4.94.96,7.39-.15,1.89-1.64,1.62-2.88.62,4.17-1.82,1.26-5.35,1.93-8.02Z"/><path class="cls-8" d="m111.95,106.28c2.4-.01,4.8-.03,7.2-.04-2.39,1.52-4.79,1.36-7.2.04Z"/><path d="m136.96,78.3c-4.25-1.83-6.14-4.69-4.02-9.29,4.21-3.45,8.69-2.71,13.23-.83-.06.27-.07.55-.04.83.62,1.74.64,3.48-.01,5.21-1.02,1.64-2.42,2.91-4.02,3.97-1.7.68-3.42.54-5.14.1Z"/><path d="m92.83,71.12c2.24,2.98,1.47,5.8-.66,8.36-2.49,3-6.14,3.47-9.37,2.37-2.9-.99-3.96-4.03-3.74-7.23.06-.82-.01-1.64-.03-2.47,4.5-1.67,9-3.35,13.8-1.04Z"/><path class="cls-17" d="m136.96,78.3c1.71-.03,3.43-.07,5.14-.1-1.69,1.31-3.4,1.51-5.14.1Z"/><path class="cls-52" d="m146.12,74.24c0-1.74,0-3.48.01-5.21,1.44,1.74,1.47,3.48-.01,5.21Z"/><path class="cls-15" d="m138.12,197.14c-1.95,6.74-7.08,11.01-12,15.44-1.32,1.19-2.74,2.07-4.5,1.18-6.56-3.32-12.89-6.73-16.42-13.88-2.08-4.21-.16-8.07,2.78-11.12,2.97-3.08,7.43-3.77,10.99-1.61,1.86,1.12,2.89,1.8,4.95-.04,6.03-5.37,12.03-3.16,14.31,4.97.41,1.7.58,3.39-.11,5.07Z"/><path class="cls-53" d="m138.12,197.14c.04-1.69.07-3.38.11-5.07,1.24,1.72,1.27,3.41-.11,5.07Z"/></g></g></svg>