<?xml version="1.0" encoding="UTF-8"?><svg id="Calque_2" xmlns="http://www.w3.org/2000/svg" viewBox="0 0 218.84 286.29"><defs><style>.cls-1{fill:#6a6a6a;}.cls-2{fill:#27090a;}.cls-3{fill:#c85658;}.cls-4{fill:#93383b;}.cls-5{fill:#923438;}.cls-6{fill:#bb9597;}.cls-7{fill:#744e39;}.cls-8{fill:#e16d5d;}.cls-9{fill:#d7d5d5;}.cls-10{fill:#3e0e0f;}.cls-11{fill:#fff;}.cls-12{fill:#8b8b8b;}.cls-13{fill:#a35a5d;}.cls-14{fill:#ee8e77;}.cls-15{fill:#c5c5c5;}.cls-16{fill:#8b3d33;}.cls-17{fill:#575757;}.cls-18{fill:#c2484c;}.cls-19{fill:#f8f2f2;}.cls-20{fill:#928d8d;}.cls-21{fill:#d8d8d8;}.cls-22{fill:#c43f41;}.cls-23{fill:#c94645;}.cls-24{fill:#c13d42;}.cls-25{fill:#9e5c5d;}.cls-26{fill:#989797;}.cls-27{fill:#cbb7b8;}.cls-28{fill:#c5484a;}.cls-29{fill:#832124;}.cls-30{fill:#34221a;}.cls-31{fill:#777;}.cls-32{fill:#a8836f;}.cls-33{fill:#f19177;}.cls-34{fill:#871f23;}.cls-35{fill:#bd9697;}.cls-36{fill:#64181b;}.cls-37{fill:#624231;}.cls-38{fill:#4d4d4d;}.cls-39{fill:#e7d1d2;}.cls-40{fill:#959595;}.cls-41{fill:#7b533d;}.cls-42{fill:#f38e73;}.cls-43{fill:#d6d6d6;}.cls-44{fill:#bfa4a4;}.cls-45{fill:#f49174;}.cls-46{fill:#621b1b;}.cls-47{fill:#c84545;}.cls-48{fill:#b4b4b4;}.cls-49{fill:#892125;}.cls-50{fill:#846d6e;}.cls-51{fill:#7c7c7c;}.cls-52{fill:#1c1c1c;}.cls-53{fill:#f48f72;}.cls-54{fill:#634231;}.cls-55{fill:#684533;}.cls-56{fill:#caa3a5;}.cls-57{fill:#533829;}.cls-58{fill:#f69476;}.cls-59{fill:#362820;}.cls-60{fill:#fdfafa;}.cls-61{fill:#211610;}.cls-62{fill:#cb5a59;}.cls-63{fill:#77503a;}.cls-64{fill:#979696;}.cls-65{fill:#5c1518;}.cls-66{fill:#d2c0b5;}.cls-67{fill:#881e22;}.cls-68{fill:#6f3d3f;}.cls-69{fill:#f69274;}.cls-70{fill:#cbbabb;}.cls-71{fill:#f39d82;}.cls-72{fill:#f89777;}.cls-73{fill:#969696;}.cls-74{fill:#2a2a2a;}.cls-75{fill:#fcfafa;}.cls-76{fill:#282828;}.cls-77{fill:#c44448;}.cls-78{fill:#694633;}.cls-79{fill:#787878;}.cls-80{fill:#c64748;}.cls-81{fill:#2a1c15;}.cls-82{fill:#c23e42;}.cls-83{fill:#c64445;}.cls-84{fill:#f9f3f3;}.cls-85{fill:#37251b;}.cls-86{fill:#fcf9f9;}.cls-87{fill:#c44244;}.cls-88{fill:#281f1a;}.cls-89{fill:#faf5f6;}.cls-90{fill:#8c282c;}.cls-91{fill:#f49276;}.cls-92{fill:#c33e41;}.cls-93{fill:#fbf8f8;}.cls-94{fill:#e1d4cd;}.cls-95{fill:#d8c7be;}.cls-96{fill:#c1a3a4;}.cls-97{fill:#9d5053;}.cls-98{fill:#3a261d;}.cls-99{fill:#aaa;}.cls-100{fill:#c23a3e;}.cls-101{fill:#afafaf;}.cls-102{fill:#66171a;}.cls-103{fill:#5f3f2e;}.cls-104{fill:#987f71;}.cls-105{fill:#7f6162;}.cls-106{fill:#d3d3d3;}.cls-107{fill:#662729;}.cls-108{fill:#c34144;}.cls-109{fill:#db9b94;}.cls-110{fill:#20150f;}.cls-111{fill:#882124;}.cls-112{fill:#881f23;}.cls-113{fill:#939292;}.cls-114{fill:#261912;}.cls-115{fill:#f59679;}.cls-116{fill:#5e1518;}.cls-117{fill:#fbf7f7;}.cls-118{fill:#c64142;}.cls-119{fill:#5b1517;}.cls-120{fill:#c0393e;}.cls-121{fill:#bfa9aa;}.cls-122{fill:#b3b3b3;}.cls-123{fill:#591417;}.cls-124{fill:#b4b2b2;}.cls-125{fill:#871e22;}.cls-126{fill:#f69174;}.cls-127{fill:#d6d5d5;}.cls-128{fill:#606060;}.cls-129{fill:#c84949;}.cls-130{fill:#f29176;}.cls-131{fill:#9f5456;}.cls-132{fill:#c24044;}.cls-133{fill:#525252;}.cls-134{fill:#360c0e;}.cls-135{fill:#f19076;}.cls-136{fill:#cdb8ac;}.cls-137{fill:#acacac;}.cls-138{fill:#2d1e16;}.cls-139{fill:#a96a6d;}.cls-140{fill:#b7b0b1;}.cls-141{fill:#82756e;}.cls-142{fill:#f58e71;}.cls-143{fill:#b59686;}.cls-144{fill:#c9b4b5;}.cls-145{fill:#601a1b;}.cls-146{fill:#d0d0d0;}.cls-147{fill:#c33d40;}.cls-148{fill:#8f6046;}.cls-149{fill:#d86b61;}.cls-150{fill:#f89575;}.cls-151{fill:#36241b;}.cls-152{fill:#631d20;}.cls-153{fill:#c33f42;}.cls-154{fill:#bea9a9;}.cls-155{fill:#c4c4c4;}.cls-156{fill:#a2a2a2;}.cls-157{fill:#a76668;}</style></defs><g id="Calque_1-2"><g><path d="m95.87,274.88c-3.46,2.97-5.14,7.48-8.87,10.23-3,1.03-6.18-.27-9.18.75-8.18-.21-15.53-3.7-23.2-5.93-1.49-.43-1.94-1.97-2.22-3.05-3.67-13.82-9.97-26.71-14.19-40.32-1.23-3.98-1.7-8.2-2.69-13.18-4.12,3.25-7.29,7-11.56,9.33-1.55.85-2.95,1.77-4.5,1.15-1.86-.73-1.72-2.68-1.52-4.34.79-6.33.4-11.67-7.73-12.96-2.53-.4-4.84-2.5-7.14-3.98-1.23-.79-3.74-.89-2.9-3.18.7-1.9,2.8-1.35,4.43-1.38,1.16-.02,1.89,1.46,3.2.89,2.22-1.16,4.87.58,7.02-1.04,2.5-3.24,5.91-5.65,8.14-9.19,1-1.6,2.69-2.52,5.24-2.1,3.4.56,4.2-3.57,6.74-4.9-4.46-4.69-4.61-4.89.49-8.6,8.25-5.99,13.79-14.16,19.13-22.57-18.41-4.12-27.42-13.34-29.46-29.44.55-3.03.55-6.06,0-9.1,1.63-13.85,4.87-27.15,16.14-36.56,5.28-4.41,11.64-6.87,18.96-4.73,2.62.77,4.91.03,4.69-3.5-.53-8.44,1.46-16.37,5.08-23.9,1.13-2.34-.6-3.11-1.67-4.37-6.09-7.14-9.67-15.25-9.46-24.8-.66-4.39-.57-8.78-.05-13.17.32-5.56,2.31-6.52,7.11-3.47,8.04,5.1,11.11,13.43,14.03,21.81.74,2.13,1.4,4.34,1.04,6.68,1.33,2.86-.54,6.09,1,8.93,7.14-2.09,14.27-4.23,21.85-3.94,3.74-.61,7.47-.62,11.21,0,5.75.18,11.01,3.01,16.79,3.05,3.95-.29,4.56,1.73,3.43,4.95-6.67.17-13.01-1.82-19.5-2.88-4.56-1.1-9.12-.92-13.69-.08-6.23,1.04-12.44,2.11-18.39,4.36-2.03.77-4.15,1.25-6.32.39-1.17-.79-2.05-1.78-2.21-3.25,0-1.07.41-2.03.83-2.97,1.12-3.03.81-6.09.18-9.16-.35-1.35-.5-2.75-1.05-4.04-1.92-5.04-3.2-10.4-6.92-14.55-1.2-1.33-1.98-3.59-4.52-2.86-.78,3.38-.59,6.72.15,10.05.44,2.62.91,5.23,1.86,7.73,1.05,6.43,4.96,11.25,9.02,15.99.72,1.62,2.48,2.86,1.77,4.99-3.89,8.77-5.98,17.93-6.2,27.52-.1,4.35-2.04,6.59-6.68,5.4-3.68-.22-7.37-.55-11.02.27-12.68,3.9-16.67,14.62-20.09,25.72-.87,2.83-1.18,5.83-1.68,8.77-.78,3.75-.75,7.5-.02,11.25,3.37,14.62,10.81,21.1,27.07,23.56,2.36.77,4.73.72,7.11.07,1.03-.17,2.03-.12,2.95.42.61.55.85,1.26.88,2.05-.03.5-.14.97-.34,1.43-.83,1.34-2.12,2.31-3.57,2.48-4.9.58-7.4,3.99-9.68,7.75-1.05,1.72-1.99,3.51-3.44,4.94-.75.77-1.45,1.58-2.02,2.5-1.12,1.58-2.31,3.11-3.54,4.62-1.93,1.44-3.64,3.14-5.58,4.57-1.17.85-1.23,1.75-.2,2.79.94.96,1.49,2.1,1.25,3.5-2.83,4.77-6.66,8.52-11.48,11.26-1.59.5-3.55-.44-4.83,1.25-2.65,3.14-4.54,7.12-9.04,8.21-.98-.05-2,.03-2.86-.79.66,1.03,1.77.68,2.61,1.05,3.63,1.46,9.03,1.03,7.95,7.49-.06.48-.17.95-.31,1.41-.14,1.46-1.39,2.95.11,4.35,2.3-1.42,4.48-2.93,6.35-4.86,1.82-1.88,3.99-2.97,6.68-2.84,3.78.14,5.39,2.29,5.43,5.88-.32,4.59,1.5,8.78,2.51,13.12.45,3.81,1.85,7.29,3.86,10.53,2.91,4.69,3.85,10.06,5.37,15.23.63,2.42,1.58,4.74,2.2,7.16.63,3.15,2.93,4.64,5.68,5.71,4.97,1.93,10.1,3.21,15.42,3.65,2.26.69,4.57.98,6.92.61.36-.12.71-.26,1.04-.46.61-.49,1-1.15,1.41-1.8.73-1.03,1.35-2.13,2.06-3.18,2.04-1.9,2.56-5.23,5.73-6.08.8-.1,1.59-.05,2.38.11,7.58.52,15.15.77,22.71-.17,2.16-.42,4.32-.6,6.48,0,2.35,1.07,3.36,3.52,5.24,5.08,1.61,1.59,2.7,3.6,4.22,5.27.33.29.66.58.99.87,2.22.79,4.5.32,6.76.38,5.98-.67,12.15-.44,17.6-3.61,1.05-.82,1.91-1.79,2.35-3.08.33-.82.61-1.66.89-2.5.65-1.74,1.52-3.39,2.11-5.16,3.17-11.49,5.89-23.15,12.7-33.24.84-1.72,1.44-3.55,2.14-5.33.92-2.09.56-4.17-.06-6.25-.37-2.65-.64-5.27,2.04-7.02.45-.22.92-.36,1.42-.43,2.82-.2,4.96,1.63,7.45,2.58.18-1.38-.55-2.49-.92-3.68-1.74-5.74-1.21-6.92,4.34-8.86,3.75-1.31,7.46-2.69,11.52-5.02-3.66-.48-5.24-3.06-7.25-5.13-2.15-3.53-4.87-3.2-7.85-1.17-4.52-.52-5.59-4.81-8.18-7.45-1.43-2,.75-5.02-1.92-6.67-1.71-1.43-3.69-2.51-5.28-4.09-1.96-2.16-4.19-4.01-6.48-5.81-.31-.32-.58-.68-.82-1.05-.58-.94-1.28-1.79-2.09-2.55-2.78-3.07-5.98-5.86-7.07-10.12-.04-.49,0-.97.06-1.45.54-2.57,3.09-2.93,4.74-4.28,12.7-5.51,19.82-15.37,22.42-28.76.75-3.62.76-7.24,0-10.86-3.88-12.86-10.79-23.49-22.39-30.71-1.98-.94-3.94-.82-5.9.07-3.76.9-7.02,3.79-11.25,2.86-1.4-1.98-.57-4.49-1.6-6.56-1.99-7.76-4.68-15.29-7.43-22.81.55-1.64,1.85-2.29,3.42-2.6,4.39,6.3,6.79,13.37,7.93,20.88.44,2.91.89,4.51,4.67,3.32,13.39-4.23,20.37,5.03,27.29,13.78,5.77,7.31,10.43,15.47,10.82,24.92.44,10.74-2.29,20.98-9.52,29.34-4.81,5.55-10.24,10.53-18.13,12.16,5.76,7.66,11.39,15.13,20,19.92,2.44,1.36,7.62,3.18,3.2,8.17-1.19,1.34.98,2.14,1.73,3.07.56.7,1.48.79,1.97-.24,2.14-4.59,4.6-1.48,6.53-.04,3.41,2.55,5.7,6.39,9.43,8.64,2.35-.51,4.7-.51,7.05,0,1.47.16,3.33,0,3.82,1.68.51,1.74-1.36,2.53-2.4,3.45-4.39,3.86-9.69,6.26-14.87,8.8-6.47,3.17-6.51,3.1-3.48,10.17.61,1.71.57,3.42.03,5.14-1.26,2.04-2.71,2.83-4.75.86-.55-.53-1.36-.79-2.06-1.17-4.1-2.21-5.01-2.05-5.16,2.42-.16,4.79-1.9,8.82-4.18,12.71-6.11,10.4-7.6,22.43-11.99,33.43-1.49,3.74-3.24,7.37-4.76,11.09-.53,1.29-1.05,2.77-2.61,2.42-8.2-1.84-16.03,2.39-24.24,1.24-3.39-.48-6.19-.62-8.09-4.13-1.54-2.84-4.99-4.29-6.43-7.47-.21-.46-1.8-.29-2.76-.42-2.31.85-4.7.21-7.05.41-3.5,0-7.01,0-10.51,0-2.52.2-5.08-.44-7.57.39Z"/><path d="m141.95,49.95c-.5,1.27-1.4,2.02-2.8,2.08-1.85-.39-4.02-.34-4.22-3.03.38-2.55-.63-4.24-3.12-5.01-3.24-6.99-6.19-14.06-6.74-21.88.6-3.72.57-7.43.01-11.15.66-2.45,1.23-4.93,2-7.35,1.36-4.24,3.79-4.84,6.49-1.3,5.91,7.72,9.69,16.5,11.19,26.08.35,2.22,1.51,4.28,1.27,6.59.57,3.37.6,6.75-.02,10.12l-.23-.12c-3.19.13-3.71-2.19-4.07-4.54-.31-1.96.03-3.98-.6-5.91-.37-1.43-.53-2.92-.99-4.33-1.52-6.65-3.07-13.29-6.73-19.19-1.67-2.7-2.33-1.52-2.75.68-.63,3.72-.68,7.43.13,11.13.47,3.67.43,7.46,2.7,10.67,1.64,4.29,1.89,9.43,7.14,11.47,1.18.98,3.64.64,3.32,3.17-.02,1.32-2.02.45-2,1.81Z"/><path d="m142.06,34.04c1.42,1.55.85,3.46.8,5.2-.07,2.54.53,4.55,2.93,5.74-.62,1.05-1.23,2.1-1.85,3.15-1-1.46-2.9-1.19-4.16-2.16.87-3.96-.25-8.29,2.27-11.93Z"/><path class="cls-51" d="m58.78,10.94c.02,4.39.03,8.78.05,13.17-1.6-4.39-1.38-8.78-.05-13.17Z"/><path class="cls-1" d="m125.08,10.96c1.42,3.72,1.32,7.44-.01,11.15,0-3.72,0-7.44.01-11.15Z"/><path class="cls-128" d="m115.02,40.95c-3.74,0-7.47,0-11.21,0,3.74-1.47,7.47-1.52,11.21,0Z"/><path class="cls-52" d="m102.84,274.06c3.76.04,7.52.08,11.28.13l.19.46-.44.23c-3.63-.02-7.27-.04-10.9-.06-.35-.11-.48-.26-.41-.45.08-.2.18-.31.28-.31Z"/><path class="cls-76" d="m81.96,44.89c-2.18-2.77-.54-5.97-1-8.93,2.05,2.78.44,5.98,1,8.93Z"/><path class="cls-156" d="m146.02,45.1c0-3.37.01-6.75.02-10.12,1.38,3.38,1.38,6.75-.02,10.12Z"/><path class="cls-31" d="m77.83,285.85c2.94-1.72,6.12-.48,9.18-.75-2.93,1.86-6.11.58-9.18.75Z"/><path class="cls-38" d="m25.1,121.97c1.34,3.03,1.33,6.06,0,9.1v-9.1Z"/><path class="cls-17" d="m14.82,207.87c-2.05,2.27-4.68.71-7.02,1.04,2.1-1.99,4.74-.25,7.02-1.04Z"/><path class="cls-146" d="m214.93,193.85h-7.05c2.35-1.31,4.7-1.31,7.05,0Z"/><path class="cls-17" d="m113.87,274.88c.08-.23.16-.46.24-.69,2.3-.04,4.59-.07,6.89-.11-2.21,1.76-4.74.68-7.14.8Z"/><path class="cls-133" d="m102.84,274.06c.07.25.11.5.13.75-2.37.02-4.73.04-7.1.06,2.16-1.67,4.63-.64,6.97-.82Z"/><path class="cls-12" d="m198.03,223.09c0-1.71-.02-3.43-.03-5.14,1.39,1.71,1.39,3.42.03,5.14Z"/><path class="cls-148" d="m134.92,49.01c.93,1.67,3.43,1.17,4.22,3.03,3.83,7.26,5.97,15.1,7.9,23.01,1.06,2.26-.48,4.84.87,7.07,3.4-2.09,7.24-3.03,10.99-4.18,1.99-.63,3.99-.48,5.99-.1,12.19,7.04,19.17,17.94,23.07,31.13.72,4.06.61,8.13.06,12.2-2.39,13.82-9.63,23.81-22.93,29.02-6.35,3.51-13.84,3.45-20.32,6.55-3.78,1.02-7.68.74-11.52,1.12-1.68-.39-3.4-.34-5.11-.33-11.11,2.41-22.31,2.93-33.51,1.02-6.74-1.15-13.48-1.14-20.26-1.14-2.3,0-4.66.24-6.72-1.18-.91-.01-1.82-.03-2.72-.04-2.34.46-4.69.55-7.02-.05-10.03-.73-18.49-4.59-24.25-13.05-2.19-3.22-3.65-6.98-3.87-11.03-.55-4.02-.59-8.05.02-12.07,1.2-11.47,4.53-22.03,13.13-30.27,2.49-2.38,5.16-4.6,8.87-4.78,3.99-1.08,8.13.25,12.12-.75,4.42,1.14,4.78.91,4.92-3.6.31-10.07,1.87-19.83,6.95-28.74.82-.25.41-1.36,1.16-1.66,2.85.06,5.49-.73,8.13-1.72,5.41-2.02,11.05-3.06,16.8-3.57,4.69-.56,9.38-.58,14.06,0,6.29,1.54,13,1.1,18.97,4.09Z"/><path class="cls-148" d="m167,267.11c-.3,1.79-1.14,3.34-2.21,4.77-1.82,1.78-3.38.4-4.91-.48-2.44-1.42-4.65-3.23-7.22-4.43-2.24-1.02-4.5-.83-6.77-.09-3.95,1-7.15,3.18-9.76,6.26-1.43,1.68-2.89,3.24-5.41,2.12-1.72-1.37-3.49-2.71-3.98-5.05-2.66-6.49-7.13-8.01-13.63-5.54-3.23,1.23-6.94,1.08-10.27.03-3.96-1.24-6.36-.13-7.7,3.69-.22.62-.81,1.03-1.28,1.49-1.65,2.03-2.35,4.75-4.65,6.3-2.58.61-3.46-1.45-4.58-3.01-6.74-9.46-13.87-11.74-24.43-7.73-1.93.73-3.84,1.08-5.78.06-.79-.53-1.03-1.33-1.09-2.22-.61-4.59-1.35-9.03-3.76-13.22-2.54-4.42-.4-7.29,4.87-6.91,18.74,1.35,37.51,1.39,56.29,1.4,6.33,0,12.55-1.55,18.89-1.06,4.4.06,8.82.61,13.18-.5,8.08-.73,15.92-3.14,24.04-3.6,5.68-.32,7.53,2.16,4.75,7.09-3.65,6.48-3.14,13.74-4.6,20.62Z"/><path class="cls-67" d="m29.92,202.86c3.73-3.58,7.45-7.17,11.18-10.75,1.01-.46,1.86.05,2.73.44,2.59,1.42,5.66,1.31,8.31,2.56,13.5,5.63,27.69,8.16,42.15,9.47,2.51.14,5.01.07,7.51.05,2.24-.07,4.48-.06,6.69.36,3.11.9,6.24.99,9.38.12,17.78-2.09,35.15-5.53,50.69-15.11,1.4-.4,2.74-.98,4.05-1.64,1.3-.59,2.59-1.22,4.07-1.17.46.04.91.16,1.34.34,3.05,2.57,4.02-.16,5.29-2.09.17-.14.35-.28.52-.42,3.56,1.38,4,6.39,8.18,7.05-.86,6-4.52,10.62-7.62,15.52-1.17,1.1-2.55,1.86-4.02,2.5-12.62,3.78-25.34,7.14-38.52,8.35-1.67-.08-3.34-.03-5.01-.04-4.37-.3-8.82.64-13.11-.77-4.2-1.58.33-6.15-2.98-8.25-3.34,3,2.11,5.91.16,8.79-2.08,1.61-4.53,1.11-6.87,1.26-2.07-.2-4.26.24-6.08-1.19-1.75-2.35,1.59-5.5-1.33-7.85-3.54,2.3,1.41,5.81-1.13,8.15-4.73,1.74-9.63.51-14.44.9-2.89-.02-5.79-.04-8.68,0-14.95-1.66-29.99-2.83-44.11-8.72-3.78-1.58-7.01-3.68-8.35-7.83Z"/><path class="cls-21" d="m133.04,157.12c3.84-1.72,7.99-.61,11.93-1.33,3.55-1.12,7.17-1.84,10.88-2.13,1.77.03,3.55.01,4.93,1.4,1.39,3.98,4.77,6.53,7.08,9.86-4.4,3.69-10,3.35-15.14,4.06-7.07.98-13.57,3.14-19.79,6.51-7.51,4.07-15.32,7.31-23.99,7.91-1.61-.05-3.23-.05-4.84,0-3.9.12-7.54-1.04-11.05-2.52-9.47-3.99-19.07-7.58-29.12-9.84-2.74-1.21-5.76-.26-8.56-1.08-.51-.2-.94-.51-1.29-.93,2.28-6.55,8.18-8.12,13.84-10.01,1.16-.23,2.34-.28,3.52-.26,2.35-.06,4.72.18,7.04-.45,1.44-.32,2.84-.2,4.2.37.43.17.84.38,1.24.62.58.36,1.1.8,1.61,1.25.97.9,2.17,1.54,2.99,2.62,1.28,2.83,3.81,4.12,6.49,5.21,1.87.93,3.58,2.33,5.88,1.94,1.41-.76.84-2.91,2.44-3.52.47-.02.84.17,1.12.55.89,1.35.17,3.53,2.22,4.29,1.48.1,2.99.58,4.28-.56.58-1.07-.02-2.52,1.09-3.42.64-.28,1.28-.26,1.91.04,3.07,3.34,4.23,3.22,7.3-.81.3-.64.76-1.1,1.48-1.22,2.54.48,3.82-1.5,5.44-2.81.62-.49,1.25-.99,1.65-1.7.54-1.07.88-2.25,1.6-3.23.43-.5.95-.8,1.62-.8Z"/><path class="cls-116" d="m43.73,238.11c-1.32-4.31-3.36-8.47-2.69-13.18,1.46-1.23,3.09-1,4.69-.44,11.47,4.02,23.47,5.21,35.44,6.55,5.81,1.21,11.69.32,17.53.58,4.04-.16,8.11.51,12.1-.6,2.28-.46,4.6-.44,6.91-.45,2.54.13,5.08.23,7.54-.6,5.72-.48,11.47-.59,17.16-1.39,1.98.13,3.93.06,5.84-.59,8.95-.85,17.76-2.45,26.52-4.48,2.38-.55,4.87-1.4,7.21.27.6,1.42.64,2.83-.03,4.24-.55,1.72-.68,3.62-2.07,4.99-1.76,1.74-4.01,2.22-6.34,2.6-18.09,2.93-36.28,4.5-54.61,5-16.45.45-32.86,2.64-49.33,1.8-8.73-.45-17.71-.1-25.86-4.31Z"/><path class="cls-21" d="m169.76,190.77c-5.68,2.11-10.65,5.6-16.08,8.2-8.38,4.01-17.62,4.36-26.56,6.01-3.04.56-6.14.81-9.22,1.2-2.99.49-5.99.51-8.98,0-2.32-.1-4.65-.2-6.97-.3-2.69-.61-5.39-.56-8.09-.04-14.81-1.23-29.3-3.79-42.94-10.03-.29-.38-.28-.76-.02-1.15.9-.91,2.14-1.3,3.16-2.03.46-.37.9-.78,1.23-1.27.36-.73.4-1.48.21-2.26-.55-1.78-1.86-2.57-3.61-2.8-1.19-.22-2.43-.32-3.25-1.4-.17-1.48.29-2.65,1.64-3.38,5.93-.09,11.38,2.25,16.89,3.81,11.09,3.14,22.36,4.81,33.77,5.83,1.15.51,1.49,1.31.91,2.45-.23.39-.54.75-.87,1.07-.77.69-1.49,1.44-1.73,2.5-.08.57-.09,1.14.02,1.71.25.95.78,1.69,1.62,2.22,1.06.6,2.19.78,3.39.56,1.1-.26,1.8-.96,2.24-1.95.22-.75.27-1.51.07-2.28-.31-1.02-1.11-1.74-1.64-2.63-.37-.69-.41-1.36.1-2.01,3.03-2.03,6.68-.38,9.83-1.7,1.05-.24,2.11-.37,3.19-.42,2.14,0,4.28.04,6.42-.06,10.22-.98,19.56-4.74,28.64-9.21,6.42-3.16,13.31-4.96,20.01-7.32,1.27-.45,2.57-.62,3.89-.2,1.35,1.7,3.86,1.97,4.95,3.99,2.27,1.96,2.32,4.58.5,6.36-1.78,1.75-3.88.16-5.65-1.17-1.1-.82-1.46-2.61-3.25-2.48-.22.3-.48.54-.79.75-.19.04-.37.08-.56.12-.2-.01-.39-.03-.58-.04-.78-.14-1.56-.27-2.36-.27-1.7.03-3.18.45-3.95,2.16-.16.58-.26,1.18-.26,1.78.06.86.38,1.61.99,2.21.45.39.92.77,1.41,1.1.77.76,2.48.63,2.25,2.35Z"/><path class="cls-73" d="m80.94,232.14c-12.58-.95-25.11-2.11-36.95-6.98-.87-.36-1.96-.17-2.95-.23.6-4.02-1.55-5.28-5.13-5.11-1.86-.6-4-.84-4.42-3.35.05-.53.23-1.01.53-1.44,2.39-2.56,5.46-3.18,8.08-1.15,7.65,5.93,16.87,6.52,25.79,8.22,2.08.71,4.22.6,6.37.51,2.53,0,5.07-.08,7.57.41,3.06,1.02,6.21.53,9.33.62,2.67-.03,5.34.09,8.01-.12,5.8-.02,11.6-.03,17.4-.01,2.38.23,4.77.1,7.15.13,4.01-.16,8.05.5,12.02-.58,2.22-.46,4.47-.44,6.72-.44,1.87.1,3.73.11,5.53-.51,12.2-2.04,24.36-4.22,35.91-8.91.55-.01,1.07.1,1.57.32.55.31.7.76.43,1.33-3.21,1.74-1.52,4.71-1.8,7.18.3.67.44,1.3-.3,1.8-8.66,1.56-17.35,3-25.98,4.74-2.63.53-5.24.23-7.83.57-1.61.9-3.51-.13-5.13.75-5.91,1.12-11.89,1.33-17.88,1.21-2.27,1.07-4.8-.18-7.09.77-2.32.11-4.64.22-6.96.32-4.02.73-8.08.14-12.11.33-5.96-.2-11.93.42-17.88-.35Z"/><path class="cls-21" d="m114.91,224.92c-6,0-12-.01-18-.02-2.76-.87-5.59-.18-8.38-.4-2.88-.17-5.79.4-8.63-.38-2.65-.06-5.29-.11-7.94-.17-1.91-1.11-4.16.2-6.07-.85-9.26-1.22-18.72-1.6-26.37-8.26-2.55-2.22-5.28-.52-7.63,1.21-4.62-2.63-6.81-6.75-7.24-11.93.79-4.48,3.62-.36,5.27-1.25,8.22,8.28,18.9,10.54,29.82,12.15,7.39,1.09,14.79,2.1,22.18,3.15,3.14.8,6.33.17,9.5.37,7.52-.05,15.04.16,22.55-.34,2.36-.58,5.01.58,7.18-1.19,1.1-.25,2.1.16,3.12.43,4.04.21,8.09.03,12.13.09,1.84-.17,3.74.38,5.54-.38,12.31-1.17,24.15-4.54,36.04-7.66.93-.24,1.89-.39,2.83-.58,2.96.75,3.09,2.62,1.98,4.99-11.72,5.33-24.16,7.76-36.85,9.2-1.58.96-3.51-.21-5.08.84-2.32.06-4.63.11-6.95.17-3.78.81-7.61.19-11.42.38-2.53.22-5.1-.48-7.59.42Z"/><path class="cls-54" d="m43.73,238.11c6.21.16,12.2,1.91,18.44,2.3,10.94.67,21.82,1.04,32.75-.16,6.58-.73,13.27-.9,19.84-1,21.91-.34,43.58-2.48,65.14-6.23-6.26,10.62-9.3,22.46-12.88,34.09-.13-7.83-1.06-15.69,4.38-22.61,1.5-1.9.82-4.35-3.07-3.87-6.54.8-13.03,1.71-19.47,3.15-1.9.42-3.95.19-5.94.26-4.27,1.34-8.76-.44-13.02.96-15.41,1.39-30.87.98-46.31,1.04-10.11.04-20.17-.9-30.23-1.77-1.53-.13-2.53.29-3.49,1.36-1.38,1.54-.43,3.08.46,4.04,3.94,4.2,3.84,9.26,3.53,14.43-.31.41-.6.39-.85-.05-1.31-9.28-8-16.62-9.29-25.91Z"/><path class="cls-67" d="m117.89,191.83c-.99.12-1.98.24-2.98.35-4.35.21-8.7,1.01-13.06,0-17.97.24-34.75-5.71-51.85-10-.88.48-1.73.18-2.59-.09-.64-.25-1.21-.58-1.49-1.26.02-2.25,2.23-3.11,3.07-4.83,3.89-2.34,7.57-2.1,10.96.98,2.57,2.34,5.25,3.08,8.63,1.53,3.27-1.5,6.13-.04,8.66,2.16,1.25,1.09,2.71,3.54,3.56,3.23,6.47-2.39,11.63,3.64,17.78,2.46.49-.09,1.09-.44,1.45-.24,5.6,3.16,11.59-.78,17.2.97,3.6,1.12,5.49-1.59,7.99-2.99,1.1-.61,2.26-1.03,3.53-1.07,4.49,1.81,8.03,1.23,10.63-3.42,1.67-2.98,4.77-2.29,7.57-1.75.66.07,1.7.51,1.92.23,4.22-5.32,11.92-3.12,16.47-7.67,1.3-1.3,2.67-2.56,4.72-2.44,2.86,1.33,4.99,3.54,6.96,5.92-15.14,4.32-28.86,12.41-44.06,16.56-2.61.71-5.37.93-8.05,1.37-2.35-.49-4.7-.52-7.04.02Z"/><path class="cls-67" d="m54.08,169.02c.27,0,.54.04.8.11,2.96,1.11,6.15-.31,9.1.82,9.89,1.51,19,5.46,28.18,9.14,3.82,1.53,7.61,2.91,11.76,3.09,1.66.56,3.32.56,4.98,0,7.68-.87,14.89-3.13,21.56-7.08,7.85-4.65,16.47-6.9,25.43-8.12,4-.55,7.97-1.36,11.96-2.05.84.45,1.75.84,1.94,1.95-1.94,2.05-4.35,5.26-6.25,5.38-6.14.41-10.66,3.96-15.84,6.21-.58.25.18-.05-.49-.01-2.54-.43-5.55-2.88-7.34.87-2.62,5.49-6.49,6.16-11.52,3.73-1.56-.11-2.54,1-3.71,1.74-2.68,2.87-5.87,3.44-9.48,2.12-.31-.11-.77-.36-.94-.26-5.66,3.4-11.49-1.54-17.18.36-1.1.37-2.41.77-3.33-.16-3.29-3.29-6.83-3.97-11.23-2.17-1.92.79-3.16-1.57-4.33-2.85-3.29-3.61-6.82-5.2-11.39-2.33-1.36.85-2.85,1.01-4.15-.19-3.31-3.07-7.18-4.91-11.67-5.43,1.04-1.62,2.08-3.24,3.12-4.85Z"/><path class="cls-54" d="m83.86,160.1c-.29-.07-.58-.16-.86-.26-3.13-3.01-6.76.15-10.05-.83-1.63-.11-3.36.33-4.8-.85-.17-.65-.33-1.29-.5-1.93,10.6-.34,21.1-.14,31.68,1.47,9.81,1.49,19.81.25,29.61-1.58.38,2.39-1.69,3.45-2.73,5.07-1.33,1.14-2.66,2.27-4.04,3.34-.73.48-1.51.88-2.29,1.28-2.02.81-3.91,1.94-6.09,2.34-.59,0-1.17,0-1.76,0-2.78.33-5.59.82-8.04-1.17l-.11.12c-.83-.82-1.69.06-2.54-.03-1.88-.02-3.64-.6-5.42-1.14-2.35-1.38-4.54-3.02-7.03-4.18-.57-.37-1.07-.81-1.56-1.26-1.05-1.17-2.24-.94-3.48-.38Z"/><path class="cls-67" d="m54.9,265.03c1.62-.16,3.25.2,4.87-.56,10.63-4.96,20.15-1.93,26,8.28.87,1.51,1.89,2.68,3.44,3.43-.41,1.21-1.07,2.23-2.21,2.88-1.33,1.09-2.66.37-4,.01-.88-.3-1.72-.68-2.56-1.09-.84-.39-1.67-.79-2.51-1.18-3.39-1.68-7.05-2.62-10.55-3.98-2.37-.89-4.86-.35-7.29-.62-.78-.07-1.53-.27-2.24-.59-2.14-1.67-3.71-3.61-2.95-6.58Z"/><path class="cls-67" d="m152.92,265.98c4.53.81,6.93,5.92,11.88,5.9.18.87-.01,1.62-.71,2.2-1.1,1.12-1.92,2.53-3.4,3.25-.97.09-1.83-.28-2.7-.62-3.02-.72-6.03-.62-9.03.14-3.04.5-6.06,1.12-9.02,1.96-1.08.29-2.17.59-3.23.96-.64.22-1.29.26-1.96.23-1.33-1.58-2.66-3.16-4-4.74,2.13.07,3.11-1.45,4.32-2.86,2.86-3.34,6.15-6.09,10.82-6.45,2.35-.66,4.7-.72,7.04.03Z"/><path class="cls-54" d="m93.86,269.88c.41-1.41.76-2.85,1.24-4.24.95-2.76,2.52-3.85,5.62-2.71,5.67,2.09,11.6,1.48,17-.55,4.53-1.7,6.35-.2,7.7,3.65.48,1.38,1.56,2.57,1.33,4.19-2.26-.03-4.52-.06-6.78-.09-8.04.57-16.07.64-24.11-.05-.67-.07-1.34-.13-2.01-.2Z"/><path class="cls-148" d="m62.83,12.04c1.33-1.81,2.1-.44,3.11.45,5.56,4.93,8.09,11.52,10.14,18.38.69,1.99.35,3.67-1.67,4.61-2.4,1.12-4.82,1.13-7.16-.3-1.2-.73-1.44-2.24-2.58-3-1.53-2.5-1.82-5.29-1.9-8.14-.53-4.01-.62-8.01.05-12.01Z"/><path class="cls-19" d="m50.96,173.88c3.92-.38,7.7.28,10.27,3.35,2.4,2.87,4.59,1.97,7.09.67,3.34-1.73,6.28-1.46,8.7,1.68,2.56,3.33,5.36,5.59,9.86,3.04,2.09-1.19,3.57.7,5.01,1.89,1.24,1.02,2.27,2.47,4.15,1.8,3.7-1.32,7.7,1.21,10.19.83,4.95-.76,9.61-1.13,14.56-.6,1.24.13,2.68-1.66,4.03-2.57.98-.45,1.1.11,1.04.89-2.99,3.63-6.92,5.21-11.07,3-3.83-2.04-5.93,3.72-9.16,1.39-2.9-2.09-5.81-3.01-8.9-1.03-2.35,1.5-3.21-.45-4.54-1.41-2.53-1.83-4.99-3.34-8.27-1.41-2.13,1.25-3.59.51-5.32-1.59-3.01-3.65-6.68-6.99-11.99-3.23-1.83,1.29-3.93.37-5.01-.75-3.58-3.72-7.73-4.78-12.6-3.83.17-1.16.99-1.71,1.96-2.12Z"/><path class="cls-125" d="m24.65,204.11c1.89,4.3,4.46,8.18,7.24,11.93.09.26.18.53.25.8-2.35,2.98-4.73,5.91-9.17,5.19,1.86-7.07-4.72-5.94-7.89-8.12-.72-1.11.33-1.35.9-1.83,4.14-1.3,5.73-5.37,8.67-7.97Z"/><path class="cls-125" d="m199.98,192.83c2.88,2.2,4.6,6.35,9.48,5.47-3.92,3.43-8.47,5.2-13.13,6.75q-5.96,1.99-4.44,7.95c-2.99.5-4.44-.93-4.76-3.79,3.02-6.45,6.2-12.78,12.86-16.38Z"/><path class="cls-9" d="m199.98,192.83c-4.78,4.8-8.59,10.35-12.13,16.09-.39.59-.6,1.33-1.3,1.68-.95.39-1.9.42-2.86.05-2.01-1.33-.28-2.48.19-3.69,2.71-4.97,5.43-9.94,8.14-14.91q3.7-3.92,7.96.77Z"/><path class="cls-73" d="m80.9,277.11c.59.33,1.18.66,1.78.99,1.09.89,3.15.66,3.21,2.75v.09c-2.64.96-5.32.61-7.99.24-6.51.11-12.52-1.89-18.42-4.36-2.56-1.07-4.39-2.71-4.45-5.73.85-1,1.82-.75,2.81-.26l2.02.2c.34.31.72.58,1.13.79,5.3.91,10.25,3.06,15.46,4.3,1.44.51,2.78,1.48,4.45.99Z"/><path class="cls-54" d="m64.68,32.19c2.37.86,3.89,3.52,7.02,2.91,2.55-.49,4.39-1.29,4.38-4.23,1.21,1.18.76,2.71.9,4.12.69,3.37.67,6.74,0,10.11-.38.64-.75,1.28-1.13,1.92-.51.67-.85,1.63-2.02,1.14-4.58-4.45-8.33-9.37-9.17-15.97Z"/><path class="cls-40" d="m158.89,276.04c.68.26,1.35.52,2.03.78.43-.29.77-.2,1.04.23.24,2.16-1.69,2.36-2.87,2.62-5.32,1.18-10.65,2.47-16.18,2.14-2.52-1.01-5.32.47-7.81-.87-.12-.31-.24-.63-.36-.94.42-.27.84-.55,1.26-.82,2.48.05,4.88-.41,7.24-1.1,4.2-.85,8.33-2.13,12.68-2.07.99,0,1.97,0,2.96.03Z"/><path class="cls-65" d="m22.97,222.02c3.54-.88,5.85-3.93,9.17-5.19,1.25,1,2.51,1.99,3.76,2.99-2.45-.15-3.98,1.38-5.37,3.03-2.08,2.47-4.88,3.86-7.64,5.33-.73-2.06-.64-4.13-.07-6.2l.15.05Z"/><path class="cls-19" d="m146.95,177.89c3.31.68,4.9-1.88,6.25-3.92,1.26-1.91,2.52-2.56,4.35-1.66,2.91,1.44,4.7.3,6.69-1.85,1.47-1.58,3.28-3.08,5.57-3.6.09.36.19.73.28,1.1-1.94,1.73-3.94,3.4-5.8,5.22-1.09,1.07-2.33,2.49-3.75,1.76-4.08-2.12-6.28-.39-8.14,3.12-1.34,2.53-3.49,1.64-5.48.79-.22-.22-.29-.44-.2-.65.08-.21.16-.31.24-.31Z"/><path class="cls-64" d="m47.87,181.14c.71.34,1.43.69,2.14,1.03-.4,1.03-.8,2.07-1.2,3.1.34.63.13,1.21-.17,1.79-.22.36-.48.7-.76,1.02-.27.34-.56.66-.84.98-1.34,1.39-1.97,3.52-4.17,4.01-.59-.32-1.18-.65-1.77-.97-.21-1.16-.4-2.36-1.61-2.93-3.99-1.87-1.44-2.91.49-4.05,1.69,1.55,3.01.64,4.26-.65,1.15-1.19,2.04-2.64,3.63-3.34Z"/><path class="cls-26" d="m172.96,180.97c.34-1.09-1.48-2.33-.11-3.17,1.58-.98,1.7.92,2.38,1.68.44.5.8,1.08,1.29,1.52,1.55,1.38,2.95,4.07,5.28,2.71,2.28-1.33.84-3.83.2-5.83,5.73,1.06.19,5.02,1.84,7.13,0,0,.03-.03.03-.03-1.36,2.3-3.52,2.94-6.01,2.87l-1.01-.09c-1.6-2.09-3.32-4.1-3.88-6.79Z"/><path class="cls-55" d="m155.85,154.83c-3.68-.34-7.14,1.86-10.87.96.75-3.06,3.59-1.75,5.36-2.29,4.82-1.45,9.83-2.27,14.77-3.33-.74,2.11-4.2,1.19-4.38,3.92-1.52.94-3.34-.07-4.88.73Z"/><path class="cls-123" d="m186.77,209.94c.36-.34.72-.68,1.08-1.02.04,2.64,2.29,3.11,4.03,4.08,1.54,1.3.9,3.36,2.28,5.73-3.62-1.49-6.49-2.67-9.35-3.85-.45-2.08.74-3.52,1.96-4.94Z"/><path class="cls-106" d="m47.87,181.14c-.83,2.41-2.57,4.2-4.42,5.77-2.29,1.95-3.54,1.19-3.47-1.79,2.2-1.14,3.09-4.09,5.96-4.3.65.1,1.29.21,1.94.31Z"/><path class="cls-30" d="m95.87,270.08c8.04.01,16.07.03,24.11.04-8.04,1.49-16.07,1.46-24.11-.04Z"/><path class="cls-151" d="m115.95,44.91c-4.69,0-9.38,0-14.06,0,4.69-1.36,9.38-1.41,14.06,0Z"/><path class="cls-119" d="m57.84,270.83c-.94.09-1.87.18-2.81.26-.67-2.36-1.34-4.72-2.01-7.08.29.01.57.03.85.05.35.32.69.64,1.04.96.16,2.35,1.8,3.95,2.93,5.8Z"/><path class="cls-78" d="m63.93,84.2c-3.95,1.79-8.09.41-12.12.75,3.93-1.98,8.08-.51,12.12-.75Z"/><path class="cls-85" d="m29.81,119.99c0,4.02-.01,8.04-.02,12.07-1.41-4.02-1.37-8.05.02-12.07Z"/><path class="cls-103" d="m188.03,121.15c-.02-4.07-.04-8.13-.06-12.2,1.47,4.06,1.53,8.13.06,12.2Z"/><path class="cls-114" d="m62.83,12.04c-.02,4-.03,8.01-.05,12.01-1.36-4.01-1.42-8.01.05-12.01Z"/><path class="cls-20" d="m186.77,209.94c0,1.91-1.08,3.38-1.96,4.94,0,0-.46.05-.46.05l-.45-.11c0-.29,0-.58-.02-.86-.61-1.28-1.05-2.55.12-3.77.93-.08,1.85-.17,2.78-.25Z"/><path class="cls-98" d="m76.99,45.1c0-3.37,0-6.74,0-10.11,1.43,3.37,1.5,6.74,0,10.11Z"/><path class="cls-74" d="m77.9,281.18c2.66-.08,5.33-.16,7.99-.24-2.61,1.78-5.29,1.35-7.99.24Z"/><path class="cls-79" d="m135.1,280.94c2.6.36,5.35-.71,7.81.87-2.63-.01-5.38.98-7.81-.87Z"/><path class="cls-113" d="m68.15,158.16l4.71-.03c.26.17.39.37.39.62,0,.26-.03.4-.1.4-.67.5-1.6.21-2.26.76-1.08,0-2.29.43-2.98-.89.03-.3.11-.58.24-.85Z"/><path class="cls-110" d="m147.91,82.11c-2.09-2.14-.59-4.71-.87-7.07,1.69,2.19.51,4.72.87,7.07Z"/><path class="cls-81" d="m57.91,156.14c2.34.02,4.68.03,7.02.05-2.35,1.35-4.69,1.32-7.02-.05Z"/><path class="cls-134" d="m22.82,221.97c.02,2.07.05,4.13.07,6.2-2-2.05-.98-4.12-.07-6.2Z"/><path class="cls-59" d="m73.85,48.15c.67-.38,1.34-.76,2.02-1.14.36,1.06.72,2.12,1.09,3.18-.05.79-.27,1.46-1.16,1.66.3-1.73-1.32-2.46-1.95-3.7Z"/><path class="cls-152" d="m85.89,280.85c-1.07-.92-2.14-1.83-3.21-2.75,1.44.32,2.88.64,4.32.96-.12.75-.24,1.51-1.11,1.8Z"/><path class="cls-102" d="m161.95,277.05c-.35-.08-.69-.15-1.04-.23.8-1.2,1.68-2.33,3.17-2.74-.18,1.37-.19,2.86-2.13,2.97Z"/><path class="cls-61" d="m164.9,77.83c-2,.03-4,.07-5.99.1,1.98-1.36,3.97-1.32,5.99-.1Z"/><path class="cls-2" d="m181.8,223.8c.1-.6.2-1.2.3-1.8,1.26,2.04,1.29,4.04-.15,6.01-.05-1.41-.1-2.81-.14-4.22Z"/><path class="cls-10" d="m15.98,212.07c-.3.61-.6,1.22-.9,1.83-.87-.31-2.43-.64-2.11-1.43.41-1,1.95-.34,3.01-.4Z"/><path class="cls-104" d="m155.85,154.83c1.47-1.26,3.21-.78,4.88-.73.16.32.18.64.05.97-1.64-.08-3.29-.16-4.93-.24Z"/><path class="cls-148" d="m129.81,11.03c.55-1.42-.79-3.8,1.43-4.2,1.6-.29,2.1,1.91,2.79,3.05,3.76,6.17,6.19,12.85,6.95,20.08.21,5.33-1.89,6.39-8.06,4.07-3.61-2.93-2.86-7.09-3.11-10.97-.62-4.01-.62-8.02,0-12.03Z"/><path class="cls-37" d="m132.92,34.03c2.9-.94,7.97,2.43,8.06-4.07,1.38,1.09.66,2.74,1.08,4.08-.73,3.98,1.48,8.53-2.27,11.94-5.42-2.18-5.91-7.21-6.88-11.95Z"/><path class="cls-138" d="m129.81,11.03c0,4.01,0,8.02,0,12.03-1.43-4.01-1.44-8.02,0-12.03Z"/><path class="cls-11" d="m146.01,103.13c-2.68,8.06-9.6,10.93-16.79,11.62-8.19.78-16.5-8-17.47-16.71-.49-2.01-.54-4.02.03-6.02.88-5.94,3.84-9.99,10.06-11.07,3.71-.66,7.43-.6,11.15-.03,6.84,2.35,11.04,7.15,12.99,14.02.66,2.73.63,5.46.02,8.19Z"/><path class="cls-11" d="m78.74,116.17c-7.71-.83-11.6-4.46-12.93-12.11-.62-2.02-.52-4.05-.06-6.08.27-8.94,5.06-13.77,12.02-15.14,2.42-.41,4.84-.56,7.25.08,5.29,1.84,9.28,5.13,12.35,9.91,5.56,8.65,1.82,16.68-5.89,21.33-1.41.85-2.79,1.7-4.45,1.95-2.76.67-5.52.59-8.29.06Z"/><path class="cls-57" d="m108.91,131.05c2.96-1.1,4.19-4.41,7.49-6.1-1.08,5.09-4,8.17-8.15,8.84-3.98.64-6.78-2.89-9.74-5.22-.57-.45-.62-1.18-.23-1.78.5-.78,1.15-.37,1.7-.02.41.27.71.71,1.12.97,1.42.92,2.3,3.69,4.23,2.51,1.49-.91.39-3.39.61-5.16.31-2.48-1.19-3.11-3.23-3.33-.64-.07-1.25-.41-1.88-.61-1.38-.45-3.41-.6-3.42-2.29,0-1.78,1.73-2.63,3.49-2.9,4.01-.69,8.02-.73,12.03.02,1.68.44,3.94.51,3.75,2.9-.16,2.07-2.23,1.83-3.8,2.2-2.16.52-5.26.14-4.9,3.91,1.19,1.88-.42,4.19.93,6.04Z"/><path class="cls-46" d="m125.91,160.95c-.04-2.27,2.19-3.12,3.03-4.84,1.43.07,3.03-.55,4.09,1.01-.3.33-.59.67-.89,1-1.34,1.04-2.06,2.8-3.85,3.31-.64.22-1.28.24-1.92-.01-.15-.16-.31-.31-.46-.47Z"/><path class="cls-7" d="m112.93,116c-4.01,0-8.02-.02-12.03-.02,4.01-1.48,8.02-1.55,12.03.02Z"/><path class="cls-136" d="m133,80.92c-3.72.01-7.43.02-11.15.03,3.71-1.47,7.43-1.54,11.15-.03Z"/><path class="cls-94" d="m78.74,116.17c2.76-.02,5.53-.04,8.29-.06-2.75,1.63-5.52,1.27-8.29.06Z"/><path class="cls-95" d="m146.01,103.13c0-2.73-.01-5.46-.02-8.19,1.57,2.73,1.3,5.46.02,8.19Z"/><path class="cls-66" d="m85.01,82.93c-2.42-.03-4.83-.06-7.25-.08,2.43-1.35,4.85-1.31,7.25.08Z"/><path class="cls-63" d="m108.91,131.05c-2.15-1.73-.46-4.05-.93-6.04,1.69,1.8.64,4.02.93,6.04Z"/><path class="cls-143" d="m65.75,97.99c.02,2.03.04,4.05.06,6.08-1.38-2.01-1.36-4.04-.06-6.08Z"/><path class="cls-32" d="m111.79,92.02c-.01,2.01-.02,4.01-.03,6.02-1.29-2.01-1.3-4.02.03-6.02Z"/><path class="cls-41" d="m129.9,244.98c4.21-2.12,8.69-.46,13.02-.96-4.21,2.13-8.69.46-13.02.96Z"/><path class="cls-16" d="m152.92,265.98c-2.35-.01-4.69-.02-7.04-.03,2.35-1.48,4.7-1.53,7.04.03Z"/><path class="cls-60" d="m167.93,207.17c-.92.9-2.31,1.24-2.96,2.87-.69,1.75-1.55-.86-2.07-1.23-1.45-1.05-5.36-1.59-2.39-4.99.49-.57-.35-.71-.76-.77-.96-.13-2.32-.05-1.59-1.56.61-1.25,1.55-3,2.61-3.21,1.08-.21,3.64,1.51,3.55,1.82-.78,2.8,1.82,3.72,2.69,5.53.21.43.49.84.91,1.55Z"/><path class="cls-93" d="m179.54,206.88c-5.88-1.68-7.97-4.6-7.72-10.21.03-.64-1.17-1.23-.02-1.98,1.02-.67,1.39.21,2,.66,3.21,2.34,5.34,6.48,5.74,11.54Z"/><path class="cls-75" d="m37.55,202.81c.97-1.53.72-3.88,2.51-5.17,1.59-1.14,3.52-1.3,4.77.09.92,1.03,2.65,3.37-1.1,3.36.16,1.71-.33,3-2.06,3.73-1.18.49-2.26,1.23-3.38,1.85-.24-1.24-.48-2.49-.74-3.86Z"/><path class="cls-60" d="m145.56,204.71c3.36-.62,9.34,2.8,9.03,5.09-.17,1.28-1.32,3.26-3.44,3.19-1.46-.05-3.38.76-3.32-2.16.05-2.12.36-4.55-2.27-6.11Z"/><path class="cls-86" d="m50.63,209.92c-1.08-.28-1.59-2.13-1.5-2.5.65-2.66,1.51-5.48,4-6.95,2.56-1.51,1.92,1.84,3.09,2.67,1.08.76-3.65,6.91-5.59,6.78Z"/><path class="cls-89" d="m64.43,213.78c-.87-2.35-2-4.43-1.54-6.98.23-1.28.02-2.31,1.6-3.08,2.2-1.07,2.54,1.41,4.02,1.78.8.2.72,2.38-.11,3.5-1.14,1.53-2.43,2.95-3.96,4.78Z"/><path class="cls-75" d="m88.96,212.04c.25-1.88-.99-4.9,2.37-4.93,4.13-.03,1.66,3.65,2.42,5.51.88,2.17-1.71,3.98-2.84,4.01-3.16.08-2.05-2.66-1.95-4.59Z"/><path class="cls-75" d="m137.62,212.58c-.05,1.57-.84,3.1-2.64,2.83-1.71-.26-3.53-1.18-2.89-3.65.3-1.17,2.38-2.2,0-3.61-.45-.27.88-1.88,2.1-2.14.5-.11,2.15,1.61,2.26,2.13.31,1.46,1.55,2.64,1.17,4.44Z"/><path class="cls-86" d="m123.26,217.92c-.71-.31-1.41-.61-2.12-.92-2.06-2.12-3.49-4.55-2.84-7.6.16-.75.32-2.33,1.53-2.18.97.12,1.88.59,2.7,1.78,1.76,2.54.5,4.73.26,7.08.71.47.67,1.13.47,1.84Z"/><path class="cls-93" d="m106.01,216.95c-3.47-2-1.81-5.15-1.53-7.83.12-1.12,1.48-1.5,2.71-.44,1.66,1.44,2.4,3.27,2.12,5.33-.14,1.01-1.06,1.91-1.63,2.86-.52.69-1.08.71-1.66.08Z"/><path class="cls-117" d="m77.53,215.59c-1.18-2.24-2.3-4.05-1.28-6.89.55-1.53.04-2.91,2.29-2.66,2.64.29,2.82,2.31,2.21,4.03-.68,1.95-2.09,3.64-3.22,5.51Z"/><path class="cls-127" d="m42.86,193.08c1.24-1.7,1.95-3.83,3.96-4.91,1.2.74,1.17,2.22,1.93,3.22.58,1.28,2.6,1.7,2.18,3.58,0,.28,0,.56,0,.83-2.57-1.27-5.97-.07-8.07-2.73Z"/><path class="cls-35" d="m106.01,216.95c.55-.03,1.11-.05,1.66-.08,1.72,2.24,4.28.44,6.29,1.32-7.61,1.82-15.33.43-22.99.75-.33-.13-.46-.29-.37-.47.09-.19.18-.29.28-.29,5-1.02,10.26,1.3,15.13-1.23Z"/><path class="cls-36" d="m177.85,187.85c1.6-1.79,4.17-1.58,6.01-2.87.42,2.71-1.2,4.48-3.26,5.42-1.99.91-1.93-1.54-2.75-2.54Z"/><path class="cls-21" d="m172.96,180.97c2.13,1.78,3.83,3.81,3.88,6.79-1.25.47-2.49.94-3.74,1.41-.41.23-.84.24-1.27.06-.75-1.63.87-2.87.69-4.41.05-1.26-.71-2.59.34-3.75l.1-.1Z"/><path class="cls-13" d="m123.26,217.92c-.16-.61-.31-1.23-.47-1.84,4.63,2.02,9.54.32,14.26,1.11.25.35.17.59-.24.71-4.52,0-9.03.01-13.55.02Z"/><path class="cls-154" d="m184,210.19c-.04,1.26-.08,2.51-.12,3.77-.36-.02-.72-.04-1.09-.06-.34-1.79-.53-3.64-1.98-4.99,1.02-.65,2.05-1.3,3.07-1.95.42,1.06-1.1,2.19.12,3.22Z"/><path class="cls-144" d="m90.88,218.18c.03.25.06.51.09.76-3.02-.19-6.15.86-9.05-.78,2.99,0,5.97.01,8.96.02Z"/><path class="cls-5" d="m108.92,206.17c2.99,0,5.99,0,8.98,0-2.99,1.32-5.99,1.3-8.98,0Z"/><path class="cls-6" d="m93.86,205.83c2.7-1.42,5.4-1.14,8.09.04-2.7-.01-5.39-.02-8.09-.04Z"/><path class="cls-56" d="m171.74,188.99c.45.06.9.12,1.35.19-.86,1.06-2.1,1.34-3.34,1.59-.98-.54-1.95-1.09-2.93-1.63.31-.45.72-.77,1.23-.95,1.36-.34,2.64-.29,3.69.8Z"/><path class="cls-96" d="m136.81,217.9c.08-.24.17-.48.24-.71,1.63-.01,3.25-.03,4.88-.04-1.55,1.34-3.36.86-5.13.76Z"/><path class="cls-112" d="m104,166.98c2.66.51,5.62-1.02,8.04,1.17.24,1.27.48,2.53.71,3.8-2.16,1.32-4.65-.05-6.86.85-4.31-.74-.93-3.98-1.89-5.82Z"/><path class="cls-49" d="m113.79,168.15c1.35-2.56,4.08-2.45,6.34-3.25,1.68-.2,1.11,1.48,1.78,2.13,1.01,5.17-3.84,3.86-5.95,4.69-2.83,1.12-1.63-2.17-2.16-3.57Z"/><path class="cls-34" d="m88.92,160.97c2.84.51,5.12,1.96,6.99,4.12,1.14,1.73.35,2.97-1.04,4.06-3.46-.74-6.8-1.62-7.09-6.07,0-.91.33-1.64,1.14-2.11Z"/><path class="cls-34" d="m94.87,169.15c.35-1.35.69-2.71,1.04-4.06,2.05.34,4.11.67,6.16,1.01.41,1.94.72,3.87-.25,5.75-2.7.08-5.26-.19-6.96-2.71Z"/><path class="cls-29" d="m121.89,163.98c.89-1.6,2.08-2.83,4.02-3.04,0,0-.02.09-.02.09.83.79,2.25.81,2.73,2.06-1.8,1.29-1.67,6.33-5.84,2.99-.63-.56-1.5-1.03-.89-2.11Z"/><path class="cls-90" d="m88.92,160.97c-.04.89-.23,1.69-1.14,2.11-1.54.13-2.22-.95-2.89-2.05.33-2.36,1.7-1.7,3.06-1.05.32.33.64.66.96.99Z"/><path class="cls-141" d="m72.98,158.96c-.02-.28-.06-.56-.11-.83,3.35.74,7.3-2.08,10.14,1.71-1.34-.22-2.57-1.13-4.02-.68-2.02.45-4.03.73-6-.2Z"/><path class="cls-157" d="m63.99,169.95c-3.05-.09-6.19.76-9.1-.82,3.06.03,6.19-.84,9.1.82Z"/><path class="cls-111" d="m127.89,161.08c1.2-1.3,2.6-2.33,4.26-2.96-.43,1.24-.87,2.49-1.3,3.73-1.25.76-2.5,1.5-2.96-.77Z"/><path class="cls-145" d="m87.96,159.98c-1.1.11-2.33-.15-3.06,1.05-.35-.31-.69-.62-1.04-.92.15-1.34.8-2.09,2.24-2.02,1.24.06,1.68.84,1.85,1.9Z"/><path class="cls-99" d="m72.98,158.96c2,.07,4,.13,6,.2-2.57,1.62-5.37.65-8.08.74.69-.31,1.39-.63,2.08-.94Z"/><path class="cls-131" d="m105.88,172.79c2.12-1.68,4.61-.28,6.86-.85-2.04,2.3-4.58.58-6.86.85Z"/><path class="cls-25" d="m101.83,171.85c.08-1.92.16-3.84.24-5.75.79,0,1.59-.03,1.81,1-2.11.97.27,3.88-2.06,4.75Z"/><path class="cls-70" d="m127.89,161.08c.69,1.4,1.89.82,2.96.77-.36,1.09-1.29,1.17-2.22,1.25-1.3-.17-2.29-.76-2.73-2.06.66.01,1.33.03,1.99.04Z"/><path class="cls-4" d="m108.91,182.18c-1.66,1.26-3.32,1.24-4.98,0,1.66,0,3.32,0,4.98,0Z"/><path class="cls-44" d="m121.89,163.98c.3.7.59,1.41.89,2.11-.29.31-.58.62-.88.93-.59-.71-1.18-1.42-1.78-2.13.29-.87.96-1.01,1.76-.91Z"/><path class="cls-107" d="m80.94,232.14c5.98.01,11.96.03,17.94.04.35.15.48.33.38.52-.1.2-.21.3-.32.3-5.99-.48-12.08,1.08-18-.85Z"/><path class="cls-68" d="m98.94,232.99c-.02-.27-.04-.54-.06-.81,4.02,0,8.04,0,12.06-.01-3.9,1.7-8,.51-11.99.82Z"/><path class="cls-50" d="m117.89,231.84c2.22-1.56,4.71-.63,7.09-.78-2.21,1.64-4.7.76-7.09.78Z"/><path class="cls-105" d="m142.87,229.86c1.56-1.29,3.37-.81,5.13-.75-1.55,1.32-3.35.93-5.13.75Z"/><path class="cls-147" d="m62.93,193.02c-.09-.86.1-1.6.87-2.11,3.69-.89,6.03,2.12,9.05,3.15.45,1.28-.6,1.98-1.11,2.89-4.58,2.37-6.35-1.55-8.81-3.93Z"/><path class="cls-153" d="m125.01,195.94c1.42,1.4,1.27,2.8.02,4.22-2.73,1.34-5.46-.01-8.18,0-.82-.51-.96-1.28-.87-2.16,2.37-3.49,5.85-2.14,9.03-2.05Z"/><path class="cls-22" d="m90.87,197.06c.34,1.58-.73,2.36-1.79,3.14-3.46.19-6.09-2.01-9.07-3.2-.13-.88-.18-1.72.86-2.13,3.89-1.83,6.79.87,10,2.19Z"/><path class="cls-92" d="m155.95,186.84c1.27.6,2.03,1.5,1.79,3-1.65,3.19-5.45,2.45-7.85,4.27-.34-.38-.67-.75-1.01-1.13.05-4.7,4.04-4.86,7.07-6.14Z"/><path class="cls-14" d="m99.93,201.89c-1.17-.66-1.53-1.79-1.75-3,3.43-2.14,6.49-.84,9.49,1.03-.5,1.41-1.38,2.44-2.85,2.89-1.62-.34-3.13-1.32-4.89-.92Z"/><path class="cls-58" d="m47.97,187.04c.28-.59.56-1.18.84-1.77,1.4-.02,2.8-.04,4.2-.06.79,1.71,2.04,2.95,3.76,3.72.08,1.09.43,2.23-.64,3.07-2.62.23-4.84-.72-5.37-3.29-.43-2.06-2.14-.73-2.79-1.68Z"/><path class="cls-33" d="m155.95,186.84c-1.52,3.01-6.11,2.49-7.07,6.14-1.21-1.64-1.54-3.29-.05-4.96,1.57-.79,3.38-.94,4.91-1.85.85-.15,1.64-.1,2.21.67Z"/><path class="cls-69" d="m149.89,194.11c1.24-3.95,5.54-2.28,7.85-4.27.21,1.23.43,2.47-1,3.18-1.62.9-3.85.79-4.77,2.87-1.09-.13-1.59-.95-2.08-1.79Z"/><path class="cls-47" d="m47.97,187.04c1.15-.02,2.8-1.38,3.25.69.61,2.77,3.22,2.93,4.91,4.28-.38.38-.77.75-1.15,1.13-3.84,1.21-5.22-2.04-7.3-4.02-.25-.75-.31-1.47.24-2.13l.06.05Z"/><path class="cls-135" d="m62.93,193.02c3.52,0,4.55,5.58,8.81,3.93-1.56,1.99-3.49,2.54-5.82,1.48-.96-1.13-1.99-2.21-2.93-3.36-.02-.68-.04-1.37-.06-2.05Z"/><path class="cls-100" d="m107.67,199.92c-3.16-.34-6.33-.69-9.49-1.03.01-.57.02-1.15.03-1.72,3.17-1.97,6.36-.68,9.55-.08-.03.94-.06,1.88-.09,2.83Z"/><path class="cls-130" d="m48,188.83c3.03.29,3.52,4.7,6.97,4.31-1.19.96-2.4,1.88-4.05,1.84-.61-1.32-2.65-1.25-2.89-2.94-.11-1.07-1.29-2.13-.03-3.21Z"/><path class="cls-45" d="m72.85,194.06c-3.84,1.31-5.95-2.34-9.05-3.15.65-1.28,1.59-2.06,3.13-1.82,1.57.99,3.05,2.22,5.1,1.98,1.12.76.83,1.92.82,2.99Z"/><path class="cls-126" d="m90.87,197.06c-3.73,1.08-6.41-2.62-10-2.18.87-1.71,2.34-2.03,4.06-1.77,1.56,1.12,3.52,1.13,5.2,1.9.79.49.79,1.26.73,2.05Z"/><path class="cls-91" d="m107.77,197.1c-3.17,1.88-6.37-.34-9.55.08.23-1.2.45-2.41,1.78-2.95,2.03.21,4.02.71,6.07.74.96.39,1.5,1.12,1.7,2.12Z"/><path class="cls-23" d="m165.78,188.06c-2.25.03-1.86-1.51-1.73-2.89,2.56-1.4,4.96-3.11,7.77-4.04h.02c2.44,6.19-2.62,5.86-6.06,6.93Z"/><path class="cls-115" d="m135.92,200.86c-1.03-.16-1.62-.85-2.1-1.69.12-1.63.9-2.7,2.52-3.1,1.24-.32,2.61-.13,3.75-.89.68-.46,1.21-1.17,2.11-1.27.91,1.71,1.43,3.4-.33,4.93-2.2.03-4.24.56-5.96,2.02Z"/><path class="cls-53" d="m80.02,197c3.61-.6,6.24,1.58,9.06,3.2-.38.3-.76.61-1.15.91-2.32,1.12-3.98-1.34-6.14-1.12l-1.78-2.99Z"/><path class="cls-42" d="m171.82,181.13c-1.84,2.79-4.21,4.56-7.77,4.04.01-.74.02-1.48.03-2.22,1.79-1.13,3.86-1.67,5.66-2.76.86-.06,1.69-.04,2.08.95Z"/><path class="cls-72" d="m165.78,188.06c.46-1.15,1.25-1.99,2.52-2,3.52-.02,3.95-2.16,3.54-4.94.34-.01.68-.03,1.01-.04.31,1.33.63,2.65.94,3.98-.96,2.79-3.96,2.56-5.87,3.94-.37.05-.74.09-1.1.14-.35-.36-.7-.72-1.04-1.08Z"/><path class="cls-71" d="m132.77,198c-1.09-1.32-1.23-2.64-.02-3.97,1.84-1.32,4.34-1.2,6.05-2.8,1.13.35,2.31.61,2.97,1.76-.98,1.21-2.01,2.37-3.59,2.8-1.17.35-2.5-.09-3.57.72-.59.51-1,1.26-1.84,1.47Z"/><path class="cls-27" d="m101.86,192.17c4.35,0,8.7,0,13.06,0-3.04,2.21-6.95-.57-9.97,1.74-1.38,1.31-2.73,1.03-4.07-.06.33-.56.66-1.12.99-1.69Z"/><path class="cls-150" d="m125.01,195.94c-2.63,2.34-6.34-.01-9.03,2.05-.07-1.09-.32-2.23.82-2.98,2.41-.8,4.83-.65,7.25-.07.32.34.64.67.95,1.01Z"/><path class="cls-129" d="m135.92,200.86c.9-3.86,3.39-3.06,5.96-2.02-1.68,1.57-3.5,2.72-5.96,2.02Z"/><path class="cls-80" d="m138.8,191.23c-.64,3.91-3.76,2.45-6.05,2.8,1.28-2.53,3.26-3.54,6.05-2.8Z"/><path class="cls-120" d="m124.05,194.93c-2.41.94-4.82,1.03-7.25.07,2.39-2.52,4.81-2.42,7.25-.07Z"/><path class="cls-142" d="m116.85,200.15c2.73-2.15,5.46-.2,8.18,0-.44.91-1.08,1.6-2.08,1.88-1.74-.04-3.49.05-5.06-.91l-1.04-.98Z"/><path class="cls-132" d="m169.75,180.18c-1.07,2.6-3.1,3.24-5.66,2.76,1.15-2.44,2.98-3.48,5.66-2.76Z"/><path class="cls-28" d="m56.77,188.93c-3.08.61-4.22-.75-3.76-3.72,2.05.44,3.15,1.83,3.76,3.72Z"/><path class="cls-82" d="m72.03,191.07c-2.89,2.4-4.04.32-5.1-1.98,2.13-.45,3.68.6,5.1,1.98Z"/><path class="cls-77" d="m81.8,199.99c2.5-2.11,3.96,1.48,6.14,1.12-2.53,2.31-4.28.27-6.14-1.12Z"/><path class="cls-108" d="m100.87,193.86c1.36.02,2.71.04,4.07.06.37.35.75.7,1.13,1.05-2.32,2.2-4.18.57-6.07-.74.29-.13.58-.25.88-.37Z"/><path class="cls-80" d="m153.74,186.17c-1.09,2.06-2.86,2.31-4.91,1.85,1.03-2.23,2.9-2.22,4.91-1.85Z"/><path class="cls-62" d="m117.88,201.13c1.74,0,3.62-.75,5.06.91-2.04,1.64-3.73,1.34-5.06-.91Z"/><path class="cls-118" d="m137.98,195.06c1.33-.56,2.11-2.15,3.79-2.06.15.3.29.61.44.91-.43.71-.86,1.42-1.29,2.12-1.18.28-2.68,1.5-2.95-.97Z"/><path class="cls-83" d="m132.77,198c.37-.67.75-1.34,1.12-2.01,1.2-.3,2.69-1.47,2.97.99-1.51.04-2.04,1.44-3.04,2.19-.35-.39-.7-.78-1.05-1.17Z"/><path class="cls-24" d="m151.97,195.9c.05-3.52,2.68-2.74,4.77-2.87-1.19,1.61-3.09,2.06-4.77,2.87Z"/><path class="cls-97" d="m117.89,191.83c2.34-1.23,4.69-1.33,7.04-.02-2.35,0-4.69.01-7.04.02Z"/><path class="cls-87" d="m90.14,195c-2.03.19-4.05.32-5.2-1.9,2.09-.34,3.75.49,5.2,1.9Z"/><path class="cls-18" d="m99.93,201.89c2.07-1.99,3.41-.15,4.89.92-1.78.49-3.39.07-4.89-.92Z"/><path class="cls-3" d="m63,195.07c2.1.14,2.51,1.75,2.93,3.36-1.58-.59-2.94-1.37-2.93-3.36Z"/><path class="cls-137" d="m121.96,224.05c3.99.02,7.97.03,11.96.05-3.91,1.83-8.04.54-12.06.84-.29-.23-.38-.44-.25-.63.12-.18.23-.26.35-.26Z"/><path class="cls-101" d="m79.9,224.11c2.99-.02,5.99-.04,8.98-.06.33.17.46.36.37.56-.09.22-.18.33-.29.33-3.03-.23-6.18.91-9.07-.83Z"/><path class="cls-15" d="m88.97,224.94c-.03-.3-.06-.6-.09-.89,2.68.29,5.51-.9,8.03.85-2.65.01-5.3.03-7.95.04Z"/><path class="cls-155" d="m121.96,224.05c-.03.3-.06.6-.1.89-2.32-.01-4.63-.02-6.95-.03,2.18-1.7,4.69-.62,7.05-.86Z"/><path class="cls-48" d="m65.89,223.08c2.05.09,4.23-.73,6.07.85-2.05-.11-4.23.74-6.07-.85Z"/><path class="cls-122" d="m140.87,223.94c1.5-1.45,3.34-.82,5.08-.84-1.5,1.46-3.35.79-5.08.84Z"/><path class="cls-84" d="m146.95,177.89c-.02.32-.03.64-.04.96-3.99-.97-6.69.27-8.61,4.12-2.47,4.96-6.09,2.17-9.38.84-.75-.28-1.27-.71-.96-1.62.85-.21,1.51.09,2.27.53,3.63,2.12,6.53,1.07,8.08-2.64,2.02-4.83,4.97-4.59,8.64-2.18Z"/><path class="cls-39" d="m127.97,182.19l.96,1.62c-1.02.35-2.04.69-3.07,1.04-.35-.3-.69-.59-1.04-.89.71-1.19,1.57-2.12,3.15-1.77Z"/><path class="cls-127" d="m76.89,277.08c-5.88-1.12-11.72-2.35-17-5.35,2.7-.3,5.4-.48,8.09.13,3.68,1.29,7.54,2.13,10.86,4.31.04,1.78-.97,1.32-1.95.9Z"/><path class="cls-139" d="m67.97,271.87c-2.7-.04-5.39-.09-8.09-.13.03-.24.02-.47-.03-.7,2.71.22,5.55-.79,8.12.84Z"/><path class="cls-140" d="m76.89,277.08c.65-.3,1.3-.6,1.95-.9.69.31,1.38.62,2.07.94-1.35,1.38-2.69,1.15-4.02-.03Z"/><path class="cls-43" d="m156.75,276.89c-4.6.73-9.21,1.46-13.81,2.18-1.47.27-3.16,1.51-3.98-.94,3.06-1.64,6.35-2.25,9.79-2.25,2.7.06,5.66-1.9,8.01,1.01Z"/><path class="cls-121" d="m156.75,276.89c-2.47-1.93-5.39-.27-8.01-1.01,3.4-1.16,6.79-1.65,10.14.16-.49.83-1.26.96-2.13.85Z"/><path class="cls-124" d="m138.96,278.13c1.07,1.38,2.65.64,3.98.94-2.29,1.38-4.61,1.39-6.94.11.88-.65,1.68-1.52,2.96-1.05Z"/><path class="cls-109" d="m48,188.83c-.5,1.07,1.07,2.13.03,3.21-1.54-.93-.94-2.54-1.22-3.87.36-.39.73-.79,1.09-1.18.03.61.06,1.23.09,1.84Z"/><path d="m124.75,105.09c-3.95.44-7.42-2.29-7.79-6.13-.86-8.93.78-12.24,6.41-12.91,5.04-.6,11.15,3.7,11.55,8.13.58,6.36-2.91,10.1-10.16,10.91Z"/><path d="m76.13,94.02c1.76-4.43,4.77-6.72,9.76-6,4.92.71,6.93,4.45,8.71,8.3,1.13,2.44.16,4.83-1.35,6.85-4.74,6.33-13.63,5.19-17.16-2.13.58-2.33.51-4.67.04-7.01Z"/><path class="cls-88" d="m76.13,94.02c1.31,2.34,1.22,4.68-.04,7.01.01-2.34.02-4.68.04-7.01Z"/><path class="cls-149" d="m167.93,189c.78-3.06,4.61-1.59,5.87-3.94.34,1.84-1.2,2.71-2.05,3.93-1.27,0-2.55,0-3.82,0Z"/><path class="cls-8" d="m136.86,196.98c-.68-1.25-1.91-.88-2.97-.99,1.11-1.42,2.68-.83,4.09-.93.67,1.28,1.88.9,2.95.97-1.09,1.45-2.65.87-4.06.94Z"/></g></g></svg>