<?xml version="1.0" encoding="UTF-8"?><svg id="Calque_2" xmlns="http://www.w3.org/2000/svg" viewBox="0 0 226.26 440.42"><defs><style>.cls-1{fill:#b7b7b7;}.cls-2{fill:#211b17;}.cls-3{fill:#524a44;}.cls-4{fill:#956e56;}.cls-5{fill:#674c3a;}.cls-6{fill:#fff;}.cls-7{fill:#7a5842;}.cls-8{fill:#ebbab3;}.cls-9{fill:#503a2b;}.cls-10{fill:#d6aca6;}.cls-11{fill:#a3d2ee;}.cls-12{fill:#cacaca;}.cls-13{fill:#7f5c45;}.cls-14{fill:#38291f;}.cls-15{fill:#bae6fd;}.cls-16{fill:#bbe7fd;}.cls-17{fill:#907164;}.cls-18{fill:#cec0b7;}.cls-19{fill:#345894;}.cls-20{fill:#5d99ba;}.cls-21{fill:#99d1ee;}.cls-22{fill:#93cdeb;}.cls-23{fill:#0d161a;}.cls-24{fill:#47768f;}.cls-25{fill:#c0aea3;}.cls-26{fill:#3d2c21;}.cls-27{fill:#a6daf4;}.cls-28{fill:#304c5b;}.cls-29{fill:#cfa7a1;}.cls-30{fill:#785641;}.cls-31{fill:#bd9a96;}.cls-32{fill:#674d3b;}.cls-33{fill:#a38a7a;}.cls-34{fill:#936f57;}.cls-35{fill:#6b6b6b;}.cls-36{fill:#594130;}.cls-37{fill:#443125;}.cls-38{fill:#406980;}.cls-39{fill:#987874;}.cls-40{fill:#665041;}.cls-41{fill:#e1e1e1;}.cls-42{fill:#96cfec;}.cls-43{fill:#654836;}.cls-44{fill:#335894;}.cls-45{fill:#684f3e;}.cls-46{fill:#8f8f8f;}.cls-47{fill:#787878;}.cls-48{fill:#75543f;}.cls-49{fill:#473326;}.cls-50{fill:#16242c;}.cls-51{fill:#120700;}.cls-52{fill:#291d16;}.cls-53{fill:#c3977b;}.cls-54{fill:#33261c;}.cls-55{fill:#8fcbea;}.cls-56{fill:#523828;}.cls-57{fill:#aed1e1;}.cls-58{fill:#805c45;}.cls-59{fill:#a3a3a3;}.cls-60{fill:#6b5552;}.cls-61{fill:#2e1a0e;}.cls-62{fill:#3b5f9a;}.cls-63{fill:#9bd3ef;}.cls-64{fill:#4a3223;}.cls-65{fill:#6d5653;}.cls-66{fill:#365a96;}.cls-67{fill:#494949;}.cls-68{fill:#1d1d1d;}.cls-69{fill:#bce8fe;}.cls-70{fill:#436f87;}.cls-71{fill:#9b7a71;}.cls-72{fill:#8cc9e8;}.cls-73{fill:#9bd2ef;}.cls-74{fill:#a87f65;}.cls-75{fill:#a9dbf5;}.cls-76{fill:#d3a7a1;}.cls-77{fill:#bde8fe;}.cls-78{fill:#bae7fd;}.cls-79{fill:#96cdeb;}.cls-80{fill:#626f73;}.cls-81{fill:#30231a;}.cls-82{fill:#94aab4;}.cls-83{fill:#503727;}.cls-84{fill:#7e5b44;}.cls-85{fill:#321d11;}.cls-86{fill:#73b9dd;}.cls-87{fill:#201711;}.cls-88{fill:#525252;}.cls-89{fill:#b9e6fd;}.cls-90{fill:#a0d6f1;}.cls-91{fill:#d9d9d9;}.cls-92{fill:#bca99d;}.cls-93{fill:#5c402e;}.cls-94{fill:#cdcdcd;}.cls-95{fill:#89c7e7;}.cls-96{fill:#312625;}.cls-97{fill:#fffefe;}.cls-98{fill:#92cdeb;}.cls-99{fill:#666;}.cls-100{fill:#85c5e5;}.cls-101{fill:#335793;}.cls-102{fill:#89c4e5;}.cls-103{fill:#82604b;}</style></defs><g id="Calque_1-2"><g><path d="m29.17,73.12c.14-6.39.1-12.8,2.28-18.95.65-3.36.62-6.71.01-10.07-1.17-5.24-.66-10.67-2.04-15.92-1.36-5.14,1.41-7.36,6.8-5.62,8.72,2.81,16.24,7.9,23.3,13.47,12.57,9.91,23.01,21.7,29.62,36.53,1.72,3.85,2.49,8.16,5.46,12.32,1.92-4.72-.53-8.19-1.35-11.7-3.28-14.04-6.5-28.11-9.56-42.19-1.45-6.68-5.67-8.15-10.25-9.59-2.57-.81-5.02-2.1-7.75-2.61-2.49-.46-4.07-2.13-3.24-5.04.88-3.06,2.96-4.16,5.98-3.56.93.19,1.82.63,2.72.97,2.66,1,5.25,3,3.45-2.75-1.76-5.6,4.35-3.77,6.84-5.06,2.12-1.1,4.17.39,3.89,3.38-.02.17,0,.33,0,.5.14,2.89-.65,5.91,1.29,8.53,2.18-1.65,4.37-3.31,6.55-4.96,1.42-1.08,2.87-2.11,4.23-3.26,1.9-1.61,3.19-4.13,6.24-.91,2.93,3.09,3.45,5.2-.16,7.9-4.32,3.23-8.55,6.57-12.53,10.25-1.13,1.04-1.54,1.13-.99,2.82,1.53,4.72,2.52,9.62,3.92,15.22,3.92-4.2,6.04-8.79,8.37-13.25.69-1.33.68-3.07,2.8-3.44,3.97-.69,4.34,3.71,7.1,4.88.94.4-.24,2.78-1.3,4.24-3.99,5.49-7.76,11.15-11.48,16.83-1.63,2.49-1.52,5.39-.55,8.05,2.32,6.35,3.92,12.89,5.49,19.44.41,1.71,1.06,2.71,2.94,2.44,3.15-1.6,7.23,1.55,10-1.96,3.27-9.67,4.55-19.74,6.09-29.77,1.38-8.96,2.51-17.98,4.46-26.82.62-2.79.22-4.28-1.59-5.95-3.4-3.12-6.33-6.7-10.15-9.43-1.82-1.3-4.47-3.38-2.83-6.15,1.55-2.61,6.76-2.46,9.19-.19,1.58,1.48,3.03,3.09,4.62,4.55.64.58,1.04,1.95,2.3,1.27.97-.52.89-1.59,1.06-2.59.28-1.61-1.11-3.92,1.19-4.71,2.6-.89,5.14.44,7.56,1.29,1.04.37.95,1.41.58,2.81-1.69,6.38-1.8,12.99-1.86,19.84,4.3-4.3,9.9-6.73,13.55-11.54,2.04-2.69,4.24-2.05,5.98.92,2.54,4.33,1.63,7.35-2.24,10.28-4.68,3.54-8.78,7.92-13.68,11.09-4.6,2.97-6.7,6.95-7.08,11.94-.7,9.12-3.27,17.75-6.05,26.36-.7,2.18-1.25,4.39-1.12,6.71-.3,1.8-1.6,4.29,2.24,3.23,3.39-3.58,4.06-8.48,6.1-12.72,9.87-20.46,24.77-35.04,47.01-41.35,1.54-.44,3.1-.75,4.66-1.12,2.05-.57,4.1-.65,6.14.06.71.28,1.21,1.03.89,1.53-6.17,9.41-.62,18.4,1.29,27.34,1,4.69,1.26,9.56,2.89,14.12.6,2.37.57,4.73.02,7.1-.08.64-.17,1.27-.25,1.91-.93,1.61.16,3.53-.8,5.13-2.81,11.23-8.67,20.65-16.56,29.06-2.56,2.73-4.79,5.85-7.6,8.34-2.22,1.97-2.92,3.83-1.45,6.56.58,1.08.45,2.54.65,3.83.74,1.77.23,3.62.38,5.43-.22,4.91.44,9.85-.36,14.74-.43,2.64-.87,5.28-1.3,7.93-.7,1.61-.12,2.38,1.59,2.52,1.56.13,3.18-.41,4.67.44,10.61,2.52,18.16,9.08,23.88,18.07,4.95,7.78,7.98,16.52,12.2,24.66,1.89,3.64.73,7.06-.81,10.27-3.65,7.65-11.01,9.96-18.38,11.97-2.44.67-4.75-.65-7.04-1.47-1.46-.52-2.66-2-4.71-1.24,3.37,9.75,7.77,18.92,13.15,27.64,2.88,4.68,5.75,9.37,8.55,14.09.65,1.1,1.69,2.45.97,3.65-2.73,4.53.84,7.37,2.79,10.47,2.3,3.65,6.13,5.23,10.26,5.84,1.92.29,4.49.11,4.85,2.16.44,2.5-1.89,4.06-4.06,4.88-6.6,2.5-12.86,5.99-19.98,7.04-3.52.52-1.44,2.4-.79,3.83,6.64,14.67,12.58,29.6,17.4,44.98,3.44,10.97,5.17,22.3,7.62,33.48.87,3.94,1.56,7.93,2.61,11.82.95,3.51-.02,6.18-2.18,9.02-6.78,8.93-16.92,11.49-26.75,14.82-9.61,3.26-19.48,5.51-29.29,8-.86.22-1.74-.24-2.42,1.02-3.62,6.66-10.15,7.63-16.81,8.41-2.21.26-2.79-1.54-3.7-2.6-2.05-2.4-4.36-3.37-7.4-2.68-2.65.97-5.52-.34-8.16.78-3.62.09-7.25-.04-10.8.9-5.05-.52-10.11-.6-15.16.06-1.3.09-2.6.18-3.91.27-2.35.56-4.7.52-7.05.02-1.83.57-3.09,2.05-3.96,3.48-1.94,3.23-4.85,2.88-7.64,2.35-4.07-.77-8.05-1.97-12.06-3.05-.59-.16-1.44-.49-1.6-.94-2.19-6.39-8.26-5.69-13.04-6.92-11.35-2.94-22.41-6.52-32.94-11.74-4.01-1.99-8.22-3.59-12.25-5.55-5.23-2.53-7.27-6.33-6.47-12.03,1.9-13.6,3.93-27.16,6.85-40.62,3.21-14.78,9.21-28.52,14.29-42.61,1.98-5.5,2.33-5.13-2.99-5.6-7.03-.62-12.95-4.54-19.02-7.6-3.33-1.68-.26-3.78,1.58-4.19,5.08-1.15,9.35-3.5,12.86-7.26,2.47-2.65,4.76-4.87,3.71-9.55-.85-3.82,1.66-8.14,3.86-11.6,5.54-8.71,9.59-18.23,14.96-27.01.74-1.21,1.97-2.41-.1-3.53-3.69.48-7.37.54-11.05-.03-7.43.91-9.39-5.12-12.12-9.85-2.89-5.01-5.03-10.45-7.95-15.43-2.41-4.11.62-7.18,1.54-10.46,1.51-5.34,4.08-10.37,6.19-15.54,1.68-4.12,4.16-7.62,8.13-9.79,2.89-1.58,5.18-3.88,7.76-5.83,6.71-5.07,14.23-7.35,22.6-5.09,2.39.64,3,.48,1.92-1.95-3.28-7.37-4.38-15.16-4.22-23.16-.5-4.34-.54-8.68.03-13.02,1.42-3.93-.35-6.57-3.31-9-9.75-8-14.92-18.68-18-30.68-.64-2.5.05-4.92-.7-7.29-.55-3.34-.54-6.69,0-10.03Z"/><path class="cls-46" d="m172.43,153.2c.02-5,.04-10,.06-15,.22-.04.45-.08.67-.12-.21,5.04,1.13,10.16-.74,15.12Z"/><path class="cls-35" d="m103.24,433.94c5.05-1.42,10.1-1.39,15.16-.06-5.05.02-10.1.04-15.16.06Z"/><path class="cls-41" d="m51.18,130.12c0,4.34-.02,8.68-.03,13.02-1.34-4.34-1.38-8.68.03-13.02Z"/><path class="cls-47" d="m117.23,80.07c.29,1.45-.32,2.08-1.78,2.05-2.74-.06-5.48-.06-8.22-.09,3.02-2.28,7.03.51,10-1.96Z"/><path class="cls-12" d="m27.29,240.24c3.68.01,7.37.02,11.05.03-3.69,1.46-7.37,1.27-11.05-.03Z"/><path class="cls-67" d="m31.46,44.1c1.36,3.36,1.42,6.72-.01,10.07,0-3.36,0-6.71.01-10.07Z"/><path class="cls-91" d="m29.17,73.12c0,3.34,0,6.69,0,10.03-1.37-3.34-1.35-6.69,0-10.03Z"/><path class="cls-68" d="m177.4,164.08c-1.58,0-3.17.07-4.75-.01-2.08-.11-3.11-.88-1.51-2.94-.07,1.7.86,2.02,2.38,2.02,1.31,0,2.92-.71,3.88.93Z"/><path class="cls-1" d="m129.19,432.99c2.56-1.88,5.43-.58,8.16-.78-2.58,1.69-5.43.59-8.16.78Z"/><path class="cls-94" d="m92.29,434.24c2.35,0,4.7-.02,7.05-.02-2.35,1.35-4.69,1.34-7.05.02Z"/><path class="cls-59" d="m198.43,78.19c0-2.37-.01-4.73-.02-7.1,1.42,2.36,1.46,4.73.02,7.1Z"/><path class="cls-35" d="m193.35,28.1c-2.05-.02-4.09-.04-6.14-.06,2.06-1.41,4.11-1.51,6.14.06Z"/><path class="cls-1" d="m129.44,83.23c-.71,1.25-2.08,1.32-2.71.53-.89-1.12-.68-2.63.47-3.76.3,1.39-.11,3.26,2.24,3.23Z"/><path class="cls-99" d="m173.17,138.08c-.22.04-.45.08-.67.12-.03-1.72-.06-3.45-.09-5.17,1.69,1.47.67,3.35.76,5.06Z"/><path class="cls-88" d="m197.38,85.23c-.1-1.77-.47-3.58.8-5.13.03,1.76.75,3.62-.8,5.13Z"/><path class="cls-86" d="m21.14,188.07c1.96-5.44,7.62-6.7,11.47-9.99,1.56-1.34,2.85-3.98,5.77-2.83.44,2.57-2.16,3.5-3.14,5.9,3.8-.92,7.13-2.72,10.86-2.39.79.07,1.78-.2,1.82-1.23.05-1.21-1.01-1.58-1.95-1.89-2.15-.71-4.69.35-6.58-1.49,1.21-1.67,3.19-1.58,4.88-2.15,1.7-.59,3.42-.47,5.14-.08,3.64,1.1,7.53,1.37,10.97,3.18,4.3,3.34,7.78,7.67,12.83,10.12,3.77,1.83,7.56,3.62,11.69,4.19,4.49.62,5.72,2.64,3.94,6.74-.39.9-.38,1.95-.63,2.92-.78,2.37-.75,4.74-.01,7.11,1.74,11.56,11.44,19.31,23.59,18.57,5.83-.36,11.41-2.04,16.71-4.49,5.61-2.59,8.01-7.65,9.79-13.12.98-2.04.86-4.09.1-6.16-.75-2.89-1.96-5.62-2.99-8.41-.9-2.42-.43-4.6,2.32-4.91,10.95-1.23,19.35-6.91,26.69-14.63,2.07-.1,3.8-.94,5.02-2.59,2.01-2.71,5.18-3.17,7.6-2.12,5.12,2.21,10.91,3.63,14.34,8.72,3.1,6.38,5.26,13,3.39,20.14-2.29,8.75-12.34,11.54-19.22,5.45-2.73-2.41-5.09-5.21-7.99-8.16-.91,2.14.09,3.71.64,5.26,1.78,5.02,4.29,9.71,6.58,14.51,1.05,2.19,2.62,4.34,1.63,7.03.25,6.33,3.99,11.45,6.17,17.08,4.23,10.93,11.44,20.33,16.79,30.71-.08,3.84-2.19,6.2-5.74,7-3.59.81-6.94.15-9.38-3.04-1.39-1.82-2.19-4.1-4.72-5.26,2.47,7.48,5.62,14.69,8.69,21.92,1.12,2.39,3.45,4.41,2.27,7.49-.11.65-.21,1.3-.32,1.96,1.07,9.25,3.78,18.15,5.71,27.22.97,4.56,2.05,9.09,2.96,13.67,3.1,15.57-.59,22.17-14.33,33.2-3.11,2.5-6.9,4.1-10.59,5.57-19.78,7.88-40.17,13.93-61.57,13.51-22.88-.45-45.33-4.68-67.02-12.31-2.2-.77-4.33-1.73-6.38-2.84-14.8-8.04-18.88-15.96-16.74-32.62.89-6.92,2.04-13.8,4.09-20.49.41-4.95,3.4-8.95,4.96-13.48.5-1.44,1.67-2.97-.1-4.4-.27-.42-.45-.87-.54-1.36-.04-1.05.44-1.88,1.12-2.62,1.28-1.13,2.01-2.63,2.77-4.11,4.18-8.08,7.41-16.57,10.8-24.99-1.59,3.29-3.31,6.49-5.43,9.46-1.53,2.15-2.8,4.82-6.27,3.42-3.37-1.36-5.66-3.54-5.35-7.5.19-2.47.9-4.88,1.06-7.36,6.28-12.42,13.68-24.29,18.28-37.52.26-.75.45-1.53.67-2.3-.6-6.55,3.24-11.95,4.74-17.96,1.4-5.6,5.05-10.45,6.52-16.88-4.42,6.64-9.23,11.87-15.75,15.41-7.12,3.86-12.89.21-18.61-3.17-5-2.95-5.56-7.92-4.88-13.17.32-2.46,1.19-4.86.88-7.4Z"/><path class="cls-58" d="m56.33,128.14c.74-1.18,1.29-2.41.9-3.85,2.71-.62,4.05,3.6,7.04,1.99,4.02-4.63,3.1-10.65,4.49-16,.46-1.75.26-3.63.67-5.42.84-4.45.8-8.89.01-13.33-1.36-12.96-6.64-24.66-11.75-36.41-3.73-8.21-9.52-14.98-15.31-21.74-1.03-1.21-2.58-2.19-2.1-4.18,8.37,2.7,15.06,8.31,21.08,14.16,5.86,5.69,12.27,11.07,16.82,18.07,5.17,7.95,9.2,16.4,11.13,25.72.48,2.31,1.53,3.41,3.66,2.58,2.43-.95,5.26-.74,7.35-2.59.51-.5.75-1.55,1.82-.87.86,1.08,2.17,1.1,3.15.71,5.91-2.36,11.39.19,17,1.29,3.34.61,6.68.69,10.02-.05,4.6-4.64,4.97-11.29,7.94-16.74,10.14-18.6,23.6-33.12,45.12-38.2.28,1.62-.86,2.46-1.92,3.2-11.57,8.07-17.76,19.83-22.5,32.6-3.23,9.15-4.83,18.63-5.72,28.24-1,5.66-.74,11.34-.17,17.01.26.96.44,1.95.5,2.94.37,6.69,4.34,9.46,10.58,9.78,3.66,10.53,2.16,21.13.9,31.84-.55,4.67-3.6,8.41-3.7,13.07-4.94,8.7-12.84,13.06-22.28,15.09-7.53,1.62-7.54,1.58-4.43,8.9,4.48,10.56,1.23,18.61-9.29,22.93-2.46,1.01-4.98,1.86-7.49,2.75-9.77,3.47-23.24-.92-29.29-9.49-1.48-2.09-2.27-4.42-2.45-6.96-.21-1.5-.14-3.02-.09-4.52-.26-3.68,2.22-6.86,1.89-10.54-1.5-1.29-3.34-.53-5.01-.8-7.9-.87-14.17-5.13-20.15-9.87-1.22-.96-2.61-2.23-1.59-4.21,2.18-1.1,3.01-2.45,1.06-4.58-5.81-6.35-8.04-14.01-8.04-22.46-.55-6.69-.79-13.37.12-20.05Z"/><path class="cls-20" d="m26.27,324c.5,6.04-1.46,11.81-2.26,17.69-.7,5.17-.77,10.28-.6,15.39.22,6.99,5,11.33,10.2,15.11,9.64,7.02,21.04,9.51,32.33,12.26,16.79,4.07,33.87,7.36,51.07,6.38,22.99-1.3,45.18-7,65.68-18,6.81-3.65,11.54-9.77,14.69-16.49,2.72-5.8.99-12.43-.36-18.59-2.33-10.67-4.88-21.29-7.29-31.94-.51-2.25-1.08-4.56.43-6.7,5.93,12.42,11.43,25.01,16.29,37.89,6.67,17.66,10.41,36.06,13.8,54.54.53,2.89,2.91,5.83,1.18,8.77-2.61,4.45-6.22,7.8-11.2,9.91-13.46,5.71-27.47,9.55-41.66,12.83-2.57.59-5.15,1.04-7.05,3.11-4.61,1.83-9.25,3.51-14.34,3.05-2.46-1.2-5.05-1.96-7.8-2.09-3.29,1.19-6.79-.27-10.08.82-4.28.93-8.63,1.23-13,1.31-5.46.69-10.94.13-16.4.31-3.2.2-6.43-.43-9.61.36-.8.19-1.78.06-2.1,1.14-.85.69-1.83.91-2.91.78-1.76-.47-3.56-.49-5.37-.45-3.75-.24-7.7.21-10.48-3.18-.33-.41-.66-.82-.99-1.23-1.61-.97-3.51.07-5.14-.76-12.09-1.56-23.38-5.85-34.55-10.42-6.37-2.6-12.48-5.85-18.73-8.75-2.46-1.14-3.58-1.95-2.99-5.6,1.61-9.99,2.04-20.17,4.31-30.1,3.69-16.19,7.15-32.46,14.93-47.35Z"/><path class="cls-31" d="m154.23,97.12c.46-9.99,1.85-19.78,6.07-28.98,3.34-4.23,5.38-9.42,9.7-12.92,1.15-.93,2.12-2.07,3.43-2.79,1.45-.81,3.08-1.72,4.58-.5,1.79,1.45.31,2.97-.38,4.37-.51,1.03-1.02,2.06-1.44,3.13-.79,1.82-.61,3.73-.59,5.64.04.5.04,1,.03,1.51-.13,1.86.27,3.64.78,5.41,1.08,7.01,2.26,13.97,2.43,21.11.19,8-1.46,15.37-5.49,22.23-.2,3-3,3.99-4.67,5.8-1.62,1.75-2.77,3.48-2.53,5.92-8.9.78-11.24-1.55-11.98-11.91-.54-6.01-.66-12.01.05-18.02Z"/><path class="cls-8" d="m175.28,59.12c.11-2.4,2.05-4.06,2.94-6.38-2.8-1.02-4.32.6-5.91,1.95-3.96,3.38-6.89,7.6-9.74,11.89-.51.77-.47,2.59-2.28,1.55,4.37-14.49,12.77-26.09,25.09-34.87.62,0,1.79-.29,1.69.41-1.34,9.27,2.87,17.55,4.64,26.24.82,4.01,1.89,7.96,1.64,12.11.68,1.74.67,3.48,0,5.22.01,16.2-8.93,27.7-20,38.08-.25-1.54.26-2.95.86-4.31,4.82-10.96,3.35-22.25,1.64-33.5-.32-2.13-.48-4.23-.58-6.36-1.09-1.53.21-3.51-.93-5.03,0-.32,0-.65,0-.97,1.22-1.87-.24-4.15.94-6.03Z"/><path class="cls-20" d="m21.14,188.07c2.02,1.79,1.12,3.93.69,6-1.78,8.43.06,11.52,7.5,15.69,7.23,4.05,13.32,2.56,19.09-2.4,3.9-3.35,7.48-7.04,9.86-11.7.44-.85.54-2.21,1.84-1.77,1.39.47,1.26,1.79.8,2.95-2.02,5.08-4.2,10.1-6.07,15.23-2.32,6.35-4.41,12.78-6.6,19.17-5.46-3.72-7.09,2.95-10.79,3.98-3.68,1-7.49-.22-11.17.7-3.54-.97-4.82-4.15-6.5-6.84-1.63-2.63-2.66-5.67-4.47-8.16-4.21-5.78-4.42-11.55-.98-17.7,2.71-4.84,3.56-10.54,6.81-15.14Z"/><path class="cls-20" d="m176.38,221.24c-3-6.64-6-13.27-8.99-19.91-.41-.9-.81-1.82-1.09-2.77-.63-2.16-2.37-5.09-.03-6.35,2.46-1.33,2.8,2.41,4.29,3.69,1.63,1.4,3.05,3.05,4.58,4.57,3.61,3.6,10.27,4.95,14.5,2.95,2.72-1.29,5.36-8.44,4.54-12.87-.66-3.56-1.63-7.07-2.42-10.61-.21-.96-.27-1.95-.4-2.93,5.34,4.18,7.91,10.29,10.96,16.02,2.14,4.01,3.85,8.25,5.76,12.38,3.14,6.78.92,12.43-5.95,15.78-5.3,2.58-10.28,4.28-16.01.59-2.72-1.76-6.44-.73-9.73-.54Z"/><path class="cls-8" d="m40.28,29.21c6.61,7.88,14.01,15.19,18.06,24.92-2.01.93-2.1,1.03-3.88-.66-2.65-2.51-5.34-4.95-8.25-7.15-.78-.59-1.6-1.57-2.59-1.12-1.3.6-.95,2-.78,3.11.55,3.59,1.65,7.07,1.83,10.75.26,5.51-.08,10.91-1.49,16.25-.81,3.16-.8,6.32-.03,9.48,2.06,8.13,5.53,15.53,10.95,22.02,3.83,4.58,7.1,9.58,9.38,15.13.77,1.87,2.36,3.77.7,5.98-3.35.75-5.01-1.73-6.97-3.63-8.86-9.91-19.76-18.4-22.21-32.71-.42-2.46-1.36-4.81-.76-7.36-1.14-4.66.26-9.46-.75-14.13.63-5.28,1.25-10.56,1.88-15.84.98-3.5.21-7.07.46-10.6-.18-1.85.42-3.76-.42-5.57.42-2.3-1.06-4.54-.22-6.85-.16-1.55-1.56-3.45,1.18-4.18,1.3.72,2.6,1.45,3.91,2.17Z"/><path class="cls-77" d="m89.13,205.11c.76,4.43,2.64,8.06,6.92,10.14,5.06,2.45,9.06,7.49,15.39,6.82,7.91-.84,15.26-3.52,21.85-7.99,3.97-2.69,5.29-10.42,3.1-15.9-1.33-3.33-4.22-7.16-3.42-9.88.73-2.48,6.02-1.91,9.27-2.56,8.97-1.81,14.88-7.98,21.13-13.77.34.36.68.71,1.03,1.07-5.12,8.84-13.13,13.29-22.91,15.03-.49.09-1,.06-1.49.13-3.44.42-5.03,1.76-3.03,5.39,1.27,2.32,2.32,4.8,2.44,7.53.59,2.02.66,4.03-.05,6.03-1.66,8.94-7.2,13.82-15.77,16.5-9.79,3.06-18.97,3.64-27.89-2.33-5.47-3.66-8.87-8.31-8.44-15.17-.64-2.34-.63-4.69,0-7.03.4-2.54,1.98-5.96.9-7.39-1.2-1.59-4.88-1.15-7.35-1.98-8.27-2.8-15.87-6.61-20.42-14.63.94.05,1.88.09,2.83.14,5.26,7.87,13.14,11.33,22.05,13.06,1.99.87,4.19-.19,6.17.71,1.05,4.08-2.7,7.18-2.27,11.13-.54,1.66-.53,3.32,0,4.98Z"/><path class="cls-20" d="m29.3,271.06c1.07,1.84,1,3.64.35,5.7-.9,2.86-.54,5.44,2.47,7.28,2.73,1.67,4.45,1.84,6.27-1.35,2.12-3.73,4.6-7.25,6.02-11.35.33-.95.77-2.06,1.99-1.71,1.26.36,1.06,1.67.71,2.51-4.3,10.17-7.99,20.63-13.67,30.17-.21.36-.84.46-1.28.69-1.12-1.97.35-3.45.98-5.06.6-1.53,1.66-3.05-.48-4.25-2.6-2.11-6.85-2.36-7.49-6.65-1.84-6.15.42-11.25,4.12-15.98Z"/><path class="cls-20" d="m187.11,290.16c-3.07-7.25-6.13-14.5-9.2-21.75-.53-1.26-1.08-2.69.43-3.5,1.35-.72,2,.81,2.75,1.54.93.9,1.72,1.99,2.39,3.12,4.56,7.7,10.02,7.98,15.08.73.28-.41.52-.84.78-1.26,2.52,2.96-1.25,5.87-.07,8.82-1.85,3.01-4.71,4.95-7.44,7.03-2.22,1.18-3.01,3.64-4.73,5.27Z"/><path class="cls-13" d="m25.18,287.04c2.12,2.81,5.63,3.76,8.14,6.04,1.79,4.25-1.1,6.52-3.98,8.28-4.25,2.59-9.01,3.63-14.05,2.76-2.12-.06-3.52-1.58-5.23-2.45,6.72-3.22,12.17-7.62,15.12-14.63Z"/><path class="cls-13" d="m191.39,284.1c2.61-2.11,4.71-4.85,7.89-6.24,1.8.78,2.65,2.41,3.48,4.01,2.42,4.68,6.02,7.99,11.05,9.67-.59,1.71-2.03,1.52-3.3,1.67-10.3,3.18-15.36.77-19.11-9.12Z"/><path class="cls-5" d="m191.39,284.1c.46.17,1.21.22,1.32.52,3.26,8.42,9.53,10.54,17.78,8.6-3.02,2.04-6.48,2.98-9.9,4.05-1.66.52-3.12.73-4.62-.37-1.86-1.36-3.71-.8-5.51.25-.48-2.63-2.04-4.75-3.35-6.98-.33-3.26,1.67-4.87,4.28-6.06Z"/><path class="cls-15" d="m39.38,174.15c2.16,0,4.32-.05,6.47.04,2.26.1,4.01,1.51,4.15,3.53.18,2.6-2.22,2.47-4.02,2.32-3.48-.3-6.5.86-9.46,2.47-1.16.63-2.71,1.28-3.59-.04-.8-1.2.72-2,1.44-2.82,1.3-1.49,2.67-2.93,4.01-4.38.34-.37.67-.74,1.01-1.1Z"/><path class="cls-32" d="m15.29,304.12c3.19-.7,6.43-1.24,9.57-2.12,4.52-1.28,8.06-3.65,8.46-8.92,1.96.08,3.23.55,2.04,2.92-1.15,2.3-2.14,4.67-3.2,7.01-.35.71-.69,1.42-1.04,2.13-1.49,1.05-3.39-.14-4.89.87-.3.03-.59.07-.89.13-1.68.73-3.37.62-5.07.07-1.78-.4-3.55-.84-4.98-2.08Z"/><path class="cls-84" d="m86.62,433.13c-1.67,2.94-4,3.56-6.91,1.88-3.08-1.78-7.48-.23-9.8-3.9,5.78-1.03,11.42-.95,16.71,2.02Z"/><path class="cls-45" d="m86.62,433.13c-5.51-1.15-11.03-2.25-16.71-2.02-.87-.85-.58-1.89-.47-2.9,3.49,1.36,7.12,1.95,10.85,1.95,1.58,1.02,3.51-.13,5.09.83.94.03,1.88.05,2.81.08,0,1.09-.77,1.6-1.58,2.07Z"/><path class="cls-40" d="m147.18,429.21c4.69-1.42,9.29-3.29,14.34-3.05-.17,1.04.02,2.25-1.29,2.76-4.15.11-7.72,3.19-12.06,2.35l-.99-2.05Z"/><path class="cls-7" d="m148.17,431.26c3.96-1.07,7.6-3.81,12.06-2.35-2.48,1.58-5.12,2.75-7.93,3.65-1.84.59-3.15.41-4.12-1.31Z"/><path class="cls-48" d="m127.18,58.08c.01-4.6.83-9.03,2.78-14.22,1.13,5.91-1.68,10.39-1.73,15.19-.92.3-1.33.04-1.05-.97Z"/><path class="cls-43" d="m143.3,26.14c3.42-2.55,6.17-5.99,10.84-7.06-3.28,2.69-6.56,5.38-9.84,8.06-1.06.39-1.23-.11-1-1Z"/><path class="cls-49" d="m56.33,128.14c-.04,6.68-.08,13.37-.12,20.05-1.35-6.69-1.69-13.38.12-20.05Z"/><path class="cls-23" d="m99.54,429.26c5.59,0,11.17-.01,16.76-.02-5.62,1.76-11.38.42-17.07.78-.36-.44-.23-.68.31-.76Z"/><path class="cls-39" d="m33.5,70.08c1.77,4.63.35,9.43.75,14.13-1.98-4.62-.6-9.42-.75-14.13Z"/><path class="cls-37" d="m143.3,26.14c.33.33.67.67,1,1-2.07,1.81-4.13,3.62-6.2,5.44.89-2.89,2.89-4.79,5.2-6.44Z"/><path class="cls-87" d="m133.52,17.09c2.07,3.08-1.28,5.86-.41,8.89-1.92-2.53.34-5.38-.73-7.96.38-.31.46-.99,1.14-.93Z"/><path class="cls-38" d="m26.28,235.92c3.63-1.75,7.45-.41,11.17-.7-3.62,1.92-7.44.53-11.17.7Z"/><path class="cls-96" d="m36.15,43.21c-.21,3.68,1.29,7.47-.78,11.02.02-3.73.04-7.46.06-11.19.34-.36.57-.28.71.17Z"/><path class="cls-81" d="m133.31,13.15c.94-2.63,1.17-5.4,1.36-8.18.81,2.81.99,5.55-.37,8.18-.33.46-.66.46-1,0Z"/><path class="cls-30" d="m133.31,13.15c.33,0,.66,0,1,0-.26,1.31-.52,2.62-.78,3.93-.38.31-.76.62-1.14.93-2.09-2.08-1.28-3.6.92-4.87Z"/><path class="cls-36" d="m132.32,88.21c-3.33,1.5-6.67,1.33-10.02.05,3.34-.02,6.68-.03,10.02-.05Z"/><path class="cls-24" d="m129.3,427.94c3.24-1.7,6.72-.56,10.08-.82-3.24,1.75-6.7.76-10.08.82Z"/><path class="cls-70" d="m99.54,429.26c-.09.26-.2.51-.31.76-2.98-.04-5.96-.07-8.94-.11,2.98-1.6,6.15-.68,9.25-.66Z"/><path class="cls-26" d="m127.18,58.08c.35.32.7.65,1.05.97-.38,1.68-.75,3.37-1.13,5.05-.69-2.07-1.42-4.1.08-6.02Z"/><path class="cls-37" d="m104.14,36.67c.71-2.68,1.09-4.1,2.83-5.12.82,2.36-.83,3.12-2.83,5.12Z"/><path class="cls-9" d="m102.15,86.27l-1.82.87c0-1.62,0-3.25,0-4.87.16-.04.32-.09.49-.13.45,1.38.89,2.75,1.34,4.13Z"/><path class="cls-65" d="m36.38,27.04c-1.89.97-.67,2.82-1.18,4.18-1.53-3.72-1.36-4.33,1.18-4.18Z"/><path class="cls-14" d="m81.32,13.12c-1.47-1.16-1.02-2.82-.84-4.4,1.22,1.24.71,2.9.81,4.42l.03-.02Z"/><path class="cls-50" d="m63.3,426.23c1.76-.04,3.62-.79,5.14.76-1.74-.05-3.6.63-5.14-.76Z"/><path class="cls-28" d="m49.4,171.92c-1.71.03-3.42.06-5.14.08,1.69-1.41,3.4-1.24,5.14-.08Z"/><path class="cls-2" d="m26.23,306.01c1.41-1.51,3.23-.74,4.89-.87,0,.33.01.66.02.99-1.64-.04-3.27-.08-4.91-.12Z"/><path class="cls-54" d="m20.27,306.2c1.69-.02,3.38-.05,5.07-.07-1.67,1.47-3.36,1.39-5.07.07Z"/><path class="cls-76" d="m193.36,77.25c0-1.74,0-3.48,0-5.22,1.54,1.74,1.57,3.48,0,5.22Z"/><path class="cls-60" d="m36.15,43.21c-.24-.05-.48-.1-.71-.17,0-1.66-.01-3.32-.02-4.98,1.45,1.54.87,3.38.73,5.15Z"/><path class="cls-52" d="m81.29,13.13c1.55,1.25.99,2.7.03,4.16,0-1.39,0-2.79,0-4.18,0,0-.03.02-.03.02Z"/><path class="cls-77" d="m63.31,304.09c-5.29-3.26-8.42-8.47-11.13-13.68-.61-1.16,1.32-5.23,3.64-7.05,3.87-3.04,7.82-5.97,11.71-8.98,2.1-1.62,2.9-1.34,3.48,1.45.23,1.09-.04,5.77,3.95,2.77.15-.11,1.09.35,1.11.59.32,3.84,5.44,4.34,5.69,8.26.05.74.67,1.48,1.12,2.16.81,1.2,6.23-.4,2.28,3.62-1.43,1.45-.15,4.51-3.96,4.8-3.21.25-5.8,3.71-8.13,5.85-2.92,2.68-5.12,1.57-7.8,1.25-.42-.79-.71-1.84-1.97-1.03Z"/><path class="cls-77" d="m148.31,333.1c3.74,1.72-.87,3.94.42,6.43,1.54,2.98,1.62,6.85,1.14,10.54-.25,1.96.09,3.1-2.32,1.75-2.14-1.21-5.3.44-5.97.91-4.23,2.94-8.88.56-13.22,1.68-2.54.66-1.98-3.97-2.31-6.44-.64-4.84.71-10.05-2.51-14.4,7.89-5.64,17.65-.22,26.08-4.21,1.19,1.84-1.14,2.44-1.31,3.72-.35.25-.71.49-1.07.72.38-.21.74-.44,1.08-.71Z"/><path class="cls-69" d="m135.82,274.87c-1.72-4.09-.39-8.18,2.92-11.9,1.29-1.45-2.14-2.56.27-5.52,3.72-4.57,5.67-.62,8.19-.16,3.42.63,6.37,3.4,10.22,2.31,1.94-.55,1.44.93,1.84,1.96,2.37,6.02-.75,10.98-2.99,16.07-1.91,4.34-5.39,5.79-9.65,3.65-2.73-1.37-5.44-2.2-8.39-2.19-2.61,0-3.18-1.2-2.41-4.21Z"/><path class="cls-78" d="m81.38,340.05c-.47-.13-1.33-.1-1.62-.49-2.38-3.2-1.08-6.79-.73-10.2.14-1.39,7.64-3.2,8.22-1.99,1.24,2.59,4.33,4.93,2.69,8.25-1.63,3.3-5.51,2.97-8.56,4.43Z"/><path class="cls-89" d="m92.96,263.35c1.69.05,5.95,5.9,5,7.84-1.17,2.39-3.07,4.95-6.44,4.82-2.4-.09-6.6-5.84-5.86-8.6.94-3.52,4.42-3.46,7.3-4.06Z"/><path class="cls-16" d="m152.09,221.31c1.29-3.03,3.14-1.29,4.1-.08,1.99,2.53,2.48,5.52,1.03,8.62-1.46,3.13-4.5,3.34-7.23,3.5-2.27.13-4.25-4.53-3.36-7.19.56-1.67,1.66-3.23,1.15-5.13-.25-.94-.2-1.69.94-1.74,1.31-.07,1.52,1.01,1.77,1.98,1.04,1.72.34,3.75,1.02,5.54.49,1.29,1.11,1.36,1.91.28.68-1.15.68-2.15-.61-2.88-.81-.83-1.39-1.72-.71-2.91Z"/><path class="cls-69" d="m176.64,170.67c3.03.05,9.96,6.1,10.43,9.13.09.57-.24,1.2-.38,1.8-.58-.16-1.4-.14-1.7-.52-2.39-3-5.91-3.3-9.25-4.01-2.38-.51-2.58-2.27-2.4-4.17.19-2.06,2.07-1.74,3.3-2.22Z"/><path class="cls-66" d="m152.09,221.31c.47.91.93,1.82,1.4,2.73.84.91.81,2,.67,3.12.29,1.65.25,3-2.05,2.94-1.68-.05-1.76-1.02-1.76-2.31,0-2.17-1.49-4.37.14-6.51.54.01,1.07.02,1.61.04Z"/><path class="cls-55" d="m87.23,199.1c0,2.34,0,4.69,0,7.03-1.46-2.34-1.45-4.69,0-7.03Z"/><path class="cls-98" d="m139.35,207.13c.02-2.01.03-4.02.05-6.03,1.37,2.02,1.43,4.04-.05,6.03Z"/><path class="cls-90" d="m63.31,304.09c.77-.47,1.86-1.51,2.24-1.29,1.19.67-.16,1.51-.27,2.32-.66-.34-1.31-.69-1.97-1.03Z"/><path class="cls-31" d="m64.2,127.92c-2.04-9.59-8.38-16.72-13.95-24.29-4.09-5.56-6.77-11.69-7.94-18.48-.76-3.34-.77-6.68,0-10.02,1.55-9.01,1.91-17.95-.87-26.85-.5-1.6-.9-4.01.77-5.11,1.91-1.27,3.25.78,4.56,1.92,3.11,2.71,6.15,5.5,9.27,8.21.62.54,1.05,1.96,2.32.83,5.71,11.77,11.03,23.67,12.04,36.97.7,4.69.63,9.39.04,14.09-.24,6.25-1.35,12.36-2.87,18.41-.49,1.95-.93,3.9-3.36,4.33Z"/><path class="cls-53" d="m129.34,168.15c-2.52,7.76-8.67,10.72-16.03,12.05-2.33.65-4.67.59-7.01.03-13.28-1.55-19.64-12.8-14.12-24.96.75-1.64,1.39-3.33,2.07-5,1.21-2.82,2.91-5.16,5.97-6.19,2.38.94,3.83-1.34,5.85-1.69,4.16-.72,8.26-.42,12.31.73,3.54,1.28,5.99,3.82,7.98,6.9-.61,3.55,2.99,5.73,2.96,9.09.73,3.02.71,6.03,0,9.05Z"/><path class="cls-93" d="m74.23,140.07c-1.43-.11-3.4.64-4.04-1.02-.76-1.98,1.84-1.83,2.61-2.94,1.13-1.63,2.41-3.16,3.4-4.87,3.23-5.54,8.36-6.72,14.12-6.03,6.06.72,10.45,4.33,13.13,9.53,2.19,4.25-3.25.02-3.16,2.4-2.52.77-4.72-1.04-7.17-.86-4-1.17-7.93-.94-11.78.64-1.94.46-3.73,1.23-5.29,2.5-.55.39-1.14.67-1.83.66Z"/><path class="cls-93" d="m118.47,136.21c-3.5-1.65-3.35-3.22-.33-5.54,3.33-2.55,5.57-6.19,10.55-6.72,6.61-.7,11.25,2.29,15.13,6.67,2.06,2.33,4.15,4.11,7.35,4.96-1.68,3-3.79,2.59-6.03,1.67-.45.2-.91.23-1.38.08-2.44-1.55-5.17-2.07-8-2.28-3.36-.83-6.71-.79-10.05.06-2.46.05-4.69,1.59-7.23,1.1Z"/><path class="cls-97" d="m118.47,136.21c2.03-1.44,4.19-2.45,6.77-2.06.37.33.54.75.56,1.24-.22,2.06-.4,4.13-.03,6.2,1.6,3.79,4.06,6.16,8.4,4.33,3.79-1.6,4.5-4.76,2.45-9.5-.33-.75-.75-1.47-.33-2.32,3.17-.31,6.14-.06,8.15,2.9.55,2.06.62,4.12-.05,6.17-1.55,3.6-4.08,6.1-7.98,7.05-2.3,1-4.84-.21-7.14.75-.96-.32-1.92-.64-2.88-.96-3.22-1.65-5.74-4.12-7.98-6.9.02-2.3.05-4.6.07-6.91Z"/><path class="cls-6" d="m75.21,139.07c1.16-1.98,3-2.77,5.18-2.96,1.34,1.48.44,3.16.43,4.76-.02,4.15,2.66,7.09,6.18,6.83,3.81-.28,7.13-4.08,6.84-7.75-.13-1.6-1.36-3.11-.45-4.81,2.67-.59,4.74.89,6.92,1.99.03.3.09.6.18.9.46,1.73.51,3.45-.03,5.17-.05.3-.13.59-.21.87-1.82,2.23-3.38,4.71-5.97,6.19-2.97,1.06-5.49,3.11-9.03,2.89-5.34-.33-8.04-2.2-10.03-8.02-.58-2.02-.59-4.05,0-6.07Z"/><path class="cls-17" d="m154.23,97.12c-.02,6.01-.03,12.01-.05,18.02-1.44-6.01-1.45-12.01.05-18.02Z"/><path class="cls-71" d="m70.43,105.18c-.01-4.7-.03-9.39-.04-14.09,1.5,4.69,1.48,9.39.04,14.09Z"/><path class="cls-74" d="m129.34,168.15c0-3.02,0-6.03,0-9.05,1.58,3.01,1.55,6.03,0,9.05Z"/><path class="cls-18" d="m129.26,150.98c2.24-1.56,4.76-.56,7.14-.75-2.23,1.67-4.74.76-7.14.75Z"/><path class="cls-4" d="m106.31,180.23c2.34-.01,4.67-.02,7.01-.03-2.33,1.46-4.67,1.41-7.01.03Z"/><path class="cls-25" d="m144.38,143.17c.02-2.06.03-4.11.05-6.17.24.06.47.15.7.25.1,2.02.89,4.13-.75,5.92Z"/><path class="cls-33" d="m75.21,139.07c0,2.02,0,4.05,0,6.07-1.51-1.46-.68-3.37-.97-5.07.32-.33.65-.67.97-1Z"/><path class="cls-82" d="m91.41,189c-2.09.06-4.25.72-6.17-.71,2.09-.07,4.25-.72,6.17.71Z"/><path class="cls-57" d="m89.13,205.11c-1.23-1.66-1.22-3.32,0-4.98,0,1.66,0,3.32,0,4.98Z"/><path class="cls-92" d="m100.45,143.2c.01-1.72.02-3.45.03-5.17,1.31,1.73,1.25,3.45-.03,5.17Z"/><path class="cls-80" d="m85.38,430.98c-1.74-.02-3.58.6-5.09-.83,1.75-.02,3.58-.57,5.09.83Z"/><path class="cls-10" d="m175.28,59.12c-.26,2.02.78,4.24-.94,6.03.22-2.02-.81-4.24.94-6.03Z"/><path class="cls-10" d="m174.34,66.13c1.59,1.44.77,3.33.93,5.03-1.58-1.44-.77-3.33-.93-5.03Z"/><path class="cls-29" d="m42.31,75.13c0,3.34,0,6.68,0,10.02-1.54-3.34-1.55-6.68,0-10.02Z"/><path class="cls-19" d="m69.26,300.83c-.49.01-1.11.22-1.45,0-2.48-1.61-5.42-11.56-4.4-14.72.9-1.8,2.31-1.79,3.91-1.12,2.47,1.13,3.85,4.11,7.23,3.87,1.33-.09,2.96.99,2.71,2.85-.25,1.91-2.03,1.38-3.18,1.39-5.05.03-4.16,3.94-4.68,6.94.2.21.24.4.14.56-.1.15-.19.22-.27.22Z"/><path class="cls-72" d="m64.34,283.09c-1.25-4.42,3.14-2.74,4.59-4.24.3.57.97,1.26.82,1.68-.34.99-1.03,2.66-2.31,1.57-1.94-1.67-2.07.84-3.14.98h.04Z"/><path class="cls-95" d="m69.26,300.83c-.1-.28-.05-.54.13-.78.73-.8,1.47-1.6,2.54-2.76.57,2.52-.38,3.93-1.93,5.13-.25-.53-.49-1.06-.74-1.59Z"/><path class="cls-27" d="m78.22,290.62c3.53.31,4.29,1.37,3.93,3.66-1.09-1.02-2.02-1.88-3.93-3.66Z"/><path class="cls-11" d="m67.31,285c-1.37.14-2.79.12-3.91,1.12-1.09-1.45.06-2.2.94-3.03,0,0-.04-.01-.04-.01,1,.64,2.01,1.28,3.01,1.93Z"/><path class="cls-63" d="m56.31,288.09c.04,1.62,1.42,3,.48,4.8-.27-1.57-2.72-2.76-.46-4.79l-.02-.02Z"/><path class="cls-63" d="m56.33,288.11c.21-1.09-1.37-2.55.67-3.24.25-.08.8-.03.82.06.33,1.44-.5,2.35-1.51,3.17,0,0,.02.02.02.02Z"/><path class="cls-101" d="m138.71,351.12c-1.67.36-2.5-.81-3.13-2.25-.78-1.78-1.44-3.64-2.38-5.33-.81-1.45-2.9-2.33-1.24-4.58,1.64-2.21,4.72-1.28,5.14-.61,1.88,3,5.79,3.8,7.19,7.09,1.65,3.88-.16,5.76-5.58,5.67Z"/><path class="cls-75" d="m137.27,333.98c1.38-1.12,2.8-1.46,4.3-.23-.41.45-.83.9-1.24,1.35-.88-.76-2.34.07-3.06-1.12Z"/><path class="cls-73" d="m147.99,347.36c-.98-.59-1.79-1.69-1.25-2.31,1.14-1.31,1.39.03,1.5.92.05.43-.15.89-.25,1.39Z"/><path class="cls-86" d="m137.27,333.98c1.09.19,2.37-.14,3.06,1.12-1.33,1.13-2.63.11-3.94-.06-.39-.19-.52-.39-.4-.59.12-.21.25-.31.37-.31.3-.04.61-.09.91-.16Z"/><path class="cls-95" d="m148.31,333.1c-.42.83-.58,1.89-1.66,2.15-.13.03-.71-.8-.66-1.18.19-1.52,1.46-.82,2.31-.98,0,0,0,.01,0,.01Z"/><path class="cls-75" d="m136.36,334.14c-.02.3-.01.6.02.9-1.41-.09-2.99.54-4.1-.91.48-.74,1.54-.35,2.04-1.05l2.03,1.06Z"/><path class="cls-100" d="m134.33,333.08c-.41.88-1.2,1.01-2.04,1.05-.73-.09-1.46-.18-2.19-.27.04-.26.08-.52.12-.78h4.12Z"/><path class="cls-19" d="m154.35,268.1c-1.2,3.33-6.09,3.81-6.18,8-.49,1.48-1.54,1.67-2.87,1.24-3.14-3.62-.75-8.21-2.13-12.11-.52-1.48-.18-2.51.87-3.38,1.61-1.31,1.95,1.28,3.22,1.14.33-.28.71-.35,1.13-.25,1.26.49,2.51-.56,3.78-.02,2.31,1.16,3.42,2.8,2.17,5.38Z"/><path class="cls-102" d="m148.07,263.3c-.31,0-.58-.11-.8-.32.1-.64.07-1.78.32-1.85,3.11-.79,5.92.49,8.04,2.39,1.7,1.53-.19,3.19-1.28,4.57.32-2.54-1.34-3.87-3.13-5.11-1.1-.42-2.09.35-3.15.32Z"/><path class="cls-79" d="m145.3,277.33c.96-.41,1.91-.82,2.87-1.24,1.66-1.27,3.33-2.54,5.24-4-2.8,5.58-4.6,6.7-8.1,5.23Z"/><path class="cls-42" d="m141.16,266.41c.05,1.2-.73,1.72-1.71,1.98-.94.25-1.16-.56-.95-1.11.26-.68.79-1.4,1.4-1.76.58-.34,1.2.06,1.26.89Z"/><path class="cls-22" d="m153.5,278.97c-.36.59-.58,1.4-1.03,1.56-.9.32-1.07-.52-1.04-1.19.03-.69.36-1.35,1.12-1.41.25-.02.55.58.95,1.03Z"/><path class="cls-62" d="m86.81,334.8c-2.85.78-5.12.36-6.2-2.44-.72-1.84,2.34-3.43,3.23-1.71.8,1.52,1.43,3.04,2.97,4.15Z"/><path class="cls-44" d="m89.78,267.5c1.29,1.92,4.97,1.47,4.47,4.55-.22,1.34-1.56,1.21-2.37.97-2.92-.86-1.48-3.59-2.1-5.52Z"/><path class="cls-21" d="m154.15,227.15c-1.34-.8-.73-2.02-.67-3.12.58-.16,1.37-.68,1.65.15.38,1.12.29,2.3-.98,2.97Z"/><path class="cls-61" d="m115.31,151.3c2.62.39,5.9-.33,6.91,3.17.56,1.95.15,3.98-1.99,5.11-2.46,1.3-4.81,2.9-7.8,2.61-1.77.64-1.56,2.14-1.68,3.58-.07.87.73,2.5-1.35,2.26l-.17.12c-1.05-1.49.37-3.48-.99-4.91-3.53-1.18-7.59-.6-10.26-4.42-2.58-3.68-1.69-5.52,2.1-6.87,5.05-.94,10.19.3,15.24-.66Z"/><path class="cls-85" d="m107.28,172.19c-3.81-.03-6.26-1.99-8.69-6.35,4.03,1.83,6.88,3.13,9.72,4.43,1.66.59,3.33.54,5,.03,2.09-1.27,4.19-2.54,6.28-3.81.78-.47,1.66-.62,2.25.11.67.84-.13,1.49-.65,2.1-1.8,2.1-4.06,3.32-6.84,3.52-2.36.6-4.72.65-7.08-.03Z"/><path class="cls-83" d="m115.31,151.3c-5.01,1.78-10.16.49-15.24.66,5.01-1.82,10.15-.51,15.24-.66Z"/><path class="cls-64" d="m109.4,168.03c2.33-1.27-.99-5.46,3.03-5.85-1.39,1.48-.97,3.35-1.15,5.11-.12,1.12-.44,2.56-1.87.74Z"/><path class="cls-103" d="m107.28,172.19c2.36,0,4.72.02,7.08.03-2.37,1.47-4.73,1.43-7.08-.03Z"/><path class="cls-56" d="m113.31,170.3c-1.67,1.22-3.34,1.22-5-.03,1.67.01,3.33.02,5,.03Z"/><path class="cls-34" d="m108.24,163.24c1.87,1.33.83,3.24.99,4.91-1.48-1.4-.7-3.26-.99-4.91Z"/><path class="cls-51" d="m93.39,135.15c3.08,6.14,2.69,9.02-1.99,12.32-2.5,1.76-5.47,2.76-8.2.87-3-2.07-4.86-5.09-3.52-8.93.39-1.12.57-2.18.71-3.3,4.2-2.08,8.51-2.74,13-.97Z"/><path class="cls-51" d="m125.24,135.03c.07-.29.07-.58,0-.88,3.67-1.62,7.35-1.56,11.04-.04,4.04,4.96,3.96,9,.2,12.07-4.4,3.6-9.52,1.86-11.96-4.02.87-2.32-.3-4.84.73-7.14Z"/><path class="cls-3" d="m125.24,135.03c-.28,2.37.86,4.9-.73,7.14.09-2.39-1.14-4.92.73-7.14Z"/><path class="cls-78" d="m148.07,263.3c.94-1.17,1.95-1.72,3.15-.32-1.13-.64-1.68,4.33-3.15.32Z"/></g></g></svg>