<?xml version="1.0" encoding="UTF-8"?><svg id="Calque_2" xmlns="http://www.w3.org/2000/svg" viewBox="0 0 205.07 352.62"><defs><style>.cls-1{fill:#30251e;}.cls-2{fill:#fff;}.cls-3{fill:#575757;}.cls-4{fill:#d1d1d1;}.cls-5{fill:#d8d8d8;}.cls-6{fill:#989898;}.cls-7{fill:#717171;}.cls-8{fill:#e2e2e2;}.cls-9{fill:#bababa;}.cls-10{fill:#b4b4b4;}.cls-11{fill:#eaa2a2;}.cls-12{fill:#303030;}.cls-13{fill:#1c1c1c;}.cls-14{fill:#928881;}.cls-15{fill:#a4a4a4;}.cls-16{fill:#665a53;}.cls-17{fill:#c3c3c3;}.cls-18{fill:#cfcfcf;}.cls-19{fill:#614b3e;}.cls-20{fill:#818181;}.cls-21{fill:#e1e1e1;}.cls-22{fill:#969696;}.cls-23{fill:#d4d4d4;}.cls-24{fill:#eaeaea;}.cls-25{fill:#424242;}.cls-26{fill:#efedec;}.cls-27{fill:#211813;}.cls-28{fill:#a3a3a3;}.cls-29{fill:#e6b9b9;}.cls-30{fill:#3b3b3b;}.cls-31{fill:#402e24;}.cls-32{fill:#513d31;}.cls-33{fill:#74645b;}.cls-34{fill:#5d5d5d;}.cls-35{fill:#8c817a;}.cls-36{fill:#373737;}.cls-37{fill:#636363;}.cls-38{fill:#c1c1c1;}.cls-39{fill:#141414;}.cls-40{fill:#47382f;}.cls-41{fill:#9b9b9b;}.cls-42{fill:#2d2d2d;}.cls-43{fill:#8e8681;}.cls-44{fill:#8d8681;}.cls-45{fill:#252525;}.cls-46{fill:#9a9a9a;}.cls-47{fill:#412f25;}.cls-48{fill:#c2c2c2;}.cls-49{fill:#7b7b7b;}.cls-50{fill:#1f1611;}.cls-51{fill:#cecece;}.cls-52{fill:#97918d;}.cls-53{fill:#5b4d45;}.cls-54{fill:#837a75;}.cls-55{fill:#62544c;}.cls-56{fill:#efbcbc;}.cls-57{fill:#1e1e1e;}.cls-58{fill:#c4c4c4;}.cls-59{fill:#3c3c3c;}.cls-60{fill:#5e5e5e;}.cls-61{fill:#b9b9b9;}.cls-62{fill:#e3e3e3;}</style></defs><g id="Calque_1-2"><g><path d="m109.24,35.52c.34-10.33,1.86-20.13,9.38-28.21,5.05-5.42,11.5-3.81,15.42-.23,7.03,6.43,10.21,15.25,13.89,23.65,6.22,14.17,10.57,29,13.66,44.14,1.85,9.08,3.04,18.31,3.56,27.6.78,3.89.15,7.82.36,11.73-.14,1.78.32,3.61-.35,5.35-1.38,7.76-2.64,15.55-4.17,23.28-1.06,5.34-1.92,10.94-6.54,14.64-2.05,1.64-.2,3.22-.52,4.68-1.87,8.63,4.27,14.91,6.27,22.37.33,1.67.8,3.36-.3,4.94-1.4,2.49-1.96,5.55-4.79,7.08-.09.29-.97.52-.07.88,3.99-.34,6.63,1.47,8.15,5.09.17,1.84-.25,4.12,2.82,3.82,6.08,3.52,6.36,4.5,3.43,11.35-.3.69-.54,1.72-.24,2.31,1.84,3.62.97,6.56-2.38,9.14,6.87,5.65,14.15,10.15,21.6,14.41.14.08.26.21.4.3,8.99,5.79,7.03,5.14,2.9,12.43-.34.6-.73,1.05-.48,1.83,3.58,1.62,6.95-1.26,10.48-.59,1.14.22,2.82-.83,3.25,1.21.29,1.38.02,2.7-1.21,3.54-6.39,4.37-12.73,8.83-19.27,12.98-1.94,1.23-3.74-.27-5.11-1.89-1.77-2.09-3.6-3.04-5.41-.02-.67,1.27-4.03.18-2.76,3.15,2.15,8.55,2.33,17.4,3.99,26.02.9,2.53-.41,5.3.82,7.8,4.36.79,8.56,1.88,10.87,6.24,1.25,1.98.56,3.98.03,5.97-1.05,1.48-.51,2.45.98,3.13,1.03,1.6.71,3.26.2,4.92-1.85,3.67-4,6.84-8.93,5.95-.92-.17-1.55.21-2.35,1.14-4.63,5.39-7.62,6.16-13.92,3.02-2.23-1.11-3.9-.49-5.83-.14-.92.17-1.8.9-2.7.89-3.23-.06-6.82-.9-9.55-.38-2.27.43-4.09,4.63-6.84,6.45-6.73,4.48-11.08,2.88-12.9-5.16-1.12-4.92-4.06-3.47-7.03-2.71-2.98.76-6.01.16-9.02.35-3.01-.18-6.05.38-9.04-.33-.16-.03-.33-.07-.49-.08q-7-.25-9.28,6.29c-.42,1.21-.69,2.49-1.28,3.6-1.89,3.52-4.24,4.08-7.59,1.84-4.78-3.2-9.51-6.47-14.26-9.7-3.05.6-6.1.61-9.15,0-2.83-1.13-4.53,1.61-6.91,2.03-2.01.57-4.03.53-6.04.03-5.18-3.64-10.43.15-15.65-.13-4.78-.26-7.46-2.34-8.45-6.97-.56-2.03-.59-4.07.01-6.1.82-2.19-1.36-3.84-1.06-5.93-.48-1.68-.53-3.36.04-5.04.25-4.21,1.97-6.67,6.69-6.02,2.11.29,4.27.14,6.41.19,1.19.41,1.64.06,1.2-1.18-.17-.31-.17-.62,0-.93.54-5.02.54-10.05,0-15.07-.88-6.4,1.61-12.35,2.24-18.84-2.49-.68-3.86,1.16-4.31,3.15-.69,3.07-2.49,3.07-4.76,2.46-8.33-2.22-16.19-5.9-24.62-7.86C1.7,275.1,0,274.64,0,272.5c0-2.58,1.71-1.73,3-2.07,3.69-.96,7.56-1.55,10.61-4.14,1.72-1.46,4.23-2.99.12-4.7-.57-.24-.93-.94-1.45-1.35-3.29-2.64-2.98-4.79.54-7.1,8.65-5.65,17-11.74,24.71-18.65.74-.66,1.51-1.33,2.1-2.12,2.11-2.83,3.5-5.56-1.49-6.89-1.55-.41-2.35-1.69-3.2-2.88-.62-2.4-.63-4.8.01-7.2.17-2.31,1.7-3.36,3.68-4.03,2.17-.73,2.69-2.77,3.9-4.31,4.34-5.5,1.8-8.96-1.59-13.42-5.43-7.13-2.28-17.7,6.17-23.02,1.15-3.31-.21-6.82.8-10.14.32-3.38-.08-6.8,1.1-10.14,1.27-3.63-.91-6.71-2.4-9.72-6.93-14.02-11-28.85-13.7-44.22-1.17-6.69-1.09-13.5-2.73-20.1-.12-.48.48-1.14.74-1.71-.77-5.22-.16-10.48-.36-15.71.15-2.12-.35-4.28.34-6.38-.02-15.99,3.63-31.1,11.26-45.15,3.45-6.34,8.82-8.52,15.45-6.76,1.81.48,3.23,1.42,4.55,3.18,7.35,9.81,10.53,21.34,14.24,32.68,3.53,10.77,5.52,21.9,7.61,33,.18.97.09,1.99.13,2.99.6,4.39.62,8.77-.01,13.16-.76,6.59-1.45,13.2-3.42,19.57-.34,1.1-1.25,2.16-.18,3.09.77.67,1.76,0,2.71-.3,3.2-1,6.49-1.73,9.74-2.57,3.71-.57,7.41-.6,11.12.02,3.95,1.04,7.9,2.08,12.15,4.94-4.64-16.07-7.35-31.24-7.01-46.83.53-9.33.52-18.67.01-28Z"/><path class="cls-57" d="m109.24,35.52c1.3,9.33,1.31,18.67-.01,28,0-9.33,0-18.67.01-28Z"/><path class="cls-41" d="m30.87,58.49c.01,5.36.03,10.73.04,16.09-1.82-5.26-.56-10.66-.72-16,.23-.03.45-.06.68-.1Z"/><path class="cls-25" d="m34.22,296.44c1.4,5.02,1.3,10.05,0,15.07,0-5.02,0-10.05,0-15.07Z"/><path class="cls-49" d="m84.13,85.6c0-4.39,0-8.77.01-13.16,1.47,4.39,1.52,8.77-.01,13.16Z"/><path class="cls-28" d="m165.19,114.54c-.01-4.03-.03-8.05-.04-12.08,1.78,3.91.6,8,.73,12.01-.23.02-.46.05-.69.07Z"/><path class="cls-6" d="m104.08,105.42c-3.71,0-7.41-.01-11.12-.02,3.71-1.43,7.41-1.48,11.12.02Z"/><path class="cls-18" d="m47.9,160.49c-.2,3.38,1.17,6.89-.8,10.14.21-3.38-.87-6.87.8-10.14Z"/><path class="cls-5" d="m100.01,339.63c3,0,5.99.01,8.99.02.34.13.46.28.38.46-.09.19-.19.28-.29.28-3.03-.19-6.17.9-9.07-.76Z"/><path class="cls-61" d="m109.09,340.39c-.04-.25-.07-.49-.09-.74,3.02-.02,6.04-.03,9.07-.05-2.86,1.76-5.98.58-8.98.78Z"/><path class="cls-20" d="m57.96,341.57c3.05,0,6.1,0,9.15,0-3.05,1.54-6.1,1.39-9.15,0Z"/><path class="cls-2" d="m176.02,310.3c-2.09-2.41-.55-5.2-.82-7.8,1.65,2.45.45,5.21.82,7.8Z"/><path class="cls-2" d="m166.01,206.33h-3.94c1.18-1.27.87-2.61,1.12-3.82.95,1.26,1.29,2.98,2.82,3.82Z"/><path class="cls-2" d="m171.21,276.47c-2.29-3.85,1.08-2.77,2.76-3.15-.44,1.47-1.54,2.36-2.76,3.15Z"/><path class="cls-60" d="m34.95,215.4v7.2c-1.49-2.4-1.4-4.8,0-7.2Z"/><path class="cls-62" d="m186.92,322.51c-.01-1.99-.02-3.98-.03-5.97,1.82,1.98,1.63,3.97.03,5.97Z"/><path class="cls-15" d="m20.93,330.43c0,2.03,0,4.07-.01,6.1-1.33-2.04-1.44-4.07.01-6.1Z"/><path class="cls-9" d="m30.87,58.49c-.23.03-.46.06-.68.09-.06-2.06-.8-4.21.71-6.09,0,2-.02,4-.03,6Z"/><path class="cls-51" d="m45.01,343.63c2.01,0,4.03-.02,6.04-.03-2.01,1.36-4.02,1.32-6.04.03Z"/><path class="cls-12" d="m155.05,197.42c-.45.99-.87,2.04-2.38,1.64.25-1.46,1.32-2.01,2.45-2.52-.05.29-.07.59-.07.88Z"/><path class="cls-2" d="m159.9,189.46l.3-4.94c1.15,1.72,1.46,3.39-.3,4.94Z"/><path class="cls-30" d="m34.22,312.44c.64.62,2.34.98,1.81,1.72-.59.82-2.14.53-3.01-.54l1.2-1.18Z"/><path class="cls-23" d="m19.91,319.46c-.01,1.68-.02,3.36-.04,5.04-1.32-1.69-1.22-3.37.04-5.04Z"/><path class="cls-7" d="m188.11,330.56l-.2-4.92c2.03,1.56,1.4,3.23.2,4.92Z"/><path class="cls-9" d="m165.19,114.54c.23-.02.46-.04.69-.07.08,1.74.63,3.54-.72,5.07.01-1.67.02-3.34.04-5Z"/><path class="cls-8" d="m43.26,120.45c-4.85-14.93-8.03-30.16-8.39-45.91-.51-7.01-.55-14.02.02-21.02.01-14.2,3.48-27.62,9.13-40.56,2.44-5.59,6.01-8.38,10.61-8.47,2.43-.05,3.61.84,5.02,2.9,7.53,11.04,10.53,23.78,14.45,36.23,2.77,8.81,3.88,17.96,6.09,26.87.54,5.02.53,10.05,0,15.07-1.58,6.53-1.98,13.27-3.89,19.79-1,3.39-1.97,6.23-4.85,8.31-.84.61-2.05,1.33-.96,2.8,1.12,1.52,2.11.85,3.32.11,6.23-3.8,13.11-5.79,20.21-7.17,3.01-.6,6.02-.53,9.04-.03,4.43,1.04,8.72,2.45,12.34,5.34,1.16.93,2.45.78,3.76.82,4.59.12,4.25.27,2.46-4.04-3.28-7.91-5.1-16.28-6.59-24.7-.99-5.62-.42-11.41-1.84-16.99-.16-.63.47-1.47.73-2.21-.71-1.76-.23-3.6-.37-5.41-.21-8.57.43-17.15-.33-25.71.9-9.31,1.14-18.86,8.47-26.06,2.9-2.84,6.86-2.66,9.89.17,6.15,5.73,8.99,13.47,12.23,20.82,4.99,11.32,8.89,23.11,11.59,35.2,2.15,9.62,4.93,19.22,4.55,29.23-.09,2.41,1.36,4.36,1.25,6.68.68,3.35.14,6.74.31,10.1-1.77,6.03-2.32,12.3-3.52,18.45-.93,4.76-2.25,9.48-5.37,13.21-3.11,3.72-4.4,7.6-3.41,12.29-.29,2.72-.38,5.41.98,7.92.89,1.95-.34,4.17.8,6.08-1.81,1.97-.19,3.51.75,5.03,1.51,2.45,3.51,4.66,3.34,7.82.7,1.75.62,3.51.05,5.28-1.43,4.28-6.02,6.65-6.82,11.3-.14.79-.08,1.61-.11,2.42-.25,1.04-.96,1.77-1.82,2.28-8.46,4.93-17.02,9.68-26.5,12.44-3.15-.16-6.21.88-9.36.73-3.56-.02-7.12-.01-10.67.01-1.33.07-2.66.18-4,.17-11.5-4.15-23.95-5.35-34.93-11.18-2.64-1.4-5.3-2.73-7.01-5.34-4.36-3.69-8.51-7.56-10.7-13.03.94-2.32-.25-4.86.75-7.17-.41-2.8,1.58-4.69,3.48-5.42,4.26-1.64,4.62-4.87,4.58-8.5-.08-7.14-.24-14.29,3.2-20.89,1.98-3.05,1.57-5.44-1.18-8.1-3.82-3.69-5.7-8.75-8-13.47-.77-1.57-.94-3.56-2.76-4.5Z"/><path class="cls-8" d="m109.03,335.64c-3.97-.09-7.94-.18-11.9-.26-1.74-.69-3.48-.6-5.23-.04-4.01,1.73-4,5.83-5.32,9.12-1.56,3.88-2.12,4.03-5.59,1.11-4.26-4.23-1.41-7.69,1.19-11.19,1.72-2.28,1.65-4.64.31-7.05-.43-1.74-.73-3.53-.84-5.3-.22-3.71-2.55-5.34-5.67-6.38-.42-1.65.93-1.82,1.9-2.31.4-.17.8-.34,1.18-.54,1.21-1.62.52-3.47.64-5.23,0-2.7-.08-5.39.04-8.09.07-.87.25-1.71.53-2.54,2.14-5.02,2.02-10.47,2.19-15.67.42-12.47,2.14-24.84,2.37-37.29,1.53-4.84,3.4-9.21,9.65-9.34,3.44-.07,3.78-3.72,5.63-5.66.46-.29.96-.48,1.48-.61,1.96-.31,3.93-.26,5.9-.11,3.16.53,5.98,1.88,8.75,3.44,6.38,3.59,7.38,9.76,7.95,16.14,1.78,19.94,3.49,39.9,4.21,59.91.08,1.09.01,2.18-.01,3.26-.1,1.98-.13,3.96.15,5.94.15,1.66-.98,3.02-1.05,4.63.27,3.35,2.61,5.54,4.47,8,3.71,3.89,3.51,8.92,4.01,13.74-3.8,2.99-5.78,2.51-6.91-1.66q-2.56-9.47-12.04-6.03c-2.66.54-5.33.52-8,.02Z"/><path class="cls-19" d="m164.03,232.49c6.37,4.29,12.73,8.58,19.1,12.88,2.36,4.68.47,8.46-3,11.4-3.52,3-9.71,2.36-13.86-.93-1.69-1.34-3.09-2.99-4.61-4.5-1.35-1.33-1.92-3.53-4.57-3.97-.49,2.68,1.54,4.21,2.44,6.15,2.45,5.27,7.06,9.64,6.63,16.09-.86,4.49,1.52,8.5,1.94,12.79,1.01,3.36-.08,6.58-.91,9.72-1.8,6.75-4.26,8.19-11.24,7.27-5.08-.67-10.18-1.11-15.17-2.52-6.14-1.73-10.12-5.05-11.33-11.67-.64-3.5-.9-7.27-3.14-10.35-.21-5.93-1.78-11.77-1.3-17.75-.09-1.92-.42-3.81-.86-5.68.39-2.71-1.67-5.25-.57-8.01,2.89-2.83,6.14-4.38,10.36-3.51,4.54.93,8.77-.45,12.18-3.27,5.38-4.44,11.62-4.12,17.89-4.15Z"/><path class="cls-19" d="m25.03,250.49c6.79-5.88,14.63-10.56,20.08-17.93.8-.33,1.47-.05,2.1.44.37.36.66.77.9,1.22,2.66,5.31,7.19,7.71,12.89,7.92,3.34.12,6.12,1.06,8.53,3.43,2.44,2.39,5.58,3.54,8.84,4.38,1.73.45,3.73.45,4.58,2.52,1.26,7.76.33,15.49-.17,23.22-.22.56-.62.92-1.2,1.08-2.97-2.09-.33-4.72-.93-7.05-1.08,13.13-1.25,26.97-18.03,31.04-3.43.17-6.86.08-10.29.1-8.27-1.26-11.39-4.75-11.42-13.14,0-2.09-1.06-4.21.06-6.28.05-.96.11-1.93.16-2.89.87-1.92.22-3.94.42-5.9-.32-7.26,3.93-13.21,5.75-19.85.56-2.03,1.98-3.83,1.61-7.16-2.54,4.47-4.79,8.15-7.51,11.48-2.32,2.84-5.37,4.73-8.68,2.94-3.68-1.98-8.2-3.95-7.69-9.57Z"/><path class="cls-2" d="m53.9,201.54c10.93,7.1,23.27,10.33,35.79,13.08,2.26.5,4.49,1.24,6.21,2.95,1.85,1.59,1.38,3.98,2.06,5.97.26,6.69-1.4,8.48-8.17,8.39-1.86-.02-3.09.87-4.46,1.82-5.67,3.91-10.91,3.67-16.25-.91-1.95-1.67-4.28-2.25-6.5-3.26-6-2.73-10.75-7.77-17.93-8.56-2.1-.23-2.39-3.7.42-5.37,1.9-1.49,3.82-2.54,2.29-5.85-1.21-2.61-.73-5.7,3.71-5.32,1.98.17,3.07-.82,2.84-2.94Z"/><path class="cls-31" d="m127.25,275.53c.76-.29,1.52-.73,1.79.61.64,3.22,1.5,6.41,1.98,9.65.72,4.78,3.43,7.59,7.9,9.13,6.77,2.32,13.86,2.59,20.85,3.55,2.56.35,4.04-.97,4.89-3.23,1.57-4.16,3.07-8.34,3.44-12.82,1.38,3.55,1.29,7.37,1.97,11.05,1.16,2.24-.32,4.82.9,7.05,0,4.35,0,8.71-.01,13.06-2.39,2.14-5.45,2.27-8.36,2.61-9.48,1.11-19.04,1.5-28.52,2.69-1.46.18-2.97,0-4.38-.56-3.04-1.48-1.68-4.58-2.51-6.87-.04-.95-.08-1.91-.12-2.86,1.01-1.73.04-3.71.71-5.49.56-5,.04-9.96-.68-14.91.86-4.21-3.02-8.47.12-12.66Z"/><path class="cls-31" d="m40.97,281.43c.44,3.11.76,6.24,1.34,9.32,1.01,5.31,3.89,8.7,9.71,8.75,3.67.81,7.35.79,11.02,0,3.07-1.56,6.12-3.15,9.21-4.65,1.85-.9,2.28-2.62,2.94-4.34,2.71-7.07,4.45-14.37,5.92-21.92v7.98c1.96,2.62,1.18,5.6,1.1,8.48-.41,4.15-.78,8.3-1.27,12.44,0,.63.02,1.25.03,1.88-.91,1.32-.16,2.89-.65,4.28-.49,1.75-.23,3.54-.3,5.32-.18,1.82.53,3.82-1.09,5.34-.97.48-2.34-.17-3.02,1.1-2.48,2.01-5.4,2.16-8.39,2-2.26-.68-4.53-.81-6.79.02-1.07.25-2.15.39-3.25.4-3.43.04-6.86-.03-10.28.07-2.96-.03-5.99.19-8.18-2.42-1.55-.6-1.01-1.88-.97-3,1.42-5.95-.37-12.07.94-18.03.02-4.44.33-8.84,1.99-13.03Z"/><path class="cls-2" d="m120.12,216.55c9.43-4.56,19.11-8.62,28.06-14.13,1.75.66-.07,5.29,4.05,3.5,2.19-.95,2.27-4,5.11-4.36,1.32,1.04.73,2.66.59,3.91-.38,3.36,1.97,6.1,5.2,5.37,1.9-.43,3.07-.21,3.75,1.65-2.27,3.25-6.63,4.85-7.37,9.35-.09.53-1.05,1.24-1.55,1.1-6.46-1.81-10.05,4.4-15.46,5.45-.49.09-.98.19-1.47.25-1.76.18-3.47-.24-5.19-.48-1.2.18-2.08.91-3.02,1.6-6.86,5.05-12.93,2.9-15.3-5.39.85-2.62.73-5.56,2.61-7.83Z"/><path class="cls-2" d="m67.11,316.32c3.05.78,5.77-1.58,8.81-.9,6.05.24,7.9,3.37,7.08,12.02-1.21,2-3.24,2.23-5.23,2.16-2.67-.1-5.21-.26-7.56,1.51-1.05.79-2.91.75-3.75-.24-2.41-2.84-4.14-2.48-6.59.14-2.04,2.19-5.01,1.67-7.36.08-2.17-1.47-3.38-1.22-4.68,1.08-1.14,2.02-2.72,3.86-5.55,3.22-1.07-1.78-2.74-.74-4.16-.88-1.66.96-3.6,1.69-4.93-.05-1.85-2.41,1.38-3.62,1.91-5.91-3.33-1.23-7.35-1.68-8.81-5.82-.6-1.7-1.65-3.32-.19-5.07,2.24-.08,4.35-.13,6.67.52,2.05.57,5.88,2,6.27-2.7,2.54,1.34,5.35.8,8.03,1.17,3.66.55,7.32.54,10.98,0,.98-.11,1.96-.22,2.94-.32,2.04-.53,4.09-.51,6.14-.02Z"/><path class="cls-4" d="m45.06,215.65c-2.41,4.06-.2,5.59,3.47,5.78,4.13.22,8.76-.96,9.92,5.01.05.27.44.67.69.68,7.36.25,11.64,7.53,18.84,8.21,3.41.32,5.59-1.73,7.85-3.66.96-.82,1.3-2.12,3.14-1.76,7,1.37,7.95.54,8.07-6.42,3.37.81,4.34,2.82,2.99,5.98-.94,5.52-2.3,6.38-7.59,6.79-3.41.27-4.73,3.65-6.39,6.24-1.19-.42-1.99.6-3.01.83-.45.13-.91.22-1.37.27-.48.07-.95.09-1.43.1-1.48.02-2.95.07-4.43,0-6.7-3.55-13.56-5.5-21.39-4.39-3.44.49-5.8-2.79-7.33-5.94l.09.06c-1.17-1.25-.68-2.62-.3-3.99,1.37-4.57-1.78-5.76-5.09-6.96-4.11-1.49-4.87-4.52-2.07-7.23,2.04-1.97,3.56.44,5.34.37Z"/><path class="cls-2" d="m129.06,317.32c8.41.66,16.61-1.92,24.96-1.75,5.79.12,11.23-1.95,16.94-2,.27,2.67,1.52,1.99,3.33,1.27,3.32-1.31,5.77,1.08,8.22,2.75,1.52,1.04-.44,1.89-.63,2.87-2.09,4.3-5.47,4.54-10.03,5.05-5.09.57-10.64.5-15.3,2.1-5.22,1.79-9.29,2.94-13.57-1.14-1.23-1.18-2.72-.97-4.2-.5-5.39,1.7-9.79.59-12.76-4.53-.11-1.68,1.29-2.54,2.03-3.75.18-.54.5-.69,1-.38Z"/><path class="cls-4" d="m126.03,321.44c4.28,3.87,8.86,5.63,14.4,2.46,1.65-.95,2.58.41,3.64,1.61,3.39,3.85,7.65,4.28,11.23.8,1.66-1.61,2.75-1.72,4.69-.88,3.09,1.34,6.38,2.7,8.25-1.91.46-1.13,1.65-1.25,2.51-.57,4.76,3.74,7.9.52,11.12-2.48.48,2.45-3.55,5.79,1.7,7.43,1.27.4.2,2.26-.74,3.27-.97,1.04-1.67,1.63-3.26.51-4.23-3-4.45-2.91-5.5,2.31-.46,2.31-2.29,2.81-3.8,3.29-2.18.69-4.55.44-6.62-.88-.14-.09-.3-.18-.38-.32-.86-1.43,3.21-5.1-1.89-4.47-2,.25-2.47,3.16-4.66,3.79-.85.25-1.48,1.27-2.59,1.16-2.08.65-4.17.61-6.26.03-3.97-2.56-6.05-.21-7.82,2.99-.85-.21-1.45-.76-1.86-1.49q-3.33-5.86-7.18-8.61c-3.08-1.8-4.14-4.85-4.99-8.04Z"/><path class="cls-31" d="m25.03,250.49c1.11,3.98,4.36,6.3,7.39,8.4,2.5,1.73,5.59.91,7.45-1.81,2.32-3.4,5.43-6.27,6.68-10.4.45-1.49,1.21-3.69,3.33-2.82,2.12.87.91,2.81.37,4.31-2.11,5.91-4.22,11.82-6.38,17.71-.8,2.18-1.85,4.27-1.93,6.66-.32.42-.61.41-.88-.04-2.35-1.58-4.74-.64-7.12-.08-4.22-2.08-8.81-3.44-12.58-6.42-.1-.2-.2-.41-.3-.62,2.04-2.99.16-4.56-2.17-5.91-2.76-1.6-3.18-3.1-.08-4.87,2.15-1.23,4.15-2.72,6.22-4.1Z"/><path class="cls-4" d="m118.08,224.42c4.21,8.34,8.28,9.12,15.15,2.87.83-.76,1.74-.76,2.72-.73,1.38,1.95,3.19,1.74,5.1,1,3.44-1,7.09-1.56,8.78-5.5.98-2.28,2.46-1.38,3.97-.32,2.23,1.58,4.98.76,5.32-1.3.78-4.8,4.67-5.84,7.76-7.97.63,1.32-.28,2.68-.96,3.09-3.68,2.21-5.96,4.02-.51,7.06,1.67.93-.19,2.72-1.26,2.7-4.39-.08-2.93,2.89-2.97,5.12-1.29,3.55-4.38,2.17-6.73,2.21-2.6.04-4.68.35-6.72,2.29-5.26,4.97-9.44,5.13-15.49,1-1.15-.79-2.3-1.27-3.69-1.19-1.94.03-3.87.17-5.8-.1-5.8-2.51-6.98-5.12-4.67-10.23Z"/><path class="cls-31" d="m166.17,269.62c-2.28-6.07-5.28-11.78-8.8-17.22-.8-1.24-1.63-2.52-2.13-3.9-.46-1.28-.31-2.73,1.12-3.48,1.37-.71,2.17.44,2.91,1.27,1.87,2.1,3.64,4.28,5.46,6.42,3.71,4.35,8.26,6.23,13.7,3.76,4.75-2.16,4.58-6.77,4.7-11.09,1.02.53,1.99,1.2,3.07,1.57,4.18,1.46,6.14,3.56,2.28,7.42-1.65,1.65-.03,3.52-.54,5.22-4.02.4-5.9,4.05-8.96,5.9-.75-.22-2.01-.82-2.18-.59-2.69,3.57-7.08,3.2-10.63,4.72Z"/><path class="cls-4" d="m42.27,335.4c2.42-1.2,4.65-2.57,5.44-5.42.74-2.68,1.79-3.14,4.09-1.08,4.15,3.72,6.04,3.37,9.36-1.24,1.43-1.98,2.75-2.44,3.99.06,1.67,3.38,3.6,4.2,6.06.76.73-1.02,1.62-1.06,2.6-.65,3.14,1.34,6.17.54,9.2-.4,3.49,2.33,2.1,4.68.03,7.04-3.08,3.89-7.2,4.7-11.83,3.98-.77-6.34-3.24-1.66-5.13-.8-2.03.43-4.05.52-6.07-.06-.74-.21-1.51-.04-2.03-1.01-1.72-3.21-3.35-3.28-5.01.19-1.37,2.86-4.09,2.78-6.83,2.72-2.86-.06-3.27-2.09-3.86-4.11Z"/><path class="cls-47" d="m129.07,233.55c.94-.27,1.94-1.94,2.84-.21,1.74,3.36,4.38,4.37,8.05,4.19,3.91-.19,6.46-2.42,8.48-5.19,1.09-1.49,1.49-1.44,3.25-1.2,3.08.42,6.47,1.29,9.48-.7,1.35.12,2.26.85,2.85,2.04-1.26.34-2.5.74-3.77,1.01-5.15,1.13-10.51.94-14.89,5.12-3.45,3.29-8.45,3.94-13.05,2.36-3.62-1.24-5.11,2.77-8.13,2.47-1.84-1.61-.8-3.9-1.37-5.81-.18-4.84,3.98-3.03,6.26-4.09Z"/><path class="cls-4" d="m26.08,317.66c.92,4.94,2.21,9.49,8.78,8.87,1.21-.12,2.37.26,2.71,1.6.3,1.17-.66,1.71-1.46,2.3-1.14.83-3.18,1.45-2.47,3.13.77,1.82,2.95.58,4.47.95-1.23,1.99-2.88,3.51-5.04,4.42-3.75,1.59-7.92-.3-8.86-4.16-.36-1.49-.89-3.51,1.94-3.33,1.53.1,2.63-.57,2.87-2.07.28-1.81-.95-2.35-2.5-2.98-3.45-1.4-3.57-5.71-.43-8.74Z"/><path class="cls-17" d="m149.21,156.56c-2.46-3.81-2.69-6.96.81-10.83,6.33-7.01,7.37-16.3,8.95-25.2.43-2.42.8-4.82,1.9-7.05,1.01.91.66,1.97.33,3.03-1.4,8.96-2.54,17.97-4.29,26.86-1,5.12-4.27,9.29-7.7,13.18Z"/><path class="cls-21" d="m27,278.25c-5.42-1.01-10.5-3.06-15.79-5.17,3.46-2.71,6.66-5.21,9.86-7.71,0,0-.12.36-.12.36,2.75,1.96,5.06,4.34,6.48,7.44.79,1.72,1.13,3.51-.43,5.08Z"/><path class="cls-48" d="m43.26,120.45c1.65-1.05,1.92.42,2.42,1.37,3.49,6.72,6.39,13.71,12.09,19.14,3.02,2.88-1.33,3.83-2.56,5.56-5.96-7.78-8.78-17-11.94-26.07Z"/><path class="cls-21" d="m178.98,265.48c.67-4.09,4.9-4.78,7.17-7.37.84-.95.7,1.5,1.78,1.46.02,2.7,2.9,3.38,3.82,5.44-8.41,6.54-10.26,6.61-12.78.47Z"/><path class="cls-17" d="m131.02,329.48c1.28.32,2.55.86,3.84.93,2.77.14,4.54.65,3.4,4.15-.6,1.83,1.21,3.33,1.8,5.03-1.11,1.52-2.14,3.13-4.08,3.74-.6-.98-1.77-2-1.69-2.92.34-4.13-1.33-7.54-3.27-10.92Z"/><path class="cls-38" d="m27,278.25c.61-3.56-1.24-6.16-3.38-8.64-1.04-1.2-2.53-2.08-2.67-3.89,4.67,1.56,9.47,2.88,12.99,6.67-2.28.15-3.05,1.81-4.05,3.55-.52.9-.65,3.23-2.9,2.3Z"/><path class="cls-17" d="m71.2,338.46c3.84-1.65,8.32-1.38,11.83-3.98-1.66,3.52-5.02,6.72-2.04,11.09-3.54-1.98-6.94-4.17-9.79-7.11Z"/><path class="cls-46" d="m113.21,36.47c1.74,8.67.48,17.42.67,26.14-.33.37-.55.29-.68-.17,0-8.66,0-17.31,0-25.97Z"/><path class="cls-45" d="m34.89,53.51c0,7.01-.01,14.02-.02,21.02-1.44-7.01-1.33-14.02.02-21.02Z"/><path class="cls-27" d="m38.99,294.46c-.43,6,1.15,12.11-.94,18.03.51-6-1.15-12.11.94-18.03Z"/><path class="cls-59" d="m80.19,85.56c0-5.02,0-10.05,0-15.07,1.32,5.02,1.47,10.05,0,15.07Z"/><path class="cls-13" d="m161.19,116.52c-.11-1.01-.22-2.02-.33-3.03.11-3.66.22-7.32.34-10.97,1.35,4.67,1.31,9.34,0,14.01Z"/><path class="cls-42" d="m103.05,109.36c-3.01.01-6.03.02-9.04.03,3.01-1.36,6.02-1.39,9.04-.03Z"/><path class="cls-39" d="m109.03,335.64c2.67,0,5.33-.01,8-.02-2.66,1.37-5.33,1.31-8,.02Z"/><path class="cls-50" d="m170.98,300.51c-1.75-2.16-.66-4.69-.9-7.05,1.77,2.16.67,4.69.9,7.05Z"/><path class="cls-48" d="m43.95,181.33c-.1,2.41.76,4.91-.75,7.17-.03-2.42-.89-4.93.75-7.17Z"/><path class="cls-36" d="m60.01,337.61c2.02.02,4.04.04,6.07.06-2.03,1.3-4.06,1.23-6.07-.06Z"/><path class="cls-46" d="m147.88,336.58l6.26-.03c-2.08,1.65-4.17,1.25-6.26.03Z"/><path class="cls-12" d="m150.99,170.57c-1.85-1.82-.71-4.03-.8-6.08,1.46,1.87.68,4.04.8,6.08Z"/><path class="cls-1" d="m41.06,272.48c.3.01.59.02.88.04-.08,2.03.76,4.19-.81,6.01-.02-2.02-.05-4.04-.07-6.06Z"/><path class="cls-40" d="m46.87,229.47c.1,1.33.2,2.66.3,3.99-.69-.3-1.37-.6-2.06-.9.59-1.03,1.17-2.06,1.76-3.08Z"/><path class="cls-58" d="m155.12,188.69c-.02-1.76-.03-3.52-.05-5.28,1.5,1.75,1.58,3.51.05,5.28Z"/><path class="cls-37" d="m113.2,62.44c.23.05.46.11.68.17,0,1.66.02,3.32.03,4.98-1.39-1.56-.88-3.37-.71-5.15Z"/><path class="cls-3" d="m91.9,335.34c1.75-1.34,3.5-1.35,5.23.04l-5.23-.04Z"/><path class="cls-56" d="m131.95,100.59c-2.65-6.06-1.54-12.68-2.84-18.97-2.49-11.98-3.61-24.17-4.89-36.32-.37-3.46-.59-6.97.83-10.32,1.63-3.83,4.65-4.54,7.93-2.01,2.99,2.3,4.08,5.77,5.08,8.97,4.03,12.95,7.4,26.08,8.88,39.61-2,3.5-1.94,7.5-2.54,11.31-.56,3.6-1.37,7.12-2.36,10.61-.64,2.27-1.58,4.61-4.39,4.69-2.92.08-3.62-2.38-4.38-4.6-.35-1.02.11-2.41-1.32-2.96Z"/><path class="cls-56" d="m46.98,80.58c-.26-.42-.74-.83-.75-1.25-.07-11.89-1.45-23.88,2.23-35.52,1.14-3.61,2.13-8.18,6.8-8.02,4.6.16,4.91,4.95,5.63,8.34,3.06,14.43,4.87,28.99,4.21,43.81-.28,6.3-.04,12.62-.1,18.93-.02,1.61.48,3.36-.89,4.73-2.25-2.5-1.01-5.2-.66-7.34.46-1.13-.92-.7-.26-.68.19,0,.18.13.13.4-.59,3.6-2.65,3.3-4.95,1.74-2.68-1.82-4.28-4.56-5.56-7.45-2.5-5.6-4.39-11.38-5.09-17.51-.01-.12-.18-.3-.29-.31-.14-.02-.31.1-.46.16Z"/><path class="cls-48" d="m123.9,237.55c.09,1.97.19,3.94.28,5.91-.85,2.8,1.36,5.21,1,7.95.82,1.63-.18,3.52.73,5.14.45,6.33.89,12.65,1.34,18.98-1.04,4.41,1.13,8.58.93,12.93.56,5.02.5,10.03.04,15.05-.51,1.66.6,3.68-1.14,5.07-1.09-21.27-2.55-42.49-4.74-63.69-1.05-10.21-7.47-13.02-15.31-15.41-2.01-.79-4.01-.78-6.02,0-.33,0-.66,0-.99.01.24-2.62-1.47-4.25-2.99-5.98-1.86-1.69-.67-3.97-1.14-5.93.75-1.21,1.96-1.04,3.12-1.04,4.01.8,8.02.82,12.03,0,3.02,1.03,6.06-2.48,9.08.03-.01,2.8.25,5.67-2.04,7.88-.37,4.18-.06,7.99,5.06,9.14.9,1.2-.12,2.77.75,3.98Z"/><path class="cls-2" d="m119.41,173.61c-1.82-.1-3.75.17-5.42-.37-4.23-1.35-8.14-3.5-8.85-8.41-.79-5.45-.38-11.1,5.12-13.94,6.72-3.46,15.68-3.42,20.53,4.3,2.48,3.94,4.73,8.38,1.71,12.97-3.02,4.6-7.79,5.85-13.09,5.44Z"/><path class="cls-2" d="m91.03,163.51c0,7.05-7.41,14.09-14.71,13.98-6.72-.1-11.24-4.59-11.28-11.2-.06-10.35,5.18-17.46,12.87-17.46,6.04,0,13.13,7.94,13.13,14.68Z"/><path class="cls-11" d="m131.95,100.59c1.01-2.69,1.31-.32,1.7.28,1.39,2.17.36,6.68,4.21,6.27,3.66-.39,3.19-4.69,3.83-7.37,1.42-5.92,2.33-11.98,3.31-18,.46-2.85,1.28-.35,1.94-.23.05,1.98.1,3.95.14,5.93,1.2,3.28-.36,6.79.87,10.06-1.18,9.45-1.51,19.07-5.86,27.85-.51,1.04-.95,2.16-1.68,3.02-.95,1.12-2.27,1.69-3.19-.03-1.15-2.16-2.94-4.43-2.97-6.67-.08-7.14-2.97-13.93-2.31-21.11Z"/><path class="cls-11" d="m46.98,80.58c.05-.5-.1-1.16.17-1.46,1.46-1.67.99.54,1.03.69,1.79,6.02,3.11,12.19,5.75,17.96.98,2.14,2.17,4.1,3.72,5.82,2.35,2.61,4.58,3.65,6.46-1.02,0,3.01,0,6.01,0,9.02.35,4.5-.73,8.85-1.37,13.25-.16,1.1-.32,2.05-1.39,2.31-1.1.27-1.87-.62-2.44-1.41-2.03-2.86-3.31-6.11-4.49-9.39-4.15-11.58-6.45-23.54-7.44-35.77Z"/><path class="cls-34" d="m99.09,192.47c1.3-5.48-1.58-8.49-6.16-10.61-.95-.44-3.12-.43-2.27-2.29,1-2.19,2.92-.61,3.68.12,4.07,3.91,7.42,2.12,10.85-.86.89-.77,2.13-2.24,3.22-.37.82,1.39-.77,2.21-1.6,2.56-5.17,2.2-6.6,6.21-5.92,11.39-.58.67-1.18.68-1.8.05Z"/><path class="cls-37" d="m101.05,193.42c2.82.2,4.64-2.85,7.96-2.51-1.97,3.26-5.12,3.71-7.94,4.72-1.69.56-3.38.51-5.08.03-2.33-.53-4.3-1.63-6.46-3.81,2.98-.39,4.44,1.69,6.45,1.86,1.74.82,3.39-.15,5.07-.29Z"/><path class="cls-23" d="m111.04,216.52c-4.01,1.57-8.02,1.56-12.03,0,4.01,0,8.02,0,12.03,0Z"/><path class="cls-29" d="m147.96,97.53c-1.86-3.22-.58-6.71-.87-10.06,1.85,3.22.62,6.7.87,10.06Z"/><path class="cls-22" d="m101.05,193.42c-1.6,1.67-3.31,1.42-5.07.29,1.08-.32,2.48.18,3.12-1.24.6-.02,1.2-.03,1.8-.05.05.33.1.67.15,1Z"/><path class="cls-10" d="m95.99,195.66c1.69-.01,3.39-.02,5.08-.04-1.68,1.28-3.38,1.34-5.08.04Z"/><path class="cls-48" d="m83.03,242.49c1,.35,2.03-3.11,3.02.02.02,16.96-2.4,33.78-3.06,50.7-.07,1.69-.55,3.25-2.04,4.29-2.58-4.04.27-7.98.23-11.97.98-3-.21-6.17.68-9.17.01-8.3.02-16.61.03-24.91-.28-.46-.41-.96-.39-1.49.54-2.48-.41-5.27,1.53-7.47Z"/><path class="cls-48" d="m79.87,303.48c.47-1.34-.49-3.06,1.11-4.1,0,3.03,0,6.06,0,9.1-.21.11-.42.22-.64.33-.46-.22-.71-.59-.78-1.09.07-1.41-.3-2.86.3-4.24Z"/><path class="cls-33" d="m129.06,317.32c-.33.13-.67.25-1,.38-1.95-1.85-.76-4.14-.86-6.25,1.6,1.65.21,4.24,1.86,5.87Z"/><path class="cls-17" d="m80.28,308.44c.23.02.47.03.7.04-.35,1.96,1.07,4.26-1.13,5.85-.29-2-.92-4.02.43-5.9Z"/><path class="cls-54" d="m80.28,308.44c-.14,1.97-.29,3.93-.43,5.9,0,0-.46.06-.46.06l-.46-.07.23-5.71c.17-.53.41-.57.73-.12l.39-.05Z"/><path class="cls-4" d="m101.02,229.47c2.01-1.46,4.01-1.48,6.02,0-2.01,0-4.01,0-6.02,0Z"/><path class="cls-14" d="m125.91,256.55c-1.27-1.57-.92-3.37-.73-5.14,1.24,1.57.88,3.37.73,5.14Z"/><path class="cls-31" d="m82.18,250.53c-.07.32-.16.63-.29.93-5.21.16-9.86-1.45-13.46-5.17-2.19-2.26-4.49-2.87-7.48-2.87-7.32,0-12.8-4.1-13.87-10.02,4.92,5.21,10.5,6.99,17.21,3.43,1.85-.98,3.08.39,4.21,1.65,2.02,2.27,4.32,4.04,7.52,4.18,1.68.54,3.35.59,5.02-.03.3-.13.6-.15.91-.06.99,2.63.66,5.3.22,7.96Z"/><path class="cls-32" d="m63.05,299.51c-3.67,1.6-7.35,1.57-11.02,0,3.67,0,7.35,0,11.02,0Z"/><path class="cls-44" d="m81.86,276.36c.15,3.09.78,6.21-.68,9.17-.02-2.98-.04-5.97-.06-8.95.25-.08.49-.15.74-.22Z"/><path class="cls-16" d="m128.22,303.51c-.01-5.02-.03-10.03-.04-15.05,1.41,5.01,1.39,10.03.04,15.05Z"/><path class="cls-26" d="m58.03,316.66c-3.66,1.32-7.32,1.32-10.98,0,3.66,0,7.32,0,10.98,0Z"/><path class="cls-35" d="m67.11,316.32c-2.05,0-4.09.01-6.14.02,2.04-1.18,4.09-1.43,6.14-.02Z"/><path class="cls-53" d="m79.89,308.49c-.25.02-.49.06-.73.12-.03-1.74-.65-3.57.71-5.13,0,1.67.01,3.34.02,5.01Z"/><path class="cls-24" d="m141.06,227.56c-2.02,1.29-3.92,1.98-5.1-1,1.6.85,3.33,1.02,5.1,1Z"/><path class="cls-52" d="m82.18,250.53c-.07-2.65-.15-5.31-.22-7.96.36-.02.72-.04,1.07-.07-.27,2.68.74,5.49-.85,8.03Z"/><path class="cls-55" d="m81.05,242.62c-1.67,1.28-3.34,1.32-5.02.03,1.67-.01,3.35-.02,5.02-.03Z"/><path class="cls-43" d="m123.9,237.55c-1.12-1.16-.92-2.58-.75-3.98,1.98,0,3.96,0,5.93,0-1.34,1.83-5.73-.29-5.18,3.99Z"/><path d="m117.45,169.51c-3.3-.06-6.44-3.68-6.44-7.26,0-3.87,1.95-6.25,5.66-6.6,3.33-.32,8.43,4.25,8.37,6.96-.07,3.26-4.14,6.97-7.59,6.91Z"/><path d="m85.03,163.64c.05,5.23-2.1,7.88-6.41,7.87-4.24,0-7.55-3.05-7.59-6.98-.04-3.9,3.12-7.92,6.32-8.03,3.96-.14,7.64,3.28,7.67,7.14Z"/></g></g></svg>