<?xml version="1.0" encoding="UTF-8"?><svg id="Calque_2" xmlns="http://www.w3.org/2000/svg" viewBox="0 0 213.98 331.25"><defs><style>.cls-1{fill:#ec9ea8;}.cls-2{fill:#49372d;}.cls-3{fill:#fff;}.cls-4{fill:#c3a682;}.cls-5{fill:#9a7356;}.cls-6{fill:#7b5c46;}.cls-7{fill:#545252;}.cls-8{fill:#9c9c9c;}.cls-9{fill:#dfa879;}.cls-10{fill:#989898;}.cls-11{fill:#534238;}.cls-12{fill:#d8b990;}.cls-13{fill:#261713;}.cls-14{fill:#5e5c5c;}.cls-15{fill:#f0c190;}.cls-16{fill:#868686;}.cls-17{fill:#927a61;}.cls-18{fill:#909090;}.cls-19{fill:#382a26;}.cls-20{fill:#4e4e4e;}.cls-21{fill:#9e6a71;}.cls-22{fill:#ebb887;}.cls-23{fill:#8d8d8d;}.cls-24{fill:#3d3b3b;}.cls-25{fill:#c7aa84;}.cls-26{fill:#dedede;}.cls-27{fill:#e5b181;}.cls-28{fill:#eab887;}.cls-29{fill:#c9976e;}.cls-30{fill:#ecbe8d;}.cls-31{fill:#372925;}.cls-32{fill:#e1e1e1;}.cls-33{fill:#eab686;}.cls-34{fill:#767676;}.cls-35{fill:#ad9374;}.cls-36{fill:#bfa37f;}.cls-37{fill:#8c8b8b;}.cls-38{fill:#252424;}.cls-39{fill:#3b3b3b;}.cls-40{fill:#fedaa8;}.cls-41{fill:#5d5d5d;}.cls-42{fill:#2c2c2c;}.cls-43{fill:#ac815e;}.cls-44{fill:#785a45;}.cls-45{fill:#202020;}.cls-46{fill:#4f4f4f;}.cls-47{fill:#1c1919;}.cls-48{fill:#5c493c;}.cls-49{fill:#ba926e;}.cls-50{fill:#292929;}.cls-51{fill:#d1d0d0;}.cls-52{fill:#5d5043;}.cls-53{fill:#191919;}.cls-54{fill:#201e1e;}.cls-55{fill:#bfbebe;}.cls-56{fill:#ffdaa7;}.cls-57{fill:#e3aa7a;}.cls-58{fill:#ffdba9;}.cls-59{fill:#372926;}.cls-60{fill:#1f1c1c;}.cls-61{fill:#100f0f;}.cls-62{fill:#010101;}.cls-63{fill:#261c1b;}.cls-64{fill:#ecbb8a;}</style></defs><g id="Calque_1-2"><g><path d="m135.2,3.26c2.48-.08,4.7-.94,6.81-2.17,3.05-.56,6.1-.57,9.15,0,8.69,1.72,16.68,4.77,22.86,11.54,4.9,5.36,7.71,16.65,3.8,24.27-3.8,7.41-7.77,14.6-16.36,17.56-2.13.73-.58,2.2-.27,3.14,2.42,7.26,6.38,13.93,8.28,21.41.7,2.76,1.59,5.48,2.4,8.22-.35,1.19-1.2,1.57-2.36,1.44-1.78-.61-2.59-2.1-2.93-3.73-1.87-9.05-6.56-16.89-10.53-25.04-.81-1.83-1.34-3.74-1.46-5.75.82-3.55,4.19-3.63,6.68-4.91,4.39-2.08,7.69-5.28,9.9-9.6,1.25-2.73,2.39-5.5,3.81-8.15,1.24-2.54,1.23-5.08-.05-7.61-3.74-10.58-12.63-14.7-22.32-17.8-4.52-1.09-8.94-.86-13.24.99-2.55,1.1-4.28,3.04-5.59,5.41-.89,1.51-1.47,3.14-1.94,4.82-.67,1.87-.69,3.75-.06,5.64.14.42.23.84.32,1.27.32,2.46,1.44,4.59,2.79,6.61.77,1.21,1.58,2.39,1.83,3.84-.05,2.14-1.23,3.17-3.28,3.33-1.78-.14-3.11-1.31-4.64-2.04-2.28-1.24-4.65-2.19-7.27-2.44-1.75-.09-3.43-.54-5.14-.86-2.64-.09-5.22-.45-7.68-1.44-4.38-1.01-8.75-1.15-13.1.12-3.47,1.37-7.18,1.61-10.8,2.25-6.3,1.07-11.69,4.01-16.45,8.16-1.5,1.31-2.78,2.9-5.08,1.88-1.53-1.99-.58-4.71-1.99-6.74-.8-9.16-5.7-15.18-14.38-17.77-8.74-2.61-16.47,1.5-20.22,10.21-1.39,3.23-2.21,6.62-2.71,10.1-.81,3.44-.76,6.89-.07,10.33,1.47,7.02,3.43,13.68,11.68,15.63,3.48.78,6.95.74,10.42-.07,2.28-.25,4.9-1.09,6.33,1.43,1.36,2.39-.21,4.39-1.64,6.33-4.8,6.5-6,14.34-7.99,21.88-.8,1.17-1.92,1.68-3.33,1.55-1.31-.82-.35-2.38-1.1-3.38,1.5-7.22,3.36-14.32,6.85-20.88.5-2.11-1.16-1.44-2.09-1.54-1.96-.2-3.96.26-5.91-.29-11.35-1.14-16.62-9-17.8-19.05-.91-7.81-1.26-16,2.75-23.49,3.73-6.98,8.61-12.44,16.9-13.76,2.41-.58,4.81-.64,7.21.03,9.38,2.27,16,7.63,19.05,16.99,1.03,1.95-.47,4.26.87,6.17,8.49-5.62,17.76-9.11,27.92-10.13,5.06-.74,10.12-.72,15.17-.01,5.23-.5,10.13,1.44,15.18,2.2,1.18.18,2.4,1.6,3.47.33.77-.92.03-2.05-.63-3.08-.36-.56.01-1.58.05-2.4.55-2.68.57-5.36-.01-8.03.27-3.4,2.57-5.92,3.88-8.86.79-1.92,2.15-3.28,4.07-4.07Z"/><path d="m169.11,267.25c-.45,8.31-3.48,16.02-5.6,23.94-2.23,8.35-4.9,16.58-7.46,24.84-1.78,5.74-9.47,11.41-15.97,11.96-2-.54-4.01-.53-6.01,0-4.82-2.82-5.51-8.05-6.86-12.64-2.77-9.42-2.53-9.49-12.18-6.64-.59.17-1.23.21-1.84.31-5.41-.57-10.82-.61-16.23.02-5.89-1.49-6.7-1.05-6.79,5.57-.06,4.16-1.1,8.02-2.27,11.85-1.23,4.04-4.48,5.7-8.41,4.36-1.78-.61-3.61-.84-5.25-.89-11.62-.4-13.67-10.1-17.01-17.87-5.96-13.86-11.25-28.01-15.53-42.51-.4-1.35-1.01-2.87-2.98-3.54-2.24-.76-4.15-2.47-6.22-3.74-8.04-4.94-9.13-2.96-4.34-13.25,1.25-2.68.54-6.35,3.91-7.98,2.08-.73,1.42-2.49,1.5-3.97-.07-1.05.37-1.89,1.02-2.66.87-.76,1.78-.94,2.78-.25,1.19,1.77,1.19,3.86,1.65,5.84.19,1.73-.19,3.38-1.75,4.23-3.18,1.73-4.1,4.83-5.23,7.85-1.98,2.88-.35,4.31,2.01,5.92,4.04,2.76,9.36,3.83,11.86,8.7,5.56,17.94,11.56,35.71,20.14,52.48,2.14,4.18,11.09,7.77,15.54,6.46,1.9-.56,2.54-2.03,2.87-3.71.48-2.44.72-4.93,1.69-7.27,1.14-2.81.11-5.9,1.09-8.73,1.17-2.6,3.34-2.83,5.83-2.64,10.26.78,20.53,1.34,30.62-1.39,3.67-.99,5.13,1.12,6.25,4,2.08,5.4,2.4,11.39,5.46,16.44,2.39,2.25,4.92,2.73,7.66.61,5.96-3.95,9.31-9.36,11.24-16.37,4.23-15.38,9.41-30.51,11.95-46.33.21-1.31.56-2.61,1.3-3.75.88-1.02,2.08-.84,3.16-.66,3.54.57,5.99-.72,7.33-4.06,1.6-4.57,1.16-8.64-2.66-12.05-1.33-1.19-2.63-2.49-3.02-4.38-.07-1.11.2-2.05,1.34-2.53.55-.08,1.03.05,1.46.41,1.86,3.44,6.3,4.37,7.85,8.26.55,1.38,1.08,2.17.55,3.88-1.3,4.24-.98,8.94-3.5,12.86-.5.78-1.27,1.39-1.92,2.08-2.04.62-4.09.58-6.14.03-.6-.03-1.2-.06-1.81-.09-1.55,2.17.18,4.84-1.09,7.04Z"/><path d="m175.16,233.2c-.37-.01-.74-.02-1.12-.03-1.37-.59-1.83-1.71-1.84-3.11,0-.51.07-1.02.18-1.51.63-3.72.63-7.43-.1-11.14-.19-.99-.21-1.98.05-2.96,2.77-3.83,4.56-3.93,6.97-.3,1.47,2.22,2.36,4.77,3.82,7.01,2.99,4.58,5.02,5.18,8.37,1.06,3.73-4.6,8.23-6.41,14.13-6.27-12.2-13.41-23.68-26.82-33.02-42.01-3.02-4.91-5.19-8.96-1.88-14.38,1.02-1.67,1.36-3.81-.41-5.54-2.23-1.93-4.77-3.4-7.23-4.98-1.82-1.17-3.53-2.39-3.61-4.84.58-2.83,3.12-3.77,5.13-5.11,9.69-6.45,17.94-14.35,24.13-24.23,4.47-7.13,3.85-8.73-3.4-12.79-5.63-3.15-11.54-5.98-15.85-11.06-.32-1.04-.21-1.99.57-2.81.61-.33,1.21-.65,1.82-.98,6.89,5.69,14.28,10.56,22.55,14.02,4.06,1.7,2.93,5,2.16,7.88-1.74,6.53-5.77,11.85-9.96,16.96-6.05,7.39-13.27,13.55-21.57,18.74,3.41,2.31,6.54,4.61,9.86,6.61,1.98,1.19,3.08,2.55,1.69,4.61-4.93,7.3-1.45,13.27,2.45,19.55,7.63,12.31,17.49,22.81,26.73,33.81,1.28,1.52,2.75,3.09,4.65,3.45,5.83,1.11,3.23,3.22.9,5.56-1.84,1.85-4.18,2.79-6.54,2.66-4.03-.22-6.79,1.64-9.4,4.25-1.15,1.15-2.42,2.13-3.85,3.03-7.56,4.74-9.67,4.14-12.58-4.07-2.8.33-.5,2.96-1.8,3.97-.04,1.91-.52,3.64-2.02,4.94Z"/><path d="m35.09,235.13c-.34.72-.69,1.44-1.03,2.16-.31.38-.64.38-.98.05-3.55,2.4-6.46,2.01-9.03-1.66-1.62-2.31-3.56-2.97-6.77-1.76-3.69,1.41-7.82,1.83-11.69,2.99-1.32.4-2.98.22-4.32-.21-.75-.24-2.26-1.52-.32-2.49,8.14-4.08,11.15-12.4,15.61-19.35,5.04-7.84,9.06-16.32,13.55-24.51,1.56-2.84,1.36-5.23-.33-8.23-4.71-8.38-3.03-11.08,1.5-16.65.71-.87,1.27-1.86,1.87-2.82,4.35-7.02,10.52-11.18,20.04-11.76-5.56-3.67-10.15-6.69-14.72-9.72-7.37-4.88-14.04-10.46-18.93-17.98-3.98-6.12-3.43-9.05,3.15-11.88,6.28-2.7,11.34-6.71,15.34-12.18,1.15-.68,0-2.31,1.23-2.95.94-.33,1.87-.67,2.81-1,1.57,1.52,1.31,3.38.96,5.24-4.35,6.17-9.59,11.36-16.42,14.81-4.31,2.18-4.63,3.16-1.58,7.06,4.52,5.78,9.82,10.81,15.92,14.93,6.05,4.08,12.07,8.26,19.12,10.55,1.41.46,2.86.99,3.36,2.67-.32,2.24-2.16,2.77-3.89,3.34-2.37.78-4.78,1.5-7.23,1.86-6.86,1.03-12.02,4.4-15.31,10.54q-6.46,7.43-.23,18.15c.59,4.66-1.93,8.34-4.1,12.01-6.34,10.71-11.49,22.11-19.02,32.62,2.02.75,3.53-.11,5.04-.28,1.32-.15,2.73-.8,3.93-.2,3.79,1.9,6.89,5.37,11.72,4.88.41-.04.39,1.18.76,1.74Z"/><path class="cls-16" d="m96.98,309.01c5.41-1.38,10.82-1.33,16.23-.02-5.41,0-10.82.01-16.23.02Z"/><path class="cls-53" d="m109.19,27.17h-15.17c5.06-1.47,10.11-1.68,15.17,0Z"/><path class="cls-3" d="m37.12,70.42c2.49-.04,4.98-.16,7.47-.1,1.99.05,1.84.88.53,1.93-2.26-2.41-5.65.18-8-1.83Z"/><path class="cls-18" d="m151.16,1.09h-9.15c3.05-1.34,6.1-1.57,9.15,0Z"/><path class="cls-3" d="m135.2,3.26c-1.36,1.36-2.71,2.71-4.07,4.07-.28-3,1.08-4.35,4.07-4.07Z"/><path class="cls-34" d="m177.18,228.25v-6.27c1.74.03,1.81,1.14,1.8,2.31-1.86.75-.08,3.15-1.8,3.97Z"/><path class="cls-42" d="m127.25,16.19c1.25,2.68,1.3,5.35.01,8.03,0-2.68,0-5.35-.01-8.03Z"/><path class="cls-10" d="m66.1,37.31c-2.23-1.78-.44-4.13-.87-6.17,1.72,1.85.55,4.12.87,6.17Z"/><path class="cls-20" d="m46.18,14.15c-2.4-.01-4.81-.02-7.21-.03,2.41-1.57,4.82-1.38,7.21.03Z"/><path d="m169.11,267.25c.37-2.35-1.02-4.97,1.09-7.04-.72,2.29,1,4.96-1.09,7.04Z"/><path class="cls-23" d="m172.01,260.29c2.05,0,4.09-.02,6.14-.03-2.04,1.4-4.09,1.44-6.14.03Z"/><path class="cls-41" d="m39.25,96.2c-.42.98.31,2.44-1.23,2.95.08-2.01.16-4.01.24-6.02,1.3.71.68,2.04.99,3.07Z"/><path class="cls-45" d="m134.08,327.97c2-1.25,4.01-1.24,6.01,0-2,0-4.01,0-6.01,0Z"/><path class="cls-32" d="m33.07,237.34c.33-.02.65-.03.98-.05-.69,1.22,1.8,4.12-1.97,3.71.76-1.1,1.16-2.3.99-3.66Z"/><path class="cls-26" d="m63.02,150.27c-14.19-5.01-26.31-13.17-36.55-24.16-.89-.95-1.72-1.97-2.46-3.05-4.02-5.85-4.02-5.89,2.37-8.89,6.4-3.02,10.48-8.78,15.68-13.2,3.85-2.21,7.66-.68,11.47.14,2.74.93,5.6,1.42,8.41,2.08.49.15.95.39,1.35.71,2.29,4.52,4.47,9.08,9.74,11.08,2.84,1.08,5.84.61,8.67,1.44.77.29,1.46.73,2.03,1.3,2.76,2.79,4.79,1.92,6.37-1.24.94-1.87,2.33-3.52,2.8-5.63.47-1.84,1.35-3.5,2.31-5.12.82-1.48,1.34-3.06,1.55-4.74.94-5.12,1.84-10.24,2.81-15.35.19-3.4.5-6.81-.36-10.18-.51-10.54-5.31-19.76-9.1-29.27-.33-1.81.22-4.07-2.39-4.75-1.93-1.63-2.82-4-4.23-5.99-.89-1.25-.91-2.45.74-3.18,3.62-.69,7.41-.54,10.83-2.19,4.69-.59,9.37-.59,14.06,0,2.47,1.45,5.21,1.07,7.88,1.16,1.23,1.32.4,2.53-.36,3.58-5.92,8.19-7.47,17.62-7.88,27.38-.48,3.27-.56,6.55.04,9.82.74,4.92.31,10,2.07,14.78,2.67,9.6,6.37,18.76,11.17,27.51,2.15,3.93,4.03,4.72,6.74.71.46-.68,1.1-1.23,1.79-1.71,1.86-1.21,4.07-1.44,6.11-2.14,7.25-2.5,9.83-5.87,10.27-13.51.08-1.33.01-2.69,1.2-3.66,2.48.52,1.78,2.31,1.64,3.69,6.25-3.49,12.47-7.48,20.32-6.66,6.22,4.3,12.46,8.54,19.25,11.92,3.74,1.86,4.74,4.56,2.72,8.46-6.87,13.32-17.57,22.87-29.99,30.73-.87.55-1.58,1.1-2.05,1.98-1.38,3.94-5.31,3.4-8.21,4.64-1.81.78-3.73,1.33-5.66,1.82-6.43,2.11-12.95,3.88-19.7,4.69-7.56.32-14.92,2.48-22.52,2.35-7.14.68-14.17-.97-21.28-.95-5.34-.24-10.6-1.05-15.77-2.43-1.9-.73-3.13-2.12-3.89-3.97Z"/><path class="cls-60" d="m170.11,91.03c-7.12,1.92-14.22,3.9-20.43,8.02-1.39-1.56.42-3.81-1.54-4.96-2.42-3.31-4.54-6.82-8.36-8.93-9.65-5.31-16.37-2.94-20.81,7.57-.94,2.83-.52,5.73-.43,8.61,1.55,5.45,4.79,9.23,10.42,10.75.99.27,2.46.33,2.06,2.08-5.1,7.07-6.73,6.97-10.93-.86-4.43-8.27-8.06-16.87-10.12-26.07.13-2.44-.04-4.94,2.45-6.57,1.1-.72,1.12-1.97.5-3.1-1.83-3.33-1.82-7.62-5.31-10.08.13-1.79-.34-3.62.35-5.37-2.15-3.17.04-6.39.38-9.39.82-7.22,3.27-14.12,8.41-19.67.57-.61.34-1.2.26-1.83,1.61.77,3.3,1.11,5.09,1.02,1.45,3.1,3.73,4.21,7.01,2.93,1.76-.12,2.63,1.46,3.99,2.09.93.96,2.06,2.07,3.28.88,1.2-1.17.64-2.68-.29-3.95-.67-1-1.34-1.99-2-2.99.54-2.97-.93-5.1-2.94-7-.03-.35-.07-.69-.1-1.04-.63-.83-.41-1.78-.36-2.7,2.69-2.21,1.95-5.43,2.4-8.29.5-2.97,2.83-4.38,5.01-5.94,3.06,1.89,5.03-1.79,7.76-1.52,2.4.23,4.87-.56,7.22.48,5.78,1.11,10.72,3.96,15.53,7.22,3.94,2.67,5.36,6.91,7.45,10.77.81,3,.8,6,0,8.99-1.34,2.67-2.68,5.33-4.02,8-4.72,1.91-7.19,6.09-9.96,9.95-2.26,1.47-5.57,1.14-7,4.04,1.01,1.53-.96,4.2,1.93,5,4.26,8.18,8.89,16.21,10.76,25.41.3,1.46.63,2.96,2.27,3.59.02.94.04,1.88.06,2.82Z"/><path class="cls-60" d="m84.23,32.28c-.93,4,3.33,5.65,4.03,8.91,1.88.73,1.78,2.81,2.79,4.13,2.83,7.48,6.78,14.51,8.45,22.48.52,2.49.21,4.89.65,7.3,1.14,3.64-.23,7.46.76,11.11-1.01,5.32-2.02,10.64-3.03,15.96-1.05.37-1.94,0-2.76-.64-1.84-2.79-2.16-6.2-3.95-9.09-3.16-5.09-7.18-8.26-13.38-7.95-6.29.32-9.73,4.49-12.55,9.44-.75,1.31-.89,2.86-1.53,4.23-.36.66-.87,1.18-1.51,1.58-2.77.69-5.55,1.33-8.15,2.58-4-.44-8-.89-12-1.33,0-1.92,0-3.84,0-5.77.64-8.81,2.89-17.07,8.65-24,1.14-1.38,1.45-2.78.72-3.99-1.25-2.06-3.54-.59-5.32-.99-3.67.74-7.34.76-11.01-.01-7.01-1.22-11.28-6.91-12.04-16.02-.71-3.65-.7-7.3,0-10.95.19-6.74,2.37-12.84,7.19-17.52,5.6-5.42,12.58-6.05,19.45-3.02,6.81,3,11.92,7.87,12.39,16.03.05.83.04,1.66.05,2.5,1.39,1.81-.04,4.07.96,5.95,1.32.04,2.58.03,3.55-1.17,4.53-5.62,10.95-7.87,17.58-9.73Z"/><path class="cls-60" d="m162.08,50.16c1.1-6.11,4.85-9.85,9.96-9.95-1.99,4.65-5.57,7.7-9.96,9.95Z"/><path class="cls-60" d="m129.1,35.19c-1.03,2.22-2.96,2.32-4.9,1.82-2.54-.65-2.03-2.88-2.11-4.75,2.48.64,5.09.94,7.01,2.93Z"/><path class="cls-60" d="m153.08,5.22c-3.69.48-7.79-1.41-10.9,2.53-.85,1.07-3.51,1.26-4.08-1.49,4.86-2.22,9.82-3.11,14.98-1.04Z"/><path class="cls-60" d="m136.08,34.21c1.72.99,2.85,2.32,2.19,4.42-.41,1.3-1.52,1.56-2.79,1.58-2.1.03-2.46-1.25-2.4-2.93,1.87-.18,2.96-1.11,2.99-3.07Z"/><path class="cls-60" d="m131.14,24.23c3.49,1.28,6.59,2.72,2.94,7-1.78-2-3-4.23-2.94-7Z"/><path class="cls-60" d="m133.08,12.2c.89,3.05,3.1,6.43-1.98,8.02-.72-.98-.66-1.97-.06-2.98.04-1.94.46-3.72,2.04-5.04Z"/><path class="cls-39" d="m109.12,30.08h-14.06c4.69-1.45,9.37-1.41,14.06,0Z"/><path class="cls-61" d="m35.1,66.21c3.67,0,7.34,0,11.01.01-3.67,1.6-7.34,1.61-11.01-.01Z"/><path d="m23.05,39.23c0,3.65,0,7.3,0,10.95-1.55-3.65-1.55-7.3,0-10.95Z"/><path d="m176.06,32.21c0-3,0-6,0-8.99,1.64,3,1.63,6,0,8.99Z"/><path class="cls-60" d="m157.02,59.2c-5.01.02-1.76-3.15-1.93-5,1.56,1.31.73,3.55,1.93,5Z"/><path d="m63.09,43.17c-1.82-1.74-.69-3.96-.96-5.95,2.36,1.65,1.5,3.83.96,5.95Z"/><path d="m131.04,17.24c.02.99.04,1.98.06,2.98-.02.99-.04,1.98-.06,2.98-1.45-1.99-1.45-3.97,0-5.95Z"/><path class="cls-60" d="m87.13,315.14c-.49,2.59-1.03,5.17-1.46,7.78-.57,3.49-2.64,4.82-6.01,4.2-3.41-.63-6.8-1.34-10.19-2.06-2.46-.52-3.24-2.68-4.22-4.58-7.12-13.92-12.61-28.5-17.27-43.4-1.12-3.59-3.51-6.87-2.88-10.93-.4-1.64.99-2.15,1.86-3,4.22-2.63,8.99-3.16,13.77-3.64,6.57,2.2,11.71-.46,16.35-4.84.43-.3.9-.52,1.39-.7,5.76-1.65,11.83-1.12,17.63-2.51,5.43-.23,10.86-.53,16.23-1.47,2.57-.33,5.15-.26,7.73-.27,2.04.12,4.07.07,6.11.04,4.91.06,9.86-.56,14.71.71.96.22,1.96.25,2.94.4,9.91,1.49,9.45,2.35,13.1-6.97,3.8-1.08,7.4-.44,10.85,1.32,1.59,1.65,1.17,3.59.61,5.46-.57,1.89-.97,3.74-.28,5.66-1.6,11.63-4.33,23.01-7.71,34.23-1.96,6.49-4.16,12.92-5.72,19.51-1.59,6.76-6.17,10.7-11.6,14.11-2.65.89-5.31.64-7.97.02-4.1-4.77-4.15-11.01-5.96-16.6-1.19-3.69-1.79-5.45-6.94-3.97-9.37,2.69-19.32,2.04-29.04.96-2.12-.23-3.92-.77-5.08,1.55-1.37,2.89.3,6.09-.95,8.99Z"/><path class="cls-58" d="m38.17,240.05c-1.7-1.67-.75-3.92-1.25-5.85-.8-1.54-.06-2.65,1.02-3.67,12.36-6.14,25.89-8.31,39.14-11.46,2.17-.28,4.4-.19,6.5-.97,6.58-1.23,13.17-2.33,19.89-2.36,6.05.09,12.09.05,18.13,0,16.14.47,31.82,3.9,47.47,7.5,1.13.26,2.19.75,3.1,1.52,1.34,1.59.69,3.34.41,5.07-.36,1.68-.09,3.58-1.65,4.85-5.45,1.6-10.79-.82-16.21-.43-2.55-.97-5.3-.56-7.92-1.08-.99-.21-1.98-.48-2.99-.61-1.78-.24-3.53.1-5.29.25-2.69-.25-5.44-.1-8-1.2-6.37-2.2-12.94-.56-19.4-1.05-5.75.18-11.51-.48-17.24.41-.53.17-1.08.29-1.63.36-3.78.04-7.44.87-11.09,1.73-4.57.89-9.25,1.36-13.61,3.17-3.89,1.51-8.02,2.09-12.04,3.09-2.33.06-4.39,1.12-6.54,1.84-3.11.19-6.18.94-9.33.67-.82-.33-1.12-1.08-1.49-1.79Z"/><path class="cls-60" d="m38.19,231.21c-.42,1-.85,2-1.27,2.99-.76,0-1.45.15-1.83.92-5.03-.5-9.01-3.33-13.38-5.47-2.34-1.15-6.25.93-10.78,1.81,2.9-4.7,5.36-8.43,7.54-12.31,5.44-9.65,10.82-19.34,16.07-29.09.91-1.69,1.71-3.61,1.52-5.69,4.91-.08,6.12.91,7.01,5.78-.76,3.9-2.7,7.51-2.79,11.57-1.84,9.74-2.7,19.56-2.1,29.47Z"/><path class="cls-57" d="m168.11,256.33c-1.61-.86-3.31-1.16-1.51-3.92.96-1.46,2.09-3.98,1.22-6.33.2-.16.4-.31.59-.47,4.42-.51,7.56,2.14,10.86,4.39.31.74.35,1.47-.06,2.18-3.2,5.61-4.66,6.16-11.11,4.14Z"/><path class="cls-59" d="m38.17,240.05c.37.36.73.72,1.1,1.07.71,1.01,2.09,1.3,2.63,2.5,1.71,3.37,1.13,6.65-.4,9.9-.53.73-1.2,1.25-2.05,1.55-1.95.6-3.96.7-5.93.26-1.57-.35-3.55-.63-2.43-3.16.76-3.85,1.58-7.61,6-9.12,1.32-.45.88-1.93,1.07-3Z"/><path class="cls-60" d="m31.1,252.18c.28,2.36,2.08,1.96,3.63,1.99,1.75.03,3.5.01,5.25.02,3.96,2.28,6.37,5.66,7.12,10.19-.66.59-1.33,1.18-1.99,1.77-3.92-3.27-8.58-5.35-12.93-7.92-2.84-1.68-3.91-3.46-1.08-6.05Z"/><path class="cls-31" d="m179.22,252.19l-.32-2.07c-4-3.42-5.76-8.33-8.42-12.64-.03-.48.04-.94.21-1.39.6-.77,1.24-1.46,2.35-.88.97,1.12,1.77,2.47,2.93,3.32,5,3.67,4.91,8.45,3.25,13.65Z"/><path class="cls-47" d="m173.04,235.21c-.58.33-1.16.67-1.74,1-.74-.58-.82-1.28-.36-2.07.1-1.41.24-2.81,1.25-3.93.18-.44.45-.5.79-.16.35,1.04.7,2.07,1.06,3.11-.81.45-.95,1.23-1,2.05Z"/><path d="m135.11,324.2c2.66,0,5.31-.01,7.97-.02-2.65,2.56-5.31.99-7.97.02Z"/><path d="m87.13,315.14c.37-2.99-.95-6.16.95-8.99-.43,2.99.98,6.17-.95,8.99Z"/><path class="cls-59" d="m38.19,231.21c-1.95-3.38-2.06-6.81-1.53-10.74.87-6.45.66-13.05,2.49-19.4,1.69-.68,3.27,0,4.85.45,11.53,3.29,23.32,5.34,35.08,7.54,6.28,1.17,12.61.5,18.91.67,2.25.15,4.51.06,6.77.08,1.64,0,3.27.06,4.91-.1,19.75-3.37,38.86-8.89,57.19-17,.91-.4,1.78-.91,2.84-.75,3.71,7.03,5.24,14.39,3.42,22.26,0,.98,0,1.95,0,2.93.88,2.54.35,5.15.34,7.73-.38.57-.86.69-1.46.35-8.72-1.71-17.46-3.33-26.16-5.14-7.81-1.63-15.69-2.64-23.65-2.98-6.39-.73-12.79-.74-19.18,0-6.61.72-13.22,1.45-19.83,2.17-1.96.97-4.19-.23-6.14.79-9.01,2.37-17.95,5.03-27.05,6.97-4.19.9-7.52,3.79-11.79,4.17Z"/><path class="cls-60" d="m173.12,214.22c-.38-7.51-1.62-14.87-3.89-22.05-2.91-1.09-2.52-4.03-3.38-6.22-.9-2.31-1.77-4.64-2.63-6.97-.38-4.46-1.44-8.79-2.34-13.16.93-6.19,5.95-9.09,10.19-12.62,2.11.96,2.31,2.63,1.67,4.58-.42,1.26-.77,2.55-1.37,3.73-1.72,3.38-1.99,5.92.83,9.52,5.69,7.27,9.74,15.76,15.74,22.88,5.33,6.32,10.73,12.58,16.2,18.78,1.14,1.29,2.71,2.19,4.08,3.28-1.23,1-2.66,1.21-4.2,1.24-4.23.1-8.26.68-10.51,5.01-.29.56-.89.98-1.38,1.43-4.35,3.93-6.27,3.85-9.35-.77-1.74-2.61-3.12-5.47-4.51-8.29-1.58-3.21-3.27-2.67-5.15-.35Z"/><path class="cls-59" d="m171.08,153.2c-2.48,2.96-4.13,6.64-7.81,8.56-1.34.7-1.15,2.22-1.23,3.52-.79.22-1.33-.2-1.82-.73-3.35-4.5-8.12-7.61-11.76-11.83-.89-1.03-2.7-1.51-2.25-3.43,4.5-2,9.73-2.06,13.82-5.17,2.23,4.79,7.87,5.44,11.04,9.08Z"/><path class="cls-60" d="m173.04,225.23c.03-2.7.05-5.39.08-8.09,1.5,4.01,1.56,8.02-.03,12.03-.74-1.31-.69-2.62-.05-3.94Z"/><path class="cls-52" d="m173.04,225.23c.02,1.31.03,2.63.05,3.94-.04.29-.07.59-.1.88-.27.04-.53.09-.79.16-.06-1.67-.13-3.33-.19-5,.35,0,.69,0,1.04,0Z"/><path class="cls-57" d="m42.25,190.17c.2-4.34-3.51-4.52-6.19-5.79-3.17-2.74-5.1-6.4-5.43-10.35-.3-3.52,2.69-5.82,5.36-7.88,5.48-.8,10.45,1.07,15.44,2.9,1.23,1.79,1.04,3.84,1.11,5.85-.12,1.92-.07,3.85-.09,5.78-.01,1.81-.09,3.63.52,5.38.3,1.98,1.27,3.91.49,5.98-4.14,1.8-7.47-1.23-11.2-1.87Z"/><path class="cls-56" d="m51.23,169.28c-5.28-.07-10.23-1.72-15.24-3.12,2.75-7.86,9.26-10.35,16.6-11.99,3.6-.81,7.76-.49,10.44-3.9,1.43.45,2.25,1.59,3.09,2.72-.73,1.74-2.49,2.53-3.59,3.93-4.01,3.52-6.98,7.9-9.99,12.23-.41.3-.84.33-1.3.13Z"/><path class="cls-3" d="m62.98,98.17c.64-6.82,4.52-11.26,10.49-14.04,5.32-2.47,10.65-1.13,14.6,2.28,3.49,3.02,6.34,7.24,7.02,12.27.12.91-.39,2.04.89,2.55,1.47,1.66-.45,3.38.09,5.06-.65,1.61-2.11,2.89-1.97,4.83-3.36,3.14-5.97,7.69-11.77,6.21-4.23-.26-8.47.12-12.35-2.49-3.97-2.67-6.45-5.99-6.95-10.75-1.72-1.96-.95-3.93-.05-5.91Z"/><path class="cls-58" d="m82.15,155.18c7.35.38,14.71.75,22.06,1.13.99,1.1,1.15,2.45,1.21,3.84,0,1.85-.02,3.71,0,5.57.03.77.01,1.53-.01,2.3-.09,1.75-.03,3.48.48,5.18.2,1.05.17,2.09-.15,3.12-.4,1.04-.96,1.95-1.97,2.52-2.23.94-4.54.77-6.83.38-8.14-1.4-16.29-2.73-24.35-4.5-.5-.2-.87-.56-1.11-1.04-1.11-3.6,1.57-5.93,3.02-8.61,1.66-3.06,3.4-6.12,5.82-8.69.55-.49,1.27-.71,1.83-1.19Z"/><path class="cls-59" d="m104.15,168.1c.04-.64.09-1.29.13-1.93.5-2,.56-3.99-.03-5.99-.01-1.29-.02-2.58-.04-3.88,7.67-.06,15.1-2.71,22.83-2.1,3.36,5.22,7.75,9.92,8.17,16.6-5.82,4.69-13.04,5.33-19.95,6.47-5.03.84-8.55,2.1-7.96,8.17.14,1.43.35,3.85-2.54,3.58-1.26-1.81-1.06-3.88-1.1-5.91-.06-2.42.65-4.69,1.35-6.96-.03-.98-.06-1.96-.08-2.94-.79-1.62.26-3.52-.76-5.11Z"/><path class="cls-3" d="m131.02,114.18c-6.7-1.55-11.58-5.19-13.72-11.97.89-3.31-.37-6.79.75-10.08,2.34-8.17,6.94-11.59,14.33-10.85,6.31.64,16.01,6.42,15.76,12.81-.25,13.71-.84,14.4-17.12,20.09Z"/><path class="cls-58" d="m135.17,170.15c-2.81-5.26-6.15-10.25-8.12-15.93,6.39-1.64,12.78-3.29,19.17-4.93,4.91,4.93,10.88,8.81,14.68,14.83-7.64,4.31-15.41,8.25-24.43,8.7-1.07-.58-1.37-1.54-1.3-2.67Z"/><path class="cls-62" d="m103.01,120.23c-2.73-.39-4.33-2.05-3.8-4.7.52-2.59,2.97-.94,4.52-1.28,1.42-.32,2.96.27,4.37-.53,1.36-.77,3.18-1.2,3.85.34.55,1.28.86,3.27-.8,4.53-3.12,2.39-2.14,4.91-.5,7.73,2.16,3.73,5.08,7.06,6.67,11.91h-7.14c-4.08.74-8.17.66-12.26.04-1.19-.81-1.01-1.84-.45-2.91,1.82-3.42,3.65-6.83,5.48-10.24,1.05-1.62.97-3.26.05-4.9Z"/><path class="cls-60" d="m108.25,68.2c1.56-.07,3.22.14,3.66,1.81.8,3.01,1.08,6.14,3.03,8.78.31.42-.11,2.09-.49,2.2-3.18.95-3.11,4.11-4.49,6.26-2.47-4.75-1.96-9.9-2.03-14.98-.36-1.39-.79-2.79.31-4.07Z"/><path class="cls-54" d="m82.34,117.33c3.17-.39,5.83-1.81,8.12-4,1.04-1,1.85-2.44,3.65-2.21-.11,2.43-1.97,4.01-3.04,5.94-3.2,5.79-4.6,5.77-8.73.27Z"/><path class="cls-13" d="m82.15,155.18l-.96,1.05c-5.58,2.63-11.59,1.31-17.39,1.84-.92.08-1.87-.65-1.74-1.93.86-1.67,2.13-2.83,4.04-3.15,5.37.53,10.55,2.54,16.04,2.19Z"/><path class="cls-60" d="m54.06,102.3c1.61-3.78,4.96-3.08,8.02-3.1.74,1.61.84,3.21-.06,4.8-2.9.59-5.44-.52-7.97-1.7Z"/><path class="cls-38" d="m97.92,138.28c4.09-.01,8.18-.03,12.26-.04-4.08,1.52-8.17,1.53-12.26.04Z"/><path class="cls-24" d="m100.91,86.21c-1.72-3.6-.46-7.41-.76-11.11,1.83,3.6.69,7.4.76,11.11Z"/><path class="cls-37" d="m108.25,68.2c-.1,1.36-.21,2.72-.31,4.07-1.34-3.38-1.35-6.76.02-10.13.1,2.02.19,4.04.29,6.06Z"/><path class="cls-26" d="m91.05,45.32c-1.8-.79-2.14-2.56-2.79-4.13,5.09-1.44,1.91,2.72,2.79,4.13Z"/><path class="cls-60" d="m96.07,106.29c-2.67-1.64.71-3.38-.09-5.06.63.31,1.27.62,1.9.93-.98,1.21-.22,3.19-1.81,4.13Z"/><path class="cls-7" d="m62.02,104c.02-1.6.04-3.2.06-4.8.3-.34.6-.68.9-1.02.02,1.97.03,3.94.05,5.91-.34-.03-.67-.06-1.01-.09Z"/><path class="cls-50" d="m103.01,120.23c1.44,1.65,1.8,3.29-.05,4.9.02-1.63.03-3.27.05-4.9Z"/><path class="cls-26" d="m158.27,36.26c-1.74,2.7-2.57,6.08-5.9,7.68-4.34-4.82-4.55-10.82-4.21-16.8.2-3.57,3.28-2.12,4.71-1.43,2.28,1.1,4,3.19,5.3,5.47.63,1.68.5,3.38.09,5.09Z"/><path class="cls-51" d="m118.05,92.13c-.35,3.35.89,6.82-.75,10.08.13-3.37-1.27-6.85.75-10.08Z"/><path class="cls-14" d="m158.27,36.26c-.03-1.7-.06-3.39-.09-5.09,1.3,1.67,1.4,3.37.09,5.09Z"/><path class="cls-26" d="m43.28,41.2c1.6-4.27,4.3-4.19,6.93-1.27,3.13,3.49,5.91,6.87,4.16,12.63-1.39,4.59-3.14,4.05-6.23,2.63-3.03-1.39-3.76-4.3-4.87-6.99.55-2.33.53-4.67.01-7.01Z"/><path class="cls-55" d="m43.28,41.2c1.25,2.34,1.24,4.67-.01,7.01,0-2.34,0-4.67.01-7.01Z"/><path class="cls-57" d="m96.27,252.21c-5.68,3.15-12.21,1.04-18.09,2.92-3.43-2.69-5.56-6-5.08-10.57,6.59-3.21,13.33-5.8,20.9-4.65,1.53,1.42,1.31,3.51,2.01,5.25.27,2.34,1.8,4.64.26,7.05Z"/><path class="cls-63" d="m96.27,252.21c-.42-2.32-.85-4.65-1.27-6.97-.78-1.59-.22-3.29-.43-4.92.21-1.67,1.5-2.21,2.83-2.24,4.75-.11,9.51-.59,14.24.38.49.35.87.79,1.16,1.32.89,3.84,1.54,7.68-.6,11.36-5.26,1.15-10.52,2.22-15.93,1.08Z"/><path class="cls-63" d="m73,245.25l5.19,9.88c-.36.01-.73.03-1.09.04-4.93,2.32-9.65,5.33-15.49,4.61-3.25-1.56-4.9-4.47-6.37-7.53-.21-1.02-.14-2.01.4-2.92,5.56-1.41,10.03-6.33,16.41-5.12.41.26.73.61.95,1.05Z"/><path class="cls-63" d="m141.2,252.13c-4.97-1.93-10.15-.49-15.21-1-.34-.43-.61-.9-.81-1.42-.2-3.62.24-7.09,2.45-10.14,5.24-2.64,10.48-3.34,15.69.11.32.46.52.97.63,1.53-.25,3.8-.57,7.59-2.75,10.92Z"/><path class="cls-57" d="m128.22,240.16c-1.37,3.19-1.75,6.6-2.26,9.98-1.82,1.22-4.01-.11-5.86.86-2.63.04-5.26.08-7.89.12-.05-3.94-.11-7.88-.16-11.82.17-.2.35-.41.52-.61,2.19-1.2,4.77-.58,7.02-1.51,2.52-.4,5.04-.64,7.53.18,1.17.62,1.76,1.47,1.1,2.81Z"/><path class="cls-57" d="m141.2,252.13c-.14-3.82,1.17-7.38,2.04-11.01,1.14-2.21,3.09-1.27,4.72-1.07,2.4.3,4.76.86,7.21.66,1.73.54,2.49,1.68,2.19,3.5-.07.32-.17.63-.2.95-.56,7.33-3.35,9.61-10.27,7.77-1.93-.51-3.77-.71-5.69-.8Z"/><path class="cls-57" d="m56.05,252.23c1.73,2.31,3.45,4.63,5.18,6.94.24.35.18.62-.23.8-4.42,2.15-9.8,1.25-13.9,4.4-2.37-3.4-4.75-6.79-7.12-10.19.35-.35.7-.71,1.05-1.06,4.7-.71,8.84-3.66,13.78-3.39,1.01.54.57,1.79,1.24,2.5Z"/><path class="cls-19" d="m157.36,244.21c-.7-1.07-1.39-2.14-2.09-3.21-2.91-1.57-3.72-4.04-3.04-7.14.76-.42,1.56-.31,2.36-.18,4.08.17,8.29-.46,11.93,2.16,1.51,3.29,3.15,6.57,1.83,10.36l-.24-.13s-.27.02-.27.02c-3.49-.63-6.98-1.26-10.47-1.88Z"/><path class="cls-60" d="m61,259.97c-.03-.29.05-.56.23-.8,3.86.09,7.25-1.59,10.69-2.98,1.71-.69,3.36-1.15,5.18-1.02-.04,1.13.14,2.48-1.17,2.96-3.8,1.4-7.62,2.77-11.49,3.92-1.59.47-2.78-.57-3.43-2.08Z"/><path class="cls-29" d="m120.1,251.01c1.77-1.51,3.91-.57,5.86-.86.01.33.02.65.03.98-1.96-.04-3.93-.08-5.89-.12Z"/><path class="cls-59" d="m72.19,245.13c-3.32-.84-5.97.93-8.8,2.16-2.3,1-4.39,2.97-7.24,1.9-2.05-1.97-1.01-4.79-1.97-7.06-.22-1.45-.12-2.83,1.02-3.93,3.86-1.45,8.16-1.3,11.91-3.18,2.08-.55,4.09-.87,5.17,1.68.86,2.81,1.91,5.63-.08,8.42Z"/><path class="cls-58" d="m55.19,238.21l.06,3.96c.38,2.67.86,5.34-.31,7.95-3.46,1.12-6.94,2.22-10.39,3.37-1.26.42-2.49,1.17-3.52-.37.43-3.3.98-6.61-.06-9.91,1.83-3.29,5.48-1.75,8.07-3.03,1.83-1.33,3.73-2.48,6.15-1.98Z"/><path class="cls-59" d="m128.22,240.16c-.19-.72.14-1.67-.88-2.04-2.43-2.37-3.12-4.82-.36-7.45,1.43-.63,2.81-.52,4.14.32,2.64.47,5.43-.39,7.97.92.81-.26,1.59-.28,2.33.22,1.23,2.55,3.72,4.87,1.46,8.06-4.88-2.19-9.77-1.73-14.66-.03Z"/><path class="cls-40" d="m142.87,240.19c.74-2.99-2.03-5.13-1.93-7.97.81-1.03,2.3-.05,3.12-1.04.83.01,1.59.18,2.03,1,1.34.96,2.87.34,4.3.51.98.12,2.06.07,1.76,1.58,1.04,2.24,2.07,4.48,3.11,6.73-1.98,2.27-4.15.58-6.3.39-1.89-.17-3.78-1.15-5.72-.28-.1-.32-.22-.62-.37-.92Z"/><path class="cls-27" d="m166,236.3c-3.77-1.81-7.88-1.95-11.92-2.39-.2-.19-.26-.38-.19-.57.07-.19.14-.28.21-.28,5.67-.46,11.22,1.03,16.85,1.08.12.69.24,1.38.36,2.07l-.43-.08c-1.57,1.67-3.23.66-4.87.17Z"/><path class="cls-64" d="m131.12,231c-1.34.07-2.68.13-4.02.2-5.21.5-10.42,1.05-15.57-.44-.57-.37-.73-.87-.48-1.5,5.38-.04,10.77-.1,16.15-.09,1.54,0,3.43-.52,3.92,1.83Z"/><path class="cls-33" d="m71.24,237.17c-.32-2.75-2.64-1.66-4.14-2.14,4.48-1.78,9.12-2.73,13.94-2.88.44-.45.86-.43,1.25.06-2.77,3.68-7.28,3.51-11.05,4.97Z"/><path class="cls-9" d="m111.04,229.26c.01.28.01.56,0,.84-.21.91-.75,1.46-1.69,1.6-3.85-.08-7.7-.21-11.55-.13-1.7-.15-3.51.07-4.76-1.5,5.93-1.86,12-.59,18.01-.81Z"/><path class="cls-4" d="m103,217.11c6.39-1.51,12.78-1.59,19.18,0-6.39,0-12.79,0-19.18,0Z"/><path class="cls-28" d="m49.04,240.19c-2.69,1.01-5.38,2.02-8.07,3.03-1.52.08-2.02-.68-1.7-2.09,3.24-.49,6.44-1.35,9.77-.94Z"/><path class="cls-22" d="m82.16,232.2c-.37-.02-.75-.04-1.13-.06,3.55-1.64,7.29-2.18,11.18-1.9.04.59-.18,1.07-.65,1.43-3.09,1.03-6.14,2.75-9.4.52Z"/><path class="cls-30" d="m154.09,233.07c-.01.28-.02.56-.01.84-.64.12-1.28.24-1.92.36-1.48-2.26-4.54.04-6.06-2.09,2.66.36,5.49-.87,8,.89Z"/><path class="cls-44" d="m91.88,231.25c.11-.33.22-.67.33-1,.27-.06.55-.12.82-.18,1.7.09,3.4.18,5.1.27-.91,2.76-3.1,1.82-5,1.73-.49-.15-.91-.43-1.25-.81Z"/><path class="cls-17" d="m77.03,220.07c1.88-1.57,4.07-.72,6.14-.79-1.87,1.62-4.07.67-6.14.79Z"/><path class="cls-30" d="m144.06,231.18c-.75,1.21-2,.95-3.12,1.04-.62-.1-1.23-.21-1.85-.31,1.49-1.4,3.31-.5,4.97-.73Z"/><path class="cls-58" d="m42.25,190.17c4.08-1.83,7.14,2.02,10.91,1.96,3.18-.66,5.64,1.54,8.5,2.18,3.73.84,7.42,1.6,11.26,1.48,1.99,1.49,4.24,2.34,6.71,2.61,3.64.7,7.26.7,10.86-.26,5.3-.28,10.58-.98,15.9-1.01,1.56.32,3.12.66,4.72.66,2.53.01,5.07.38,7.53-.53,6.4-1.97,12.86-3.76,18.97-6.56,7.47-2.15,14.41-5.51,21.23-9.16,1.71-.92,3.11-2.5,5.27-2.45,3.17,3.78,2.89,8.92,5.12,13.07-5.69,4.86-12.95,6.47-19.7,8.78-10.23,3.5-20.85,5.89-31.33,8.64-2.63.69-5.36.96-8.05,1.42-1.71-.68-3.5-.2-5.25-.34-2.27.18-4.58-.4-6.82.36-11.23.72-22.18-.59-33.15-3.26-7.85-1.91-15.88-3.11-23.61-5.61-.76-.25-1.45-.71-2.17-1.08-.16-3.97,1.52-7.42,3.1-10.89Z"/><path class="cls-40" d="m166,236.3c1.58-1.19,3.26.41,4.87-.17,2.68,4.66,5.36,9.33,8.04,13.99-3.78-.61-6.56-3.92-10.56-3.92-.78-3.3-1.56-6.6-2.34-9.9Z"/><path class="cls-12" d="m98.08,211.02c2.23-1.55,4.72-.65,7.1-.73.27.22.34.4.21.55-.11.12-.23.19-.35.19-2.32,0-4.64,0-6.96,0Z"/><path class="cls-35" d="m105.04,211.02c.04-.25.09-.49.14-.73,1.67.2,3.51-.82,4.98.72-1.71,0-3.41,0-5.12.01Z"/><path class="cls-57" d="m164.12,179.09c-7.68,6.06-16.31,10.08-25.87,12.13-.24-6.4-3.06-12.53-1.98-19.06,7.33-.72,13.63-4.49,20.42-6.83,1.39-.48,2.66-1.3,4.21-1.21.38.38.76.77,1.14,1.15.99,4.56,2.82,9,2.07,13.82Z"/><path class="cls-63" d="m73.06,196.09c-5.61,2.87-10.48-.74-15.6-1.89-1.51-.34-2.87-1.35-4.3-2.06-.4-1.97-.8-3.94-1.2-5.9-.66-1.55-.22-3.18-.35-4.76-.16-2.09.36-4.22-.34-6.28-.01-1.97-.03-3.94-.04-5.91.27-.1.54-.17.82-.23,7.07-.72,13.8.14,19.89,4.13.11.32.21.63.32.95,2.05,2.64.72,5.95,1.77,8.79.2.82.31,1.65.36,2.49.09,2.25.04,4.49.09,6.74-.09,1.45-.18,2.9-1.4,3.94Z"/><path class="cls-2" d="m51.27,175.18c1.45,1.9.7,4.06.72,6.13-.37.29-.63.22-.74-.25,0-1.96.01-3.92.02-5.88Z"/><path class="cls-5" d="m51.25,181.06c.25.08.5.17.74.25,0,1.64-.02,3.27-.03,4.91-1.27-1.58-.89-3.39-.72-5.17Z"/><path class="cls-59" d="m71.93,173.18c-6.63-1.38-13.26-2.75-19.89-4.13,1.97-5.37,5.63-9.43,10.02-12.91,1.49,1.66,3.24,1,4.99.59,4.68-1.1,9.43-.33,14.14-.49-2.67,4.45-5.23,8.97-8.09,13.29-.81,1.22-.91,2.4-1.16,3.66Z"/><path d="m85.16,101.29c-1.12,4.75-4.24,7.4-8.97,7.85-4.48.42-6.14-1.09-7.31-5.86-.39-2.06-.49-4.11.06-6.16.44-3.13,1.14-6.2,4.85-6.89,5.56-1.03,8.26.46,11.38,5.86.62,1.73.63,3.46,0,5.2Z"/><path class="cls-8" d="m68.94,97.13c-.02,2.05-.04,4.11-.06,6.16-1.37-2.07-1.17-4.12.06-6.16Z"/><path class="cls-46" d="m85.16,101.29c0-1.73,0-3.46,0-5.2,1.5,1.73,1.4,3.47,0,5.2Z"/><path class="cls-57" d="m72.94,183.24c-1.75-2.92-.61-6.06-.69-9.11,8.01-.31,15.56,2.52,23.39,3.51,2.82.36,5.6.47,8.41.53,1.19,1.52-.05,3.45.88,5.02.12,1.99.25,3.98.37,5.97,2.86,2.62,2.59,5.78,1.6,9.08-5.6.58-11.2,1.25-16.84,1.03-3.64.67-7.27.63-10.91.02-2.33-.49-5.66.94-6.08-3.19.06-1.29.12-2.59.18-3.88.75-1.77.18-3.64.38-5.45.3-1.27.83-2.59-.68-3.52Z"/><path class="cls-49" d="m104.93,183.18c-1.43-1.47-.65-3.33-.87-5.02.31-.67.63-1.34.94-2.01-.02,2.34-.05,4.68-.07,7.02Z"/><path class="cls-11" d="m104.25,160.19c1.27,1.99,1.34,3.98.03,5.99-.01-2-.02-3.99-.03-5.99Z"/><path class="cls-25" d="m104.15,168.1c1.5,1.52.87,3.35.76,5.11-1.31-1.55-.76-3.37-.76-5.11Z"/><path class="cls-63" d="m106.9,198.23c-.53-3.03-1.06-6.05-1.6-9.08,1.58-2.26.72-4.82.71-7.22,0-2.95.87-4.41,4.03-5,6.28-1.16,12.69-1.87,18.73-4.13,2.16-.81,4.26-1.76,6.39-2.65,1.05.3.92,1.24,1.1,2.01.89,3.92,1.85,7.83,2.65,11.77.5,2.46.27,4.93-.67,7.3-5.74,4.08-12.69,4.92-19.12,7.16-2.66.84-5.5-.39-8.13.73-1.39-.18-3.03.76-4.11-.89Z"/><path d="m143.56,96.6c-.1,3.78-1.81,6.65-5.48,8.12-3.33,1.33-5.98.05-8.31-2.3-3.21-3.25-4.31-9.02-2.45-12.87,1.97-4.08,7.1-5.18,10.48-2.06,2.71,2.51,5.93,4.8,5.75,9.12Z"/><path class="cls-1" d="m99.98,136.19c1.29-2.75,2.67-5.46,3.83-8.27.86-2.08,2.57-2.32,3.93-1.38,2.75,1.89,4.6,5.15,5.01,8.03.33,2.34-3.16,2.74-5.62,2.45-2.3-.98-4.88.37-7.15-.84Z"/><path class="cls-21" d="m99.98,136.19c2.37.37,4.93-.81,7.15.84-2.36.03-4.71.06-7.07.07-.13,0-.37-.2-.36-.26.04-.22.18-.43.28-.64Z"/><path class="cls-58" d="m82.16,232.2c3.24-.32,6.48-.63,9.72-.95,0,0,.38-.1.38-.1,1.41,2.64,2.57,5.35,2.22,8.46-.19.17-.37.33-.56.5-7.15,1.01-14.13,2.72-20.93,5.15-.27-.04-.54-.08-.81-.12-.32-2.65-.64-5.31-.95-7.96,2.79-3.53,7.52-2.8,10.93-4.96Z"/><path class="cls-6" d="m95.13,240.12c-.04,1.7-.09,3.41-.13,5.11-1.54-1.46-.68-3.43-1.08-5.13,0,0,.23-.11.23-.11l.17.19c.23-.49.51-.51.82-.06Z"/><path class="cls-59" d="m95.13,240.12h-.41s-.41.06-.41.06c-.61-3.03-2.88-5.68-2.06-9.03,1.97-.15,4.07.59,5.87-.82,3.97.14,8.06-1.21,11.87.95,2.81,2.25,2.92,4.9,1.2,7.84-5.3,1.2-10.83-1.27-16.07,1Z"/><path class="cls-58" d="m111.2,239.12c-.15-2.65.09-5.37-1.2-7.84.35-.4.7-.79,1.04-1.19,5.33.73,10.83-1.19,16.05,1.1-2.4,2.4.36,4.61.24,6.93-2.74.03-5.49.06-8.23.1-2.22,1.09-4.7-.14-6.95.76,0,0-.12.32-.12.32-.28-.07-.56-.13-.84-.18Z"/><path class="cls-48" d="m54.94,250.12c.1-2.65.21-5.3.31-7.95,1.66,2.17.47,4.7.9,7.03-.03,1.01-.06,2.03-.1,3.04-.37-.7-.74-1.41-1.11-2.11Z"/><path class="cls-15" d="m112.16,238.98c2.17-1.54,4.63-.54,6.95-.76-2.15,1.74-4.6.77-6.95.76Z"/><path class="cls-58" d="m79.14,199.28c3.64,0,7.27-.02,10.91-.02-3.63,1.49-7.27,1.46-10.91.02Z"/><path class="cls-36" d="m111,199.12c2.58-1.62,5.38-.88,8.13-.73-2.6,1.45-5.41.62-8.13.73Z"/><path class="cls-43" d="m74.13,186.17c-.33,2.01.7,4.21-.89,6.03,0-2.35-.02-4.7-.03-7.05.82-.13,1.32.03.91,1.01Z"/><path class="cls-57" d="m74.13,186.17c-.3-.34-.61-.68-.91-1.01-.09-.64-.18-1.28-.27-1.92,2.16.26,2.82,1.13,1.19,2.93Z"/><path class="cls-57" d="m76.35,179.54c.46.33.97.5,1.11.83.31.74-.2,1.25-.88,1.27-.31,0-.84-.52-.91-.87-.06-.31.38-.72.68-1.23Z"/></g></g></svg>