<?xml version="1.0" encoding="UTF-8"?><svg id="Calque_2" xmlns="http://www.w3.org/2000/svg" viewBox="0 0 250.23 364.27"><defs><style>.cls-1{fill:#7e7e81;}.cls-2{fill:#b43d2e;}.cls-3{fill:#ac7c79;}.cls-4{fill:#1b1b1f;}.cls-5{fill:#7d4440;}.cls-6{fill:#83322d;}.cls-7{fill:#fff;}.cls-8{fill:#cd968f;}.cls-9{fill:#b6b6b7;}.cls-10{fill:#96281d;}.cls-11{fill:#956443;}.cls-12{fill:#9a2b1f;}.cls-13{fill:#616164;}.cls-14{fill:#868688;}.cls-15{fill:#8d2218;}.cls-16{fill:#a58886;}.cls-17{fill:#989898;}.cls-18{fill:#e2e2e2;}.cls-19{fill:#1a1a1d;}.cls-20{fill:#896866;}.cls-21{fill:#540f0b;}.cls-22{fill:#ab9998;}.cls-23{fill:#868686;}.cls-24{fill:#d6d6d6;}.cls-25{fill:#b4b4b4;}.cls-26{fill:#59595d;}.cls-27{fill:#cdbbba;}.cls-28{fill:#8a2016;}.cls-29{fill:#aa564e;}.cls-30{fill:#92251b;}.cls-31{fill:#959597;}.cls-32{fill:#cfcfcf;}.cls-33{fill:#891f16;}.cls-34{fill:#c57c73;}.cls-35{fill:#9d5f5c;}.cls-36{fill:#d4d4d4;}.cls-37{fill:#440c08;}.cls-38{fill:#bbbbbc;}.cls-39{fill:#aa9392;}.cls-40{fill:#dadada;}.cls-41{fill:#8d2118;}.cls-42{fill:#131314;}.cls-43{fill:#302f34;}.cls-44{fill:#2b2b2b;}.cls-45{fill:#730f09;}.cls-46{fill:#cb9088;}.cls-47{fill:#2e2e33;}.cls-48{fill:#c5867e;}.cls-49{fill:#881e15;}.cls-50{fill:#adadad;}.cls-51{fill:#636363;}.cls-52{fill:#e78e4b;}.cls-53{fill:#6a6a6d;}.cls-54{fill:#995753;}.cls-55{fill:#bbb;}.cls-56{fill:#17171a;}.cls-57{fill:#d2d2d3;}.cls-58{fill:#c2c2c2;}.cls-59{fill:#d4b3ae;}.cls-60{fill:#cecece;}.cls-61{fill:#161618;}.cls-62{fill:#57575b;}.cls-63{fill:#949496;}.cls-64{fill:#404040;}.cls-65{fill:#861c14;}.cls-66{fill:#8a1f16;}.cls-67{fill:#ffa74b;}.cls-68{fill:#d0d0d0;}.cls-69{fill:#eeba87;}.cls-70{fill:#3c3c3c;}.cls-71{fill:#94261c;}.cls-72{fill:#222226;}</style></defs><g id="Calque_1-2"><g><path d="m118.22,1.06c9.33.25,18.57.99,27.75,2.96,9.89,2.11,17.7,7.78,25.22,13.88,17.1,13.87,26.42,32.89,34.1,52.89,3.33,8.67,4.29,17.89,5.79,26.98.18,1.12-.21,2.43,1.64,2.36,9.08-.35,14.41,5.58,18.78,12.13,5.9,8.84,11.58,17.91,15.14,28.05,1.12,3.18,1.76,6.52,2.61,9.79.54,2.01.52,4.02,0,6.03-1.44,4.43-3.39,8.68-5.03,13.02-2.99,7.95-8.89,11.8-16.54,14.13-3.34,1.02-7.6,2.07-9.32,4.56-2.16,3.14,2.42,5.77,3.72,8.78,7.17,16.67,16.03,32.63,21.2,50.14,1.29,4.38,3.76,8.84,2.01,13.48-2.57,6.81-7.89,10.4-15.18,11.01-2.01.5-4.02.52-6.04,0-4.26-.04-7.77-1.87-10.89-4.6-.98-.86-1.82-2.17-3.35-1.44-1.35.65-.65,2.03-.72,3.09-1.67,25.74-6.48,50.69-19.05,73.59-4.17,7.6-8.37,15.18-16.22,19.99-7.26,4.45-16.92,2.59-21.08-4.71-.89-1.56-1.37-2.56-3.64-1.69-7.36,2.82-15.1,3.78-22.97,3.74-3.7.53-7.39.61-11.08-.05-.31-.1-.62-.19-.94-.27-2.02-.54-4.04-.51-6.07-.02-4.11-.64-8.41-.71-12.25-2.09-3.13-1.12-5.22-.63-7.56,1.2-2.41,1.89-5.14,3.2-8.13,3.91-2.34-.56-4.68-.51-7.03-.03-8.24-3.46-13.24-10.21-17.31-17.66-8.97-16.41-15.33-33.83-18.46-52.28-.56-3.29-1.27-6.7-1.28-10.16,0-3.02-1.37-4.24-4.53-2.54-3.54,1.91-7.15,3.81-11.33,3.99-2.37.55-4.75.61-7.11-.04-6.81-.46-10.86-3.82-12.1-10.05-.49-1.69-.55-3.38.04-5.06.67-7.75,3.77-14.84,6.17-22.09,5.59-16.93,10.53-34.05,15.69-51.1.68-2.25.1-3.77-1.64-5.13-7.72-6.05-7.97-14.95-8.94-23.57.77-5,.16-10.03.35-15.04.18-2.36-.39-4.77.36-7.1-2.46-3.15.05-6.31.32-9.32.7-7.74,1.54-15.55,6.61-22.21,2.08-2.73,4.45-4.21,7.44-5.54,2.08-.92,4.72-1.41,5.91-3.86.27-2.66.73-5.32.02-7.99.19-11.71,3.26-22.9,7-33.81,4.76-13.89,11.69-26.71,22.85-36.69,13.05-11.66,27.64-20.47,45.19-23.56.6-.11,1.16-.5,1.73-.76,2.65.97,5.5-.31,8.14.76Z"/><path class="cls-51" d="m12.96,151.06c-.19,5.04,1.13,10.15-.68,15.12,0-5.01,0-10.01,0-15.02.22-.03.45-.07.67-.1Z"/><path class="cls-50" d="m115.08,359.16c3.69.02,7.39.03,11.08.05-3.7,1.58-7.39,1.25-11.08-.05Z"/><path class="cls-42" d="m33.31,95.12c1.33,2.67,1.27,5.33-.02,7.99-1.2-2.67.29-5.33.02-7.99Z"/><path class="cls-64" d="m118.22,1.06c-2.72-.17-5.54.76-8.14-.76,2.73.1,5.58-1.13,8.14.76Z"/><path class="cls-44" d="m73.1,361.86c2.35-1.33,4.69-1.19,7.03.03-2.34-.01-4.69-.02-7.03-.03Z"/><path class="cls-23" d="m12.96,151.06c-.22.03-.45.07-.67.1-.01-2.4-.91-4.88.71-7.12-.01,2.34-.03,4.68-.04,7.02Z"/><path class="cls-17" d="m13.08,283.17l7.11.04c-2.38,1.51-4.75,1.27-7.11-.04Z"/><path class="cls-70" d="m108.07,358.87c2.03-1.51,4.05-1.09,6.07.02-2.02,0-4.04-.01-6.07-.02Z"/><path class="cls-24" d="m224.08,271.24c2.01,0,4.02,0,6.04,0-2.01,1.27-4.03,1.31-6.04,0Z"/><path class="cls-40" d="m249.25,156.12c0-2.01,0-4.02,0-6.03,1.27,2.01,1.35,4.02,0,6.03Z"/><path class="cls-58" d="m1.01,268.06c-.01,1.69-.02,3.37-.04,5.06-1.39-1.7-1.22-3.38.04-5.06Z"/><path class="cls-47" d="m217.17,197.08c3.87,5.46,6.16,11.73,8.79,17.8,5.13,11.86,11.15,23.38,14.28,36.04,2.64,10.68-4.62,18.03-15.56,15.86-3.53-.7-6.56-2.22-9.13-4.71-.72-.69-1.35-1.54-2.19-2.03-1.79-1.05-3.16-3.47-5.58-2.61-2.45.86-1.26,3.46-1.84,5.24-1.01,3.09-.75,6.24-.88,9.39-1.08,1.55.16,3.5-.89,5.05-1.92,24.94-8.75,48.4-21.72,69.87-3.17,5.24-7.21,9.9-13.31,12.12-1.68.72-3.36.65-5.04.04-4.29-.36-7.2-2.52-7.89-6.83-.55-3.45-2.21-3.34-4.88-2.44-7.49,2.53-15.09,4.67-23.14,4.23-5.03.71-10.06.73-15.09-.01-6.37.11-12.59-.76-18.52-3.09-2.48-.98-4.16-.71-6.22,1.15-7.71,7-14.07,6.83-21.15-.57-8.14-8.51-11.78-19.55-16.38-30.03-6.14-13.98-8.05-28.97-10.67-43.81-1.15-6.47-2.24-6.53-8.25-3.66-6.21,2.97-12.32,6.67-19.88,4.08-5.47-1.87-7.83-4.95-6.2-10.43,5.13-17.18,10.39-34.32,15.79-51.42,2.55-8.06,4.19-16.4,7.48-24.23,4.82-2.07,9.25,1.08,13.92,1.01,2.34.78,5.26.19,6.85,2.8,1.21,3.98-.68,7.83-.51,11.76-.04.56-.15,1.1-.28,1.65-.95,4.59-.9,9.18.02,13.76.34,1.64.43,3.3.44,4.96-.09,1.9-.04,3.81-.05,5.71-.02,2.1-.07,4.19.31,6.27,2.74,20.03,6.65,39.85,16.35,57.79,9.69,17.91,25.77,26.69,45.7,28.9,3.85.12,7.72-.26,11.55.28,2.53.79,5.08,1.06,7.66.18,14.63-3.03,27.73-9.48,38.79-19.34,7.18-6.41,12.57-14.5,15.24-24.07,3.77-13.48,5.25-27.35,7.18-41.16.91-3.8.31-7.66.46-11.48.01-4.39.08-8.78-.07-13.16-.16-2.05,1.39-2.8,2.79-3.65,3.37-2.05,6.54-4.41,10-6.33,4.81-2.66,8.65-6.38,11.73-10.91Z"/><path class="cls-21" d="m217.17,197.08c-.7,4.26-3.51,7.01-6.89,9.18-5.66,3.64-11.47,7.05-17.21,10.56-.15.23-.29.47-.44.7-18.39,7.68-37.04,9.89-56.25,3-3.89-1.39-7.66-3.21-11.78-3.82-2.56,1.89,0,5.69-2.79,7.48-1.06.14-1.98-.26-2.79-.85-15.16-10.88-32.21-13.15-50.23-11.03-1.82.21-3.65.21-5.38-.59-1.49-.98-2.01-2.43-2.05-4.13.33-2.12.78-4.25-.11-6.36-.5-2.75-3.62-2.75-4.92-4.67-2.1-6.35-2.6-13.05-4.24-19.5-.33-1.3-.12-2.66.69-3.83,4.25-2.31,7.98.92,12,1.11.75.36,1.31.92,1.7,1.66.71,5.26,1.54,10.49,2.82,15.67.87,3.5,2.78,4.96,6.29,5.05,3.53.1,6.91-.88,10.4-1.06,2.85-.14,2.19-2.3,1.95-4.11-.57-4.37-3.24-8.51-1.46-13.14.28-.47.67-.81,1.17-1.04,5.22-.65,10.14,1.13,15.15,2.02,3.12.56,4.25,3.47,5.01,6.26.87,3.19,1.45,6.47,2.64,9.58,1.6,4.19,6.65,6.55,10.95,5.28,1.78-.53,2.13-1.85,2.44-3.35.68-3.26.69-6.59,1.21-9.86.41-2.57.28-5.35,2.14-7.53,5.8-1.78,11.66-2.96,17.76-1.98,2.3,5.51.37,11.07-.06,16.55-.5,6.29-.76,6.34,5.46,5.15,3.59-.69,7.18-1.44,10.81-1.8,4.3-.43,6.04-2.85,6.35-6.87.3-3.82.1-7.64.21-11.45.07-2.31-.07-4.71,1.87-6.49,5.45-2.87,11.47-3.54,17.43-4.47.55.09,1.02.33,1.41.72,1.24,6.16-.98,12.07-1.43,18.11-.32,4.23.57,4.81,4.46,3.72,10.17-2.85,10.29-2.76,10.28-13.49,0-4.33.46-8.57,1.57-12.75.23-.51.56-.93,1-1.28,2.75-1.52,5.55-2.98,8.53-3.93,3.78-1.2,6.02.35,5.91,4.08-.21,6.6-.63,13.19-2.56,19.57-3.9,1.99-4.47,4.68-1.97,8.29,1.2,1.73,1.99,3.74,2.97,5.62Z"/><path class="cls-47" d="m33.92,110.34c3.09-.51,4.32-2.07,4.23-5.45-.64-23,4.51-44.91,17.71-63.6C72.32,17.97,94.48,3.28,124.73,5.22c2.8.18,5.58.63,8.37.96,2.23,1.23,4.81-.27,7.04.91,11.28,1.07,20.27,7.06,28.39,14.17,21.04,18.41,32.08,42.39,37.43,69.35.29,1.45.14,2.98.2,4.47,1.17,2.24-.34,4.82.92,7.05.72,1.87,2.36,2.06,4.03,2.19-.61,2.23-2.96,3.7-2.77,6.29-.24,2.98-2.47,4.47-4.55,6.07-1.16.89-2.42,1.6-3.66,2.36-3.52,2.47-7.52,3.84-11.6,5.03-2.1.25-4.27.74-5.77-1.42-.4-1.69.6-2.86,1.59-3.98,7.33-8.29,8.67-17.79,7.99-28.7-1.38-22.16-12.62-38.74-27.46-53.69-4.63-4.66-10.06-8.18-16.76-9.25-2.69-.79-5.37-.89-8.03.12-4.34,1.41-6.62,4.67-7.95,8.81-2.96,9.26-4.4,10.34-13.95,10.51-.82.01-1.65.05-2.48.03-4.14-.21-8.31.35-12.43-.37-.52-.16-.99-.43-1.4-.79-1.48-1.93-.55-4.57-1.92-6.54-4.4-10.72-15.8-13.43-24.56-5.65-15.9,14.12-22.69,32.75-25.88,53.1.03,5.94-.11,11.87.11,17.8.33,5.45,3.13,10.49,2.74,16.07-4.22,1.91-7.84-.23-11.56-1.71-2.79-2.26-8.32-2.21-6.88-8.07Z"/><path class="cls-45" d="m189.07,122.94c3.62-1.62,7.25-3.24,10.87-4.87,11.59,4.33,15.77,13.82,17.38,25.06.19,1.31.12,2.65.12,3.97,0,2.22-.21,4.46.45,6.64.41,1.6.54,3.55,3.05,2.85,2.08-.58,4.32-1.07,4.76-3.75.28-1.66.14-3.33-.25-4.96-2.28-9.45-5.97-17.88-14.72-23.44-3.12-1.98-7.39-3.52-7.65-8.38,1.2-2.12,4.66-2.65,4.15-5.95,1.19-.54,2.31-.12,3.32.43,13.41,7.38,23.98,17.1,26.81,33.05.65,3.65.92,7.44,6.33,6.1.41-.1.74.56.88,1.06-.16,2.14.43,4.31-.39,6.41-1,5.39-3.69,10.08-6.14,14.88-2.67-.37-2.06-2.61-2.22-4.22-.26-2.63.05-5.3-.14-7.94-.12-1.6.83-4.25-2.01-4.18-2.46.06-4.5,1.55-4.31,4.45.29,4.35-.46,8.58-1.18,12.82-.36,2.12-.71,4.26-2.14,6.01-3.29,1.4-6.59,2.79-9.88,4.19-1.2-.84-.97-1.89-.61-3.09,1.69-5.59,1.38-11.43,2.01-17.15.4-3.58-2.22-3.02-4.37-2.32-3.11,1-5.59,3.7-9.19,3.41-1.31-1.39-1.12-3.06-.89-4.74.94-3.83.87-7.68.2-11.54-1.64-8.17-5.1-15.3-11.57-20.8-1.23-1.04-2.54-2.17-2.69-4.01Z"/><path class="cls-2" d="m33.92,110.34c.15,4.54,4.42,4.87,7.04,6.89-.33,4.72-4.35,6.7-7.36,9.1-3.82,3.04-6.5,6.36-6.72,11.34-.65,2.3-.37,4.65-.32,6.99-.14,5.65.38,11.31-.32,16.94-.14.54-.38,1.03-.71,1.48-3.69,1.5-5.95-.85-8.28-3.06-.46-11.59-.62-23.2,2.08-34.54,1.53-6.41,3.89-12.74,11.18-15.06,1.04-.33,2.27-.07,3.4-.08Z"/><path class="cls-2" d="m244.06,150.07c-6.21,1.92-6.59,1.97-7.45-4.12-2.55-17.99-14.53-28.04-29.38-35.83.06-2.76,1.19-4.8,3.87-5.8,6.66-1,11.15,2.82,14.61,7.49,7.99,10.76,14.79,22.24,18.47,35.3.51,1.01.64,2.01-.13,2.97Z"/><path class="cls-21" d="m43.09,194.15c-4.82.31-9.31-1.56-14.01-2.06.3-2.04-.86-3.45-2.11-4.82-.18-6.33-1.14-12.56-2.15-18.8-.29-1.78-.59-3.64.27-5.4h0c4.82-1.48,8.31,2.29,12.54,3.17,1.27.72,2.14,1.76,2.54,3.18,1.08,6.69,2.01,13.41,3.46,20.04.35,1.6.82,3.26-.54,4.69Z"/><path class="cls-21" d="m226.05,178.99c.5-3.57.78-7.19,1.56-10.7.52-2.32.55-4.6.43-6.88-.24-4.41,2.85-8.05,7.05-8.11,1.97-.02,1.99,1.33,2,2.69.02,3.8-.04,7.6.04,11.4.03,1.58-.59,3.35.92,4.65-2.82,4.35-7.68,5.18-11.99,6.94Z"/><path class="cls-45" d="m25.1,163.08c1.41,7.15,3.19,14.25,3.01,21.62-.02,1.03-.26,1.93-1.14,2.57-7.88-3.44-8.8-10.77-9.75-17.92-.41-3.06,0-6.22.02-9.34,2.62,1.02,5.24,2.04,7.86,3.06Z"/><path class="cls-72" d="m113.07,354.1c5.03,0,10.06,0,15.09.01-5.03,1.57-10.06,1.56-15.09-.01Z"/><path class="cls-37" d="m244.06,150.07c.04-.99.09-1.98.13-2.97,1.43,3.36,1.45,6.71,0,10.07-.04-2.37-.08-4.73-.12-7.1Z"/><path class="cls-4" d="m207.07,102.13c-1.84-2.15-.64-4.69-.92-7.05,1.79,2.16.63,4.7.92,7.05Z"/><path class="cls-19" d="m140.14,7.09c-2.35-.26-4.89.89-7.04-.91,2.35.26,4.89-.86,7.04.91Z"/><path class="cls-61" d="m164.08,359.15c1.68-.02,3.36-.03,5.04-.05-1.67,1.44-3.35,1.41-5.04.05Z"/><path class="cls-56" d="m204.15,277.11c.11-1.72-.65-3.59.89-5.05-.11,1.72.65,3.59-.89,5.05Z"/><path class="cls-18" d="m193.22,243.15c-1.24,15.43-2.92,30.97-8.36,45.4-4.9,12.99-14.43,22.99-27.07,29.54-8.5,4.41-16.93,8.99-26.66,10.17-1.66.5-3.34.33-5.02.14-4.95-1.54-9.97-.83-14.99-.54-7.99.47-14.92-3.18-21.79-6.26-13.69-6.14-22.45-17.15-28.17-30.85-6.36-15.24-9.08-31.44-12.97-47.34-.32-1.3.41-2.2.81-3.24-.77-1.85-.22-3.8-.38-5.69-.15-2.14.34-4.31-.32-6.42-.12-1.65-.24-3.3-.36-4.95-.51-4.68-.56-9.36.03-14.04.06-.32.17-.63.31-.93,5.87-1.29,10.76,1.09,15.48,4.12,2.45,5.47,2.58,11.31,2.77,17.15-.07,5.35-.02,10.71-.02,16.06-.1,3.89-1.07,7.68-1.31,11.54-.66,2.34-1.19,4.7-.5,7.14.16.44.29.89.43,1.34,3.44,9.41,9.94,17.04,14.94,25.54.84,1.43,2.39,2.24,4.07,2.61,1.5.19,3.02.26,4.37,1.03,2.59,2.55,6.12,2.39,9.26,2.73,5.41.59,10.7,1.71,16.03,2.67,1.75.62,3.57.68,5.41.64,4.97.35,9.75,1.88,14.72,2.27,4.69.37,6.12-.96,5.25-5.58-.67-3.59-2.29-6.9-3.52-10.33-3.6-10.1-8.48-19.88-7.91-31.05.09-1.82.06-3.64.47-5.44,1.04-5.07.23-10.19.53-15.28.56-5.22,4.08-4.35,7.35-3.38,10.79,3.19,21.64,6.03,32.87,7.14,4.4,1.01,8.81.98,13.22,0,3.66-.08,7.29-2.33,11-.2.59,1.42.57,2.84.03,4.27Z"/><path class="cls-45" d="m43.09,194.15c-1.36-8.37-3.82-16.57-3.93-25.13,5.08-.98,9.17,1.86,13.56,3.53.15.2.3.41.46.61.16,6.79,2.86,13.15,3.44,19.87.11,1.31.34,2.6.51,3.9-2.89,2.28-5.42.86-7.92-.79-1.59-2.03-4.49-.06-6.11-1.99Z"/><path class="cls-55" d="m49.2,196.15c2.74-.77,5.15,1.8,7.92.79,2.78.05,5.34.4,5.17,4.14.51,2.02.42,4.04.05,6.07-.7,1.58,1.21,2.5.98,3.96.17.44.06.79-.35,1.03-4.9-1.33-9.79-2.66-14.69-3.98-1.06-4.1,1.17-7.96.91-12.01Z"/><path class="cls-68" d="m111.13,327.87c5.01-1.27,10.01-1.36,15.01.07-.58.77-1.29.65-2.04.33-4.32-.13-8.64-.26-12.96-.4Z"/><path class="cls-26" d="m47.99,209.08c0,4.68-.02,9.36-.03,14.04-1.4-4.68-1.31-9.36.03-14.04Z"/><path class="cls-53" d="m193.07,216.83c2.12,4.66.7,9.53.9,14.31-.67.22-1.17.02-1.51-.6-1.01-4.48-1.75-8.96.59-13.29l.02-.42Z"/><path class="cls-1" d="m193.23,231.05c.25.02.49.05.73.08-.14,4.01,1.07,8.11-.75,12.01-.07-1.33-.14-2.66-.21-3.99-1.71-2.75-2.03-5.46.23-8.1Z"/><path class="cls-62" d="m124.09,328.26c.68-.11,1.36-.22,2.04-.33,1.67.11,3.33.22,5,.33-2.35,1.3-4.69,1.25-7.04,0Z"/><path class="cls-63" d="m49.01,234.17c0,2,0,4.01,0,6.01-1.59-1.88-.78-4.05-.73-6.13.31-.37.56-.36.72.12Z"/><path class="cls-9" d="m49.01,234.17c-.24-.05-.48-.09-.72-.12,0-1.99.02-3.98.02-5.97,1.45,1.89.69,4.04.7,6.09Z"/><path class="cls-55" d="m193.23,231.05c-.08,2.7-.15,5.4-.23,8.1-3.63.33-7.26.66-10.9.99-4.34.7-8.67.69-13.01,0-12.23-.2-23.68-4.21-35.28-7.39-2.51-.68-3.88-.72-3.75,2.32-1.36,5.29.38,10.75-.92,16.04-1.43,12.9,3.54,24.36,7.92,36,1.6,4.25,3.89,8.28,3.78,13.14-.09,4.21-1.88,5.14-5.63,4.44-5.34-1-10.73-1.77-16.1-2.64-1.52-1.15-3.5.16-5.03-.93-7.62-1.05-15.24-2.05-22.85-3.19-1.44-.22-2.89-.86-3.19-2.65,2.1-2.3,4.83-1.32,7.35-1.44.55.03,1.1.13,1.64.26,2.55.95,5.21.6,7.84.65,6.71.89,13.47,1.53,20.04,3.32,2.25.61,4.74,1.23,6.45-.92,1.72-2.16-.23-4.05-1.12-5.89-2.02-4.16-4.3-8.21-5.52-12.72-1.12-3.66-1.55-7.66-3.53-10.89-5.51-8.98-3.88-18.15-1.51-27.45.16-.46.35-.91.55-1.35,1.01-2,.61-4.04.09-6.07-.27-1.54.23-2.93.86-4.29.67-1.68.86-3.5,1.43-5.21.37-3.01-.67-6.12.61-9.06,8.3,3.72,17,6.85,25.78,8.42,8.44,1.51,17.38,1,26.09-.88,6.05-1.3,11.64-4.36,17.96-4.5.06,4.6.12,9.2.19,13.81Z"/><path class="cls-45" d="m127.19,180.18c-.71,6.56-1.4,13.12-2.14,19.68-.07.61-.33,1.36-.76,1.73-3.05,2.61-13.26-.3-14.52-4.21-1.36-4.24-2.49-8.56-3.66-12.87-.62-2.29-1.93-4.21-4.31-4.22-5.03-.02-9.7-2.13-14.68-2.18-1.44-.8-1.98-2.22-2.34-3.67-2.53-10.49-5.27-20.95-5.09-31.88.09-5.51,1.65-10.44,5.12-14.75,1.58-1.01,3.3-.98,5.06-.69,3.12,1.28,6.66-.08,9.74,1.5,1.83,3.64-.96,6.57-1.51,9.86-1.02,3.31-.95,6.61.13,9.89,2.21,8.35,3.73,16.85,6.07,25.18,1.11,3.96,3.05,5.27,7.02,5.26,5.1-.01,10.29-.93,15.31.77.19.2.37.41.56.62Z"/><path class="cls-45" d="m122.21,229.1c-.91,1.19-1.44,2.47-.87,3.99.33,2.02.58,4.03-.16,6.01l-.2-.08c-.82.81-1.85.77-2.78.41-11.48-4.4-23.76-4.01-35.66-5.93-5.23-.84-10.48-1.51-15.68-2.55-.87-.36-1.3-1.11-1.65-1.91-.07-5.72-1.19-11.31-2.24-16.9.12-.34.23-.69.35-1.03,8.7-.18,17.28-1.29,26.12-.25,12.23,1.45,23.01,5.36,32.39,13.26.22.14.43.28.65.42.04,1.53.42,3.08-.29,4.56Z"/><path class="cls-45" d="m145.03,178.18c-5.95.67-11.9,1.34-17.85,2,0,0-.11-.12-.11-.12-.57-.72-.77-1.55-.68-2.45.52-7.93.66-15.86-.1-23.78-.43-6.7-5.13-11.68-7.12-17.75-.79-2.41-2.76-4.66-.94-7.4,1.24-.85,2.66-.87,4.08-.92,2.86-.02,5.72,0,8.59-.02,2.25.11,4.55-.24,6.71.7,4.86,6.48,8.72,13.47,10.8,21.36.15,3.68.02,7.36.12,11.04-.86,5.61-.17,11.49-2.8,16.81-.23.18-.46.35-.69.53Z"/><path class="cls-2" d="m85.19,128.3c-7.48,13.12-3.11,26.43-.57,39.68.65,3.41,1.66,6.75,2.5,10.12,0,0,0,0,0,0-7.29,2.38-14.24,1.03-21.05-1.92-.34-.35-.69-.69-1.03-1.04-2.12-4.07-1.85-8.59-2.38-12.95.17-3.44.03-6.88.1-10.32,1.84-9.34,6.15-17.7,10.45-26.07,4.22-.25,8.36-.17,11.97,2.5Z"/><path class="cls-45" d="m187.24,169.02c-5.52,2.11-11.4,2.75-17.1,4.13-.19-.2-.38-.39-.58-.59-.8-1.56-.62-3.18-.3-4.82.81-4.7.74-9.41.04-14.12-.51-7.93-3.3-14.78-9.19-20.35-1.73-1.64-3.59-3.56-3.21-6.42,3.03-3.14,7.29-2.79,11.03-3.93,1.61-.14,3.22-.16,4.83.09.53.09,1.04.27,1.52.51,6.87,6.97,13.77,13.93,14.18,24.63.07,5.24-.02,10.47.08,15.71.04,1.84-.02,3.65-1.3,5.15Z"/><path class="cls-2" d="m187.14,147.09c-.64-6.35-3.37-11.67-7.79-16.26-1.94-2.02-3.52-4.39-5.26-6.6,1.12-1.56,3-1.21,4.51-1.81,1.38-.29,2.76-.82,4.13.02,2.05,1.02,4.2.64,6.34.5,7.93,6.24,13.9,13.71,15.1,24.16.68,4.01.68,8.01,0,12.02-.05,1.64-.1,3.27-.15,4.91,0,0,.02,0,.02,0-4.8,3.3-10.14,4.92-15.95,5.02-.29-.02-.57-.03-.86-.03-.03-1.63-.06-3.27-.09-4.9.77-5.68.78-11.36,0-17.03Z"/><path class="cls-45" d="m73.09,126.37c-1.21,5.63-3.78,10.75-6.09,15.96-1.27,2.85-2.69,5.61-2.93,8.78-.75,3.66-.72,7.33-.02,11,.04,4.37,1.64,8.61.99,13.03-4.19.74-7.84-1.76-11.86-1.98,0,0-.15-.15-.15-.15-3.52-4.15-2.88-9.27-3.34-14.14.12-4.62,0-9.23.07-13.85,1.63-9.09,5.62-16.74,13.49-22.02,3.54.38,7.06.79,9.85,3.37Z"/><path class="cls-45" d="m170.14,173.15c-1.32,1.93-.94,4.13-1.04,6.27-.23,4.62.11,9.23-.42,13.88-.45,4.03-2.57,5.17-5.91,5.71-5.52.9-11.02,1.94-16.54,2.89-2.4.41-3.99.63-3.36-3.1,1.15-6.8,1.49-13.74,2.16-20.61,0,0,.12-.12.12-.12,8.06-2.77,16.16-5.28,24.83-5.07l.16.16Z"/><path class="cls-45" d="m66.07,176.18c7.03.52,13.96,2.08,21.05,1.92-.75,5.27,1.8,9.99,2.55,15.01.29,1.92.96,3.98-1.9,3.9-5.26-.14-10.39,1.97-15.72.76-.98-.22-2.21-.04-2.48-1.08-1.76-6.73-4.86-13.25-3.5-20.52Z"/><path class="cls-45" d="m188.1,169.06c5.32-1.67,10.63-3.35,15.95-5.02-.38,6.6-1.2,13.17-1.03,19.81.1,3.89-1.96,6.42-6.05,7.16-2.59.47-5.15,1.18-7.65,2.03-3.82,1.3-4.69.64-4.12-3.44.96-6.85,1.93-13.7,2.9-20.54Z"/><path class="cls-20" d="m123.22,214.2c-.07,3.26-.14,6.52-.21,9.79-.18.5-.43.56-.74.1,0,0-.42.03-.42.03.97-3.23-.92-6.87,1.38-9.92Z"/><path class="cls-5" d="m62.35,207.14c-.02-2.02-.04-4.05-.05-6.07,1.13,2.01,1.48,4.03.05,6.07Z"/><path class="cls-18" d="m73.09,126.37c-3.32-.8-6.63-1.59-9.95-2.39-3.48-.13-7.05.2-10.2-1.84-.64-.49-1.09-1.08-1.03-1.95-1.19-5.04-2.39-10.07-3.58-15.11.47-6.65.53-13.3-.03-19.95.83-10.54,5.1-20.03,9.09-29.6,4.11-9.85,10.68-17.89,18.68-24.82,8.01-6.94,21.48-2.86,24.9,7.49,1.64,2.05-.38,4.76,1.21,6.82l-.08.12c4.68.9,9.37.68,14.06.09,2.14-.04,4.33.18,6.42-.16,3.88-.62,7.05-2,7.58-6.79.73-6.61,4.53-11.06,9.77-12.26,2.76-.6,5.51-.65,8.26.04,6.22-.14,11.13,3.35,15.21,7.05,14.27,12.92,25.56,28.22,29.12,47.48,1.79,9.72,3.45,19.96-1.22,29.99-2.19,4.69-5.73,7.91-8.58,11.86-1.19.29-2.37.57-3.56.85-1.84.6-3.74.18-5.61.3-1.82.16-3.69-.38-5.48.37-3.51,1.48-7.56,1.22-10.88,3.32-3.43,2.12-7.29,2.13-11.13,2.27-2.64-.26-5.35.3-7.91-.74-2.34-.47-4.72-.12-7.07-.23-2.98,0-5.95,0-8.93,0-2.14-.15-4.22.1-6.26.79-5.24-.06-10.51.74-15.71-.55-3.35-.73-6.79.3-10.13-.59-1.63.02-3.26.03-4.89.05-4.03-.64-8.06-1.29-12.09-1.93Z"/><path class="cls-45" d="m51.92,120.2c.4.35.8.7,1.2,1.06,1.4,2.46-.74,3.63-1.97,4.96-3.03,3.26-6.2,6.39-9.42,9.46-2.12,2.02-3.52,4.32-3.87,7.24-.64,4-.68,7.97.39,11.92.15,4.14,1.44,8.38-1.1,12.27-4.02-1.34-8.03-2.67-12.05-4.01.03-6.32.06-12.65.09-18.97,1.18-2.24-.25-4.81.88-7.06-.55-4.7,1.91-7.89,5.38-10.49,3.6-2.69,6.82-5.74,9.51-9.34,3.45,1.72,7.25,2.17,10.96,2.96Z"/><path class="cls-2" d="m203.08,116.08c2.24,3.92,6.18,5.91,9.67,8.37,9.76,6.87,13.52,16.76,14.34,28.12.19,2.67-6.76,7.31-9.06,6.07-1.78-.96-.66-2.99-1-4.51-1.12-2.25.32-4.82-.88-7.05-.14-11.37-3.87-20.87-14.08-27-.81-.49-1.42-1.32-2.12-1.99,1.04-.67,2.09-1.33,3.14-2Z"/><path class="cls-57" d="m48.31,85.14c1.32,6.65,1.29,13.3.03,19.95,0-6.65-.02-13.3-.03-19.95Z"/><path class="cls-31" d="m116.16,45.23c-4.7,1.51-9.38,1.51-14.06-.09,4.69.03,9.37.06,14.06.09Z"/><path class="cls-38" d="m148.21,26.07c-2.75-.01-5.51-.03-8.26-.04,2.76-1.42,5.52-1.42,8.26.04Z"/><path class="cls-13" d="m102.19,45.02c-2.3-1.94-.48-4.6-1.21-6.82,2.2,1.95.63,4.58,1.21,6.82Z"/><path class="cls-28" d="m204.17,159.12c0-4.01,0-8.01,0-12.02,1.49,4.01,1.48,8.01,0,12.02Z"/><path class="cls-41" d="m216.15,147.07c1.75,2.17.68,4.69.88,7.05-1.75-2.17-.64-4.7-.88-7.05Z"/><path class="cls-66" d="m26.06,137.06c-.23,2.36.88,4.89-.88,7.06.2-2.36-.85-4.89.88-7.06Z"/><path class="cls-2" d="m37.15,167.1c-.03-4.31-.06-8.63-.09-12.94-.68-4.03-.71-8.06.01-12.08-.41-2.78,1.26-4.47,2.96-6.37,4.32-4.86,10.06-8.43,13.1-14.45,3.34.91,6.68,1.82,10.02,2.73-.48.12-1.22.07-1.4.37-3.96,6.35-9.7,11.75-10.68,19.71-.74,5.03-.75,10.05,0,15.08-.03,4.72,1.19,9.26,1.96,13.87-4.89-.42-9.17-2.93-13.87-4-.67-.64-1.34-1.28-2.01-1.92Z"/><path class="cls-2" d="m66.24,229.99c18.24,3.04,37.08,2.48,54.74,9.03-.94,5.47-1.87,10.93-2.82,16.4-.25,1.42.45,2.56.98,3.75,2.73,6.16,5.3,12.38,6.81,18.99-4.98,2.29-9.7-.61-14.57-.78-14.58-.52-28.33-5-42.11-9.28-1.92-.59-3.78-1.29-5.01-3.03l-.16.19-.22-.12c-.32-2.36-.48-4.72.1-7.07.44-3.98.88-7.95,1.32-11.93,1.15-5.33-.62-10.84.95-16.15Z"/><path class="cls-45" d="m64.25,265.07c19.9,7.48,40.74,10.51,61.68,13.09,1.54,5.05,3.92,9.72,6.46,14.31.95,1.72,2.46,3.03.87,5.3-1.72,2.46-4.14,2.76-6.47,2.2-3.48-.84-6.87-1.91-10.48-2.26-3.73-.36-7.42-1.1-11.13-1.68-2.6-1.19-5.47.2-8.09-.82-.33-.08-.65-.17-.98-.25-4.33-.68-8.66-.51-13-.1-1.64-.68-3.07-1.64-4.02-3.2-4.85-7.9-9.73-15.78-14.5-23.73-.45-.75-.24-1.9-.34-2.86Z"/><path class="cls-34" d="m66.24,229.99c-.73,5.36,1.02,10.86-.95,16.15-.02-5.7-.05-11.4-.07-17.1.34.32.68.64,1.02.95Z"/><path class="cls-60" d="m129.16,251.11c.41-5.34-1.09-10.79.92-16.04-.42,5.34,1.08,10.79-.92,16.04Z"/><path class="cls-6" d="m83.11,294.86c4.34-1.25,8.68-1.33,13,.1-2.68.11-5.37.21-8.05.32-1.65-.14-3.3-.27-4.95-.41Z"/><path class="cls-36" d="m169.1,240.15c4.34,0,8.67,0,13.01,0-4.34,1.55-8.67,1.54-13.01,0Z"/><path class="cls-59" d="m63.97,258.07c-.03,2.36-.07,4.71-.1,7.07-1.21-2.37-1.2-4.73.1-7.07Z"/><path class="cls-32" d="m114.1,301.12c1.71.16,3.59-.65,5.03.93-1.71-.16-3.59.65-5.03-.93Z"/><path class="cls-16" d="m97.09,295.21c2.73-.01,5.54-.91,8.09.82-2.71-.18-5.53.81-8.09-.82Z"/><path class="cls-39" d="m121.17,239.1c.05-2,.11-4.01.16-6.01,1.27,2.04,1.2,4.05-.16,6.01Z"/><path class="cls-22" d="m122.27,224.09c.25-.02.5-.05.74-.1,0,1.74.66,3.59-.8,5.11.02-1.67.04-3.33.06-5Z"/><path class="cls-2" d="m118.21,129.17c1.33,5.34,3.57,10.3,6.34,15.02,1.61,2.75,3.03,5.55,2.62,8.89.71,8.35.72,16.7,0,25.05-.03.64-.06,1.29-.09,1.93-6.28.03-12.56-.01-18.84.12-2.46.05-3.71-.5-4.45-3.25-2.56-9.54-5.09-19.07-6.72-28.82-.7-3.34-.71-6.67,0-10.01.79-2.96,1.29-6.01,2.89-8.7.29-.56.74-.82,1.37-.76,4.82-.02,9.64,0,14.46,0,.84.04,1.73-.16,2.42.54Z"/><path class="cls-54" d="m90.07,128.25c3.31.02,6.62.04,9.93.06.36.07.51.2.44.38-.08.21-.17.31-.27.31,0,0-.21.41-.21.41-3.24-.84-6.75.6-9.89-1.15Z"/><path class="cls-33" d="m97.07,138.11c0,3.34,0,6.67,0,10.01-1.48-3.34-1.49-6.67,0-10.01Z"/><path class="cls-2" d="m146.17,128.2c3.75.56,7.27-1.74,11.04-.9,2.16,3.34,4.75,6.31,7.44,9.26,4.22,4.63,5.5,10.43,5.53,16.55.67,5,.67,10,0,15.01-.07,1.63-.13,3.25-.2,4.88-8.19,2.1-16.33,4.47-24.83,5.07.67-5.64,1.35-11.28,2.02-16.92.72-4.02.76-8.04-.02-12.06-1.98-7.07-6.86-12.8-9.13-19.74.16-.2.32-.41.48-.61,2.53-.45,5.16.45,7.66-.53Z"/><path class="cls-71" d="m127.16,178.13c0-8.35,0-16.7,0-25.05,2.06,6.39.53,12.95.9,19.42.11,1.87.68,3.97-.91,5.63Z"/><path class="cls-30" d="m147.16,149.08c1.52,4.02,1.49,8.04.02,12.06,0-4.02-.01-8.04-.02-12.06Z"/><path class="cls-3" d="m122.05,128.27c3.03,0,6.07-.01,9.1-.02.31.2.39.37.26.51-.11.12-.23.19-.36.19-2.96,0-5.93,0-8.89,0-.04-.23-.08-.45-.12-.68Z"/><path class="cls-35" d="m131.05,128.94c.03-.23.06-.46.09-.69,2.28.02,4.56.05,6.84.07.06.22.13.43.19.65,0,0-.15.38-.15.38-2.33-.13-4.65-.27-6.98-.4Z"/><path class="cls-29" d="m122.05,128.27c.04.23.08.45.12.68-1.32.07-2.64.15-3.96.22-.74-.07-1.49-.13-2.23-.2-.21-.24-.25-.43-.12-.58.11-.12.22-.18.33-.18,1.95.01,3.91.03,5.86.04Z"/><path class="cls-65" d="m64.05,162.11c-1.5-3.67-1.53-7.33.02-11,0,3.67-.01,7.33-.02,11Z"/><path class="cls-10" d="m187.14,147.09c1.57,5.68,1.53,11.35,0,17.03,0-5.68,0-11.35,0-17.03Z"/><path class="cls-49" d="m170.18,168.11c0-5,0-10,0-15.01,1.52,5,1.52,10,0,15.01Z"/><path class="cls-48" d="m173.16,123.16c2.01.05,4.01.09,6.02.14-1.5,1.35-3.41.56-5.09.94-.35-.11-.7-.23-1.04-.34-.26-.21-.33-.39-.21-.53.11-.13.22-.2.32-.2Z"/><path class="cls-27" d="m173.16,123.16c-.06.24-.1.49-.11.74-1.65.03-3.3.05-4.95.08,1.51-1.37,3.35-.73,5.06-.81Z"/><path class="cls-15" d="m51.07,159.15c-1.56-5.03-1.55-10.05,0-15.08,0,5.03,0,10.05,0,15.08Z"/><path class="cls-7" d="m131.16,76.96c-2.88-6.07-4.58-12.23-2.51-19.03,2.86-9.41,10.92-14.92,19.01-14.55,8.41.39,16.23,8.68,17.73,16.29,2.47,12.54-5.84,22.85-14.26,24.96-6.63,1.66-11.95-1.08-17.15-4.52-.76-.38-1.57-.7-2.13-1.39-.43-.51-.73-1.07-.69-1.76Z"/><path class="cls-7" d="m68.13,70.14c-1.04-10.78,5.97-19.95,16.62-21.69,3.37-.55,6.59.61,9.47,2.28,7.22,4.17,10.95,10.73,10.74,18.88-.22,8.25-3.92,15.05-11.65,18.85-10.23,5.02-24-3.17-25.16-14.84-.11-1.15-.02-2.32-.02-3.48Z"/><path class="cls-67" d="m131.16,76.96c.32.38.65.76.97,1.14,1.09,2.66.16,5.42.46,8.12-.78,3.75-4.04,4.56-6.94,5.72-2.45.98-5.26,1.06-7.28,3.04-2.45,2.87-2.88,6.44-3.47,9.95-.24.43-.57.78-.98,1.06-1.87,1.18.61,4.6-2.15,4.89-2.48.27-2.42-2.81-3.4-4.27-3.6-5.38-4.35-12.04-7.14-17.85-.34-.71.09-1.97.47-2.84,4.54-10.44,14.69-14.62,25.25-10.49,1.39.54,2.81,1.01,4.21,1.52Z"/><path class="cls-43" d="m114.15,105.07c-.59-4.05,1.06-7.48,3-10.83,1.47-.5,2.92-.22,4.37.11,1.81.75,4.1.07,5.58,1.84-1.19,4.28-4.08,7.07-7.92,9.03-1.69.52-3.38.76-5.03-.15Z"/><path class="cls-52" d="m121.05,95.2c-1.3-.32-2.6-.64-3.9-.96,1.28-2.08,3.62-2.35,5.59-2.76,3.51-.72,6.48-2.29,9.26-4.38.99,1.32.63,2.72.27,4.12-.54,2.19-1.7,3.75-4.11,4.04-2.38.5-4.75.61-7.12-.06Z"/><path class="cls-46" d="m116.19,128.22c-.07.25-.15.5-.21.75-5.27,0-10.54.01-15.81.02-.07-.22-.13-.45-.17-.69,5.4-.03,10.79-.06,16.19-.09Z"/><path class="cls-69" d="m132.28,91.22c-.09-1.37-.18-2.75-.27-4.12.04-3,.08-6,.13-9,.98.33,1.5,1.1,1.84,2.01-2.22,3.45.46,7.65-1.7,11.11Z"/><path class="cls-8" d="m138.18,128.97c-.08-.21-.15-.43-.19-.65,2.73-.04,5.46-.08,8.18-.12-2.52,1.75-5.31.7-8,.77Z"/><path class="cls-11" d="m121.05,95.2c2.37.02,4.74.04,7.12.06-.36.31-.71.62-1.06.93-2.02-.33-4.24.58-6.05-.99Z"/><path class="cls-14" d="m114.15,105.07c1.68.05,3.35.1,5.03.15-1.58,1.44-3.45.92-5.26.78.06-.31.14-.62.23-.93Z"/><path class="cls-12" d="m37.07,142.07c0,4.03,0,8.06-.01,12.08-1.52-4.03-1.48-8.06.01-12.08Z"/><path d="m143.91,75.13c-4.28-.03-7.9-3.83-7.8-8.18.16-6.98,3.15-10.83,8.38-10.81,4.57.02,9.67,5.36,9.63,10.09-.05,5.21-4.33,8.95-10.21,8.91Z"/><path d="m77.99,67.09c2.21-6.07,4.35-7.65,9.44-6.95,3.99.55,8.58,5.49,8.68,9.36.12,4.65-3.67,8.87-9.24,10.31-3.05.78-6.71-1.96-8.86-6.64-.61-2.02-.58-4.05-.02-6.07Z"/><path class="cls-25" d="m77.99,67.09c0,2.02.01,4.05.02,6.07-1.35-2.02-1.46-4.04-.02-6.07Z"/></g></g></svg>